<mxfile host="Electron" agent="Mozilla/5.0 (Windows NT 10.0; Win64; x64) AppleWebKit/537.36 (KHTML, like Gecko) draw.io/27.0.9 Chrome/134.0.6998.205 Electron/35.4.0 Safari/537.36" version="27.0.9">
  <diagram name="PÃ¡gina-1" id="IKVGy_DopQR0RWY-qbrC">
    <mxGraphModel dx="-39" dy="2889" grid="1" gridSize="10" guides="1" tooltips="1" connect="1" arrows="1" fold="1" page="1" pageScale="1" pageWidth="827" pageHeight="1169" math="0" shadow="0">
      <root>
        <mxCell id="0" />
        <mxCell id="1" parent="0" />
        <mxCell id="ZbQH3meJTSKO4DH48z0q-1" value="" style="shape=image;verticalLabelPosition=bottom;labelBackgroundColor=default;verticalAlign=top;aspect=fixed;imageAspect=0;image=data:image/png,iVBORw0KGgoAAAANSUhEUgAAAtUAAAH4CAYAAACFaREeAAAAAXNSR0IArs4c6QAAAARnQU1BAACxjwv8YQUAAAAJcEhZcwAADsMAAA7DAcdvqGQAAP+lSURBVHhe7J13WBTX+se/W+hFsKBIFERco7GAYsMOKtfYMEbxWjGWcDVYoiaWxIIaruYaE02ixthiQfld47WCUSOgIiAK0gSDSAm9LEhd2Jn398dSly2gJjHJ+TyPzyMzZ05523l35pwZARERGAwGg8FgMBgMxgsjVD7AYDAYDAaDwWAwWgZLqhkMBoPBYDAYjJeEJdV/MspSI/EovVL58G9IGVIjH6HZTVZmIOZxDnjl42rhUZIcg6Si5l1RmRGDxznNK/tnhS9JRkxSUQtkyGAwGAwG44+maVItz8D9/x3Ah1NHYNjQoRg6fDIWrl2HdR+txgcebnAeNgwjZn+LeHlN+fI72OzUHq2s3XAggVOq7BXCp+PMgu4wb+OAVf6FymeV4JF+ZgG6m7eBwyp/aCutGh7Zt/6DecPs0MZIH62sh2LRkRiUN/u8dsoTA7D/k7kYN2wohrn8Ex9/fQExUh7gUhF85DMsmTQcw4aNxrQVX+Ds/RyAT8F384bAafFxZP9OGRef8h3mDXHC4uPZmpM8vgiRJz+Ei50dRm2/gyrl8yrg0n/Gbo+B6PKWO75LqDUo1fBFkTj5oQvs7EZh+53m1P4nhEvHz7s9MLDLW3D/LgGaJcJgMBgMBuN1omlSLbbCALcFmNwpA6EhIQi5L8eQDf/Gv3ftxtfHzuD7lW9CGp+GktoMqzIDiUn5KMlKxNOC3zKpluKXuHQUS5MR/+w5NLfEQ/pLHNKLpUiOf4bnmgurpOTOl9gRoIe3V3wCr3FvQJYegiPL3sfex4rKtJ1vDobd/4F/fTIDbySF4VGrCfjkgynobS4ERNYY8d4aLOiRj7D7PIauWgn3Ae0BoQ2W/HAPIYfmo0NTzSnBI+9BBJ42vzsqEdoswQ/3QnBofgcVxtIAoRkcZq3CFAmhuTtfRZ2c4bV4JNo0Y6+s0MwBs1ZNgaQZZf+0iDrB2WsxRrZpvgwZDAaDwWC8HqjJkwTQ0RFD0OiYDDnZ5bB55zN8PN60/lxrdxx58AB3o4LgM1S30RWvFHEfbLwWiZCwSPx3qQ1EyucbIUafjdcQGRKGyP8uhY3mwirgUNLBDT47vTBzuge2HNuBKWZCkLwYRc+5ZpxvAQIjGBgIoGtoBJ1GJ4QwNjKCQGAAI6N6NRlZO6BvJ/1GJVVSFoavNh3Dk5e+3WkEa4e+aE6TEJrCxKix1WhDZGYG02ZeIjQ1QQur//MhMoNZcwXCYDAYDAbjtUFNUq2Cqvs4ceIhqoUWmOK1AD3EAPhiJN4JQFBsForSEvBLYcMFAiV4fPU7/HvbTnx3JR7FAIBypIRdg7+/P/wDghBXwKEs8TK+9vkGN9Jqk9FiJAYcxq6tm7F93zlEFvAAOGQ+uIZrocmQ5v+Cx2my+maKExFweBe2bt6OfeciUcADXOYDXLsWimRpPn55nIb60jwKHv0P+322wvvzIwhILFGzpEGEjna2MK75iy8tRFG1IXrO34KljrrNOF9zPC8Ux3fuxPHQPDXtvACVGYiOb7gUg0fR0zAE3Y5CWnEBMrPKwOeFYu/8OdgdnoKonwJwK7ZB+5wUyRG3ERyagFzlVRTlaYhJyANXmYlH4QkorFFJZUY04huuN5EX4EnYLdwMvI/kooY/IoQQNCsflKMwKRxBwZFIr1A+BwDlyIy5i8DgB0iteyQCQChQ+qHXlLK0GCQW8EBVDuJCQhCfq/SrQkXf+cLHCA7wr7HLO0gs5gGUIOnuNfj7B+BOYlHd5eWZMbgbGIwHqU1tpzIrFneD7iAqtbjJOVXtNjpdmITwoGBEqhYIOGkyIm4HIzQht+nSGjV6YzAYDAaD8fvRvKSaOORcOowfkxUJiomlJUyEAIStYN0uBjvfmYC3Jy7A/uhqRXkuFX4LB2LEjiw4ewzE44+HYvjyK8jlDdHBPBafT5uAtyfOxRcnP8fk4W5YvmEVVh+KBvgM/LjECUO3pGHYO+YIXD8DTsNW4XqxCO07l+LM4kl4++3JWH+xADwAPuNHLHEaii1pw/COeSDWz3DCsFXXUdq+M0rPLMakt9/G5PUXUcADgBxPjrqj/5CVCLXzwILuIfigX2+8ezCuQdKtTBVyH53DlgXb8bPMCK3N9VpwXoZbm92xcN06LJz+KW6qb6R58FJE+n6EcXZdMWJrMBT7BqsQvdcDXqfTIa+Mx5HZg/Hu98nIzyyAgbkxeF6GsqIiFJcr9FYU+iU83NfBLyYNiRdXY3hPV3jfygPP5yL0yAqMtpNg7JYD2PnuMDgNGQiPA7fg+9E42HUdga3Biha55JOYP3gavnqUj+wQH7hKhmHrvRasJC+PwXdzXbHocBQyki5hg9dBPGmQBPJZAdi2eDUOBkXj/tnVGCYZgY03FPrWBJ8XjuMrR8NOMh4+voexxHUCZs2dAPvebjiYpGhAXd+FRm2gl/AtFk6agh0PzdDRSAjAEO2Nw7FndwTErQ0BPgsB2xZj9cEgRN8/i9XDJBix8UaNbRXj3i43TNocimq9YlxZNhg9BozGuAnTsP1Wudp2FZQj5ru5cF10GFEZSbi0wQsHGwoERQj90gPu6/wQk5aIi6uHo6erN27l8YAavS04UdDgegaDwWAwGL8LpBIZ3flQQmKAILajcXPHUldDMVkt9qdK5aJlvvSusYAgsiWvW5VExFGu7wyyEOrSyD0pxFEFXVloSSLdgbQ9Vk5UcZ7mthESBAZk/c4+uv/wFK2c6k4+t5+T9Px8shLp0IBtcSSXP6adQw1IoDuQdsTLiaqjaUt/HQJ0yXlfBnEkpfPzrUikM4C2xclJ/ngnDTUQkO7AHRQvr6boLf1JByBd532UwRFxWcdpahshCVrNoLOlpOhHWyEJWo2ng2mc8qgUyFPp5t6V9LbEmIQAQdiKxuxLauZ5OaWcnEuSVq1IMucEPZPXX9aIypu01EZM+t3fpsXvv0/v1/1bQjMHWZBIz5UO5NaU5bLoGxc9Mp1xlsqIiGQhtKaXPX0cWqE4nX2Ktu+Lo2riKPNrF9K3WkRXaxUmvUrvS3rQyiBFWaIyurO6B+lazqQz2RwRl0p7RumSQe8V9FOulOJuBNCjAo64rG/IRc+UZpwtIyI5Pf5sEBn230ox1URUHU7re+mT/aZIqiYioud0dJI+mc/6L9W20pgyurO2D9kuuEDSmiOllxeSlc6btPaejIjLId/Zo2ldqExxkkulPSN1ScdhE0VWE9HzozRJ35xm/Vd17fKnn9NQXVNyXHGBkmVEVPRfmm2hR8M+f0pybX2vjqFtAwzIasEFKiIiIo4yjy6jtf4lRMRRju9sGr0ulBQ94yh1z0jS1XGgTZHVVB2zjQYYO9K2OIWSqx9+Qn30utLyQJlWmZXdWUt9bBfQhXqB0EIrHXpz7T2SEZH06vsk6bGS6tV2h1b30CXLmWcom6uRkQq9MRgMBoPB+H3Rfqda1A3Tv7yKnw9OQ0eVpZU3VVXi9qUbyOd5ZN3ahw3rNsE3ugJUHYv7Dxre0RTBfvJsODrMwp4fz2DdMBECf7yCLE4AIxNjCERvYvX5CNwN+xGre6hYFF0eiB+vZIETGMHEWADRm6txPuIuwn5cDVXFS36+gJuFPISt2qC1GIDAFKbGAtDz2/APfK5cXIGoM5y99uBK+HVsGtoKQv457ly52czzIljP/gGJRUVIPDFH67puQ8dF2HvgAA7U/fsGG8Z3avwoQWgCE+MGCyDEVpBYp+KLySMw/7NziNNxx8YPekLc8JoaCi8dwpl0O/R1qF0cbYhB7m6Q5F/Gaf8iQGgAA10hTB1dMLydGXq6uKJPayGEJiaob1IEiedxBJ/ygk16II7sPIpQKQ9ZRaXWO8kAgNIA7D+WjN6jRsOs5pB+FxtY1sqmPBDnAzLw5PJu+Pj4wGfnKVS4boH3vP4waFCNOkTGxjASmcDe1RVddAEYSdCtkxDFRYUgbX0X98RCzzEoP38Qfhk8wD2Bb1h7zHA2BlCOwPMByHhyGbt9fODjsxOnKlyxxXse+hsA8pRkpFfVL30Rd+mCTshESkqFFpmVImD/MST3HoXR9QKBTZ1ACnHp0Bmk2/VFvdoGwd1NgvzLp+FfBLV6YzAYDAaD8fvSvNlXIEbnGcsw3bY2XStHSnKWUqFaSpGbXwoeArRxWoId/96FE+FScHwZ/jfPpL6YsBXadzBscF0ZcnJKwINHXnY25ABE7XpiiL0VlBddAADKcpBTwgN8HrKz5QBEaNdzCOytVJXm8TyvEJUECHR1oSsAULs6l6pQVPBcc1LYajDW+SyAnRggVat6tZ1/ZQggaLhoWdgZC09cxwF3EwTtmIF+3Z2w4nyaijejcMhJ+xXlfBWqGrxvWmxjDSthFYqkNeNX1XWBoNE6aaG4AlF7F8PzSCb6vucJZ0ths99UwaUn4JciQCRWbXZ8SR4KKvTQw20t1q9fX/dv3crJ6K7ql4IyAqU11wIRRAKAeEUPNfddCMsZnphmcgsHD8eiLPwMnvaaDQddAHwJ8goqoNfDDWsb9Gv9upWY3F0M3UETMa59Im5eewYOgOxxAlLNXTBppGLVvdp2uXQkKASi2hG5HKT9Wg6+qqpmuQ8AiGFjbQVhVRGkz2usVpXeGAwGg8Fg/K6onMtVojsQ8+b1gw4APvMcjl7IUS5RgxHatTGCEBwSIiJqNiiqQghho7u3RujQwRRCcEgKDkRK08ywMUYd0MFUCHBJCA5MUZFINkSI1p3fQCshQDwPRY5VCVm14u5vx05tGguCL0TYD1/g6N36j5joSCToLBSj16BB2s/X1VOEpPBwPC3WmLK/OFw6Yn/tBI+9N5EQdwkb+qRhv9cO3GiyfluEjt26wpSLQ0SDpwV8lQxVwjfQ18GymYZQiqurpmBDwXR8vW0W+lvUZrrNS6sFrduitbgSsQ+ilNaxE3geEJp2hKVhAvwO34S07hyHZP8riH7pt5g0o+/G4+DpIUHc0S/g7VuMkTNtFW+ZEZqio6UhEvwO42Z9x8Al++NKtBzCdm7Ys98Deje/xLY9u/HZeQN85H8Ci2xEmtsVtEbb1mJUxj5AlJLOiOcBUUd062oKLi4C9WrjUSWrgvCNvnCwbJ7WGAwGg8Fg/PaonZV5viYRJDmqq3gAemjfoTWEpTE4sNQbj8yta0oqv5HBACMmj0VbIY+iK7vhE1gAHjwyr+7F8cgqALVJLQ95zb5GBYZwdndDJxEgC/sW237MAAeg/PEV+MdV1SVeAEA8Bxg6w92tE0SQIezbbfgxgwNQjsdX/BFXVZOUKAqDA2A0dj6mdxGDCnOQUw2gMh8FxTxEb7jhn2OMGnYEfJ4fNr2/BgvHDsf0z68juSATd/afQZTVLGzw7KX1vAI57m91Rp/Bg9HHxRsRapNCGaqqCfLqqiZ3y2VVMoDkkMtrz/DgeKofG5cOv10H8bAc0Ld5Gxs+nQ4bQz3oC4TQ19cDnmchszAPYXeioTNxOTx7S3FuzxEkVinqyr4eiPShy7F0eM3dfQLk1Uod5TnwVCN7vhhPk3NQmpaIZ6WVSA+6hHtZHMqLsxAVFguAA8fV/HBpXAsAQNhuEuZObIvkw6uw4XIaqiBD6sNY5HJSZKRmo1gwFgtmdUHKQXeMmu2N7/3O4bjPInwcYgRbMQCOAweqt00leI6DnPi6O9OKpUmK8rzWvgOAGA4Ll2B4wWmco0mY2Ka2ZiOMXTALXVIOwn3UbHh/74dzx32w6OMQGNmKAelVrN+cjqlf7sA6r1XYumsr5trXrOfQ1O79HEyaOxFtkw9j1YbLSKsCZKkPEZvLQZqRiuxiHUxc7one0nPYcyRR8dYPPhvXA9MxdPlS1KpNpd4YDAaDwWD8vigvsqbqXyn8f/tpYW99EtRsvuvzznL66OM1tHzhVBrS2YgE4tpNWERUdpZmtGq4UVGxge+//7InM5GABPrtqPvAsfTevnB6TmWU+N9F9JaOgCDQo96LTlJUw01VXC7d+HQkddARkEDHnLr2H03TN12mNE5OKdfX00hzIQEi6jhxF93N4ojLvUGfjuxAOgIB6Zh3pf6jp9Omy2lUlXKd1o80JyFAoo4TadfdLCLiqPD2DhrX2ZJGfHSUjq4ZTh06u9L2oAJqsq2rOpq+HNuBdAQgAASBHlkNW0on4sqad56IiGQUtrEv6QsEZODwKYUrdvI1oizhBh3ZMomsRSCR5Whate9/FF3IEclT6PaJXfTPN3VJIDSnQYt309nwpxR/aTON7ygisY0b7biSSCS7SxucupL9GA/6aIs3rVuyhHxuZhNHRPKko/RPiTm1kbjR7tASIiKqTrlIGyf3J4dRM2nxv96juZ5fUFAOR8QV0EPf9TTGUkQiK1fa6BtB+RwRlcbTpc3jqaNITDZuO+hKYjllnF9OAzuYkHnXEbRo/y36wcOazGwn0q572ZRweRO5dhCRyNqNdlyIVR4uERFx0nD6xmMwWZubkY3jJPpgy0Ia3GUIzfrkKN3L4ojK4umklzPZmeuRrmlnGrrkGMWWEVFFAl3e5EodRCKydttBF2KfN664KJrObXAhC5EOSWbupqtxiXT7yHJyMhOSocMiOnQnXUPfFVsTFUjpx4UTyfuRssLKKP6kFznbmZOeril1HrqEjsUq9M1lnKY51noKfxEISKijT6YW3Wik5wl6LOM0t8tJKfwbDxpsbU5mNo406YMttHBwFxoy6xM6ei+LiKop5eJGmtzfgUbNXEz/em8ueX4RRDkcqdcbg8FgMBiM3x0B0Ut+oq7yR8yxmo5Tz22x8uc47Ble+55mDsXPIvEoTQ6LHg5400LVWmfVlKVH4eHTMphLHNCrY8N116ooQ3rUQzwtM4fEoRe0FpflIP5BPHIEHfBW/x6wUPe9Gr4UadEP8UuhAGZdesO+i1njD85oOw8AvBRP7j+BsPsA2JmpfSjA+JPDZ1yE98ESvOPhAD5fiuLScpRKM/Ho7HFkLfbHvrHNt30Gg8FgMBh/Tpok1Y02wjFemJf9rcL4k8Bn4Pi7w/G/yfdx3qNuvQiAcjzYtRX3p30Gz65Nfm4xGAwGg8H4i8GS6t8IllT/TeBzcOEDZ8w7JUP/SRMwRGIBA64Y6ck5aDtlE7a+21XlKw4ZDAaDwWD8tWiSVDcfDjmhp3Hc/wlkbfvBbe4U9GZLHBh/S2TICLuMi4ExyCwXwdy6H8ZO+Qd6t2F3qBkMBoPB+LvwEkk1g8FgMBgMBoPBgKZX6jEYDAaDwWAwGIzmwZJqBoPBYDAYDAbjJWFJNYPBYDAYDAaD8ZKwpJrBYDAYDAaDwXhJWFLNYDAYDAaDwWC8JCypZjAYDAaDwWAwXhKWVDMYDAaDwWAwGC8JS6oZDAaDwWAwGIyXhCXVDAaDwWAwGAzGS8KSagaDwWAwGAwG4yVhSTWDwWAwGAwGg/GSsKSawWAwGAwGg8F4SVhSzWAwGAwGg8FgvCQsqWYwGAwGg8FgMF4SllQzGAwGg8FgMBgvCUuqGQwGg8FgMBiMl4Ql1QwGg8FgMBgMxkvCkmoGg8FgMBgMBuMlYUk1g8FgMBgMBoPxkvwpk+qy1Eg8Sq9UPsxoCCfFk5hnKFM+/gfClyQjJqkIvPKJF4EvQXJMEopeSWV/RSqREfMYOX9D+VRmxODxazjw17VfwMv605/Q1spSEfkoHX/aWeQ1jO+/N83PA8qQGvkIzSrK+BPAoyQ5BkkvFqx+c5SSah65989g1wdTMXrYCEzdGghpo/NVSA48hs8WjcfIScvwn5N3Gp39XeBT8N28IXBafBzZr6dM/2A4pP68G/P6dUGfhaeQyimf/wPg0vHzbg8M7PIW3L9LgFz5fIvgkP7zbngM7IK33L9DwstV9heER1HkSXzoYge7Udtxp0r5/F8XvigSJz90gZ3dKGx/jQb+uvZLwcv40+tga1UI2Twc3YetxOVmTwg8Ur6bhyFOi3G82de8LryG8f2PoAV5AJ/yHeYNccLi49mv5oYO4w+DS/8Zuz0Gostb7viuZcHqd0MpqRbCYsBMfPTlbsxtl4RL2+dg8Q/PUO+3urAd5YGVkzpC3m0mls8Z1ujq3wWhDZb8cA8hh+ajQ23v+Tw8iHjaoJ9/Z0Swdv4AC4abA6R87g9C1AnOXosxsg29gi6J0MnZC4tHtgE1t7K/lX0IYeYwC6umSJovn78IQjMHzFo1BZLXbOCva78UvIA/1fEa2FpVJC76V+OdHZsxsW5C0IYQNkt+wL2QQ5jf7GteF17D+P5HoCoPUIPQZgl+uBeCQ/M71CU8fN4DRDz9e8wIfyVEnZzhtXgk2vxhAUc7qs1R3BmD+ndD+9bF+N/y2dgRVtrotKiVGdqbmqi5+LfHyNoBfTvp1/1dFvYVNh178pJ3QP9KiGBkYvSH6UclIjOYmQqUj74gIpiZmaK5tf397EMIUxOjZsvnr4TQ1ARGr+HAX9d+KWiZPzXmj7U17tdn6LjaF9tHmiuf0oyRNRz6dkL9LPJn4jWM738AynmAeoxg7dAX9UXLEPbVJhx78veZEf5KiMzM8MpSid8A9X4paIOpn3+DGWYR2D5nBc5naXtwUo7MmLsIDH6A1BLlslXITbiHwMAwJEmVfx2qu45H0dMwBN2OQlpxATKzGqweq8xAdHw2ePDIC92L+XN2IzwlCj8F3EJsXk0d8gI8CbuFm4H3kVzUuM3y9GjF2kauCMkRIYhMq627CjnxIbjzKLPpWjtOiuSI2wgOTUCu8mNOvghPw4JwOyoNxQWZaNjVmgLIirqOAH9/BNxOQBEPcJkPcM3fH/7XQvGsvLZcGdJiElHAA1U5cQgJiUeukt/LC54g7NZNBN5PhtKwGiEQ1FgdyZH3OBShcdlNxqS+Lg2yB1CeGYO7gcF4kFqi9XGavDAJ4UHBiEyvUD4FtLAuyAuRFB6E4Mh0NK1NjoInYbh1MxD3k4tq7kprsA9wkCZH4HZwKBKaKlTj+OvhUfIsDsklPDhpEkKDw5CkrBRNdpgWg4Q8DpWZjxCeUFjTZ1XjUIf6ssJa/ddRjvRoxbpXrigZESGRqDf7HMSH3MGjzCYWorZ+AEBVLhLuBSIwLAlN3ToTMXcDEfwgFY3cuiwNMYkF4FGFnLgQhMTnKv3Y0dRmOdJiEpDHVSLzUTgSCpUbBSAUqE7wXsp/G6IuXmnxXVX90mAbwAvKtyVj0ehPGtpQoqmtaR4bX/QUYUG3EZVWjILMLLXrgvmSZ4hLLgHPSZEUGoywJGV7kKNI3gW926biYRNbAVCZhdi7QbgTlYriJv2vREZ0fIOlA1r09xLxEgD4gjgEBvjD398f10KfoSyv/m//gDtILObBSxNwO8Af/tfCkSarvVK1vTUnvquiLCMad4Lv4XGuDFU5yUgpae7cBLV9aYpmeWiL+XzhYwQryQYoQdLda/D3D8CdxCJFwbo8oPZC9bZfmRGN+Gwe4PMQunc+5uwOR0rUTwi4FYv6lEGdfrXbRlPUyaq5dTVXL82trxbt5ZvKgUfh42AE+Ct0EnAnUeFPJUm4e61GR3Xrm9WNGwAqkRV7F0F3opDa1CFVtNvoLAqTwhEUHAnVqYSm+bwZ88YrRH1SDUDYcQYOnl4Ph9zjWDxvL2LrHL0xfFYAti1ejYNB0bh/djWGSUZg440C8AD4vEDsmOeB/9xIRW70PkyWOMLrQpbinNrrqhC91wNep9Mhr4zHkdmD8e73KZDzUkT6foRxdl0xYmswKvkiZBYYwNyYBy8rQ1FRMcrlAJd8EvMHT8NXj/KRHeIDV8kwbL1XDr4wAidXj4Gk20hs8TuHzbNnwuO9aRjSYzBWB0TgxNKJmLrgfUwf3APDN99Drd0WhX4JD/d18ItJQ+LF1Rje0xXet/IUzlwVjb0eXjidLkdl/BHMHvwuvk9RtmohWnd+Azk/LMGUxYcRLwdErTvBInEvZk/+EH6Z1cgLP46Vo+0gGe8D38NL4DphFuZOsEdvt4NI4gCAQ/LJ+Rg87Ss8ys9GiI8rJMO24l6joKcE5eCKlxMcnFwwrLcNekz5ChGl0FKXGtkDAJ+FgG2LsfpgEKLvn8XqYRKM2HgDBU39A0A5Yr6bC9dFhxGVkYRLG7xw8EkDY25RXUB5zHeY67oIh6MykHRpA7wOPqmfRLlknJw/GNO+eoT87BD4uEowbOs9lKuxDxSF4ksPd6zzi0Fa4kWsHt4Trt63aoKrhvE3gEsPxr5FA2Hdcxb2ndqKcf0GYeyYIeghcYb33eKabqmxw9xQHFkxGnaSsdhyYCfeHeaEIQMX4ESumnEotQ1oGLNyOfAojDiJ1WMk6DZyC/zObcbsmR54b9oQ9Bi8GgERJ7B04lQseH86BvcYjs21BqWxfh55gTswz+M/uJGai+h9kyFx9MKFLF4xGQRsw+LVBxEUfR9nVw+DZMRG3MjLQfjxlRhtJ8F4H18cXuKKCbPmYoJ9b7gdTFLoUm2bPHJDj2DFaDtIxm7BgZ3vYpjTEAxccAIFjcaqmpf3XwWq41UecrT6blPU2YaCF5BvAd+isWj0J01tNANNY6uK3gsPr9NIl1ci/shsDH73ezTpIpeO4H2LMNC6J2btO4Wt4/ph0NgxGNJDAmfvuyhWNKLGVhQU39sFt0mbEVqth+IryzC4xwCMHjcB07bfREakLz4aZ4euI7YiuJJ/ydjbvHghNDJB5c+bMX3KavhXmEHf1AKtkg7gvclzsP9pG7Q3EkJo0gYll7bj2zgRTHTU2ZtiXgU0xXcVlMfhmOcEzN15DXEJwfhipgO69JyK7xJ4LXOTwiq09qUODfJoZswXGrWBXsK3WDhpCnY8NENHIyEAQ7Q3Dsee3REQm8ka5wFQ78e8NBK+H42DXdcR2BpcCb4oEwUG5jDmecjKilBUXA65Wv02xzaaolpWLY0TryJnaEhzxqJODkIYtdFDwrcLMWnKDjw06wiFStrDOHwPdkeI0dpQqGbcNTZSfA+73CZhc2g19IqvYNngHhgwehwmTNuOW+Xq2q3penkMvpvrikWHo5CRdAkbvA6iYSqhfj5/uXnjhSGVVFPs9qnkdb2SiOSUfPxdekNsQL1XXqcCjqjy1oc0dXMkVRMRcTnkO3s0rQuVKS7lUmnPSF3ScdhEkbIsOu1uR67fpBJHRFQdS5+PbE0d55+nUk3XlYXQml729HFoheJU9inavi+upr0s+sZFj0xnnKUyIiIuk7520SerRVepkoiI5PT4s0Fk2H8rxVQTUXU4re+lT/abFP3lMr8mFz1DGrw+iLLkRCR7SJ/a61CrIR/TT79WE1E1RX5qT3q2XnSrkoikV+l9SQ9aGaToC1EZ3Vndg3QtZ9KZbI5kIWuol/3HpOgqR9mnttO+uOqasg2RU/z2gaTffQ3drRmy7O4a6m4whP79i5yI5PT086Gka+pIKy4kk4yIiv47myz0htHnT+VE8sf02SBD6r81hhTDWk+99O1pU6SqtqopfH0v0rWaTHvDC0hOpRRzaDrZ6OiRo3c0VWuqS6ZO9hzl+M6m0etCSdF9jlL3jCRdHQeVfSi7s5b62C6gC9KaA6WXaaGVDr259h7JWlgXld2htX1saUF9ZXR5oRXpvLmW7smI5I8/o0GG/WmrQuEUvr4X6dtvokiFwpXsQ0pX35dQj5VBVKfRO6uph64lzTyTTZza8TdFFrKGuutYkvPmAPq1mqgs/hBNtRKRbv8t9Khaix2m7qFRugbUe8VPlCuNoxsBjyg3TsM4lNA4ZiJ6fnQS6ZvPov/W2GXm1y6kZziY1gdlkcLsPyV7nVY05OOfSGH2kfSpvR7Zet2iSi31c1mnyd3Olb5J5YiIqDr2cxrZuiPNP19KXI4vzR69jurdeg+N1NUhh02RVC1/Sp8P1SVTxxV0IVlGREX039kWpDfsc1KYuPo2FTYyinQNetOKn3JJGneDAh4VKOJKQ54fpUn65jRLMfBX57+a4lW1Ft8l5X5psY0XlG9Zc8eixZ80taGiNiVb0zQ2GYWs6UX2H4cqfI/LplPb95GqLpIshNZ01yFL580UoHAuOjTVikS6/WnLo2rNtlIdQ9sGGJPjtjiSExFVP6RP+uhR1+WBdfEm6xsX0jOdQWfL6OVibwviBUnP0RxLUxr3bZrCbitv04cSPeq98b6ivPwX2rP4UwqRabM3LfG9catEVEI/r+xFDmvvKubMmtj1pl4vWh9erX1u0tiXukZqLlQnjxbG/OoY2jbAgKwWXKAiIiLiKPPoMlrrX6I4r5QHaPJjLusbctEzpRkKZStyAH0rWnRVMSNo1K8221BGo6xaWJc2vbS0b9rKa5QDUXXMNhpgYEULLig0QlwmHV22lvxLtI27mmK2DSBjx20Up3BIevhJH9LrupwCZdrkX0Z31vYh2wUXqD6VWEhWOm/S2nsy7fN5c+eNV4jGO9UKROgy7xBOremJZ197YNHx5MaP2coDcT4gA08u74aPjw98dp5ChesWeM/rDwOpP3wD9ODgWLNBQPwW1gQWIOOYG4w0XSe2gsQ6FV9MHoH5n51DnI47Nn7QE2IAEJrAxFjF48Y6RJB4HkfwKS/YpAfiyM6jCJXykFVUggcgNDaCoUAXXfo5ooMIgK4EdtZioFM/DLUSAxDDxrojBMVSSAkovHQIZ9Lt0NehdkGWIQa5u0GSfxmn/YsgtpLAOvULTB4xH5+di4OO+0Z80FOs1KfmIIKxsRFEJvZwde0CXQBGkm7oJCxGUSEBIgk8jwfjlJcN0gOPYOfRUEh5GSoqm94rqEVkOQAu/VpDBCP0em83PhwmQEzwbeQLNNSlVvblCDwfgIwnl7Hbxwc+PjtxqsIVW7znob+BcsulCNh/DMm9R2G0Wc0h/S6wsRTV/NGSuoDSgP04ltwbo+orQxcbS9TWJpJ44njwKXjZpCPwyE4cDZWCl1VApWgKL+HQmXTY9XWoW09pOMgdbpJ8XD7tjyK142+K0MAA+qJ2cJriAisxYNjDA1sX24NighCUI9BshwYG0BWawtFlONqZ9YSLax+0e7P542jRmCGEsZEhBLpd0M+xAxRmbweF2Q+FwuxtYN1RgGKpFKSlfqm/LwL0HOBYs0NI/NYaBBZk4JibEcoDzyMg4wku7/aBj48Pdp6qgOsWb8zrbwCIjGFsJIKJvStcu+gCMIKkWycIi4ugMHH1bQJCGBjoQmjqCJfh7WDW0wWufVprftSGV+i/muKVNt9tguYY9aLybe5YtPmTpja0o2lsYlhJrJH6xWSMmP8ZzsXpwH3jB1DRRUBoAAN9Edo5TYGLwrngsXUx7CkGQUE5EGiyFXkKktOr6peliLugSycgMyWlZpmLECYmxg2W42jRn6bY24J4AbN/wGNqG9w9fQZJHMAXJqNYZIYnp48iqByQx5zFYzt3DNDVZm8K1MZ35RhQfAUHTpZg0Lj+MKy9tlUrGGtznlqa0Zc61MqjZTEf4p5Y6DkG5ecPwi+DB7gn8A1rjxnOxorzSnmAJtsXmphAc8qgQb/abEMZjbJqYV1aaWl9WsprlAMg7rkQnmPKcf6gHxQq8UVY+xlwNtY2bjlSktNRVbcETowuCodESoUW+ZcGYP+xZPQeNRr1qYQN6lIJbfP5C84bL0Mz6zbDiG1nsGcC4dKKf2L7w/qHzHxJHgoq9NDDbS3Wr19f92/dysmwK85FfmURCqVNFazpuu66nbHwxHUccDdB0I4Z6NfdCSvOp9Uk84L69WRqEIorELV3MTyPZKLve55wthTWb5QWKK9tFEAoaLyRWiAUQrGdnUNO2q8o56tQ1WDBmtjGGlbCKhRJnwOdF+LE9QNwNwnCjhn90N1pBc6nNXn20iyUxyUQiSAAgScAEEJcEYW9iz1xJLMv3vN0hqWwqVzVImwH2y5mEHByVGuqS6hG9nwJ8goqoNfDDWsb6Gv9upWY3F1pCuHSkfBLESASqzawltQFDukJv6AIIohVVgZAKEZF1F4s9jyCzL7vwdPZEupEw+Wk4ddyHlWNFQprKyGqiqR4DjXjb1iJWsTo+lY3GKEaMhlptkOg6RrbFoyjRWVV2BYEQgiUelNn9tBUP4eC3HxUFhWiqVvzKMkrQIVeD7itbaDX9euwcnJ3iCFA424IIBIJAOIVPVHbZn35lvHq/FdjvBI3lW9j322Kett4cfnqNmss2vxJcxvK3qkK9WMTovPCE7h+wB0mQTswo193OK04jyZdVIO461voZgRUy2QgTbaiOwgTx7VH4s1reMYBkD1GQqo5XCaNRE1KBoHSPKBZfy8QLxvVVoshhs93h82DMzgVW47oY/cg2fspRheew5GrOQg5lwEH9x4QN8PemtAovjeGy3yKlFIxdHVa6j8KWtQXdfJoUcwHACEsZ3himsktHDwci7LwM3jaazYcdGvPN84DhJpsX6Acd5TRoF+tttEYbbJqSV3NoaX1aS6vWQ4QWmKG5zSY3DqIw7FlCD/zFL1mO0BX67h1MWjiOLRPvIlrCofE44RUmLtMwkhjze1y6QlQpBIqg5X2+ZzHC8wbL4fqnqpCbIf3jpzActtYfL7xFH6tjSmmHWFpmAC/wzcbvNOaQ7L/FcS16Qwrgxz4n72GwtpTfAH8D57CL0bqr4uWpSP2107w2HsTCXGXsKFPGvZ77cANNWu6G1OKq6umYEPBdHy9bRb6W9Q6rBor04gIHbt1hSkXh4gHDX5IVMlQJXwDfR0sQemx+LWTB/beTEDcpQ3ok7YfXjtuQFVXRWJRfQJRB4FUR+DGlF7FqikbUDD9a2yb1R8tH1Y58vIr0Nm+H9qXa6iLUyP7alN0tDREgt9h3Gzw8nIu2R9XopVWEApao21rMSpjHyBKSRDE84CwBXVBgNZtW0NcGYsHTSsDD6D06ipM2VCA6V9vw6z+FnUTvyrRiDp2Q1dTDnERD+rXH/NVkFUJ8UZfB1iSmvGrUiig0F+DO0PV5ZXgLXqgV8eKFtthS8bRkrIvgvr6RWjf2QoGOf44e63Oq8EX+OPgqV9g1NEShgl+ONxYsfC/Et1knaky6tt8UV6d/2qKc01MViuaYtSLy1fWrLFo8ychTDW0oX2omsbGIT32V3Ty2IubCXG4tKEP0vZ7YYd65wI1di5U8hbo0asjKjTZirAd3Pbsh4feTXy5bQ92f3YeBh/548Qim7q78S1CU+xVFy/VDEm3/1zM6pOAs/t34ljuSHiM/ifmu/K4+u2HOFo0DNM6Kabklttbg/iuNKsLzMzRCr8iIrTh63Ebo2lualFf1MmjJfNHLcbj4OkhQdzRL+DtW4yRM23V6o9rlu2rQZN+W0iLZNUMNOnlldMMORiP84SHJA5Hv/CGb/FIzLRVaETzuIVo57YH+z30cPPLbdiz+zOcN/gI/icWwUakuV1B67ZoLa5E7IMoJV0SeL4Z83nzM9xXhtomq6rKIZM1VqWwtTN8zvwH41rJUFV7ymgsFszqgpSD7hg12xvf+53DcZ9F+DjECLZtxmPBjE7IPvE+3ln5Lfx+PIXdyzzgJ3aCnamG6wTp8Nt1EA/LAX2bt7Hh0+mwMdSDvgAAeHA8KZIzABDqQ18PeJ6VicK8MNyJysbT5ByUpiXiWWkl0oMu4V4Wh/LiLESFxQIcD75GIbUQAGrw3kMiAngeHIBWE5fDs7cU5/YcQWIVAPDIvh6I9KHLsXS4Hrh0P+w6+BDl0IfN2xvw6XQbGOrpq/htJIKFVQfoZoTip4c5yH18BfuP3UWBPA/pz/JRUsmD4+QgvsGvTCLFRMfz4IufIjmnFGmJz1BamY6gS/eQxZWjOCsKYbGqd6dQeTGKaiyxMuYwTj79Bz5dMQRiTXVFJ6qRvRHGLpiFLikH4T5qNry/98O54z5Y9HEIjGxrvaAGYTtMmjsRbZMPY9WGy0irAmSpDxGby0GakYrsYkHz64IQ7SbNxcS2yTi8agMuKyrDw9hccNIMpGZLkf00GTmlaUh8VorK9CBcupcFrrwYWVFhiC1Xso9UZyz37A3puT04olAo+OzrCEwfiuVLh0OP02R7KuDzkJpSI38+ExcvRqOX51I46xZrtkMABDmq6wItj2JN42ikYu1lOY6rsR3FFRzP1/0IUUCK4Fxn9or/8zyntf704Qswo1M2Trz/DlZ+64cfT+3GMg8/iJ3sYDp2AWZ1ScFB91GY7f09/M4dh8+ijxFiZAsxz4GTE/gGk4TCxBU2rqlNxfgJkFdrTuw4DhwIfM3AX5n/aopzYs2+Cyj1i9dsG63Gv5h8Bc0aizZ/KoZAQxvK3gko2ZrGsUUj3W8XDiqcC29v+BTTbQyhp965kJeaAoXp88i8eBHRvTyx1FlXi61IcXX9ZqRP/RI71nlh1dZd2DrXvu7xMQDwHA+q8wfN+tMYe9XGywaNNUT0JmbPGYKMo+egN30qLEStMcnDDSZ3giAYNwntamdkjfamKKIuvtfdzK1BaPEPvDPKAGH/no2l+68h/MHPOHb0Z2TVJWZa5iaR9r7UoTZ+tmD+qEMMh4VLMLzgNM7RJExs0/Bc4zxAox/zHHiqn/OF+vrQw3NkZRYiL+wOorI16Df2uUbbaIJGvWm2s6Zo0YuWnKEpmstrtPPaCUjsgIVLhqPg9DnQpImoU4nGcQPSq+uxOX0qvtyxDl6rtmLX1rmwr3FITe3ez3HG3IltkXx4FTZcTkMVZEh9GItcToqM1GwU60zUPJ8rBql93niVKC+yJnka3T39H5r7lhFZT9pMh68n1m1uUMBRrv8qmr2jwaaVsng66eVMduZ6pGvamYYuOUaxtReVxdMpL2eStDOhVlaONGv3bcqtXSWu7jrZXdrg1JXsx3jQR1u8ad2SJeRzM5s4KqX4S5tpfEcRiW3caMeVRCKSU9LRf5LEvA1J3HZTaAlHGeeX08AOJmTedQQt2n+LfvCwJjPbibTr5zC6uHk8WYnEZDttJ12KSaWoH7fR5M4iEttOJZ//PaJnEX606W0rEom70FQff0qSEVWnXKSNk/uTw6iZtPhf79Fczy8oKEcxCNndDeTU1Z7GeHxEW7zX0ZIlPnQzW80y+Od3aPvYzmRqakUO03fRratrqX+3kTR/y0m6Ffx/tMHFgkQ6Epq5+yrFJd6mI8udyExoSA6LDtGd9HQ6v3wgdTAxp64jFtH+Wz+Qh7UZ2U7cRfdq9g00pOyXi7R9zkgaMGIKeSxbTouXbqNLT2uW8nMZ6uvKVSd7IqIyij/pRc525qSna0qdhy6hY3WKVoKTUvg3HjTY2pzMbBxp0gdbaOHgLjRk1id09F5Wy+oijqTh35DHYGsyN7Mhx0kf0JaFg6nLkFn0ydF7lJF+npYP7EAm5l1pxKL9dOsHD7I2s6WJu+5RURP7IKLqFLq4cTL1dxhFMxf/i96b60lfBOUoxqjW9ppSHfkp9dW1pMEzFtGyVR/SsjlTyf2TS5QqJyJSb4f/Dggi3/VjyFIkIivXjeQbkU8cEXEZmsbRGE1lsxMu0ybXDiQSWZPbjgsUfv8ibR5vRSKxLU3beYliUqPox22TqbNITLZTfeh/j55RhN8mettKROIuU8nHP4kqNNRfRERl8afIy1lC7UxakZXjLNp9O7dORmXxJ8nL2Y7M9XTJtPNQWnIslsqoiKLPbSAXCxHpSGbS7qtxlHj7CC13MiOhoQMtOnSH0tXq8S49e+hL68dYkkhkRa4bfSkiX4VGKhLo8iZX6iASkbXbDroQ+5yIXqH/qolXRdHnNPvu03ilfhWptY1dNc7ccvm2ZCya/SmLU9+GMhVKthb7XL3d77qXS3c3OFFX+zHk8dEW8l63hJb43CSVXayOpE/76pLl4Bm0aNkq+nDZHJrq/gldUjiXRvsv4jLo9Bxr0hOAAAEJhDqkb2pB3UZ60onHMiqNv0Sbx3ckkdiG3HZcoYgILfrTFHs1xkvVcDk/0Dz3b+lZ7V4y2T1aP2UNBdfsm6tDjb2RtviuAnnmT7R5Ug9qZ2xKNqNXkZ//ZnI0qN2oqHluup/PaexLIzTGz5bE/Fqk9OPCieT9qOFmxqZ5gFrbL42nS5vHU0eRmGzcdtCVxEoieRId/aeEzNtIyG13KJVomA+v39ViGxkqNK1GVlrjhKq6NOhFa86gVJ/W9jXZecMJSPojLZzoTY1UQurHTcRRxuk5ZK0nIAAkEAhJR9+ULLqNJM8Tj0mmQf73iog4aTh94zGYrM3NyMZxEn2wZSEN7jKEZn1ylO5lcRrmc44KmjNvvGIE1PAWLYPBaDbyqE1wHHIBk0IeYJuDurstDAajxcijsMlxCC5MCsGDbQ4q75Crhc/ARe+DKHnHAw58PqTFpSgvlSLz0Vkcz1oM/31ja+5g/X3h4rdjsONZjA2KxGcDWiRdBqOF8Mi46I2DJe/Aw4FHvrQYpeWlkGY+wtnjWVjsvw9j/0IOqXb5B4PBaCaqnrQxGIxXQEudi0fGCS+sfGSLf/SxRU/7gRg60hljJ0zDdFdHDHhL9RIWBoPx28BnnIDXykew/Ucf2Pa0x8ChI+E8dgKmTXeF44C3mi4h+pPDkmoG4wWRFxbiOVeMAqnyF5wYDMZLIS9E4XMOxQVStNS7xGYdYPDzCgxynoMVG72xY/tmfPT+XPzrR1ssWdRV7Wa3vxPy/HwUy0tR9Px3W2nK+LsiNkMHg5+xYpAz5qzYCO8d27H5o/cx918/wnbJInT9izkkW/7BYLwAsqTrOPZ/wUgplkNsZoNRMxbAxVZ5ixCDwWgxsiRcP/Z/CE4phlxsBptRM7DAxbbJBjxNyDLCcPliIGIyyyEyt0a/sVPwj95tWEINgMu4ixOnryGxoBo65rZwdn8Po2yYZBi/IbIMhF2+iMCYTJSLzGHdbyym/KM32vwFzY4l1QwGg8FgMBgMxkvCln8wGAwGg8FgMBgvCUuqGQwGg8FgMBiMl4Ql1X8DylKjkZCnfhd9WWokHqU3+Mznb01ZKiIfpeN3bPHvR2UGYh7ntPjdCX9+KpER8xg5r8PAW2TnZUiNfITf0w0Zf0DsayGVGTF4/FoY8+9Ai/yFwXg9YUn1Xxg+NxSHvUbCrvs47ApVs4eeT8F384bAafFxZL9w7Jbh9kYndB+xBgG52irhkfLdPAxxWozjL97gb0AVQjYPR/dhK3H5tepXC+GLEHnyQ7jY2WHU9jstfnPCnxceRZEn8aGLHexGbcedP3zgLbNzPuU7zBvihMXHs/+GP4T+IF5J7Ptt4IsicfJDF9jZjcL2V2rMZUi4+g02zBmLYcNGYfLc9+Hp6QlPz8XweNcVI0cuwPdJv8U3sLXRMn9hMF5blL8G83eEy42g+0m1n7f6ayFP2kVD9drTgovqv7ZVmvKQotLUn6+Ho9yI+9REVLK7tMZxCG0MVv7unxpKU+hhVBo1p8XfDVkofTxgEK0LLFQ+8+eDS6OvRuuR+az/NlPGavT6p4OjtK9Gk575LPpv8wb+29IiOy+llIdR1Cw3ZLwymh/7fn+4tK9otJ45zfoNjLnsxznUVmRB8y80qJvLoYBV79LGu7KGRX8/VPjLX3luZvw1YXeqUYawrzbh2JO/5vs6RSYmMBIoH22MkbUD+nbSVz7clLIwfLXpGJRFxaWl4o2PTmPr8FaNT6jDyBoOfTuhGS3+bnC/PkPH1b7YPtJc+dSfD6EpTLQpvSFq9PrnQwhTEyO0YOS/LS2ycyNYO/RFc9yQ8epoduz7AxCaao/dL4rI0BD6ynULLTB2/UZMs/yD3nPWxF/+2nMz46+JaMuWLVuUDwI8Sp7FI0PcFqblTxF+/xdUtrJEa/0GObi8AE/uhyEqKR8w6wDzBufK02LwtKotjItj8DBDFx3aGkAIOQqe3EdYVBLyYYYO5vrq156UpyM6qRLt2hmgOPkhHqbI0dqyFXQBVOXEIywqEyKLDjBp+CUeDf0pS4vBM3k7tBXnIi4sGvl6lmhnJAT4PITuW4Q53iHQ6d4LreXVaGVtoQhk5ZmICX+AxDwBWncwg15tACpLQ8wzOdq1FSM3LgzR+XqwbGekNJZyZMaE40FiHgStO8Cs7uJypMU8RVVbYxTHPESGbge0Nai/ks+Kwo27kXiSlA2ubSe01cnCg+t38OiXZBSIO+INcx1A03hUUf4Ap/YEwmT6Skzpko/Y0Gjk6yuVr8xA9JNytGtnrEhI+CI8DQ9DXL4QZjplkJIJjIpDsW/RHHiH6KB7r9aQV7eCtYUigSGBEXTK0/FrhQEs2ho1ehesaluoREb0E5S3awfjusBehdyEcNyPzYS8lSVaN5ALAHDSZDyMiEGaijaUKU+PRlJlO7QzKEbyw4dIkbeGZStdAFXIiQ9DVKYIFh1MGnxZTQ5pXgUgz0eBsm2qkIWJ2hfmahoDB2nyQ0TEpKHCwAJtjRpJCenRSahs1w4Gxcl4+DAF8taWUHQ5B/FhUcgUWaBDncFr889qPDrzOa7pvYPV03o2GGdTu+Tz1Ou1JTIHAJRlIDo8CsllBrBoVYq0dEKrisfNsmkAKM+MQfiDROQJWqODmZ7G5Fhd2epHZ/D5NT28s3oaeqr8UhePoqfhCIvLh9BMB2VSgkmdQpvKp5ZGdpxeBunjcDyI/wVJSU+Rw7fDG231UZp0F4FhcUjK4dH2jbbQF7TMziszovGkvB3a1RcGOCmSH0YgJq0CBhZt0chsVFKGjOhwRCWXwcCiFUrT0kGtKvD4xl1EPklCNtcWndrqIOvBddx59AuSC8To+IY56rSgLu4pwZc8Q3yGGG1Ny/E0/D5+qWwFy9YN/KY8DTFPq9DWuBgxDzOg26EtFEPV4Ad8CZ7FZ0Dc1hTlT8Nx/5dKtLJsjYbTjsbrNcTXqtwEhN+PRaa8FSxbG9T3Uzn2QYvMtcZ/TfNcGdJinkHeri3EuXEIi86HnmU7qAvdqH6EM59fg947qzGtgTFr8ku+6CnCw+KQLzSDTpkUZGKi8v3e3NPL2Hs6Abbuq+DWXQyAR05UFAptHPBm65oOqZhT+cLHuB0UgfhfkpD0NAd8uzfQVr8USXcDERaXhBy+LTq3VaTFmvqpdV4gDXOzJv20KF4zGK+eJu7MpQdj36KBsO45C/tObcW4foMwdswQ9JA4w/tusaJM8knMHzwNXz3KR3aID1wlw7D1Xjn43FAcWTEadpKx2HJgJ94d5oQhAxfgRG4yTs4fjGlfPUJ+dgh8XCUYtvUeypUb5wsRcXI1xki6YeQWP5zbPBszPd7DtCE9MHh1ACJOLMXEqQvw/vTB6DF8M+7VVKC2P3nhOL5yNOwk4+HjexhLXCdg1twJsO/thoNJHPiiTBQYmMOY5yErK0JRcTnk4JEVsA2LVx9EUPR9nF09DJIRG3EjLwfhx1ditJ0E4318cXiJKybMmosJ9r3hdjAJtavQ+KwAbFu8GgeDonH/7GoMk4zAxht5yA49ghWj7SAZuwUHdr6LYU5DMHDBCRQ0GL6wdWe8kfMDlkxZjMPxckDUGp0sErF39mR86JeJai3j0UTVszNYNWM2PJdMgUPvqTj0lAN4KSJ9P8I4u64YsTVYsUGkKhp7PbxwOl2OyvgjmD34XXyfUoWizAIYmBuD52UoKypCcbkcQBFCv/SA+zo/xKQl4uLq4ejp6o1bebwaW/DAgVu++GicHbqO2Irgmh0pfF4gdszzwH9upCI3eh8mSxzhdSGrZm2p+jaU4QsjcHL1GEi6jcQWv3PYPHsmPN6bhiE9BmN1QAROLJ2IqQvex/TBPTB8c439cRpsU6UsVN810TiGolB86eGOdX4xSEu8iNXDe8LV+xbyeB6FESexeowE3UZugd+5zZg90wPvTRuCHoNXIyDiBJZOnIoF70/H4B7DsfleebP8UxXq7LKwhXpVTTnijnliwtyduBaXgOAvZsKhS09M/S4BvBab5gCAz0LAtsVYfTAI0ffPYvUwCUZsvIECVc21pGwTqhC91wNep9Mhr4zHkdmD8e73KZCrlU8B5KrsePAK/FyZgG8XTsKUHQ9h1lGRVBm2N0b4nt2IEJtB9qj5di6XRsL3o3Gw6zoCW2sLAygK/RIe7uvgF5OGxIurMbynK7xv5aldc10edwyeE+Zi57U4JAR/gZkOXdBz6ndI4Fuj8xs5+GHJFCw+HA85RGjdyQKJe2dj8od+yFQoQXXcUxYsl47gfYsw0LonZu07ha3j+mHQ2DEY0kMCZ++7KOZzEXpkBUbbSTB2ywHsfHcYnIYMxIITBRr8gEN68D4sGmiNnrP24dTWceg3aCzGDOkBibM36sxa7fU8ctXFVz4PgTvmweM/N5CaG419kyVw9LqALLmK2KdJ5nye9vivNpbwyAs/jpWj7SAZ7wPfw0vgOmEW5k6wR2+3g9ASuhug2S+rovfCw+s00uWViD8yG4Pf/R5qwlUTuOJHOL7vXF15dXOq0KgN9BK+xcJJU7DjoRk6GgkBGKK9cTj27I6AuLWhxn42d15QPTdr0A9aFq8ZjN8M5fUgRESykDXUXceSnDcH0K/VRGXxh2iqlYh0+2+hR9VyevzZIDLsv5ViqomoOpzW99In+02RVE1EXOoeGqVrQL1X/ES50ji6EfCIcuM+o0GG/Wmr4gIKX9+L9O03UWS1cstExGXS1y56ZDh4PQVlyYlIRg8/tSedVkPo459+pWoiqo78lOz1bMnrViURae6P/OnnNFTXlBxXXKBkGREV/ZdmW+jRsM+fkpyIuMyvyUXfihZdrVQ0n+NLs0evo9CaZWVc6h4aqatDDpsiqVr+lD4fqkumjivogqIy+u9sC9Ib9jk9lSvWpPnOHk3r6i+mPSN1ScdhE0VWc5S6ZxTpGvSmFT/lkjTuBgU8KiCuwdCJiOTx22mgfndaU7uuTXaX1nQ3oCH//oXkzRhPE3IPkKu+CQ3ZGES5HBGV/I/mW+rTyC9SFG1zWfSNix6ZzjhLZTW672X/MYVWEBFxlH1qO+2LqyYijjK/diF9q0VUIyqSXn2fJD1WUlDtIriyO7S6hy5ZzjxD2ZxqWyjgOMr6xoX0TGfQ2TJF+6fd7cj1m1RFf6pj6fORranj/PNU2ow2lOEyvyYXPUMavD6IFObzkD6116FWQz6mn35V2F/kp/akZ+tFtyqJ5I/V26Z6WSg3qmkMUrr6voR6rAyqWytYdmc19dC1pJlnsomrkaue4WBaH5RFii5/SvY6rWjIxz+RosuR9Km9Htl63aJKrf5JRPScjk7Sr19TrcUuW6pXZUp+Xkm9HNbS3bKaA7IQWvOmHvVaH67wQY02zVGO72wavS6UFGc5St0zknR1HGhTkwChvezzo5NIX92aalkIrellTx8rFEpc9inavi+OqjXKR50dV1PMtgFkYLWALtRsJeAyj9Kytf5UovirRXbOZX1DLnqmNONsjRClV+l9SQ9aWa8EurO6B+lazqQzqpVAK3s50Np6JVDImjdJr9d6ClcogbYP1Kfua+7WyE5Gd9d0J4Mh/6Zf5FriXn0rCmQhtKa7Dlk6b6YAhQHSoalWJNLtT1seVSvkN0qXDHqvoJ9ypRR3I4AeFRRo8QMZhazpTjqWzrQ54FeqpjKKPzSVrES61H/LI6puhh81ja95lHHanexcv6FUhdAp9vOR1LrjfDqvEHqj2KdV5lriv6ZYQiSnp58PJV1TR1pxIZkUoXs2WegNo8+fqozcRM+P0iT9+jXVmv1SRiFrepH9x6E1Pp9Np7bvI1XhioioMmAJvSHSp66jZ9DMmTNpxuRBZN1zOd2qJK1zKlXH0LYBBmS14AIpTJ+jzKPLaK2/wvI191OdPyn5CzWdm7Xpp9nxmsH4DWlypxoAhAYG0Be1g9MUF1iJAcMeHti62B4UE4SgHAEknscRfMoLNumBOLLzKEKlPGQVleBrrtUVmsLRZTjamfWEi2sftHvTE8eDT8HLJh2BR3biaKgUvKwClapuuQiNYWQogG6XfnDsIAKgC4mdNcTohH5DrSAGILaxRkdBMaRSAiDS2B+RsTGMRCawd3VFF10ARhJ06yREcVEhVH1KsjzwPAIynuDybh/4+Phg56kKuG7xxrz+BoDIGMZGIpjYu8JVURkk3TpBWFyEQgJQHojzARl4cnk3fHx84LPzFCpct8B7Xn8YQAgDA10ITR3hMrwdzHq6wLVP66aPCrTQ0vEoMMSbgwainRCAfmd0tgCKpFLFr3uhCUwaPG4WW0lgnfoFJo+Yj8/OxUHHfSM+UPkcvRCXDp1Bul1fONQugjMcBHc3CfIvn4Z/kWpbaC0UwsSkwaNWqT98A/Tg4NhBIQvxW1gTWICMY24wakYbygiNjWAo0EWXfo5QmI8EdtZioFM/DLUSAxDDxrojBMVSSAkQSdTbZrNloWkMhZdw6Ew67Po61K0VNBzkDjdJPi6f9kcRhDA2MoRAtwv6OXaAost2UHR5KBRdtoF1RwGKpVKQVv9U4VQa7VKZlsq8GFcOnETJoHHob1hzSNQKrYyba9nlCDwfgIwnl7Hbxwc+PjtxqsIVW7znoX+TzrWkrArEVpBYp+KLySMw/7NziNNxx8YPekKsRT6q7ViMngs9Mab8PA76ZYAHhye+YWg/wxnGAICW2DkgNDFpsEQEKLx0CGfS7dC3XgkY5O4GSf5lnG6qBBRfOYCTJYMwrl4JaNXKuNnxRWPcU0ZoAAN9Edo5TYGLwgDhsXUx7CkGQUE54IUGMNAVwtTRBcPbmaGniyv64IpWPzAw0IeonROmuFhBDEP08NiKxfaEmKAg5ORr96Om8VWAa74B0HNwRAeF0PHWmkAUZByDm0LojWKfVplrif+aYgkggrGxEUQm9nB17QJF6O6GTsJiFBWqj9z1aPNLMawk1kj9YjJGzP8M5+J04L7xAzVLoGoQmGLYyuPw9fXF2QtBOPUvSc1SMc1zKsQ9sdBzDMrPH4RfBg9wT+Ab1h4znI2b0U91/qTkLyrQpp9mx2sG4zekmTFXjK5vdYMRqiGTEYTiCkTtXQzPI5no+54nnC2FjRK6Jo4hFKMiai8Wex5BZt/34OlsCaHaOCKAQKkCgVCAxg0IIQTVHdLYH4GgcX8EIogEAPGqOsCjJK8AFXo94LZ2Pdavr/23Disnd4e4Sd8EECkqAwHgS/JQUKGHHm5rG1y7HutWTkZ3saL8S9Oi8ahCBKEI4OTVNX8LIGgwKGHnhThx/QDcTYKwY0Y/dHdagfNpKp5PcjlI+7UcfFVVg/eKimFjbQVhVRGkzxXJnaoRCxqMgSvIRX5lEQqlKvrfzDYaoSwfCNDUfIQA1RzRYJvNlYWmMXA5afi1nEdVVYO3r4ptYG0lRFWRFM95hTwaIRBCoORRDbvclMb+qYx2u2xAS2XOZeJpSinEujoqda0VvgR5BRXQ6+GGtQ36tn7dSkxW7lxLyqpC2BkLT1zHAXcTBO2YgX7dnbDifBqqmyEfVWMTWs6A5zQT3Dp4GLFl4TjztBdmO9Qv4Gy2naPGbusa4ZCT9ivK+So0NhtrWAmrUCR9rrQEhEPm0xSUinWho6qjWtEW97Qj7voWuhkB1TKZwnKV+tEcP2iCuCveUlSK8uzmXK/caAFy8ytRVKj4MdqUhrGvOTLXHP81xRLU2ENDBCIRBCA0K3Rr9Uug88ITuH7AHSZBOzCjX3c4rTgPFeFKDXroP/1d9KpZXK9xToUQljM8Mc3kFg4ejkVZ+Bk87TUbDrrN6Wfz5oWmaNcPmhmvGYzfEg1JNYEaBLrq8krwFj3Qq2MFrq6agg0F0/H1tlnob1EbctVHhtKrqzBlQwGmf70Ns/pb1AVp9Ve0hNIW90c9Qph2tIRhgh8O35TWH+aS4X8lGtpWZwlNO8LSMAF+h2+i/moOyf5XEK3t4lpEYohUBFqi3yc4cOmx+LWTB/beTEDcpQ3ok7YfXjtuQKZcUNQR3bqagouLwIO6xfE8qmRVEL7RFw6WGkyrAaL2nWFlkAP/s9dQWHuQL4D/wVNIxKtpQxOabLO5stA0hqT23dDVlENcxIP6PQR8FWRVQrzR1wEvPgR1/tl0J1uL7LKlehWYwbwV8GtEKJ6pM1FNNi00RUdLQyT4HUZjl/PHFeXOtaSsKrh0xP7aCR57byIh7hI29EnDfq8d+FmvBfJphDHGeXpAEncUX3j7onjkTNg2FT+gxUYSm8hNhI7dusKUi0NEvRLAV8lQJXwDfR0slQK3AGYKJSBUvRIgFqn48U0E7gXjHjU2QFTyFujRq6PKDa2ijs30A6IGPxiqUV7Jw6JHL3Tq1MzrGyJqj85WBsjxP4tr9UJHgf9BnGoi9JbKvCmaYslLo9UvCemxv6KTx17cTIjDpQ19kLbfCztuKEcr9ei3bw8zIZo3pxqPg6eHBHFHv4C3bzFGzrRV6F1rP7VJUR3a9UPNjNcMxm+Jegvn85CaUlrz/0xcvBiNXp5L4axbjKfJOShNS8Sz0kqkB13CvSwO5cVZiAqLBQAQ5Kiui8Q8ip8mI6c0DYnPSlGZHoRL97LAlRcjKyoMsTVN1MOB5wHiGwRsUgTbOpcmAoEHzwHgNfeH5zjIiW8wmRAIBJ7nFctV9PWhh+fIyixEXtgdPB26ALO6pOCg+yjM9v4efueOw2fRxwgxsoWY58DJCXztnQlFV0A8D54HYDQWC2Z1QcpBd4ya7Y3v/c7huM8ifBxiBFtxzUDk1WonKQAQWVihg24GQn96iJzcx7iy/xjuFsiRl/4M+SWVWsejjOJ404SmvjwPjqc6eXPpfth18CHKoQ+btzfg0+k2MNTThwBC6OvrAc+zkFmYh7A7qXBe7one0nPYcyRR8ZERPhvXA9MxdPlSDNdTtNPYFhTwHA+imvZbjceCGZ2QfeJ9vLPyW/j9eAq7l3nAT+wEO1ErTGxGG43gasbbxHzqBUBEAM+D02Kb0YnqZKGEpjG0nojlnr0hPbcHRxIVH3Hgs68jMH0oli8dDj0AnMLgG+iPFHqtN3goutwgEVDnn/oAwIHjauwS2uzyxfRah9AC/3hnFAzC/o3ZS/fjWvgD/HzsKH7Oqu+rZpsWYeyCWeiSchDuo2bD+3s/nDvug0Ufh8BI4TQNMNJallMMvJH+6+DS4bfrIB6WA/o2b2PDp9NhY6gHfWNN8lFcqsqOAUDssBBLhhfg9DnCpIltGp1rvp0D4DnwVG+3rSYuh2dvKc7tOQKF2fDIvh6I9KHLsbSpEmDxj3cwyiAM/569FPuvhePBz8dw9Oesug3UEFnAqoMuMkJ/wsOcXDy+sh/H7hZAnpeOZ/klEI3VEPcaN1YDj7zUFCgskEfmxYuI7uWJpQoDrAl1DQTWSrsfAACfl4p6s76Ii9G94LnUGfrNul45vrbC+AUz0Cn7BN5/ZyW+9fsRp3Yvg4efGE4KoTeKfVplrjH+a44lsaU8OE4O4hvEYsXF4FUaKwCOA1cT2wFtsZBDut8uHFQYN97e8Cmm2xhCr8l78xRQVTWqqRrVtQ8sG6JlTlUghsPCJRhecBrnaBLqTV9bPxWlVPlTI39RMTenOmvWj/q5i0fB9a1w/+d23Grwm5HB+E1QXmRNNRsB++pa0uAZi2jZqg9p2Zyp5P7JJUqVExFxlHF+OQ3sYELmXUfQov236AcPazKznUj/Dggi3/VjyFIkIivXjeQbkU8cEXEZ52n5wA5kYt6VRizaT7d+8CBrM1uauOtezUaHWkop/uJmGm8lIrHtNNp5KYZSo36kbZM7k0hsS1N9/kePnkWQ36a3yUokpi5Tfcg/qUJtf3Zdv0vnNriQhUiHJDN309W4RLp9ZDk5mQnJ0GERHbqTQSRPoqP/lJB5Gwm57Q6lEiIqiz9JXs52ZK6nS6adh9KSY7FURkUUfW4DuViISEcyk3ZfjaPE20douZMZCQ0daNGhO5TBEVFZPJ30ciY7cz3SNe1MQ5cco9gyjgoe+tL6MZYkElmR60ZfishXsdmIiIie053tY6mzqSlZOUynXbeu0tr+3Wjk/C108law9vE0pOgR/d/HoxXl3T+ny7EJFHx4BQ01E5FR//fpSOhTir+0mcZ3FJHYxo12XEkk2d0N5NTVnsZ4fERbvNfRkiU+dLNmY5Q86Sj9U2JObSRutDu0hIiqKeXiRprc34FGzVxM/3pvLnl+EUQ5HBFX8FClLZTGX6LN4zuSSGxDbjuuUGKlQmanvJxJ0s6EWlk50qzdtxWbKok0ttGE0ni6uHk8WYnEZDttJ12KSaWoH7fR5M4iEttOJZ//PaJnEX606W0rEom70FQff3ryTL1t5mqQRRM0jaE6hS5unEz9HUbRzMX/ovfmetIXQTk18rhIm8dbkUhsS9N2XqKY1Cj6cdtk6iwSk+1UH/rfo2cU4beJ3rYSkbjLVPLxT6Iyjf5ZQQmXN5FrBxGJrN1ox4XYuv41tUvFqZboVSXyTPpp8yTq0c6YTG1G0yo/f9rsaFC3UVGjTd/PJ6Iyij/pRc525qSna0qdhy6hY7Wda4L6shUJl2mTawcSiazJbccFin2udKnsLm1w6kr2Yzzooy3etG7JEvK5ma3YOKhGPursuCHSHxfSRO9HjTb0tcjOS+Pp0ubx1FEkJhu3HXQlUbExqzrlIm2c3J8cRs2kxf96j+Z6fkFB6pVAmT9tpkk92pGxqQ2NXuVH/psdyaB2oyIRPb+zncZ2NiVTKweavusWXV3bn7qNnE9bTt6nfE5d3FNBdSR92leXLAfPoEXLVtGHy+bQVPdP6FKqnIgroIe+62mMpYhEVq600TeC6kKdBj9QbCDuS7qWg2nGomW06sNlNGeqO31yKbV+A7ba6zXF1zKKP+VFzpJ2ZNLKihxn7abbCqE3iX2KJtTJXHv8T09XH0tSo8/RBhcLEulIaObuqxSXeJuOLHciM6EhOSw6RHcylPRakUCXN7lSB5GIrN120IXY51r8UkZ3NzhRV/sx5PHRFvJet4SW+NxUsbG4lB7/dJg2TehEIoioo/Nq+vpijNI8rH6O33WvYUkp/bhwInkrdkc3QH0/1fmTSn9RMTer1w9pmLvklPTNeGrfYSIdSFazKZTBeEUIqOEtvBrkUZvgOOQCJoU8wDYH1fcpGAzGH8Nr759cPLYPdsTZsUGI/GyAmjudjN8WDvHbB8Px7FgERX6GAa9SCfIobHIcgguTQvBgm8Mr0q8cUZscMeTCJIQ82IbX0awZDAZDG+qXfwBQuZ6AwWC8HjD/ZPyh/DYG+NvUymAwGL89KpNqeWEhnnPFKJAq1q4xGIzXh9feP+X5yC+Wo7Toucb9A4zfEjny84shLy3C81etBHkhCp9zKC6QKtbMvhLkKCx8Dq64AK+rWTMYDIY2mnymXJZ0Hcd/ysUb/d6CcWEaqGMf2Jqr2s/NYDB+b157/+QycPdUAH61sEdPEynSBW+gv42ZcinGbwqHjLunEPCrBex7mkCaLsAb9jY1b3Z4SWRJuH78J+S+0Q9vGRcijTqij625yjd+NB8Zkq4fx0+5b6DfW8YoTCN07GOL18msGQwGozmoXFPNYDAYDAaDwWAwms+ruHfBYDAYDAaDwWD8rfmTJ9U8SpJjkFT0Gm5tKUtF5KP0Bl+VYjSPMqRGPkJ6swTXkrIvCNMjg/GXoSw1Eo9+04DxV4GD9EkMnpUpH/9rw5ckIyap6HfeLPtq57HfxcY5KZ7EPMPfzDyaRdOkujwR1w9vxXuuwzB06DCMGDMR09zdMe2daZj9/sf4j28oMl+DjSRc+s/Y7TEQXd5yx3cJr3onTkOqELJ5OLoPW4nL2c11NR4p383DEKfFON7saxgAwKd8h3lDnLD4eLbWwNaSsi8G0+PfGT4rFGe/Wol3Rg7DsOGTsPQ/J3E7tfZzKjIk/XwE2xf9A8NdZuOTQzcRE3Mdh7e+B9dhwzBs5BhMfNcd77pNwbsL1+HbW2kNvuxWheRbx/DZ4rcxfOgwjJj8L/z78FXEldQV+JvRwhjLp+K76d3Rd+Z3SGjJXMSn4Lt5Q+C0+Dia08zfFS71Z+ye1w9d+izEqTp7/4vDpePn3R4Y2OUtuH+X8LtusH6l85gmG5fdxkan7hixJgC5yueaDYfUn3djXr8u6LPwFP4u5tEilF9craCMLsy3IFGrd8m3pOZQRQaFHF1Bwyx0yKzfUjqX8se/RF1250OS6L1Ja+/JlE+9OmSh9PGAQbQusFD5jGZKU+hhVBpVKB9naKGUUh5GUVqzBNe0LJcbQfeTXqFttliPHOVG3KdX2QXGH4g8jrYP0CGx5EO6oyLMVFxeRP0WXa7/SErZBZpvIaLWs39U2EzZL3R2cS8y0HmD3j2WXP8hEyKqvLmUrEW6NGL3syYflPlb0cIYy2Xspwk9Z9GpF5iDSlMeUlTzgsvfmsqfl5GNniNti2u5jP+0yO7QhxI9enPtPVLh6r8hTeexl0GdjcvuriHHIRspuPGXfl6ASvp5mQ3pOW6jv5N5NJemd6oBAGKYtTKBQCCCqLaEfkcM8fgSAZc+wZu/HMR7Hl8h/g/+lSIyM4Op6q+wvjK4X5+h42pfbB9prnxKM0bWcOjbCTUf7WU0GyNYO/RFp2YJTrlsGcK+2oRjT17hfYaW6rEsDF9tOoZX2QXGH4igLdqYCyAwMVP59gxhK3O80bZN/QdQxGZoZdKgoKEdZuxch/FGGbiw7yQaPlQTmZrDVCiAaes2Kh4Z/n1oaYwtj+Mx4dhBzLJu+etBjKwd0Ld5weVvjcjIBEZ/N6MUmcHst04oVKI8j70cqm2cQ1rqG/jo9FYMb6V0qsWIYGRi9LeOWZposVyMBq7GlllvoPT2l/jqRnmDM+XIjLmLwOAHSC1pxrOFqlwk3AtEYFgSpI2SczkKnoTh1s1A3E8uQtO8XY7CpHAEBUcivUL5HCAveIKwWzcReD8ZRU0vbgRf8gxxySXgOSmSQoMRlqTcnhxF8i7o3TYVD1X1pTILsXeDcCcqFcVNhlyJjOj4Ro9gytJikFjAA1U5iAsJQXyuUuYlL8CTsFu4GXgfydo6X0NZRjTuBN/D41wZqnKSkVLCIyvqOgL8/RFwOwFFPMBlPsA1f3/4XwvFs4YqA1CeGYO7gcF4kFqi5dETj6KnYQi6HYW04gJkZjVeTaW9Hh6Fj4MR4O8Pf39/BNxJVMisJAl3r/nDP+AOEmvWxldmRCO+oeD4IjwNC8LtqDQUF2SiYdN1Zfk8hO6djzm7w5ES9RMCbsUir6aKlthEU5T1WIa0mEQo1BiHkJB41KqRzwvF3vlzsDs8BVE/BeBWbF69LMozEXM3EMEPUtHIPcrTEJOQB64yE4/CE1BY1z91/qReDy0fZxVyE+4hMDAMSY2dULGmMjkCt4NDkZCr/IxdvQzq0XQ9tLSt3p7K02KQkMehMvMRwhMKm/pkDXzRU4QF3UZUWjEKMrNQkhWF6wH+8A+4jQSFU+DBNX/4+19DqLJTvGr0jGGsKwCIU9nfVzaNl2Ug+k4w7j3OhawqB8kpxS2IBersTRXqbRAt1p2WGFsD30B/vw7wxL/6PVepP60xtjID0fHKj9nV22LLfaoBTeJWy2JzY17W58qRHv0YOTzAFSUjIiQSabVqq8pBfMgdPMpssA5XIKixS4I87zFCQ+OQrbRMV7U+NcQ6DTTUryb/1KrfF5hD5YVJCA8KRqSqhEKDPSvHmEZeoC6/URPvG895PEqexSG5hAcnTUJocBiSVIylKjcB9wIDEZYkbew3Km0caDNoKDqk3VdhG82xrcYIBDVRi+TIexyK0LhspX1H5UiLSUAeV4nMR+FIqJ/YlOTZ/LygeTGKR0FcYF1918JSUA4A5SkIu+YP/4BAxBWou/bV0OKkGjDCsLFOaEVZuHMrFgDAZwVg2+LVOBgUjftnV2OYZAQ23ihoolQFPPICd2Cex39wIzUX0fsmQ+LohQtZPMAl4+T8wZj21SPkZ4fAx1WCYVvvKYQCAOUx+G6uKxYdjkJG0iVs8DqIJ3W64pB8cj4GT/sKj/KzEeLjCsmwrbinKlBx6QjetwgDrXti1r5T2DquHwaNHYMhPSRw9r6LYkBrX4rv7YLbpM0IrdZD8ZVlGNxjAEaPm4Bp228iI9IXH42zQ9cRWxFcCfB54Ti+cjTsJOPh43sYS1wnYNbcCbDv7YaDSYoBcMknMX/wNHz1KB/ZIT5wlQzDVpWdr6E8Dsc8J2DuzmuISwjGFzMd0KXnVHyXwKN15zeQ88MSTFl8GPFyQNS6EywS92L25A/hl1kjMD4LAdsWY/XBIETfP4vVwyQYsfEGVNtbFaL3esDrdDrklfE4Mnsw3v0+RbHurNn1CGHURg8J3y7EpCk78NCso+JOiGF7GIfvwe4IMcxkj+D70TjYdR2BrcE1LloVjb0eXjidLkdl/BHMHvwuvk+Rg5dGNirLF2WiwMAcxjwPWVkRiorLIW+JTTSBh7SRHnnkhR/HytF2kIz3ge/hJXCdMAtzJ9ijt9tBJHE8ijILYGBuDJ6XoayoCMXlcgA8sgK2YfHqgwiKvo+zq4dBMmIjbuRlI/TICoy2k2DslgPY+e4wOA0ZiAUnCjT4kzo9tHycfF4gdszzwH9upCI3eh8mSxzhdSFL4bNFofjSwx3r/GKQlngRq4f3hKv3LeTx2mRQU7na65vRthp7yssOxZEVo2EnGYstB3bi3WFOGDJwAU4U1I+plqrovfDwOo10eSXij8zG4He/R5ppZ7yR8wOWTFmMwwqnQCeLROydPRkf+mWqTeZenkrEHzkI/0JzjFowE2/9Jp/fLkfcMU9MmLsT1+ISEPzFTDh06Ymp3z2BaTNigXp7U4U6G3wB3eVqjrENEbbWrL9qbTGWlyLS9yOMs+uKEVuD6xIA9bbYcp9qhMq41czY3IiX9TkehREnsXqMBN1GboHfuc2YPdMD700bgh6DVyMg4gSWTpyKBe9Px+Aew7G50QAJOVe84OTgBJdhvWHTYwq+iigFn6tGnwVqYl3TyaAJL63fF5lDUY6Y7+bCddFhRGUk4dIGLxysTyjU2nMBrzrGpCicQHV+k6E63nscuNVoHuPSg7Fv0UBY95yFfae2Yly/QRg7Zgh6SJzhfbe4pl95CNwxDx7/uYHU3GjsmyyBo9cFZMlV27gm22iWbamDcnDFywkOTi4Y1tsGPaZ8hYhSHrmhR7BitB0kY7fgwM53McxpCAYuOIEClfL8GZXmmvOC1obCFsQoIQyMy3D90xmYOGs/UizaKZ4y67eB6O52bLhcBjPjF0h7W4LyehAFMgpa3pXEZu7kV7dYsMHZ4JXUTSwky4WXibgc8p09mtaF1qxC4lJpz0hd0nHYRJHVylcScVmnyd3Olb5JVawirI79nEa27kjzz5eS/PFnNMiwP22NqSaiagpf34v07WvrKaM7a/uQ7YILJK2pq/TyQrLSqVlTLX9Mnw0ypP5bY6iaiKrD11MvfXvapKoTRESyEFrTXYcsnTdTwK/VRGXxdGiqFYl0+9OWR9Wa+1IdQ9sGGJPjtjjFGsnqh/RJHz3qujywZi0WR1nfuJCe6Qw6WyM/+dPPaaiuKTmuuEDJMiIq+i/NttCjYZ8/JTnJ6fFng8iw/1ZSNBdO63vpk/2mSFLd+xL6eWUvclh7t24tpyxkDb2p14vWh1cTkZzitw8k/e5r6G6NWmR311B3gyH071/kRMRRju9sGr0utK6/qXtGkq6Og2p5yUJoTS97+jhUsU6Lyz5F2/fFUXVL6yGi6phtNMDAihZcqFnYxWXS0WVryb9m7T6X9Q256JnSjBrByULWUC/7j0nRNEfZp7bTvjhF3cplucyvyUXfihZdrVRU1lKbaIKyHuX09POhpGvqSCsuJJNCjbPJQm8Yff5UIdfMr11I32oR1XaBy/Gl2aPXUb177KGRujrksCmSqrlU2jNKlwx6r6CfcqUUdyOAHuVlqfenMjV6aOk4uSw67W5Hrt+kKtbyVsfS5yNbU8f556mUpHT1fQn1WBlUt4687M5q6qFrSTPPZBOnVQZartfYtmZ74lL30ChdA+q94ifKlcbRjYBHVNBkMbKMQtb0IvuPQxXtc9l0avs+iqsmksdvp4H63WlNvVPQmu4GNOTfvzRa69wILof2j9Mlnf7eFKtCnLLba2nyugZrMGVBtLyrmAz7vEurV3nSzNHdSTJoDm06G0PPG19K1fc3Um8dPZp0VPlMyyj5eSX1clhLd+uDAa15U496rQ+nam2xoIXx+0VjgSrd5cZpiLEq0KY/zTFWYfffuOiR6YyziripyRZb6lNKqI9bWvShkpf0uZq4pGc4mNYHZZGciGQPPyV7nVY05OOf6NdqIqqOpE/t9cjW6xZV1o5X14om7w2nAjlRacwhmm6jQ3qO3hRdrYhjyvrMy9IQ6xoORw0vp9+WzqFEZXfWUh/bBXShPqGghVY6NWuqNdlzmdoYoym/IVXxvoBrMo/JQtZQdx1Lct4cQIrU5BBNtRKRbv8t9Kiao6zT7mTn+g0pmqim2M9HUuuO8+l8qQob12ob2mxLFQpf1bWaTHvDC0hOpRRzaDrZ6OiRo3c0VRNHqXtGka5Bb1rxUy5J425QwKM8ylIrz2rNeUFLYxQRlQWtJIleD1obUjsRZ9PxuTPpQFqTCeOV80IpO5WWopyEMDEzB8oDcT4gA08u74aPjw98dp5ChesWeM/rDwPlCwFI/X0RoOcAxw6KpsVvrUFgQQaOuRlBJPHE8eBT8LJJR+CRnTgaKgUvq0AlD6A0APuPJaP3qNGo/T6bfhcbWNYuqxNJ4Hk8GKe8bJAeeAQ7j4ZCystQUdn0twwAQGgAA30R2jlNgYuVGDDsAY+ti2FPMQgKyoFAU1/kKUhOr4Kw9hGIuAu6dAIyU1KgeIAkhImJcaPHuiJjYxiJTGDv6oouugCMJOjWSYjiokIQRJB4HkfwKS/YpAfiyM6jCJXykFVUqvglBqD4Cg6cLMGgcf1hWHNI1KoVmv8DrByB5wOQ8eQydvv4wMdnJ05VuGKL9zz0V6U0sRUk1qn4YvIIzP/sHOJ03LHxg54Qt7QeAOKeC+E5phznD/ohgwe4J74Iaz8DzsaK80ITExg3EJzYSgLr1C8wecR8fHYuDjruG/FBT8XtPuWyTWipTTRBWY8iGBsbQWRiD1fXLlCosRs6CYtRVKj6G0rlgecRkPEEl3f7wMfHBztPVcB1izfm9TdQ2KCuEKaOLhjezgw9XVzRRz9YvT+p00NLxyn1h2+AHhwcOygeVYnfwprAAmQcc4NR4SUcOpMOu74OdevIDQe5w02Sj8un/VGkTQbartfUthZ7EhoYQFdoCkeX4Whn1hMurn3QuonNi2ElsUbqF5MxYv5nOBenA/eNH6DGZFqOUFDzqJOgUsM8h/qNJ7UIoN97Frw3ToTpr8+Qo/MW3pnSCyZKpV4Nxbhy4CRKBo1D//pggFbNDQYtjN8vGgtU6a7dmxpi7AugOcYCEJrApGHA0GSLLfUpJTTFrZbzkj4HIYyNDCHQ7YJ+jh0gAqArsYO1GOjUbyisxADENrDuKECxVFpv5yJLDHDph9YiwKjXe9j94TAIYoJxO59XqU/9YA2x7hWgWb8tnENRioD9x5DcexRG1ycUsKlLKDTZs/oYoym/URnvWwubzGNCAwPoi9rBaYoLFKmJB7YutgfFBCEopwD+vgHQc3CEogkx3loTiIKMY3AzUmHjWm1Di21pQGQ5AC79WkMEI/R6bzc+HCZATPBt5PNCGBjoQmjqCJfh7WDW0wWuffQRrFaeWvKClsYoAIZDvfDBsAwc/+KcYslTqh+u6EzF9E7NjIsvwQu0IEdSRCRyyRyOQ3qDL8lDQYUeeritxfr16+v+rVs5Gd2bxBAOBbn5qCwqhFSVvoRiVETtxWLPI8js+x48nS0hrCnHpSfglyJAJFbXZSHEFVHYu9gTRzL74j1PZ1jWXtxMxF3fQjcjoFomA2noC3QHYeK49ki8eQ3POACyx0hINYfLpJGoyQ0hqFuTVndA6W8RRAKAeEWlQnEFovYuhueRTPR9zxPOlkLVkzgALvMpUkrF0NXRlFFqgC9BXkEF9Hq4YW0Dna1ftxKTmyoNEHbGwhPXccDdBEE7ZqBfdyesOJ8GrqX1AIDQEjM8p8Hk1kEcji1D+Jmn6DXbAbq15wUC1P5WAQBh54U4cf0A3E2CsGNGP3R3WoHzaTXPpZTKNuXlbUJZj3VryWr/FokgAKFGjUrwKMkrQIVeD7itbSCf9euwcnJ3xeY2pf5r9CddNXpo4Ti5glzkVxahUIUTcjlp+LWcR1VVgxVyYhtYWwlRVSTFc16zDLRdL81T33Zz7FKjugEAQnReeALXD7jDJGgHZvTrDqcV51FrMi3HAIb6QlB5GcpUzM58SSlgZKLyM93CNhOw67sP0DliOxZuv/fbvNOVy8TTlFKIdXWaIZumaLQ3VS78ErGgSf80xdgXQUuMBWp/ICnQ5AcvGzs0xq0X4GV8TpXPQiCEoNEMI4BQCKj/vrIQ7Wy7wEzAQV6tONK4xmbEupdFi35bMoeCS0eCIqFQnQRptGddNTFGS36DJkKrOaZtHhOj61vdYIRqyMrzkZtfiaLCBj9+GqFk4y9gG5rnNDUI28G2ixkEnBwK82gysWmQp1hjXtDiGAUAIlvMWzUd+le+wIGYSsSdvIX2MyeitXK53wCV9qQJvuAavjz2CKJeC/HBBBMITTvC0jABfodvQlpXikOy/xVEN1nsLkL7zlYwyPHH2WuFdUf5An8cPJWI4qurMGVDAaZ/vQ2z+lvUOSIBELRui9biSsQ+iGrwvlfFWZ4HUHoVq6ZsQMH0r7FtVn9YNLxYA0QNZsrqclTyFujRqyMqNPQFwnZw27MfHno38eW2Pdj92XkYfOSPE4tsVE6u2inF1VVTsKFgOr7eNgv9tXReYGaOVvgVEaHP1K4FFYlFAPFKNRCIAyA0RUdLQyT4HcbNeqWBS/bHlaZKA7h0xP7aCR57byIh7hI29EnDfq8duFHdwnpqMB7nCQ9JHI5+4Q3f4pGYaatealx6LH7t5IG9NxMQd2kD+qTth9eOG0o2oIYXtIlXhxCmHS1hmOCHw40FBP8r0SrfharRn2Rq9FDQsnGK2neGlUEO/M9eQ50X8gXwP3gKSe27oasph7iIB/VrW/kqyKqEeKOvAyy1RAxRR83Xv2Gpvu1EejF7agyH9Nhf0cljL24mxOHShj5I2++FHTdkgEgMkYrJgkidFwGALrrYdoIg4wkSS5XPcUiJ/hWtu3dW6/etRm3DoY96IPE/i/HprSLl02rhnp7GsRvNSMMFZjBvBfwaEar4ga8CTbFAo72pEvkrjAWlmmKsKl5If+rR5AeJxS3zKWU0xS1N+ngRtPmcNp9tLuV5+ajobI9+7VVV2PJY14SX0m/L5lAIWqNtazEqYx8gSmkyIZ7XMkfK1MQYucb8pjmjqIfQODWpBG/RA706dURnKwPk+J9FfRM8CvwP4lRi0xZ+L9sAypGXX4HO9v2g2jw0yVNhHeryghbHqBpaua7E+30e49C/vfHNw7cwZ3Tto7zfFlXDB0CoqlLeIQrIs25hx8xFOFE5Bp8d+xRD9AEYjcWCWV2QctAdo2Z743u/czjuswgfhxjBVsWviFbjF2BGp2yceP8drPzWDz+e2o1lHn4QO9mi9GkyckrTkPisFJXpQbh0LwtceTGyosIQbzAJcye2RfLhVdhwOQ1VkCH1YSxyOSkyUrMhzX6K5JxSpCU+Q2llOoIu3UMWV47irCiExTaZDWvgkZeaAsVZHpkXLyK6lyeWOuuiWENfYkuluLp+M9Knfokd67ywausubJ1rX7csBQB4jgcRX/foiec4yIlvcNeEQCDwPA+eL8bT5ByUpiXiWWkl0oMu4V4Wh/LiLESFKTaDNkRo8Q+8M8oAYf+ejaX7ryH8wc84dvRnZNX5lAgWVh2gmxGKnx7mIPfxFew/dhcF8jykP8tHSaURxi6YhS4pB+E+aja8v/fDueM+WPRxCIxUKY1Lh9+ug3hYDujbvI0Nn06HjaEe9AUtrKcWsQMWLhmOgtPnQJMmok3DczwHnmp+KAHg0v2w6+BDlEMfNm9vwKfTbWCop6/4HaxUVqivDz08R1ZmIfLC7iBKo03k4v6++Zj4T29cy1JxC7KGxnrkwXFyEN8g8BMBxIPneQBC6OvrAc+zkFmYh7A70RCMXYBZXVJw0H0UZnt/D79zx+Gz6GOEGNkqkggC5NUNIoMmfxKo1oPuc03jVGH7rcZjwYxOyD7xPt5Z+S38fjyF3cs84Cd2gl3riVju2RvSc3twJFERA/js6whMH4rlS4dDT5sMWmm5XlPbIu32RJCjobiawiHdbxcOKoSEtzd8iuk2htDTF0BkYYUOuhkI/ekhcnIf48r+Y7hbIEde+jPkl6j7ApkuBi98H0OFN7D3s5vIqfOxKmTe8sFHN3vBY5xRfXGqQlUVoVomq7EZQwzacBifDszA1wuW4pRiNxMAgK+qRBURKirKGz+iLo/FgS33YNDfCOX392H+xH/C+1pWwxL1CC3wj3dGwSDs35i9dD+uhT/Az8eO4ue6YKAlFog02JsqF36JWNBYd7yWGNuwUQXa9KcxxgIK/+VJkTRBsx/YlmryKe2xQ33c0qIPlWb4kj4HgON5Rfm6Okkhn7qcU/F/nm+QmFE5iotqMs7KGBw++RT/+HQFhtQ8VlT2RSNNsa78PvbNn4h/el+DGpG9nH5bOIdC2A6T5k5E2+TDWLXhMtKqAFnqQ8TmcpBmpCK7WKDBngVqY4z6/MZO8cNbOd6j6TymOJaH1JQaJ+AzcfFiNHp5LoWzfiuMXzADnbJP4P13VuJbvx9xavcyePiJ4WQnUmHj2mxDi21pgMqLUW8eh3Hy6T/w6YohNU+dCZBXN/gxpT0+qM0LNM2JqmJULeKeWLxyIqr/70vEDZmD/prKvkqUF1lTWQLdOLKVJluLSaBjSf0n/5MWLFpIHu4TaaTTaHJf+x3dyVRaHV4WTye9nMnOXI90TTvT0CXHKFbFBsdayuJPkZezhNqZtCIrx1m0+3YucUTEZZyn5QM7kIl5VxqxaD/d+sGDrM1saeKue1RERJw0nL7xGEzW5mZk4ziJPtiykAZ3GUKzPjlK9zLS6fzygdTBxJy6jlhE+2/9QB7WZmQ7cRfdU/Wy8+pI+rSvLlkOnkGLlq2iD5fNoanun9ClVMXifI194TLo9Bxr0hOAAAEJhDqkb2pB3UZ60onHMiqNv0Sbx3ckkdiG3HZcocScaDq3wYUsRDokmbmbrsYl0u0jy8nJTEiGDovo0J10yji/nAZ2MCHzriNo0f5b9IOHNZnZTqRdKjtPJM/8iTZP6kHtjE3JZvQq8vPfTI4GtRsViej5Hdo+tjOZmlqRw/RddOvqWurfbSTN33KS7udzRFRG8Se9yNnOnPR0Tanz0CV0TJ3SZHdpg1NXsh/jQR9t8aZ1S5aQz83smg9WtKCehkh/pIUTvelRQ1MqjadLm8dTR5GYbNx20JXESpLd3UBOXe1pjMdHtMV7HS1Z4kM3szmVZUmeREf/KSHzNhJy2x1KJVyGepsozKCjUzuQWVsLGuod06AT9SjrMSLiHG1wsSCRjoRm7r5KcYm36chyJzITGpLDokN0J4MjedJR+qfEnNpI3Gh3qGL3ZVn8SfJytiNzPV0y7TyUlhyLpTKugB76rqcxliISWbnSRt8Iyq/dQ6HOn9TpQdM4VZsPUVk8nfJyJkk7E2pl5Uizdt+m3Nr2q1Po4sbJ1N9hFM1c/C96b64nfRGUQxwRFUVrl4Gm67W2rcaeuIKH5Lt+DFmKRGTlupF8I/LVfDBFRnc3OFFX+zHk8dEW8l63hJb43KRsjojoOd3ZPpY6m5qSlcN02nXrKq3t341Gzt9CJ+/nK1fUAI7y735NS8b0pR72Q8ll3FhyGTmcxsz9jH5KqzfgsoQbdGTrZLIWC0jU3pnWHrhE0YU1G5YSv6F/tBWRXqfR9P72k3Tx0lHymS4hHYGAdC370mjX8TR+/HhydRlGfToakpnbMcoljjKOTqUOZm3JYqh3g/4oIc+knzZPoh7tjMnUZjSt8vOnzY4GNRsVmxEL1NmbKtTZIFGLdacxxiq3S6RZf7eCtcTYXyj+0mYa31FEYhs32nElUVGlOlvU5FPNiB1q4xY1Qx9KvKzPlcZfpM3jrUgktqVpOy9RTGoU/bhtMnUWicl2qg/979EzivDbRG9biUjcZSr5+CeRrOwXurh9Do0cMIKmeCyj5YuX0rZLT6mCSK0+SV2sIyIu4yhN7WBGbS2GkneMmt1lL6Xfls+hxEkp/BsPGmxtTmY2jjTpgy20cHAXGjLrEzp6L0utPWuOMWryG3XxXsU8Vh35KfXVtaTBMxbRslUf0rI5U8n9k0tUk5oo+nXKi5wl7ciklRU5ztpNt3M5IipVbeMabKNZtqWCsl8u0vY5I2nAiCnksWw5LV66jS49rSAijgoe+tL6MZYkElmR60Zfiqif2NTIswGq8gLSMCdqozKIVvafRN+pGcdvgYBI/SqqvzTyKGxyHIILk0LwYJtDy9Z88Rm46H0QJe94wIHPh7S4FOWlUmQ+OovjWYvhv28s9JSv+Y3h4rdjsONZjA2KxGcDWjSavzVVdzZg6YNF+H6FrfIpBuP1oOoONix9gM++X6F8RjVcPLYPdsTZsUGI/GxAy2Ibo9mw2NFSqnBnw1I8WHQQKzQs+fu7I4/aBMchFzAp5AG2OTDvfRn4tAPw2NEOXx2chuZ9WurlUbP84++E5kccTeGRccILKx/Z4h99bNHTfiCGjnTG2AnTMN3VEQPeqnmsz3jt4QtC8N3lNpgzj02KjNcUvgAh311GmznzlM8w/kBY7GgpPApCvsPlNnMwjyXUzaOlqQmjBg6lhVJU8qUI2X8dlnMm/G4JNf7WSbW8EIXPORQXSNF09bhmxGYdYPDzCgxynoMVG72xY/tmfPT+XPzrR1ssWdRV7aal3xJ5fj6K5aUoeq5xwSmjFl6KmCgeE7esxqjf0+MYjGbDQxoTBX7iFqxuiZHK85FfLEdp0fPmbRBjtAwWO1oML41BFD8RW1aP+l0TnD8j8sJCPOeKUSBtaWbCAAB59A6MsrSARYc3sbxwHlYNVf5k+2/L33P5hywJ14/9H4JTiiEXm8Fm1AwscLGtf61bM5BlhOHyxUDEZJZDZG6NfmOn4B+92/whCTWXcRcnTl9DYkE1dMxt4ez+HkbZ/BE9YTAYfyhcBu6eOI1riQWo1jGHrbM7Fo+yUS7FYDBeQ2RJ13Hs/4KRUiyH2MwGo2YsgIttSzITBuSpuHbgFGLbjsO8GY5o9zvfOv57JtUMBoPBYDAYDMYr5HfO4RkMBoPBYDAYjL8eLKlmMBgMBoPBYDBekj9/Ul2ZgZjHOX/YRtmy1Eg8Slf5xv7fjcqMGDzOaa4EOEifxOBZMz7WppI/WN4MBoPBYDAYryN/3qSaL0LkyQ/hYmeHUdvvtPgNHq8EPgXfzRsCp8XHka2cZcpuY6NTd4xYE4Bc5XOvCL4oEic/dIGd3Shsv6NdAlzqz9g9rx+69FmIU6lNP2mqkddB3gwGg8FgMBivKX/epFpoBodZqzBFQvjDdloKbbDkh3sIOTQfHZQkWfXgIn7CdOz49B+w+I2kLDRzwKxVUyBp5l5TkbUzPlgwHOYvIrHXQd4MBoPBYDAYrym/Ubr3OyE0hYmRQPno74qRtQP6dlJ+DyKHtNQ38NHprRjeSunUK0ZoaoKWiEBkZAKjF9X6ayBvBoPBYDAYjNeRJukVnxWF6wH+8A+4jYQiHuAy8eCaP/z9ryH0WXldubK0GCQW8EBVDuJCQhCfq/SZAXkBnoTdws3A+0guUr3UgC98jOAAf/j7+8M/4A4Si3kAJUi6ew3+/gG4k1ikKKi2LiEEKnM8DtLkCNwODkVCrvJChXKkxSQgj6tE5qNwJBTW1Ke2DQVVuQm4FxiIsCQpGp2tzEB0fHaTNcZtBg1Fh7T7KtovQ1pMIhSii0NISDyURdeUSmTF3kXQnSikFiu1JBRAlQg4aTIibgcjNCG38VINQW15gjzvMUJD45CtvCRcrSzUyZvBYDAYDAbj702TpFrYujPeyPkBS6YsxuF4OSBqjU4Widg7ezI+9MtEdV44jq8cDTvJePj4HsYS1wmYNXcC7Hu74WCSIgHjkk9i/uBp+OpRPrJDfOAqGYat9+oT8rq2jNpAL+FbLJw0BTsemqGjkRCAIdobh2PP7giIWxs2u646ikLxpYc71vnFIC3xIlYP7wlX71vI43nkhh7BitF2kIzdggM738UwpyEYuOAEcjW1wechcMc8ePznBlJzo7FvsgSOXheQJZci0vcjjLPrihFbg1GXl2poPy/8OFaOtoNkvA98Dy+B64RZmDvBHr3dDqJGdE0pvoddbpOwObQaesVXsGxwDwwYPQ4Tpm3HLZViKELolx5wX+eHmLREXFw9HD1dvXErr2EyTsi54gUnBye4DOsNmx5T8FVEKdAC3TEYDAaDwWAwGkAqkMdvp4H63WnNXZnigOwureluQEP+/QvJiUj+9HMaqmtKjisuULKMiIr+S7Mt9GjY509JTnJ6/NkgMuy/lWKqiag6nNb30if7TZFUrdwQEVF1DG0bYEBWCy5QERERcZR5dBmt9S8h0lrXczo6SZ/MZ/2XKoiISEpX35dQj5VBNX8Tld1ZTT10LWnmmWziiKPUPaNI16A3rfgpl6RxNyjgUS7FqW2Do6zT7mTn+g2lckRE1RT7+Uhq3XE+nS8lIi6LvnHRI9MZZ6msWe3L6ennQ0nX1JFWXEgmhehmk4XeMPr8qbzmioZUU8y2AWTsuI3i5Iq/H37Sh/S6LqfAGtXQ86M0Sd+cZv23RgJX3ydJj5UUVN8BWt1DlyxnnqFsjqg6fD310rWiyXvDqUBOVBpziKbb6JCeozdFV7dU3gwGg8FgMBgMIqImd6qbg8jYGEYiE9i7uqKLLgAjCbp1EqK4qBAEESSexxF8ygs26YE4svMoQqU8ZBWVTZZIAADEPbHQcwzKzx+EXwYPcE/gG9YeM5yNgZbWVXgJh86kw66vA2pXORsOcoebJB+XT/ujCEIYGOhCaOoIl+HtYNbTBa592uFNtW1I4e8bAD0Hx5qNiGK8tSYQBRnH4GYEQGgCE+MG6yG0ti+CsbERRCb2cHXtAoXouqGTsBhFhaq2/8mRkpyOqrolHmJ06dIJyExBSoVyWQAoxKVDZ5Bu1xcO9R2Au5sE+ZdPw79mNQ1Elhjg0g+tRYBRr/ew+8NhEMQE43a+oGXyZjAYDAaDwWAAqpZ/NIu6dbm1f4sgEgDEKxJDobgCUXsXw/NIJvq+5wlnS6GGN0YIYTnDE9NMbuHg4ViUhZ/B016z4VDzufuW1MXlpOHXch5VVQ0WCYttYG0lRFWRFM95ACpWIKttgytAbn4ligqlatoUQNBgkXFz2m9YHgAEIhEEINSITgldDJo4Du0Tb+LaMw6ADI8TUmHuMgkjjZXLAuBykPZrOfiqqvrlKBDDxtoKwqoiSBUCUEKIdrZdYCbgIK/WIAsGg8FgMBgMhlpUJ9UiMUQqEj0idQt/G1KKq6umYEPBdHy9bRb6W4hrjmtIzYzHwdNDgrijX8DbtxgjZ9pCBLS4LlHHbuhqyiEu4gHqVgHzVZBVCfFGXwdYqhythjZE7dHZygA5/mdxrbC2PI8C/4M4ldhUFi/WviaEaOe2B/s99HDzy23Ys/sznDf4CP4nFsFGIaDGiDqiW1dTcHEReFDfAVTJqiB8oy8c1HSgPC8fFZ3t0a99uXpZMBgMBoPBYDDUojLLEllYoYNuBkJ/eoic3Me4sv8Y7hbIkZf+DPklleA5DnLi6+5MAwQCged58HwxnibnoDQtEc9KK5EedAn3sjiUF2chKixWqaVaxHBYuATDC07jHE3CxDY1h7XWxYHjAOJ5xfKEVhOx3LM3pOf24Eii4p0XfPZ1BKYPxfKlw6EHKBJEeTXqXrihsY10jF8wA52yT+D9d1biW78fcWr3Mnj4ieFkJwLAg+MJxNfcAdbaPg+Ok4P4Bj9YiADiwdfWoYT06npsTp+KL3esg9eqrdi1dS7szRoU4DhwNbIHWmHick/0lp7DniOJird+8Nm4HpiOocuXYrhCAACVo7hIpvh/ZQwOn3yKf3y6AkPEmmShQt58Aa5vdcc/t9+CtL5HDAaDwWAwGH8/lBdZK3hOd7aPpc6mpmTlMJ123bpKa/t3o5Hzt9DJW8F0boMLWYh0SDJzN12NS6TbR5aTk5mQDB0W0aE76ZRxfjkN7GBC5l1H0KL9t+gHD2sys51Iu+4ptiKqRko/LpxI3o8abmfkNNSVTQmXN5FrBxGJrN1ox4VYxSXVKXRx42Tq7zCKZi7+F70315O+CMohjjgqeOhL68dYkkhkRa4bfSkin9PSRhERlVH8KS9ylrQjk1ZW5DhrN93O5YiolOIvbabxHUUktnGjHVcStbRPVBR9jja4WJBIR0Izd1+luMTbdGS5E5kJDclh0SG6k8E1GDsp+nZ6DlnrCQgACQRC0tE3JYtuI8nzxGOSVSTQ5U2u1EEkImu3HXQh9jkRVVPKxY00ub8DjZq5mP713lzy/CKIcmqrLvuFLm6fQyMHjKApHsto+eKltO3S05qNh5pkoULe8iT6Znx76jDxACWr2mfJYDAYDAaD8TdBQNTMz/Ex/gB4ZFz0xsGSd+DhwCNfWozS8lJIMx/h7PEsLPbfh7G1d58ZDAaDwWAwGH8YLKl+jeEzjuPd4f/D5Pvn4VG7JAYAyh9g19b7mPaZJ7qqWlvNYDAYDAaDwfhdYUn1awyfcwEfOM/DKVl/TJowBBILA3DF6UjOaYspm7bi3a61GwkZDAaDwWAwGH8kLKl+3ZFlIOzyRQTGZKJcZA7rfmMx5R+90YbdoWYwGAwGg8F4bWBJNYPBYDAYDAaD8ZKofKUeg8FgMBgMBoPBaD5/8aS6DKmRj5De4AOHDAbjz09lRgwe56h+t/vrAF+SjJikIsX73BmvETxKkmOQVMQ089fkNdVvWSoiH6U3+NLx68XrHk8VvKa6VaJpUl2VjFvHPsPit4dj6LARmPyvf+Pw1TiUKJf7XalCyObh6D5sJS5nN1+g/P+zd95hUV1bG3+nwNCbQEREijgGKyj2gkKUeG0YoxgrRjQkBkvUxJJYsHA1nzHRJEoSW2yRe73GbmLFWAAVlaYgIEV6GYgwMDDnrO+PGdowc2awJ+H3PD6PzJyz99prvWvtPTP7nJP+A6b364/Ze/NaJrcWWmgOZb/iw+5uGLE+8hXnfmPY0jvY/4kPXF2HYN1VxQOWXiuYLFzcHIDezp3h/8OD+odMtfDKYbIuYnNAbzh39scPD1oi83fjpcS3+jpWDeqIgQtOQvelCIv0H6ajX//Z2Kv7SS+F176eKnkpsX1ONF1U67tgaMAivOechaibPAz57FPM+ldnmKoe9zKpvoPjZ2rwzvpVGNW6qcma4DvNwc83ruPHGa3VDLSFFl5T2ELcvpUKRvX1l0j5pV/xh10QNi3q+2pzXwW+hQcmLxwL8et6KYjAAd7Bs+HVivCaWvgawaLw9i2kviShCxy8ETzbC61eV+208Ey8jPhW3zmOMzXvYP2qUdB9KcKH05yfceP6j5ih+0kvhde+nip5GbF9XmiIsABmlmbg88xg1UrDIS8R5vEjtFl0COu8LFXf0oIxHD26w8FA9fUWWnh9qYj6Biv3JL/CbzmrkVjcA9/sC0bX1zB3+GamMOapvvoaIbCAhdnrbOBrQkUUvlm5B8kvUegCCwu0hObvy4uNL4PHj9pg0aF1aP5SxBEe3R3wGpbT17+eKnmxsX1+CFavXr1a9UWARc7FMOy8bonRn74Hd66n9smLkXwzCndTigCL1rA0qF+Es6WpiI5KQBHfAnoVEpCpKfQbnQywTx4hMVsIazMpUqNv4mGVOeysDBqs9uWQFFYC8iIUwwKtLRu+BwBVyI2PQkxyCXjmtrAwaOz1quxYJEttYGOieL0iMw6P5DawFhYgISoWRSI72Bg3aPEZxwOwKE2NRlRCEfgWeqiQEExNa4+SIicuGreTCsGzag0LkYpC2BLc/yMCtxIfIiUlFfmsDdpaG6A85RouRyUgJZ+FdVtrGPDkKE6+iai7KShS9UlFJuIeyWFjLURBQhRii0SwszHW9OkJ8uJk3Iy6C8VwLdFguCpw9AkAVbmIj4pBcgkP5rYWaBQGaSbiUqthbVKGuJgslOTdxe17yUjJY2DtYA293Ns4d/UeHqYVQ9imLSz1ALBP8CgxG0JrM0hTo3HzYRXM7awa2afZdiky41JRbW2CsrgYZOu3hrVh44Fp1x0ARoK0mFuIy6yEoa01jBvexrDRmLKh39oaKl0AAKoLHiD6Zjxy5OawszJspOum/mRRGLkNgVNDcF2vI7pYyVFj7ghbY54W7XDnAMBAkhaDW3GZqDS0hXWjgQDSzDikVlvDpCwOMdn6aG1tAoce3SFKS0GljQ2UqcPhby7NqyDNQVz0bSQV8mDV2gJ1w2iObmvu4Zcvf4PonUUYZxmP89fuIDklD4y1A6z1cnH73FXce5iGYmEbtLXUqzutKjceUTHJKOGZw9bCAI28xJH3usZaXpKCW9HxKODxkPyf3YhzDsCHw9qi1tvSnDhE305CIc8KrS1EjftX8sp1yeGHpjoxBHSxV4122cJIbAucipDreujYxQryGnM42hqDx9G/bvVXHXKUpNxCdHwBeLxk/Gd3HJwDPsSwtnWRaWKfWqRZiE2pgo2NIcrSYhCTLoeVnTn0AVTnJyLqbg4Etq1h2uDxAZpzpgKZcY8gt7GGsCABUbFFENnZoOFUxGWXuljw1dYUzVRkxyL6bhoqDG1hXp6JLDJH5f3zuHZHS20GOG1rBEc8m1KNggfRuBmfA7m5HawaCFezH6E1vtzn1qM19+QSKJYixerHwjUHogrZscmQ1tVT7fHX2W6uvNBUbxvSoJ6O79RAvLqcq3GeZpF793loiTu2XOdqXeu9IJ6pByZtP2b0HY9v7hUh73oofMUDseaGFABQHbsVAcEHkSWvQuKuKej77k9Ib/iNBJOFK9sC0duxEyZvO4A1w3ugz7C30M9NDO+QayhTdID9M/pi/Df3UJR3HaG+YgxccwOKHgCU3cAmv9FYFVkDUdkpzO3rhl5Dh2Pk+HW4kH0Hhz4dDtf2g7HmShXYwmjsXTAUruIRCD20E3N8R2LytJFw7+qHsBTF74/PNB7FUYjdGoDgg1mQVyVi15S+ePendMgBsLlnsXb2IoRFxOLm4UUYKB6MFeeLG+/15hujlegBvp81GmPXx8CijWJRYfSGCaK3bMYtoRWMSINP2EJE712Aoa5ijAg9hJ1zfDFy8jSMdO8Kv7AUNVsJGKTtn4G+47/BvaI8XA/1hXjgGiiHq3Kohj6Vb5fd2AS/0asQWSNC2am56OvWC0OHj8T4kP/h8q75GOoqxrDVO7Dx3YHo368vPr1hgvyf52Ds7J1IlAMCKwfYJm3FlDGfIDynGllXtiGwtyM6Td6GA2uGo0efYXirnxvE3iG4phCGBttZFETuwvyhrhAPW40dG9/FwP790HvmPhTXjUUH3QEojfwaAf5LER6XiaTjizCoky9CLhWCZQsQ2WRMvTFzX10PCthCXF4/HQH/dx4ZBbHYNkYMz+BjyGU5/MmWIqfYEJYmLFhZBUpLyyCVa9EORw5ckgIojcTXAf5YGh6HzKTjWDSoE3xDLqGQBdiCSOyaPxSu4mFYvWMj3h3YH/16B2DHpUP4dLgr2nutg2KbnSZ/g1PzjWGRe3YtZi8KQ0TsTRxeNBDiwStwvjC/mbptDN+qHdrm/4w5Y2djp0JMcLBNwtYpY/BJeI7y/DLc2OSH0asiUSMqw6m5feHWayiGjxyPdZekmvNe11hDirgfpsE3cCfuZqfgxPJghCU3sJzNxdm1s7EoLAKxNw9j0UAxBq84j+KGyf8a6FKTH9TqpNckfP5v7faq124hSnKKYWhpApaVoaK0FGVSucb+oXP9VYM0Dj9M80XgzrvITjmB5cFhaBwadfap1GW2BLf2L8Jb4g7wWh2OI6umYFLA+xjfzw19F53FrX0fYdS4mfhgQl+4DVqlzAtNOcOiMHovFgx1hXhEKA7tnAPfkZMxbaQ7uvqFQTkVabRLri4WvWdiX4GGmtJwHLVIE7AnaCSmbfwNCQ+u4KtJHnDuNA4/PGBh1a4tR21WGKfJNtXdwlzxVIUtvIz10wPwf+czUBC7DWPEngg+lgtWox+VJ3LGV8u5dYdpzz1tY9E4B667gOw7yno6eA2uVOkSfx3t5swLDfW2UdHRhC7nMlrmaf6za4kztprPleuw1nuhkFpq6OaKrqQnGk27/1R9rxY53d/Qh4x6rqG4GiKqiaZlXQzIfeUdqiEZXV/chdw/i6RKIiImjw6s20YJNSpNyK7T4o56ZOe9is4+riGqSKQfx9mTQL8nrb5XQ/L7G6iPUU9ao+iAopd1IQP3lXSnhoiohuLW9iITz7WUIFf8HfN5NxK1n0eXZYrmmdzvyEdkRhMPVxARkTz1Sxqgb0ae849RmoyISv9LU2xFNPDLVJI/r/F0cafPIitJcdgBWrctgWqYfDo0ZSgtjaw1LIO2eOmTnkftWBqiGJeh/Uw6Vqo8PGc3zV1yhp4QcftEnkpfDtAnM8/5dEwxQPrvFFsSDfySUuUq3cjv04Y+RtRzTRwphruMuhi408qmBnH3WRNHa3uZkOfaBFKEIYY+7yai9vMuk4yUYx2iT4Zd59PvBRJKOH+W7hVXU+K63mTQcTFdU7pEdm0xdTTsR/9+KCciGV1f3JH07Lxp1dnHVEMVlPjjOLIX6FPP1feohtN2hjK2DCF9w640//cCkiScp7P3iolpOCAtuiPJafpA7EYLIhRxJKqgq4vcSN9uEv2Sx2gYU8MeGMo96E+uvt9RBkNEVEPxX3qRVZsZdLRciz+ZHPrWx4DsA09TFRERp3a05YCETn8gJrcFEQrdElHF1UXkpm9Hk37JI4aImIwtNETfkLrO/50KJAl0/uw9KmYYyv3Oh0SWk+m/lVq0oknzyv5qYfIP0ZShS6l+GFvIS1+PPFbeoZrm6JaI6M/dNNrAkib/V9GnPHEd9TboSIvrxUSLOxpSv38/JDkR1cStpV4mnrRW4SSqifmcuona07zLMi11TJN+G6mJKq4uoW4uM+mYRPlC+UmaZa9Hby65QTJiKP/QFBq6NFKRD8RQxhYv0tfzaJprr1SX3H5Qq5NKLfZyapehnG99yMA+kE5XkZY46Fh/m1BBV5d0I5eZx6g+NLPIXu9NWnJDpsW+hu3U5qWIjPouo4hcRY2K+cKd9Mz70We/P1bkxZ0vyF3kQsGXqrhzhuSU+uUA0jfzpPnH0kgxFU0hW9FA+jJVrtUudbEoSOCoKY14QhcXdCGPJddIMSsSya4vpjdFXWhZtMI2ztqsxbZ6uOKpApNLB/1dyfe7DEWdromnL72sqM2Mo1TO6Uct8eU8VwXO3KviHou2OZCU9dRsIimWIlrir7PdmvOCs96qtKJaT3U/V8s8/Uxa0hJbznO1rfVeLM/wTbUA4qC9uHIgGE5Zl7Fr425ESljIKqvAQgh7sSMyvhqDwTM24EiCHvxXfIyGvywAAPiGMDQQwKb/WPjYCwEjNwSsmQ13ikNERD544iDsvXIAwU5ZuLxrI3ZHSsDKKlHFAoAc6WlZqObzlD+jCuHs7ADkpCO9Utm8qWndT9cAIDAxgbHAFO6+vnDWB2AsRgcHPspKS0DPYzxCe4gdM/DVmMGYseEIEvT8seLjThBKL+Po2Wwkn9yM0NBQhG48gErf1QiZ3hOGKk0AQnSaFYS3pEcRFp4NFgySD0XhjYneMAEg4PKJwAQmxgKYuvvCVzFAiDs4gF9WihLV/f0CMYL2XsGBYCdkXd6FjbsjIWFlqFQ4V+VQjj7l6UjLqgafp3S00BmKMKSjEsoY6/Nh5umDQTYW6OTji25W2mTHh6GhAQQ2/THWxx5CGMEtYA1muxPiIiKQz+OynQ9DQ33wzTzhM8gGFp184NvNqvFPMlp0V3TiR/yS5YruHrU74IzQx98P4qKTOHimVIcxSXDm0FmIPDyVF7MI0XnxZRRn74GfsRZ/qsKpHS05UHICP/6SBdfuHnV7+Yz6+MNPXISTB8+gFADf0BD6fDN4+gyCjUUn+Ph2gxWfD1NTk3qfcWlFk+Zrz1UivXwUZ7OTcXJzKEJDQ7HxQCV8V4dgek/D5un2KZCnpyGrmo96iTrDATlIT6/UUsd00W85zm7fg7SuQzDUQvmSgTOc7Op/nrx89Cyyk09ic2goQkM34kClL1aHTEdP1eR/pbrk9oNanQi57WU5tasKV/861l9Vys9i+540dB0yFPWhcUJ9aJphH98ExkY86Dv3gGdrAQB9iF0dIYQDegywhxCA0MkRbXhlkEiIO2cggImJMQSm7vD1dYZiKuoAB34ZSktIq13qYmHzpo41pewUdux/gj7De8JI+ZLA3Bwm2kpyLVpsq4crnipIzuDQWRE8PJU3FBB2xuLLxcje4wdjLj9qiy/Xuapw5l4RXLnGom0OhKKe1i9FtMRfZ7s15wVnvdWC7udqmadVzVWFS0vaYst1rta13otF11RSC19YibtbZyNoVw66vx8Ebzu+0mA+2s3ah3M7/GEasR4Te3RE//lHkanDN+/C9p3RwRiokclAfCEq727F7KBdyOn+PoK87cCv84g++owajjeSLuC3RwwAGe4/yIClz2h4mSgP4fHqJtK6vxv8CZ4AAh5ArNLqZx0Pvx1m7TuHHf6miFg/ET069sf8o5moeVKI4koR3PyWYNmyZXX/li4Yg45qJga+3UQEjTfFpbCdiK+Ixi+pXTDFQ7lLitMnKuMFDwLFANUIiQ9h5V1snR2EXTnd8X6QN+zqG2oMV5/6fTBq+BtIuvAbFGG4jwcZlvAZ7YXaMKjdPNpchO3RWSEMyEib7c3vsF53UuRlPoaUrUZ1g5uKCp0cYc+vRqnkT0Uh5eqCKUZBURVKSyRq/K7FnyqwnNrhzgEmPxOPpSyqGw8EjvZ8VJdK8Key6KkbCq+RkDj8rUHzjVODxZPCYlSK3OC3pH4My5YtxYIxHSFslm6bj36fURj+RhIu/PYICok+QIalD0YrC4XmvFeizkG1MFl48LAUEAjVF1P2CQqLKyFy88OSBvFbtnQBxqhLfhVepi61+YGr6Voa1m+GU7uqZ3L1r2P9VYHJegBFaNRGRktuqR6tqlGAx+ehsYP44KP2ri8cOdMkvwCeQAAeCCzpZleTWOhYU5icVKSXC6Gv16QFndDFtlo0x7MxTHEBiqpKUSJR965mP2qLL9e5utBQyzyusegwB/JU1h5c8dfdbk15oa3ecvEs56rO06pvNoZLS6653LHlOrejEFrXei8S9RZzwiD14B6cryjH6YVjsbx4Ar5dOxk9bWvdTYr9NvGP4RCwFRceJODE8m7I3B6M9edlKm0pIGrwkaZGiirWFm5d2qDy9EKMXV6MCd+uxeSetnUBrS1aNn5bsD1AhAtfr8WWzRtw1PBTnNkXCKfG12HpyHMYD5OF+McOCNh6AQ8STmB5t0xsD16Pi6I2sDN6gPCdFyCpPxhpZ04hVu2+QBMMDwqAOGE3vgo5hDKvSXBRjqmc0yfNoPw0Fo5djuIJ32Lt5J5oNFwVOPvk28Bvy3YEiC7g67VbsHnDURh+egb7Ap3qLtBSh0AoULNoIlDDiZKowbcaNZBWsbB164I2lbrbzoV63TnAoUN7mDEJuHW7fhMbWy1DNb8tunvYaU8awRtoZ2+I/DOH8VtJ7Yssis+E4UASw+1PFfhmXNrhzgFBmw5ob8Yg4dbt+r2VbDVk1Xy07e4BO60DUcKlFQ2ab5wafJi1sYPRg3DsvFA/CjBpOHMqVs3+62YiEEJQNyHVQ0ox8W38sGV7AEQXvsbaLZux4aghPj2zD4FOAi15rwM8K1hbCVEVfxt3VcoBsSzAN0MbOyM8CN+JxkM/g1Pqk/8V6bLsqf2g3t420OPUbv0pCrjioGP9VYFnZQ0rYRXib99F4yMJitA0x75mwpUzWngau3StKTwLS5jjMW5FKj5gqoOrNutuG1c8GyN4ox3sDfNx5vBvqJdlMc6EHUBSmWY/aovv08RAvZbN8BvXWJ5yDtSIznZryouaZ6i3T1GrNc3TgqfXUpwZd2y5ztWUIy8LDXWYRXVVNYgqUSlt/B2+NH4HVt8wRE/DMqSm5aM8MwmPyquQFXECN3IZSMtycTcqFlnhmxAWIwUMnPCv5V9ggpMRRE3uSgAALAoz0lGu/H/O8eOI7RKEj7z1UZaahvzyTCQ9KkdVVgRO3MgFIy1D7t0oxJcDktPLsCprHL5evxTBC9dg05ppcK/9rQAAWAYsKRMMAMswkBPb4NMKgUBgWRYs+xzGw2QhfFMYFIf9C8u/mAAnIxEMTIZh5mRnpIf5Y8iUEPwUfgR7QwPx2XVjuNQmjApCj1mYM6gYB48QRo9qpXyV5fbJnwwYOYFtIGIixeRe64Na2LJUpOWXIzPpEcqrshBx4gZyGSnKcu8iKl4RDeWR3H2WS3B62Spkjfsa65cGY+GaTVgzzb3uJxtAUQzkNQ2VLoCtfWvoZ0fi95h8FNw/he17rqFYXoisR0V4ovwmji3MQLrSFDbnOI7HdkHQR97Q12o7AfIa9QWgDk26M4D5qHkI6irBkS27kFSteD/v3GVkDZiHjwYpb4XTZEwNMceImRPhkLcPH7yzAN+H/w8HNs9FQLgQ/V153P6UGsBABPyZm4OSwihcTR3AqR3OHDAfhXlBXSE5sgW7FAMBm3cOl7MGYN5Hg1B7Ux+CHKpDYRlWUQxZLVqJTVKveZXUMB42E5Od0xHmPwRTQn5C+JG9CA38DNeNXSBkddctAIBhwCjzFgAEtvZorZ+NyN9jkF9wH6e278G1YjkKsx6h6EkVIDmNZauyMO7r9VgavBBrNq3BtFonceZ9vOIYrljzbTB62ihYp+3EwuUnkVkNyDJiEF/AQJKdgbwyHobNnAzn9DD4D5mCkJ/CcWRvKAI/uw5jtcn/inTpUq7VD+p0wmUvjLnqHh8GCqEjp6QQUVdu4L7G/jnqr/Qmts0YhfdCflNcBNwAvs1oTBtljbSdC7H8ZCaqIUNGTDwKGAmyM/JQxuOyr3FbAAOWVX5QqoUUQq1bMBCBwIJltORM/J9gGDmIbfBBUCF4haY5/VbbdcNYaKvRtccBfNu38c4QQ0T9ewo+2v4bom9fxJ7dF5Fbt8LWUpsF2m0DdMyrWsxHYOZEB+Tt+wDvLPge4f87gM1zAxAu7A+Xcs1+vJnvzRlfSZ7mcxvPcbVo0PIQmZaxaJ8DWYYFEatcfLKc8efWTkO7GY15wVlvG7SgaKZxPW3WudA8Txs8g5Zc7Z4tdznXeg2NfxGobrImWSpd2htKE8R6xOPpk133oeQ7YgSNGOFLPgO7URsjC/LbU0BEDGUfnUe9W5uSZfvBFLj9Ev0c4EgWLqNo040Cura8P7V3f4sCPl1NIUvn0JzQC5TX+Poeopo79EV3fbLrO5EC5y6kT+ZOpXH+n9OJDMVWcib7KM3r3ZpMLdvT4MDtdOnnAHK0cKFRm25QKTGUfXAqOYp4BIB4PD7pGZiRbQcvCtp3n2TliXRi1QhqIxCSk996OnXrFh1Z7kO2Aj0ST9pMpxOS6I9d86i/BZ+MPALpx6tZzz4e2TVa3r89ub8VQJ+uDqGlc+ZQ6AXFBWFUkUj7g73J1VJE+mbtaMCcPRRfe6WIBiT/m0WjQu41ujhAs0/O0bUjy8nHVkB64km0+XQCJf2xi+b1tyC+kQcF/niVshtds5RNR+f1ptamltR+cCBtv/QzBThakMuoTXRDeYFk/aGa+rxBpUw2HZzqSCIeCOARj69HBma21MEriPYl5FLMoWX0lp2ABPa+tOLQLSqqteHPq7RuWDsyM7Mnjwmb6NLpJdSzgxfNWL2fbhbJ6M4X3Unfri9NDJxLCz+ZS1PH+dPnJzIUFxlotP3fdDbiEC17y44EAnvyXXGIbtV12AAtuiMiqkk/TivG9CSPIZNo9ofv07SgryginyFiijWPqREVlHggmLzFNmRqbk+ekzfTHwWKAzn9SXJK2f0eiS1bkdhvM0U+4dKOlhwgIqpJp+MrxlBPjyE0afaH9P60IPoqIl9xkWJxDB1a9hbZCQRk77uCDt0qIoaIyhNP0KoRbUggdKZxG05TklSTvzfRjQIOzatQkbifgr1dyVKkT2btBtCcPfFUQaUU2xzdVj6gkyt9qbVAQI5+6+lY/J9E9CddXTeM2pmZkb3HBNp06TQt6dmBvGaspv03i4jJPkhTHUXEAwg8HvH1DMjMtgN5Be2j+zKOOnbtkW6xZiQU/V0A9XW0JAsnTxr98Wqa1deZ+k3+nHbfyFVoYX8webtakkjfjNoNmEN71CX/K9WlZj/8+2yEWp3oYq9m7RLJU3bTe2JLaiX2o82RZRr756q/TPZuGtfagqxtB1BIXJNLsIiRRNN3AX3J0dKCnDxH08erZ1Ff5340+fPddCOX4bSvnnJKPL6KRtgLSOgynjaeiKOMu/+jtWPakUDoQuNCf6V7j25R+Mp/kb1ASM7jQulM8iONOXPu2hFa7mNLAj0xTdp8mhKS/qBd8/qTBd+IPAJ/pKvZmu3SlLPcNaUx8pzfadVoN7IxMSOnoQsp/Mwq8jSsvVBRW23WbFtjNOtpk+oEQwqdHAj2JrGNKZnbe9LkzX+QQpYctadUS3yzszjPbQSnlrWMhWsOvC9rUE+dyG/9Kbp1S0v8s3S1W6YxL0hjvVVBbT3V8Vyq4Z6n6dm0xBlbrtwtjdWy1stuMIbnD4/oFT6iRn4XKz374djo67i91kPtpyDNsMg+HoKwJ+8gwINFkaQM5dJySHLu4fDeXMw+sw3DuO6v3cLzgc3G8ZAwPHknAB5sESRl5ZCWS5Bz7zD25s7GmW3D6r4R1R057q70RL9jo3H99lp4NE8Y2nkm3b1OtOSALrDZxxES9gTvBHiALZKgrFyKckkO7h3ei9zZZ7DtdXHSX02Xr4291bi6/CPcDgzD/Np9ci3oDJO4Dn09D2NYxB1s6PXqovhKeRYtv5A58K/AC56n/6Jo2P7xsmn+F/Js9j4EL7gHl7e7waWTO3oP8IL3sJEYP8EXnr06q/n5roXnD4vsfcFYcM8Fb3dzQSf33hjg5Y1hI8djgq8nenVW/3NRc2i+MprDi239RdOSAzrAZmNf8ALcc3kb3Vw6wb33AHh5D8PI8RPg69kLnV9LJ/3VdPkq7WVRfP0HnGw1FdNbFtQtPDPN1fKLnwP/CjTXa39nXu2iWl6Ckj8ZlBVLoNjx2QyEFmhteBHz+3hj6vwVCFm/Dqs+/QDTPvwfXOYEon1LfX0pCC1aw/DifPTxnor5K0Kwft0qfPrBNHz4PxfMCWz/dBdqQI6Skj/BlBVD0mxh6MCz6O51oiUHdEAIi9aGuDi/D7ynzseKkPVYt+pTfDDtQ/zPZQ4CXycn/dV0+RrYy0ricJcdhdWLhqC5T45uQYG8qAhl8nKU/tlkw/w/h2fQ8ouZA/8KvOB5+i/Kq9v+IUvBuT3/wZX0MsiFFnAaMhEzfVx0fOysElk2ok4ex+W4HEgFlnDsMQxj3+6KVn9fFb+WyLKjcPL4ZcTlSCGwdESPYWPxdtdWT1lMZEg5twf/uZKOMrkQFk5DMHGmD1yaJQwOnofuXidackAHZMiOOonjl+OQIxXA0rEHho19G11fJyf91XT5V7O3BbUw2dew7+BvSCqugZ6lC7z938eQp7t91l+X56Dl5zsH/hV4wfP0X5hXt6huoYUWWmihhRZaaKGFvwmvdvtHCy200EILLbTQQgst/A14vovqigzcuZeFBg/8+htTgYw795D1zxhsC88J9kka4lJKWy7seGWweJIWh5TSv2IE/sq2Pz8YSTLiHlWovtzCXwIGkuQ4tITvNeXvsoZjJEiOe4RXIbPnuKhmkf7DdPTrPxt78/7+RZ9N/wHT+/XH7L15LQskVcp+xYfd3TBifSSeqL73XJEi6dxOrHnfFwMHDMDAwW9h1Hh/+I9/B+OnfIDP/u8QInNekysomCxc3ByA3s6d4f/DAy0Ppvn7Uvbrh+juNgLrI1+sMtTBZF3E5oDecO7sjx8evMgIVOP6qkHoOHABTj6nWvjybH+NYTJwcfN09HDuhlkHMjQ+EbCF1xMm4yI2T+8B526zcCDjrxC955/HL4+nsf3vsIZjkHFxM6b3cEa3WQfwKmT2HBfVfDjN+Rk3rv+IGa2fY7OvKXynOfj5xnX8OKP183Tic4BF4e1bSH0FYqql/NKv+MMuCJsW9YWp6pvPFSN0HDYLS/zs8DAqAXYf/YqTRw7j8JGD2PZxP8iOLcDgzv0w93+vwQQscIB38Gx4tWrwBLaXDFt4G7depTBQjku//gG7oE1Y1PfFKkMdAgdvBM/2QqsXfRlJ9R0cP1ODd9avwqjnVAtfmu2vMwJHeH88E4Ms1TyxuYXXHoGjNz6eOQiWf5XoPW0es4W4fSv11c45T2X732ENJ4Cj98eY+QqLxPP1nLEjPLo7wED19b8lxnD06A6H122wFVH4ZuUeJL+yL7OqkVjcA9/sC0bXl+QboYU5THk8CAS1cjZAm34B+PrsCXz+5kOEvR+AbxJfaYlTILCAhZnK87tfGhWI+mYl9rw6YQDViSju8Q32BXd9ZTVCYGGBFx0C5vEjtFl0COu8nu9N3l6G7a89AmOYGj/faauFl4fA2BR/lfA9bR5XRH2DlXuSX+mvkU9r+99jDSeAsanxc17c6o5g9erVq1VfBADIi5F8Mwp3U4oAi9awNKg3kS1NRXRUAor4FtCrkIBMTZW3n6lCdmwypDY2MKkr/lXIjY9CTHIJeOa2sDBoOCtUIDPuEeQ21hAWJCAqtggiO5tGSScvTsbNqLtQmGGJBmZAmhmH1GprmJTFISZbH62tDZs6ki3B/T8icCvxIVJSUpHP2qCttQHKU67hclQCUvJZWLe1hgFPjuLkm4i6m4IiWKC1pUF9W9JMxKVWw9qkDHEx2dBvbQ1DPlCVHYtkqQ1sagf7VD7joLoAD6JvIj5HDnM7KxjWNafeVrYwEtsCpyLkuh46drGCvMYcjrbG4AGQ5sQh+nYSCnlWaG0hQsMoVOXGIyomGSU8c9haGDR6DwAYSRpibsUhs9IQttbGjW4T1DQGJnDo0R2itBRUNtABVxyfyjcNYDLO4ruf76HN+EV4t7Ne/Rv69vB0yMD+Pb/iRnU/fDDaFYp3pciJi8btpELwrFrDQqQ6YvVUFzxA9M145MjNYWfVQGsccQcAeUkKbkXHo4DHQ/J/diPOOQAfDmur8KOWczXRLFvYQkRuC8TUkOvQ69gFVvIamDvawpgHLb7gyl0o9kemxeBWXCYqDW1hbdxIGciMS0W1tQnK4mKQrd8a1iYO6NFdhLSUStjYmCh1pl7LzYVLX4AcJSm3EB1fAB4vGf/ZHQfngA8xrG2tvZp8IEVWbAqqbGxgWJaGmJh0yK3sYK4PoDofiVF3kSOwRWvTho93kENSWAnIi1CsOh62FKnRUUgo4sNCrwISMoWpVqE/re2aYFGaGo2ohCLwLfRQIWFQnnoF1+4kIyWPgbWDNfRyb+Pc1Xt4mFYMYZu2sGyQUuqoyIzDI7kNrIUFSIiKRZHIDjYqKyfOGpIVi5QqG9gYliEtJgbpcivYKZyM/MQo3M0RwLa1qeIhGmwOLobtQVqXOZjVH0iKjkOB0Bq2Jg1ioKFeN99X6qnIjkX03TRUGNrCvDwTWWSOyvvndfShJhvU5Iuy4Guq3c3yWy2MBGkxtxCXWQlDW2s0Stlm61NVSwTT2hPU1SEAbM5FhO1JQ5c5s9AfSYiOK4DQ2hYNwweuMTeZb9TM+Q1RnUORi7vnr+FOcgryGGs4WOsh9/Y5XL33EGnFQrRpa6mcIzjyuCITcY/ksLEWoiAhCrFFItjZGIMPFoWR2xA4NQTX9Tqii5UcNeaOsDXmafQHnmL+Y588QmK2ENZmUqRG38TDKnPYWTWsmxy2A0BVLuKjYpBcwoO5rQUal/Wmazit+f08xsYWIyHiCm7ff4iUtGII7UTIuf6H4u/adZtVJZKuRuBmYiokIgfYmws15BOLnIth2JPWBXMURQJxBUJY25q8lAfxqNUjk7YfM/qOxzf3ipB3PRS+4oFYc0MKAKiO3YqA4IPIklchcdcU9H33J6TLWUjuHMKnw13RfvAaXKnd5V52A5v8RmNVZA1EZacwt68beg0djpHjQ3D0yl4sGOoK8YhQHNo5B74jJ2PaSHd09QtDCgMADNL2z0Df8d/gXlEerof6QjxwDW5IAbYgErvmD4WreBhW79iIdwf2R7/eM7GvuOEolPCN0Ur0AN/PGo2x62Ng0UbxCcboDRNEb9mMW0IrGFEa9s/oi/Hf3ENR3nWE+ooxcM0NSNkCRO6aj6GuYgxbvQMb3x2I/v16I2DHJRz6dDhc2w/GGuVgm+8zFTsbwaLw8npMD/g/nM8oQOy2MRB7BuNYLgswGmwFi9KcYhhamoBlZagoLUWZVA6wuTi7djYWhUUg9uZhLBooxuAV51HMAkAZbmzyw+hVkagRleHU3L5w6zUUw0eOx7pLUgCliPw6AP5LwxGXmYTjiwahk28ILhWyGmIQgB2XlDrwWoer1eCMI57KN83DeOAw9Dcn5F69hPhqgM09i7WzFyEsIhY3Dy/CQPFgrDhfzL0vni3E5fXTEfB/55FREIttY8TwDD4GRTg0xx2QIu6HafAN3Im72Sk4sTwYYcn135hzn6uBp7CFLc1BsaElTFgWsopSlJZJIYcWX2jM3XVQSCMSXwf4Y2l4HDKTjmPRoE7wDbmEQpZFQeQuzB/qCvGw1dix8V0M7N8PvQN24NKhTzHctT281l1VPGBBo5abA7e+II3DD9N8EbjzLrJTTmB5cBgahECDDwpRdGs/Fr0lRgev1Qg/sgpTJgXg/fH94NZ3Ec7e2oePRo3DzA8moK/bIKyq7YxrPNWx2BoQjINZclQl7sKUvu/iJ21CfyrbubRcjditAQg+mAV5VSJ2TemLd3/KhFm7tsj/eQ7Gzt6JRDkgsHKAbdJWTBnzCcJzNP/CwxZGY++CoXAVj0DooZ2Y4zsSk6eNhHtXP4Qpijh3DSm5hf2L3oK4gxdWhx/BqimTEPD+ePRz64tFZ29h30ejMG7mB5jQ1w2DVjXWBeWfQnB/D/T3GYiuTm4Y+80tlGuo1zP3FT+Fr9QgTcCeoJGYtvE3JDy4gq8mecC50zj88ICFlQ4+VG9DIfLU5cvMfSjWULsLi57Ob6WRXyPAfynC4zKRdHwRBnXyRcilQoUPmq1PdVpKh1ynukbIPxWM/h794TOwK5zcxuKbW+WKtzSNOU/dfKNhzgc0z6H5FmjXNh8/zxmL2TsTIYcAVg62SNo6BWM+CUcOw5HHbCGi9y7AUFcxRoQews45vhg5eRpGuneFX1gKGLYUOcWGsDRhwcoqUFpaBqmc2x/Nmv+YLFzZFojejp0wedsBrBneA32GvYV+bmJ4h1xDGThsVzZRdmMT/EavQmSNCGWn5qKvWy8MHT4S49ddQLbKGk6X/H5uY+Mbw7TqIlZNGItFZyphYWAGW/MU7Hh/DKZuT0WrN4zB55ui1ZMTWPd9AgSmehryqUFOUz5OBfeHR38fDOzqBLex36BWZi8UaoKc7m/oQ0Y911BcDRHVRNOyLgbkvvIO1ZCMri/uQu6fRVIlERGTRwfWbaOEGiIihnK/8yGR2UQ6XEFEVENxa3uRiedaSpAr/o75vBuJ2s+jyzJFP6lfDiB9M0+afyyNZERU+t8pZCsaSF+myonk92lDHyPquSaOFGYsoy4G7rTyTg0RETEZW2iIviF1nf87FUgS6PzZe1TMNBxHQxS2GNrPpGOlileYnN00d8kZekJE8vsbqI9RT1qjGDBFL+tCBu4r6U4NETEZtGWIPhl2nU+/F0go4fxZulfMEJP7HfmIzGji4Ypn8Jl6mNyD5O/qS99lKAZUE/8leVm1oRlHy7ltJYZyvvUhA/tAOl2l+Dv/0BQaujSSZIqWKWOLF+nredDKOzVUE7eWepl40lpFgKgm5nPqJmpP8xQBIsnpD0jstoAiKpWGVVylRW76ZDfpF8pjNMVAqQPLyfTfStISx+b7Rh2yiHnUXmhB/uEVqm8Rya7Qgg5C4tvNopMV+XRoylBaGqkYHzEZtMVLn/Q8av2nDoZyD/qTq+93pAhHDcV/6UVWbWbQ0XKuuBNVXF1C3Vxm0jGJsqnykzTLXo/eXHKDZJya0cTT28LkfEs+BvYUqBAGEcPlC225K6HTH4jJbUGEIm5EVHF1Ebnp29GkX/KIIYYytgwhfcOuNP/3ApIknKez94qJYXLpOx8RWU7+LymkwaVlHeHUVwVdXdKNXGYeo/oQzCJ7vTdpyQ2ZFh8ocklk1JeWReSSnIhkMV+Qu5459fvsd3pcQ0Q1d+gLdxG5BF+iKi3jkV1fTF3cP6NIhdAp78A62sYp9GexvWE7DZBdp8Vd3OkzhRHE5B2gddsSqIbklLiuNxl0XEzXlM3Jri2mjob96N8PFbVBE/LUL2mAvhl5zj9GaYoiTlNsRTTwy1SS61JDcr4lH5ER9V0WQbkKJ9MX7npk3u8z+l3hZLrzhTuJXILpUlWtrvXJfsxWii6WE5XH0Y8TnEhP5EkhsTXq63VhbvN91YQndHFBF/JYco1qq4zs+mJ6U9SFlkXXEGnzIWe81OVLIeVy1O5m+01ymj4Qu9GC+kDQ1UVupG83iX7JY5qvTw4tcdWhmuhl1EXfnsZsjSZF+H6kCU56JPIModga7vlK/XyjYpcSrjmU5Im0rrcBdVx8TdmPjK4t7kiG/f5ND+XceUzyVPpygD6Zec6nYwrB03+n2JJo4JeUKiciJoe+9TEg+8DTpKi0XP54ivlPdp0Wd9QjO+9VdPZxDVFFIv04zp4E+j1p9b0abttr4mhtLxPyXJtAirIeQ593E1H7eZfr/N14Dactv5/z2EhCR6bakdnw7ymTISKqoj8+EZOo6wq6WUNEJKeHW2bTF9e11T/FuPXtx9DW6GKSUznF/TiBnPRE5BkSyzG/Ph/UfFMtgDhoL64cCIZT1mXs2rgbkRIWssoqsBDCXuyIjK/GYPCMDTiSoAf/FR+jkxAA+DA1rf1JFwDkSE/LQjWfp3xNCGdnByAnHemVin5MTIwhMHWHr68z9AEYizvAgV+G0hICBGIE7b2CA8FOyLq8Cxt3R0LCylBZpfgcwjc0hD7fDJ4+g2Bj0Qk+vt1gpWY0CoToNCsIb0mPIiw8GywYJB+KwhsTvWECQCAOwt4rBxDslIXLuzZid6QErKwSVSwAviEM9fkw8/TBIBsLdPLxRTcrPvimpg22uDytz9QjOXMIZ0Ue8FReLCDsvBiXi7Oxx8+Y29YmSHH56FlkJ5/E5tBQhIZuxIFKX6wOmY6ehoA8PQ1Z1XzwlOMQOjvDATlIT68EUIITP/6CLNfu8KjdYGXUB/5+YhSdPIgzpZpioNBBXSg449h83zQbKke5lMA3tYBl1WUcPZuN5JObERoaitCNB1Dpuxoh03vCUPW8OiQ4c+gsRB6eUIRDiM6LL6M4ew/8jLniXo6z2/cgresQDLVQNmXgDCe72t9buc7VxNPaogYply+05G7JCfz4SxZcu3vU7b0z6uMPP3ERTh48g1LwYWioD76ZJ3wG2cCikw98u1mBzzeFqUl9kjZPyxrg0lf5WWzfk4auQ4aiPgROqAsBpw/4MDE2Ak/fGT08W0MAQF/sCkch4NBjAOyFAIROcGzDQ5lEAtIyHqG9GI4ZX2HM4BnYcCQBev4r8DGX0J/Jdg0I7SF2zMBXYwZjxoYjSNDzx4qPOz3TT6ICExMYC0zh7usLZ0URRwcHPspKS0C61BATYxjx9OHcwxOtFU6Gq8LJGKBwMpwc24BXJoGk7sIjAex6+aCHlQAw7oL3N3+Cgbw4XPmjCKy6em1wpfm+UqXsFHbsf4I+w3vCSPmSwNwcDeTMDWe81OWLAa5w1O7m+q3kxI/4JcsV3esDgT7+fhAXncTBM6XN16dGLelQhwR26OXTA4rwvY/NnwwEL+4K/igq55yv1M83jc2qhWsO1QZXHkNgAhNjAUzdfeGrEDzEHRzALytFidoL47j88RTzH98QhgYC2PQfCx97IWDkhoA1s+FOcYiIyAePy3Z5OtKyqsGvn/ChKOvpqFQ0rrKG05bfz3lssMDbAePQ6tpB/JLCAGwJ0soEsEg+iN0RUkAeh8P3XeHfS19LPikQ2PWCTw8rCGCMLu9vxicDeYi78geKmjO/PAVqJckXVuLu1tkI2pWD7u8HwduOr7yQko92s/bh3A5/mEasx8QeHdF//lFkKn/p4/FqJ2EA0EefUcPxRtIF/PaIASDD/QcZsPQZDS+T+uMbwhMIwAOBJQDgQ1h5F1tnB2FXTne8H+QNO35j1TZnRxzfbiKCxpviUthOxFdE45fULpjiodzdwxei8u5WzA7ahZzu7yPI2w6NulLXEY9XtxjFM/isKQyKC4pQVVrSYBJpgDZbG8I+QWFxJURufliybBmW1f5bugBjOgqh32cUhr+RhAu/PQIDQHb/ATIsfTDaywRg8pH5WAq2urrBPSuFcHK0B7+6FJI/FcpU75qGr3LFsbm+aT7ylFu4U0Cw9OyHzrJCFFeK4Oa3pN4Xy5Zh6YIx6Kgp2ZliFBRVobREsXBSRWPcmSw8eFgKCITqk4zrXE08rS1qYJ9w+YI7d5n8TDyWsqiubnA3U6ETHO35qC6VQCENtcpolDPN0rJGNOuLyXoARQjUR4DbB6o6BsDjg9fIozzw+UDdDTk4xsNvNwv7zu2Av2kE1k/sgY795+Moh9Cf1Xa18Nth1r5z2OFvioj1E9GjY3/MP5r5bHcpaFTzAfAEEPAAYkm3GqJ6Pnjg8xpfuM9r5OSm8G1c4GzBAyOvUbygEran8pUKTE4q0suF0NdTp2vtaLehidGctbt5fmOQn/kYUrYajVPWEfb8apRK/gSaqU8uLTWnDgF82Lg4w4LHQC7TMuamXtKAljlUGxx53KSGgQeBQvAax6jZH89n/hO274wOxkCNTAbisl2/D0YNfwNJF36Doqzfx4MMS/iM9oJySaayhtOS3y9gbEaDZsDf6TZ+ORAPaewe3BBvxRdDS3Bk12nkXz+CbA9/uAl1yScV+DZwcbYAj5FDWSVeGGoqdjlOLxyL5cUT8O3ayehpW2uhIjmz4h/DIWArLjxIwInl3ZC5PRjrz8tU2oAiWfy2YHuACBe+XostmzfgqOGnOLMvEE4NL47QRPlpLBy7HMUTvsXayT3RyIynwgTDgwIgTtiNr0IOocxrElyUdpSfXoixy4sx4du1mNzTtu6bG927el4+AwAB3mhnD8P8Mzj8W0ndq2zxGYQdSEJZc2zlm6GNnREehO/EBUn9y0zaGZyKlYNv44ct2wMguvA11m7ZjA1HDfHpmX0IdBIAgjbo0N4MTMIt3K7bDseiWlYNftvu8LBTIx11cMaxub5pJmwxfvt6D+4JumDWxyNhbtYGdkYPEL7zAurdwSDtzCnEatrrJXgD7ewNkX/mMOrDwaL4TBgOJJVpjjvPCtZWQlTF38ZdleEQy2rRjAae1hY18Dl9wZ27gjYd0N6MQcKt2/X7XNlqyKr5aNvdA7pLoxla1gSHvnhW1rASViH+9l00DgGBZbX5oNEJOsE1HiYrHo8dArD1wgMknFiObpnbEbz+vIpd9bwQ25ksxD92QMDWC3iQcALLu2Vie/B6nJcBAqFAzcKAQFomQU6eVw3RhrQQRZXt4N7jDXUT2tP5SgWehSXM8Ri3IhVfQKiDy4fNtkFL7W4eArTp0B5mTAJu1QcCbLUM1fy26O5hB2qmPjVrqfl1TVpYhMp27uhhZ/Gcxsw9hzIQQBEqFZuIwGjJ4+bD5Y+nn/+IGnzdWiNFFWsLty5tUMllO98Gflu2I0B0AV+v3YLNG47C8NMz2Bfo1OjCYd15AWPT74lpk7vhweHt2LinAF4BQ/HeDF+wp7/HJ7tLMXC8A/hPldNSFBZVop17D7yhrkg8R5o2z5YhNS0f5ZlJeFRehayIE7iRy0Balou7UbHICt+EsBgpYOCEfy3/AhOcjCBSXj7KMiyI2LqfeSSnl2FV1jh8vX4pgheuwaY10+Be+1smWDCMHMTWfjOtEDWIBcuyYMtSkZZfjsykRyivykLEiRvIZaQoy72LqHjFbnOCHDVqHageoccszBlUjINHCKNHtVK+yqIsNQ355ZlIelSOqqwInLiRC0Zahty7UYgvV2hErtoRy4AlxQT3LD5Th/mImZjokId9H7yDBd+H438HNmNuQDiE/V1QzmkrHwYGIuDPXOSUFCLqaioGzJwM5/Qw+A+ZgpCfwnFkbygCP7sOYxchIDmNZauyMO7r9VgavBBrNq3BtLoAmWPUvCB0lRzBll1JigvL2Dycu5yFAfM+wiCR4ih1MWAZVjG5sNASxzLNvmGLcW6NP95bd6lB0qiHqqsV9jVEnotL6ychcF8V3tqwB1/0MwCMh2HmZGekh/ljyJQQ/BR+BHtDA/HZdWO41NaDJphjxMyJcMjbhw/eWYDvw/+HA5vnIiBciP4u5ZrjfjMfo6eNgnXaTixcfhKZ1YAsIwbxBQwk2RnIk+RpPjcqXtUIJU9pS1Q8+AYGEOFP5OaUoDDqKmJ53L7gzF3zUZgX1BWSI1uwK0nheTbvHC5nDcC8jwZBIQ0C5DUqt5VioZAGgdWWdwU3sW3GKLwX8htyOX6u49LXzXxvTBtljbSdC7H8ZCaqIUNGTDwKGAmyM/JQpsUHDKvQcX33pFgk1c2uiv+zLKO1jsQmhWNTWAykMIDTv5bjiwlOMBI1vdNOLXyb0c9ku1qYLIRvCoMi3f6F5V9MgJORCAY8AWztW0M/OxK/x+Sj4P4pbN9zDcXyQmQ9KsITjsersQwDObENFigEAilquC41hGHBKj8o1EIAqME306RwcoPFLEFaVqpc8FUhbud+pL79Beb3U/7yqFqvOfNeipvbZmDUeyH4jUNofNu38c4QQ0T9ewo+2v4bom9fxJ7dF5FbZ5QWHwq4bICafDHGMK7a3Uy/mY+ah6CuEhzZsguKlGWRd+4ysgbMw0eDRGCymqdPjVoirrlQWddIirJS5eKqKg4796fi7S/mo5++ljFD/XyjDs1zqCsEAlvYt9ZHduTviMkvwP1T27HnWjHkhVl4VFSGfI48jv+TASMnsA0+PCmWLawiFnwDKKbgHJQURuHqXa463/y1gQIWhRnpUKyCWOQcP47YLkH4yFufswbFl0twetkqZI37GuuXBmPhmk1YM829bnsZ1KzhOPP7Oa97FAjw5pSp6Je9G0dEEzDOVgCr0QHwM72KCN5wjLZRLlk5c1pxCEnLUC+zndif+ja+mN9P/d1Hnieqm6yJGMo+Oo96tzYly/aDKXD7Jfo5wJEsXEbRphsFdG15f2rv/hYFfLqaQpbOoTmhFyiPISpPPEGrRrQhgdCJ/NafoqQqhrIPTiVHEY8AEI/HJz0DM7Lt4EVB++5TQewRWu5jSwI9MU3afJoSkv6gXfP6kwXfiDwCf6SrWVl0dF5vam1qSe0HB9L2Sz9TgKMFuYzaRNcexdChZW+RnUBA9r4r6NCtItJwvUITJP+bRaNC7jXarM5kH6V5vVuTqWV7Ghy4nS79HECOFi406t9nKeLQMnrLTkACe19acegWFTFEVJ5IJ1aNoDYCITn5radTSdKn8hkXFYkHKNhbTDam5mTvOZk2/1FADJetm25QKRHJU3bTe2JLaiX2o82RT4ioghL3B5O3qyWJ9M2o3YA5tCdecRUCk32QpjqKiAcQeDzi6xmQmW0H8graR/dlREQ1lH58BY3p6UFDJs2mD9+fRkFfRVA+Q8QUq49BvQ6cadyG05QkzdYYxxulMs2+kafQdyPeoNajdlCaxmulKujB+V20ZowjCXl6ZNdzDL03M5BmBfjTKK/+NNR/Cf1wNafxhQkVibQ/2JtcLUWkb9aOBszZQ0p3cFBBiQeCyVtsQ6bm9uQ5eTP9UcBoyZVSIkZC0d8FUF9HS7Jw8qTRH6+mWX2dqd/kz2n3jWzuczXylLbIU2j3e2KybCUmv82R9IS4fMGduwpppNPxFWOop8cQmjT7Q3p/WhB9FZFPDDFUHHOIlr1lRwKBPfmuOES3FElDiSdW0Yg2AhI6j6MNp5M4tVySvZvGtbYga9sBFBLHcWkJw6UvIkYSTd8F9CVHSwty8hxNH6+eRX2d+9Hkz3fTjVxGow/KE4/TqhH2JBC60PiNJygu4y79b+0YaicQksu4UPr13iO6Fb6S/mWvGE/omRSq5BhPwbXl1L+9O70V8CmtDllKc+aE0gUtReBpbdeI7Bot79+e3N8KoE9Xh9DSOXMo9EKeonb+eZXWDWtHZmb25DFhE106vYR6dvCiGav3080iDXaWxtKR5T5kK9Aj8aTNdDohif7YNY/6W/DJyCOQfryazVlDqDyRjq8aQfYCIbmM30gn4jLo7v/W0ph2AhK6jKPQX+/Ro1vhtPJf9op6EnqGUmQV9PD4Oprq1YsGjw2gufNm00drT1BqJRExxRSjrl4Th9aZbNo9rjVZWNvSgJA4lQE2Rp7zO60a7UY2JmbkNHQhhZ9ZRZ6GtRcq6uBDtTZoyhfSXLufym9ENenHacWYnuQxZBLN/vB9mhb0FUXkK/qSNVefGrWkpQ5VPKTj66aSV6/BNDZgLs2b/RGtPZFad8GzpjFrmm+40DSHEhH9eXUdDWtnRmb2HjRh0yU6vaQndfCaQav336SCLE15fI6uHVlOPrYC0hNPos2nEyjpj100r78F8Y08KPDHq5TNyCll93sktmxFYr/NFPmEyx9PsTaouUNfdNcnu74TKXDuQvpk7lQa5/85nchQTJJcNbWUyaaDUx1JxAMBPOLx9cjAzJY6eAXRvvuypmu4fG35nfV8x1YLk08/T/en7x/VTvwyurFsLC2+orzIvha1+aR86+FxWjfVi3oNHksBc+fR7I/W0onUepW9SHjU8KPtc4VF9vEQhD15BwEeLIokZSiXlkOScw+H9+Zi9pltGKb8trOFVwObfRwhYU/wToAH2CIJysqlKJfk4N7hvcidfQbbWgL0D+V1yd1qXF3+EW4HhmF+7V6tFlp4AVRfXY6Pbgfip/kuqm9phElch76ehzEs4g429NL080ALLTxH5Hex0rMfjo2+jttrPZp3kTGbjeMhYXjyTgA82CJIysohLZcg595h7M2djTPbhil/ZWzhWWi6/eM5wWbvQ/CCe3B5uxtcOrmj9wAveA8bifETfOHZq7PmnyhbeDmw2dgXvAD3XN5GN5dOcO89AF7ewzBy/AT4evZC55YA/WN5PXKXRfH1H3Cy1VRMb1lQt/ACYYuv44eTrTB1uu4L6hZaeLVo3qqkHhbZ+4Kx4J4L3u7mgk7uvTHAyxvDRo7HBF9P9Ors0rwFegsaeWHfVLP5x/Cx93QckPXE6JH9ILY1BFOWhbR8a4xduQbvtm8J4SuFzcexj70x/YAMPUePRD+xLQyZMmSl5cN67Eqsebd9S5L9Q3kdcpeV3MOlBHMMGOj0F39kbguvNawE9y4lwHzAQDg1U2iyKwvQ9a1jeOvMfXzv08yTW2jhaai6iI87vY2Tb59G4vdv1d3eUTss8o99DO/pByDrORoj+4lha8igLCsN+dZjsXLNu3gJZf0fwQtbVAMAZNmIOnkcl+NyIBVYwrHHMIx9uytatXzx9JogQ3bUSRy/HIccqQCWjj0wbOzb6NoSoBZacreFFjTCZF/DvoO/Iam4BnqWLvD2fx9DdLqtVQstPCWyFJzb8x9cSS+DXGgBpyETMdPHpVkX3smyo3Dy+GXE5UghsHREj2Fj8XbXVk95948W1PFiF9UttNBCCy200EILLbTwD+CF7aluoYUWWmihhRZaaKGFfwoti+oWWmihhRZaaKGFFlp4RloW1a+aqmzE3c9vdC1vVXYc7uc39+refxIsytJv4eqNeORxPJhCGxUZsXhQ+Ff2cwUy7txD1jP4oIW/Nq9nrWjRZQu6UZFxB/e4hMI+QVpcCkpfiMQ5dMqWIf3WVdyIz0MV13EtvCBYPEmLQ0pd4P86MWhZVL8q2FLc2f8JfFxdMWTdVVQDYEvvYP8nPnB1HYJ1V5s8I/BvDoPkb/3Qscd07E3leGQW8wjhnwZh44kbOPa5L8Rdp2LfI00PDlYPWxCJncFecO04HJsi/7p+ZtN/wPR+/TF7b16zb7DEjQx/rOiPjoMX42zB8235n0MZfv2wO9xGrEfkE9X3np2XVSuqr6/CoI4DseCk7hp7cbpsTHXaJezZMBv/GjQAAwePwYf/3onTCS/A2X8Hyn7Fh93dMGJ9JF4bD7Hp+GF6P/SfvRd5TYTCIOviZgT0dkZn/x/wgGNKeFo06ZR5FI5PgzbixI1j+NxXjC5+czChb9PjWngKZH9gRf+OGLz4LDRNLUzWRWwO6A3nzv74QRl4TbF6LVF5GMyLgymgWzdTSOPD8f6JMJn0zVARWU7+b90TpZjMb2ioyJIm//flPP3ntYF5RF8P70Iz//uY40lZDOX9PI7a/OsHKiYipug8hUwNol33m68qecomGiB6g2Ye/yv7uZzSY+5S5vMeguwaLfbsRyuucD3Z8XWGoYJbNyml+bJ4fjw5SjM6+9LXsc87OPW8+Foho8jPelGfpZepRPUtTl6QLtVRdYE+chSQ/uDN9Ehz4Xi1vAZz35OjM6iz79f0AuX4VJSnx9BdjUKR0dVPxCR6cwndkKm+9xQ0iYManTJ59PO4NvSvH4qJiKGi8yE0NWg7nb/5kvT8N0d2bTF59ltB2qYW2dVPSCx6k5bUBV5NrF5TXto31RVR32DlnmS8gA+cf134ZjA15qm8ZAqVl/4ZlCVCMH4/vh1vz/HzSTUiz19FhbEZDADwW/ngi33bMfPN5t8QSGD6d/CzMRw9usPhOd8il8nMQNtPD2LNIHPVt/4aVEThm5V7kPwKi011YjF6fLMPwV2fc3Aa8MJrBfMYj9oswqF1XrBUfY+TF6NLtQjMYGnGB8/MCq00F45Xyquf+6qRWNwD3+wLxguU41Nh7OiB7hqFIoCFhRmel8SbxkGNTqsjcf5qBYzNDADw0crnC+zbHgQfz5ek5781DDIz2uLTg2ugbWoRWFjArFHg1cTqNUWwevXq1aovAiyePEpEttAaZtJURN98iCpzO1gZNK5a0pw4RN9OQiHPCq0tRHXil2bGIbXaGiZlcYjJFkKQ8hPmTA3Bdb2O6GIlR425I2yVs4GmNioy4/BIbgNrYQESomJRJLKDjbFu/QNAdcEDRN+MR47cHHZWho0WaprO06XPhsiLk3Ez6i5SigCL1pZQcU8j1PdZg3u/fInfRO9g0fhOioet1NzDL1/+BtE7izC+k/Ju7PJiJN+Mwl1FR7BU7YgtRkLEFdy+/xApKWko0WuDthZ6kKZH4eKNOKRkV8OynS2MmlQnKXLionE7qRA8q9awENV5AplxjyC3sYawIAFRsUUQ2dmAwxVARTZio+8ircIQtublyMwimFfex/lrd5CckgfG2gHWerm4fe4q7j1MQ7GwDdpa6tWfT8YwZLKRVsiDVWsL1JlSiywT0Reu4fyv+xAl6wgP22oU896Ag5Xiwarq/atArRakt3Fgy2WYTliAsc5FiI+MRZGBarzlKE6+iai7KSiCBVpbGmhY8LMoTY1GVEIR+BZ6qJAQTE3r7x7KZVs9HH2xpUiNjkJCER8WehWQkClqm6/KjkWy1AY2JvWtVuXGIyomGSU8c9haGDTqTxeNE88YetIsPK40hK21sZZ7mGrSEIdPtOm5IdUFeBB9E/E5cpjbWcGwwaHq8o8tjMS2wKkIua6Hjl2sIK8xh6OtMXha4sDlMwAAI0FazC3EZVbC0NYaxg2dIs1EXGo1rE3KEBeTDf3W1jBx6IHuojSkVDaIjc7j5tBCQ9TVCl3PZZ/gUWI2hNZmkKZG4+bDKpjbWTWqYXJJISohR1GxuvpWhdz4KMQkl4BnbgsLg8Yea6LLikzEPZLDxlqIgoQoxBaJYGdj3MA2He1Whc3BxbCduG45Gp++587xmGWO9jnySxW1tQTQ0D6LwshtCFQ792nKGwXa9MhI0hBzKw6ZanK08fyrj9bWJnDo0R2itBRU2tigXo5N80cBR+42hMtv0hzERd9GkqZ6XktVNmKTpbCxMakfo7wEKbeiEV/AAy/5P9gd54yAD4ehbe0gNbWtUWOa49BQp7LMaFy4dh6/7ouCrKMHbKuLwXvDAVYiNXrm0gJHnutSf+vQIUcBBpK0GNyKy0SloS2sGxcmZMalotraBGVxMcjWbw3r2gLK5uLu+Wu4k5yCPMYaDtZ6yL19DlfvPURasRBt2lpCD1w+1UQ1Ch5E42Z8DuTmdrBqWLBB4BnrQZr1WI2tACBHScotRMcXgMdLxn92x8E54EMMUwZeXQxQlYv4qBgkl/BgbmsBlTLEmScviia+YbKuYFtgbzh2moxtB9ZgeI8+GPZWP7iJvRFyrUxxEJuLs2tnY1FYBGJvHsaigWIMXnEehXmR2DV/KFzFw7B6x0a8O7A/+vWahh8eGcLShAUrq0BpaRmkco428qOxd8FQuIpHIPTQTszxHYnJ00bCvasfwlKUe2c1nFvMAmALcXn9dAT833lkFMRi2xgxPIOPIZfVfJ5OfTaCQdr+Geg7/hvcK8rD9VBfiAeuwQ2p6nGa+yzWcWMQk7YfM/qOxzf3ipB3PRS+4oFYo9oR3xAmFefwxcRRmLw9HbY2io9zBq0EuLZuOU5WWMBEJdJs7lmsnb0IYRGxuHl4EQaKB2PF+ULkR+/FgqGuEI8IxaGdc+A7cjKmjXRHV78wqHUFpEjYE4SR0zbit4QHuPLVJHg4d8K4Hx6AtWqHtvk/Y87Y2diZKAcEVnCwTcLWKWPwSXgOFM2xyD27FrMXhSEi9iYOLxoI8eAVOK/qIKpGRVkpKmoAqqlAWWkp/qxiwHL5l0sLSqof/YKFE6cgaM5YeHQdhx9TlYNk0rB/Rl+M/+YeivKuI9RXjIFrbqBpiKsRuzUAwQezIK9KxK4pffHuT+mKb0O4bGsIV1/VsdgaEIyDWXJUJe7ClL7v4qd0OVjJHRz6dDhc2w/Gmiu1V2+U4cYmP4xeFYkaURlOze0Lt15DMXzkeIQcvaKDxksR+XUA/JeGIy4zCccXDUIn3xBc0nAxp3oNFYPl8IlOela0jsLL6zE94P9wPqMAsdvGQOwZjGO5LEf+sSjNKYahpQlYVoaK0lKUSeVa4qDZZ+suKewqjfwaAf5LER6XiaTjizCoky9CLhWCZQsQuWs+hrqKMWz1Dmx8dyD69+uNgB2XlLHxqtvvrPO4ubSgDZ3OZZB1ZRsCezui0+RtOLBmOHr0GYa3+rlB7B0CRYnX5F9lE2U3sMlvNFZF1kBUdgpz+7qh19DhGDl+HS5kq+iSLUT03gUY6irGiNBD2DnHFyMnT8NI967wC0tR1ACd7H4GuNrXkF9N4KolmtpnS5FT3HTu05w30EGPmnOULVAz//YOwI5Lh/DpcFe091oHhRy54qs5dxuh0W861nNWgjuHPsVw1/YYvOYKaiuYNO4HTPMNxM672Ug5sRzBYcnKeQKa2y7M59aYmjiUFzWtn1RdgbLSCtSAUFNRhtLSPyEtvt3kOC4taMpztrA5awxdchRAaSS+DvDH0vA4ZCYdx6JBneAbcgmFLIuCyF2YP9QV4mGrsWPjuxjYvx96z9yH4tou+FZo1zYfP88Zi9k7EyGHAFYOtkjaOgVjPglHTo0OeasCW3gZ66cH4P/OZ6AgdhvGiD0RfCxXoWuNtipPlsbhh2m+CNx5F9kpJ7A8OAzJtcs9tXMdUHZjE/xGr0JkjQhlp+air1svDB0+EuPXXYKUI09eOKr7QYiIZNcXU0c9O/JedZYe1xBVJP5I4+wFpN9zNd2rYSj/0BQaujSSFLtdGMrY4kX6eh608k4NMRlbaIi+IXWd/zsVSBLo/Nl7VFyTQ9/6GJB94GmqUp7D1YY89UsaoG9GnvOPUZqMiEr/S1NsRTTwy1SSc54ro9yD/uTq+x1lMERENRT/pRdZtZlBR8u5ztPWpwry+7ShjxH1XBNHNURUE72Muhi408o7NSoHcvdJ9CftHm3QaE81/bmbRhvU7pOU0/0Nfcio5xqKU3REy7oYkPvKO6TaE1EFRSwQk8htCV1XOJmYvL00bdIOylTda8jk06EpQ2lppHK/EpNBW7z0Sc9jJd2pkVPqlwNI38yT5h9LI4UrppCtaCB9mdrEE/Tk4gLq4rGErlUoX5Bdp8VviqjLsmiqISJ54jrqbdCRFl9T9iW7Ros7GlK/fz8kOREx+YdoytClVG/KFvLS1yMPDWP8eawBWfiHk6I7Lv9yaYGICnaQr4Ep9VsRQQUMET35lWbYGZDXV+nEEJH8/gbqY9ST1igcT9HLupCB+0pqEmLZdVrcxZ0+i1REkMk7QOu2JVANp22NG+HqS3Z9MXVx/4wUzTOUd2AdbUtQnM/kfkc+IjOaeFjhjZq4tdTLxJPWJijiVBPzOXUTtad5lxUWaNO45PQHJHZbQBG1Yqy4Sovc9Mlu0i+U1xwNVWjyie56ZnIPkr+rL32nCB7VxH9JXlZtaMbRci35x1DOtz5kYB9Ip6tIi0ZqtPqMJKfpA7EbLah3Cl1d5Eb6dpPolzxGMe4h+mTYdT79XiChhPNn6V4xo4xN8/OYSwtNaFQrmnOujK4v7kh6dt606uxjqqEKSvxxHNkL9Knn6ntUw+nfGopb24tMPNeSwmU1FPN5NxK1n0e1LlPVJclT6csB+mTmOZ+OKYRH/51iS6KBX1KqvDl2q6HmJq3oqkei0bvpT9X3lHC1z5Vf9TCctYSrfWJU5j6uvKnRnsPaclTt/MswlPudD4ksJ5NCjhzx1VjPGqPJb82q50wufecjIrOJhxX1vOIqLenmQjOPSZQHlNPJWfakp9xTzdm2Fo01iYM6nRIRVfxMYw0syD+8/rXGx3FpgTvPtdXfxmjJUZLQ6Q/E5LYgom7tUHF1Ebnp29GkX/KIIYYytgwhfcOuNP/3ApIknKez94obX68kT6R1vQ2o4+Jrytooo2uLO5Jhv3/TQ7n2vG0Ek0sH/V3J97sMRR818fSllxW1mXGUyrXaWkFXl3Qjl5nHqC7yJ2eRvV79nuomsaqJo7W9TMhzbYLCdzUx9Hk3EbWfd5lkOuTJi6TJN9UAwDc0hIHABv3H+sBeCBi5BWDNbHdQXAQi8stx+ehZZCefxObQUISGbsSBSl+sDpmOnoaKc/X5ZvD0GQQbi07w8e0Gqya9SDnbEJiYwFhgCndfXzjrAzAWo4MDH2WlJSDOcyU4c+gsRB6eaM0HACE6L76M4uw98DPmOk9bnyoIxAjaewUHgp2QdXkXNu6OhISVobJK9VMQd5/aEUActBdXDgTDKesydm3cjUgJC1lllZorYI0wIPhjDMzei6+O5IMFg4zwU9AbNwEOqv6XXsbRs9lIPrkZoaGhCN14AJW+qxEyvScMIYCJiTEEpu7w9XWGwhUd4MAvQ2mJqifKcGrHfjzpMxw9jZQvCcxhrvq1OAfSy0dxNjsZJzeHIjQ0FBsPVMJ3dQim6+QgLv9yaaH2fCO82ac3bPgADNqhnS1QKpGABSAQB2HvlQMIdsrC5V0bsTtSAlZWiSYhFtpD7JiBr8YMxowNR5Cg548VH3eCkNO2xk1w9SW0F8Mx4yuMGTwDG44kQM9/BT5W/tTPNzWt+ykXAOTpaciq5oOnfE3o7AwH5CA9vVLRD6fGS3Dix1+Q5dodHrX71oz6wN9PjKKTB3GmtL4fQIuGNPpEdz1LzhzCWZEHPBXBg7DzYlwuzsYeP+Nm5B+0aES7z0pO/IhfslzRvd4p6OPvB3HRSRw8UwrwDWGoz4eZpw8G2Vigk48vulnxFbGpSwPdx82lBW3ofi4fhoYGENj0x1gfewhhBLeANZjtToiLiEA+j8u/cqSnZaGaz1P+XC+Es7MDkJMOpcua6BICE5gYC2Dq7gtfhfAg7uAAflkpSqg5dj8dXO1z5Vc93LWEq/0mcOWN1hzWnqPq518+TE1N6n+W5sofjbnbGE1+a1Y955vCtIFQys9ux560rhgy1EL5igGcnezqfrLnbFuLxtTRRKcaaHwclxa485y7/qqiJUeLTuDHX7Lg2t0D9VLwh5+4CCcPnkEp+DA01AffzBM+g2xg0ckHvt2smm5N4KI5PpWcwaGzInh4tlb0IeyMxZeLkb3HD8YlWmwtP4vte9LQdchQ1EXe2Ql2DfZqNImVPB1pWdXg1ycKFGUoHZU65MmLREcfC9G+cwcYowayyj9RWFwJkZsflixbhmW1/5YuwJiOitTTqlP2CXcbvNqCrYQngIAHEEvc57qWoaCoCqUlkqYi5TpPW59N4ENYeRdbZwdhV053vB/kDTu+muO09akDfGEl7m6djaBdOej+fhC87fhNx6ZE4DIdCycY4NRXOxBXlYD9l97ApFFWqoeBfVKI4koR3PyW1Nu0bBmWLhgDhSsaR5AnEIAHQhNXMDlITS+HUF9Pe8zVwuJJYTEqRW7wW9LAP8uWYsGYjk0KeRO4/MulBbUIwBcAjLxG8SdfiMq7WzE7aBdyur+PIG87qAsx+O0wa9857PA3RcT6iejRsT/mH80Ew2Wbauw5+uK3m4V953bA3zQC6yf2QMf+83E0U/m7GI9XN/kCgH6fURj+RhIu/PYIDADZ/QfIsPTBaC+T+uPrD2+scSYfmY+lYKur636KBYRwcrQHv7oUkj8brxA4NaSvwSc665lBcUERqkpLIGn6pu75By0a6SjU4jMG+ZmPIWWrUd3g/qhCJ0fY86tRKvlTsShWJ34VX+s2bm4taOVZzhW2R+cOxkCNDDLi8q8++owajjeSLuC3RwwAGe4/yIClz2jUykxVl0DTvwUK4Sl88Cx26wJH+5z5VQtTzF1LONpXhTNvhFpyWMccVS/HRmrUHF9N9azB2YrD1Pmtppn1nNfALgZZDx6iFAII1a5KtM0VWjSmjiY61UDD47RogTPPueqvLjTIUWleJh5LWVQ3LkxwtOejulQChRR0GRwXqv7R7FOmuABFVaUoUVOwmXxuWyUZD/CwFBCoD7wC1Vjp98Go4W8g6cJvUJSh+3iQYQmf0V4w0TFPXhQcoyBQg75rpFVgbd3Qpa0l2tgZ4UH4TlyQ1L/PpJ3BqdgmO6/Uwzd7+ja4zk1ohXb2hsg/cxi/ldS+w6L4TBgOPDTWfJ62PlUpP42FY5ejeMK3WDu5J2xrq4Wqnrhs1anPcpxeOBbLiyfg27WT0VNjR7WYw3fBB+h2/0f8O+Q7xHSeiqG13yA3gG/WBnZGDxC+8wLqzWKQduYUdDKrFp4FLM2Bx7ciFcJWh0AIgZoFOREDgA+zNnYwehCOnY0dhDOnYpvu41OFy79cWkjSZGw95acXYuzyYkz4di0m97StmxCaeJ7JQvxjBwRsvYAHCSewvFsmtgevx/kaDttUnMzVF5MVj8cOAdh64QESTixHt8ztCF5/HrJGLSjg2/hhy/YAiC58jbVbNmPDUUN8emYfAp10uDxD0AYd2puBSbiF23WbWVlUy6rBb9sdHnaNSwWnhmQafCLTVc8CvNHOHob5Z3C4Pnhgi88g7EASGF3zD1o0EivX4jMB2nRoDzMmAbfqnQK2WoZqflt097DjKqAN0HXc3FrQRrPPJWrwTXkNpFUsbN26oE0ll3/5sPHbgu0BIlz4ei22bN6Ao4af4sy+QOgiM3U0225dYVJxcM955HO0r1N+Cd7grCXNsZ8zb+RacriZOaoRrvzRVM9UCo56v12E6KnrOQ9W1lYQVsXj9l2VzogF+6xzxfOCUwtlOue5zmjIUQeHDmhvxiDh1u36aw/Yasiq+Wjb3QO6SUEAoUDNop6oyYcobQjeaAd7w3ycOfwb6t1SjDNhB5DyBretbaytYSWsQvztuyrzGoHVtP7l28Bvy3YEiC7g67VbsHnDURh+egb7Ap0geF558pRobp0tREZ6ufL/OTh+PBZdgj6Ct4Exhs2cDOf0MPgPmYKQn8JxZG8oAj+7DmMXhYgIctQ0VDnfAAYi4M/cHJQURuFqLI+zDZZhICe2QbAJBALLsmDB1X8rjJg5EQ55+/DBOwvwffj/cGDzXASEC9Hf1YzjPG19NoYtS0Vafjkykx6hvCoLESduIJeRoiz3LqLilT4DAE5bhQAYMAxADftgGDDKfsGWITUtH+WZSXhUXoWsiBO4kctAWpaLu1HxDfqpR9hpNhaMqsF/vk5Av6k91Xw7AMB4GGZOdkZ6mD+GTAnBT+FHsDc0EJ9dN4aLkAXDyEFsg4UwkaKwqSqcb4u33xkCw6h/Y8pH2/Fb9G1c3LMbF3PrU1Jga4/W+tmI/D0G+QX3cWr7HlwrlqMw6xGKnlTBeNhMTHZOR5j/EEwJ+QnhR/YiNPAzXDd2UWN7NaprCNXVMqW/uPzLpQWBMq5NF/uK11mUpaYhvzwTSY/KUZUVgRM3csFIy5B7NwqNQsxkIXxTGGKkgIHTv7D8iwlwMhLBgMdlW8ORcfcVmxSOTWExkMIATv9aji8mOMFIpLwbAMuApQaFR3Iay1ZlYdzX67E0eCHWbFqDae61P6hBi8bNMWpeELpKjmDLriRUAwCbh3OXszBg3kcYpHpbBS4N8TT4hHTXs/mImZjokId9H7yDBd+H438HNmNuQDiE/V3B48w/KQwUxQY5JYWIupqKAVxx0OIz81HzENRVgiNbdiFJ4RTknbuMrAHz8FGtUwiQNyp4ytiAwFJz8phbC410B5Va0dxzAbCFGagv8cdxPLYLgj7yhj6nf8shOb0Mq7LG4ev1SxG8cA02rZmGBi5rqkuWASNX+KJxSVHUFE67/yzGuTX+eG/dpQaL0Aaw1aiqJlBlJaSNypMU8TtW44ahB+Qc7XPmVx3mHLWEx22/VGXuSx2gOW+E2nJYtxxtMv8CYBlW8Q0jq2X+ik1Sn7sqX3oyWer9ZtKses6CYQnEsooPa6OnYZR1GnYuXI6TmdWALAMx8QVgJNnIyCsDj6ttTo2pW4NIm+oUAKqrUUPVqJY1eLHRcRxacCnnzHPu+qseTTlqYD4K84K6QnJkC3YpChPYvHO4nDUA8z4apLwLDgHyGs0fOAS2sG+tj+zI3xGTX4D7p7Zjz7ViyAuz8KjoCaq0+bQh5iMwc6ID8vZ9gHcWfI/w/x3A5rkBCBf2h6sVt62GNqMxbZQ10nYuxPKTmaiGDBkx8ShgJMjOyEOZVDUGACDB6WWrkDXua6xfGoyFazZhzTR35fYR3fLkhaG6yZqIqObOF9Rd3476TgykuQs/oblTx5H/5ycoo25zegUl7g8mb1dLEumbUbsBc2hPfAUxxTF0aNlbZCcQkL3vCjp0q0i5MV5OKbvfI7FlKxL7babIJ5rboNJYOrLch2wFeiSetJlOJyTRH7vmUX8LPhl5BNKPV7M1n1tr24Fg8hbbkKm5PXlO3kx/FNTuTNdwnk59NoDJpqPzelNrU0tqPziQtl/6mQIcLchl1Ca60eSm5hr6pEp6cHIl+bYWkMDRj9YfiyeqfEAnV/pSa4GAHP3W07H4Uso+Oo96tzYly/aDKXD7Jfo5wJEsXEbRpqYd1VEVsYB6jv6Bsrk25Fck0v5gb3K1FJG+WTsaMGcPKVxxhJb72JJAT0yTNp+mhKQ/aNe8/mTBNyKPwB/pqmqj8hz6fdVocrMxITOnobQw/Ayt8jSsu1CR6E+6um4YtTMzI3uPCbTp0mla0rMDec1YTftvFilN2U/B3q5kKdIns3YDaM6eeOWFiA2oSaML38+jga34xLcdSkvC/kM3Hss5/EuatVB6j/7z2VBFvP2/pJPxD+jKzvk0wEJAxj0/oF2RecRkH6V5vVuTqWV7Ghy4nS79HECOFi40atMNauR52TVa3r89ub8VQJ+uDqGlc+ZQ6IU8pe65bKuHq6+Ca8upf3t3eivgU1odspTmzAmlC3kMUXkinVg1gtoIhOTkt55OJVURk32QpjqKiAcQeDzi6xmQmW0H8graR/cLdNF4DaUfX0FjenrQkEmz6cP3p1HQVxGUr0lHGjSk2SdMs/RckXiAgr3FZGNqTvaek2nzHwUKv2rJP3nKbnpPbEmtxH60OfIJZxw4faa8IKom/TitGNOTPIZMotkfvk/Tgr6iiHyGiCmmmEPL6C07AQnsfWnFoVtUxFCj2DiP20Cnk6Q6j5tLC42ObFIr/tT9XKqhO190J327vjQxcC4t/GQuTR3nT5+fyFBc9MPpX4ayD04lRxGPABCPxyc9AzOy7eBFQfvuk6yJLvMp9shy8rEVkJ54Em0+nUBJf+yief0tiG/kQYE/XqWsLA675Sn03Yg3qPWoHZSmcnGULPUS7Q2dQGI9HvH07aj7UF8aMWIEjfD1oYHd2pCRhR/tKeD2qcb8aoKGWqI1ZmrmPk15o5MeNeeopvm3PPEErRrRhgRCZxq34TQlSTniW6Apdxsj4/CbTvWcyinxxCoa0UZAQic/Wn8qiYgYkkR/RwF9HcnSwok8R39Mq2f1Jed+k+nz3Tcol9HUdqlWjWUzKnHIU9VpFdWkXaDv5w2kVnw+2Q5dQmH/uUGPy5oep1kLHPXt3DUd6m9DtOQoEVFNOh1fMYZ6egyhSbM/pPenBdFXEfnEEEPFMYdo2Vt2JBDYk++KQ3SrSDWCCv68uo6GtTMjM3sPmrDpEp1e0pM6eM2g1fsv0ZX/aPOpSmMViXQg2JvENqZkbu9Jkzf/obgJAHHZqoCRRNN3AX3J0dKCnDxH08erZ1Ff5340+fPddCM1vmkMmGw6ONWRRDwQwCMeX48MzGypg1cQ7bsv48yTFw2PiJr8NiG/uxKe/Y5h9PXbWOvR9PNlC68zLDJ3BGC9zTcIG9+8RzY8F5hErOvricPDInBnQy8130608KJgs48jJOwJ3gnwAFskQVm5FOWSHNw7vBe5s89g27AX/RH9r8c/02dy3F3piX7HRuP67bVoXolnkX08BGFP3kGAB4siSRnKpeWQ5NzD4b25mH1mG/6WLntJ/DP12EJTniVH/wGw2TgeEoYn7wTAgy2CpKwc0nIJcu4dxt7c2TizbRjHPetfLJq3fwDQ+JtEC68fTDlKJFVgy69j+zk7TB35ChbULbw62GzsC16Aey5vo5tLJ7j3HgAv72EYOX4CfD17oXOjLSctAC0+w1OUeDZ7H4IX3IPL293g0skdvQd4wXvYSIyf4AvPXp0VWxhaeDpa9NiCGpqbo39/WGTvC8aCey54u5sLOrn3xgAvbwwbOR4TfD3Rq7O6rUYvD7XfVFdd/Bid3j6Jt08n4vu31Fzp1sJrhhyxIX3Ra20yzN9wxbjvTmP7WOWtbV42sitY0PUtHHvrDO5/71N3C50WXjBsPo597I3pB2ToOXok+oltYciUISstH9ZjV2LNu+1faaF5LfnH+qwKFz/uhLdPvo3Tid+jOSWezT+Gj72n44CsJ0aP7AexrSGYsiyk5Vtj7Mo1eLf939NjL4V/rB5baMrT5+jfHxb5xz6G9/QDkPUcjZH9xLA1ZFCWlYZ867FYueZdvMoy1GRRLUs5hz3/uYL0MjmEFk4YMnEmfFzUPKK0hdcKecZv2HEgHtbDp2Oip82rWVAz2bi27yB+SypGjZ4lXLz9MXuIk+pRLbwwZMiOOonjl+OQIxXA0rEHho19G11bPeVtGf4R/NN8JkPKuT34z5V0lMmFsHAagokzfdCsEi/LRtTJ47gclwOpwBKOPYZh7Ntd8bd12Uvln6bHFpryHHL0H4AsOwonj19GXI4UAktH9Bg2Fm93bfVSHkXORZNFdQsttNBCCy200EILLbTQPF7JF5ottNBCCy200EILLbTwd0Ljoroi4w7uZTV4Ak4LGmDxJC0OKaWv1+UEf4n4MRIkxz1CherrLwv2CdLiUvCahe4vSUVGLB4Utjjy7wT7JA1xKaV1F0q92JryetbRfyZVyI67j/yXHApVvf21qUDGnXt4YenyAnix+f2iYSBJjsOjV7aYqEf9oppNxw/T+6H/7L3I+3sovB6mBPHHtmDJnFkI/OBjLPhkGTYdisSje3ux95K659Rphsm6iM0BveHc2R8/PNB4i/Vno/o6Vg3qiIELTuoei9c+fgwyLm7G9B7O6DbrADKa+/imZ4ZB1sXNCOjtjM7+P0CX0FVfX4VBHQdiwcm8v0nRfz6wBZHYGewF147DsSlScWP/FppS9uuH6O42Ausjn6i+9frBZOHi5gD0du4M/x8eKB4e8QJrykupoy3oAIvSO/vxiY8rXIesw9WXlc7q9PYXh03/AdP79cfsva9gvvhbrhk0w2RcxObpPeDcbRYOvPzFRFNU7ltdR3l6DN3NrFR9mQOGCm7dpBSVG/S/TjC5v9OKIc7U5b2tFJFZpXy1nB4e/5yGvmFIw7fnq5yhHdnVT0gsepOW3FA+KeI5I4v8jHr1WUqXS1Tf4ab58XvZVNHFuU4k8lxLCa9EMzK6+omYRG8uIe2hk1HkZ72oz9LLxBUGpuAW3XydE+AFIU/ZRANEb9DM46+n3l59XJ7Q0RmdyffrWHo9PaQG2VX6RCyiN5fcoNr0eJE15UXXUbUwBXTrZkr9wzReIa9eo7UwlPnNUBJZTqb/vphQq0eN3v7alFN6zF16QenCyd93zaCZqotzyUnkSWtfzWKiEeq/qQZg7OiB7g7NuCFaRRS+WbkHya/rx0x5IrZO8cc3stk4uCcYgx1qbw1uDNfRa3A4bCos/lT7IFxOBBYWMFN5hOvzg8HjR22w6NA6eDXzttPNjt9LRwBjU2MNP5W8DASwsDBTeRyxBpjHeNRmEQ6t84LmMFQg6puV2PPaJsCLQ2BqCmOdHPkqeA3iUp2I4h7fYF9w17/OLSYFFrBQKWwvsqa82Dqqnoqob7ByT/Jr8M3oa6DROvgwMzXWrS4+T9To7a+NMRw9uuMFpQsHf+c1g2YExqYwfnWLiUYIVq9evVr1RQBAVTZik6WwsTFRJlgFMuMeQW5jDWFBAqJiiyCys4ExH2ALI7EtcCpCruuhYxcryGvM4WirSExpThyibyehkGeF1haiumSVZsYhtdoaJmVxiMnWR2trQ/ArMhH3SA4bayEKEqIQWySCnY3KwouRIC3mFuIyK2Foaw1jHe+fIjm6EJP/LwmDQvZgfk9jlXd5MHbtANMKHlxdrQEA8uJk3Iy6i5QiwKK1JQwaGSFHScotRMcXgMdLxn92x8E54EMMa6swhvvcWlg8eZSIbKE1zKSpiL75EFXmdrBqeLBcgsJKQF5UDFi0hqVKQ1W58YiKSUYJzxy2FgaNC2Ez4leLNrvZ4gREXLmN+w9TkFYshJ0oB9f/UPydkpoP1qYtrCqTcDXiJhJTJRA52MNcCABS5MRF43ZSIXhWrWEh4gFgkXMxDHvSumDOrP5AUjTiCoSwtjXReC9W9skjJGYLYW0mRWr0TTysMoedlUHz9CEvQcqtaMQX8MBL/g92xzkj4MNhaCsAIM1EXGo1rE3KEBeTDf3W1jDkA3JJISohhyIMTf0CthCR2wIxNeQ69Dp2gZW8BuaOtsqFprqxQ6d4aD5Xisy4VFRbm6AsLgbZ+q1hbahilDQLsSlVsLExRFlaDGLS5bCyM4c+gOr8RETdzYHAtjVMhQCbexfnr91BckoeGGsHWOvl4va5q7j3MA3FwjZoa6lX12x1wQNE34xHjtwcdlaGCt9Lb+PAlsswnbAAY52LEB8ZiyIDO9g0FheSb0bhrkJcjbTMlqYiOioBRXwL6FVIQKam0HT3KLX9Q0P7XHGR5iAu+jaSCnmwam2BOtcCAKqQGx+FmOQS8MxtYWGgOtkzkKTF4FZcJioNbWHdSGRqYmPigB7dRUhLqWyQj3IUJ99E1N0UFMECrS0b6JgtRWp0FBKK+LDQq4CETGGqySF1aK4nzYmvvCQFt6LjUcDjIfk/uxHnHIAPh7VV3KaqSU0Bh0Z10Td3HeX2c1M0zTVN9WWMsshtCJwagut6HdHFSo4ac0fYGvM4a2DTdjTpVJNPWJSmRiMqoQh8Cz1USAimxmUaNMqhDw11qgmaNK5lnq259wu+/E2EdxaNRydlMVbvlzIkX4tAdMJDpKSk1P9LzQdr3RbWBjz1edkATr1xnKtrLNTb3QC2BPf/iMCtxIdISUlFPmuDttYGKE+5hstRCUjJZ2Hd1hoGTxGPquxYJEttYGNS63iONnTKec05Xsdrs2ZQo/WGA2KLkRBxBbfvP0RKWjGEdiLkXP9D8XdtHKwqkXQ1AjcTUyEROcBesZhQm+dszkWE7UlDlzmz0B9JiI4rgNDaFiaaFhMvEFWJAawEdw59iuGu7TF4zRVUgUVh9F4sGOoK8YhQHNo5B74jJ2PaSHd09QtDCsOiNKcYhpYmYFkZKkpLUSaVA2wuzq6djUVhEYi9eRiLBooxeMV5FOZFYtf8oXAVD8PqHRvx7sD+6NdrMtZ8twBDXcUYEXoIO+f4YuTkaRjp3hV+YSmo3SVTGvk1AvyXIjwuE0nHF2FQJ1+EXCrUYc+SFFeO/44CvhievaxU31QgfBNvv90RAIO0/TPQd/w3uFeUh+uhvhAPXIMbUuVx0jj8MM0XgTvvIjvlBJYHhyG5bhuPlnNrj8q6gm2BveHYaTK2HViD4T36YNhb/eAm9kbItTLFMWn7MaPveHxzrwh510PhKx6INXUNleHGJj+MXhWJGlEZTs3tC7deQzF85Hisu5DdzPhBZ7v5xqaourgKE8YuwplKCxiY2cI8ZQfeHzMV21Nb4Q1jPvimrfDkxDp8nyCAqR7A5p7F2tmLEBYRi5uHF2GgeDBWnC+ujxnl41Rwf3j098HArk5wG/sNbpU37hdMFq5sC0Rvx06YvO0A1gzvgT7D3kI/NzG8Q65B4THt+pDG/YBpvoHYeTcbKSeWIzgsWaEttgCRu+ZjqKsYw1bvwMZ3B6J/v96Yua9AJ7+wpTkoNrSECctCVlGK0jIp5NA09kLka42H5nPzIndh/lBXiIetxo6N72Jg/37oPXMfiuuMKcGt/YvwlrgDvFaH48iqKZgU8D7G93ND30VncWvfRxg1biY+mNAXboNW4YYU4Fu1Q9v8nzFn7GzsTJQDAis42CZh65Qx+CQ8R+mjQlxePx0B/3ceGQWx2DZGDM/gY8htkHzVj37BwolTEDRnLDy6jsOPqYrBcGm5OnYrAoIPIktehcRdU9D33Z+Qru4LO47+NbWvPi4scs+uxexFYYiIvYnDiwZCPHgFzhcrB1J2A5v8RmNVZA1EZacwt68beg0djpHj1+GSFEBpJL4O8MfS8DhkJh3HokGd4BtyCYUsiwJ1sQnYgUvKfPRadxXVAMCkYf+Mvhj/zT0U5V1HqK8YA9fcgBQAqmOxNSAYB7PkqErchSl938VPah1Sj7Z6olN8IUXcD9PgG7gTd7NTcGJ5MMJqC1uTOUH5sgaN6qJv7jrK5ecGx9SiYa4pZjXoq7oUOcWGsDRhwcoqUFpaBqmcuwaqbUdNWNT7pBgsqhG7NQDBB7Mgr0rEril98e5P6ahWp1FN+tBYp+qyv9YK9RovzEf0Xu3zbGM4/FJ9H3vXhyEquwSlpaUoLbqFHbPHYPyykygQ8DXmpQIOvT2XmsFhd0P4xmgleoDvZ43G2PUxsGij+HBh9IYJordsxi2hFYyoefEI2HEJhz4dDtf2g7HmijJbNMUUuuW8thxXdKHZZy93zaBe641GxDeGadVFrJowFovOVMLCwAy25inY8f4YTN2eilZvGIPPN0WrJyew7vsECBSLCY15roCQfyoY/T36w2dgVzi5jcU3TRYTLwHV/SBERMTk0nc+IjKbeJgqiIhITqlfDiB9M0+afyyNZERU+t8pZCsaSF+myomIoZxvfcjAPpBOVxERMZR/aAoNXRqp3B/FUMYWL9LX86CVd2qIydhCQ/QNqev836lAkkDnz96j4upU+nKAPpl5zqdjaTIiKqX/TrEl0cAvKVVORJLT9IHYjRZE1O75qaCri9xI324S/ZLH1NuuDiaTvh6qTxANpx0Fqm+qIL9PG/oYUc81cVRDRDXRy6iLgTutvFOj6HNJN3KZeYwkysPLT84iez3lXkDOcxsju76YOurZkfeqs/S4hqgi8UcaZy8g/Z6r6V6NnO5v6ENGPddQnKIhWtbFgNxX3lG0G7eWepnU7x+qifmcuona07zLyt1ozY1fM+wmyRGaamdGw7/PJIaIqOoP+kQsoq4rblINEZH8IW2Z/QVdlxERk0+HpgylpZG1dmXQFi990vNYSXdqaih6WRfStx9DW6OLSU7lFPfjBHLSE5FnSKyirYbIrtPijnpk572KziocRj+OsyeBfk9afa9Guz4qrtKSbi4081hd5OjkLHvSq91TzWTQliH6ZNh1Pv1eIKGE82fpXkGCzn5hcr4lHwN7ClQkgJaxa4kH57kMZWwZQvqGXWn+7wUkSThPZ+8VK2JRC5ND3/qIyKjvMorIlRORjGK+cCc983702e+PFWO58wW5i1wo+JLCXnniOupt0JEWX1P2KbtGizsaUr9/PyQ5MZR70J9cfb+jDIaIqIbiv/QiqzYz6Gg5ERXsIF8DU+q3IoIKGCJ68ivNsDMgr6/SiSEuLcvo+uIu5P5ZpGKvMZNHB9Zto4Qm7uXqn6v9pnFh8g/RlKFLqd61W8hLX488Vt6hGqqhuLW9yKRun38NxXzejUTt55EitSR0+gMxuS2IqNsbXXF1Ebnp29GkX/KIIQ2xUeaj5eT/UiURye9voD5GPWmNwmCKXtaFDNxX0p0aRV3o4v4ZRSocQnkH1tG2pg5pAnc90RZfooqrS6iby0yqT4+TNMter36Pq2pN4dSoFn1rq6Na/dwQrrmmQrO+mBz61seA7ANPUxVpq/s66pTLJxXXaXEXd/pMEVhi8g7Qum0JajXKpQ+1dapYxSNcGpdrmWeJ6M/do8mgdk81l19q4unkyQfKWv2Ern/ek0wsBtG/71QRcea9Nr1xnatjLLjsboIi7w3tZ9KxUsUrTM5umrvkDD15yngwud+Rj8iMJh5WzsAcbeia89w5zuWzl7xmkGnWemMkdGSqHZkN/54yFYsJ+uMTMYm6rqCbNUREcnq4ZTZ9oVhMcOR5jaJ/fXsaszWaiuVE5XE/0gQnPRJ5hlBs045fKE2/qQYAvilM636yAAABTEyMITB1h6+vM/QBGIs7wIFfhtISdc+OkeLy0bPITj6JzaGhCA3diAOVvlgdMh09DQG+oSH0+Wbw9BkEG4tO8PHtBis9E5gYC2Dq7gtfZ30AxhB3cAC/rBQlBJSc+BG/ZLmiu0ftnh8j9PH3g7joJA6eKVXpXwW+EYxEfPCoBlVV6r7qaIBAjKC9V3Ag2AlZl3dh4+5ISFgZKqtYoPwstu9JQ9chQ2GhPNzA2Ql2tb9Kcp2rAt/QEAYCG/Qf6wN7IWDkFoA1s91BcRGIyOdBHLQXVw4EwynrMnZt3I1ICQtZZRVYAPL0NGRV88FThkjo7AwH5CA9vVLZeDPj1wy7YfE2Asa1wrWDvyCFAdiSNJQJLJB8cDcipIA87jDuu/qjlz4A6WUcPZuN5JObERoaitCNB1Dpuxoh03vCUNmcwK4XfHpYQQBjdHl/Mz4ZyEPclT9QpNo13xCGBgLY9B8LH4XDELBmNtwpDhER+SjSoo/ys9uxJ60rhgytixycnezqn77EN4ShPh9mnj4YZGOBTj6+6Gbzpu5+UYVz7FriwXkuH4aG+uCbecJnkA0sOvnAt5tV45+c+CYwNuJB37kHPFsLAOhD7OoIIRzQY4A9hACETo5owyuDRKIuf1WR4MyhsxB5eKI1HwCE6Lz4Moqz98CvbieVEd7s0xs2fAAG7dDOFiiVSMBCwKFlIezFjsj4agwGz9iAIwl68F/xcd1PzvVw9c/VflOkl4/ibHYyTm4ORWhoKDYeqITv6hBM72kIQI70tCxU83nKnz+FcHZ2AHLSkV4JoOQEfvwlC67dPer2Rhv18YefuAgnD55BqabY8E1halIfIYE4CHuvHECwUxYu79qI3ZESsLJKVLGA0F4Mx4yvMGbwDGw4kgA9/xX4uKlDmsBdT9R5oiHlOLt9D9K6DkF9ejjDqa6wqakpnBrVom9tdVSrnxvCNdfoqi9ttVvHdrh8IrSH2DEDX40ZjBkbjiBBzx8rPu6kdqsblz7U1imrxtM4p8YF3PNsE7j8IuyMkSM7QggWxWc/w8z/e4yhm3ZjsbsI4Mx7bXrjOlfHWHDZ3QQhOs0KwlvSowgLzwYLBsmHovDGRG+YPGU8+KamaJguXG3omvPcOf4arRl01roF3g4Yh1bXDuIXxWICaWUCWCQfxG7FYgKH77vCX7GY4MhzZXMCO/Ty6QErAWDc5X1s/mQgeHFX8EeTxcSLRf2iGjzwar1f+4rq3wIBeCCw6hKRfYLC4kqI3PywZNkyLKv9t3QBxnRUuLZxa4pXGnfBg0DAA4gFgUF+5mNI2WpUN7iNotDJEfb8apRK/lQ7gdZjjh49xRAyyYiP13afID6ElXexdXYQduV0x/tB3rDjKwbJZD3Aw1JAINTgNo5ztSNE+84dYIwayGQEvrASd7fORtCuHHR/PwjednzUtqTfZxSGv5GEC789AgNAdv8BMix9MNrLRHlEc+PXHLuNMGiGP5xu/4ID8VLE7rkB8dYvMLTkCHadzsf1I9nw8HeDEAD7pBDFlSK4+S2p18CyZVi6YAyUMmgM3wYuzhbgMXLUqL6nBmH7zuhgDNTIpMjj1IcEGQ8eohQCaAwd1ImyOX5pjLaxc8VD27lqDFVBNZcAHp+HOgEpXgAf1OgljTDFKCiqQmmJRLfjIQBfADByRRQ1a5mPdrP24dwOf5hGrMfEHh3Rf/5RZKr+Dq2lf83tq8LiSWExKkVu8FvSoC4tW4oFYzpCCH30GTUcbyRdwG+PGAAy3H+QAUuf0fAyAZj8TDyWsqhuLDI42vNRXSrBnyw0xEYlHnwhKu9uxeygXcjp/j6CvO1QKyt+u1nYd24H/E0jsH5iD3TsPx9HmzhEFxrXE06YLDxQFDZNE0KTmqJNo1z61lZHdfOzEs65Rl83fQFacl03nXL6RL8dZu07hx3+pohYPxE9OvbH/KOZ6rdccOgD0CCxOrRpXLU2NJxn1cHlFwVsdjiC5+yEbOJ3CJvVvu6LCo15qYPeNJ6rYyx0sbshfLuJCBpvikthOxFfEY1fUrtgiodyD/DTxIP3MnL+NV0z8HXXutGgGfB3uo1fDsRDGrsHN8Rb8cXQEhzZdRr51ym/QUcAAP/0SURBVI8g28MfborFBEeeq11MwMbFGRY8Bspp6KWhSdPPBt8MbeyM8CB8Jy40uKEGk3YGp2KbbH7SAQHadGgPMyYBt27Xb4piq2Wo5rdFdw87LQMRwj0gEF6m+Tix60ijfaB1VCfj9KlYoPw0Fo5djuIJ32Lt5J6wrY0XATwra1gJqxB/+y4a39GawLLgPFc9BGpgS420CqytG7q0qcTphWOxvHgCvl07GT1VGuLb+GHL9gCILnyNtVs2Y8NRQ3x6Zh8Cnbgv5NFIM+3W7zkNk7s9wOHtG7GnwAsBQ9/DDF8Wp7//BLtLB2K8gyIafLM2sDN6gPCdF1AvAwZpZ05BvQykKCyqRDv3HnhDQ0CpscNQxdrCrYsDHDj10QbW1lYQVsXj9l2Ve5ETq/kDWTP90pDmj72eZzn3qREIIVDzIZmIAQRvoJ29IfLPHMZvJbXvsCg+E4YDSepKZUPKObTMICv+MRwCtuLCgwScWN4NmduDsf68Sow4+y/jaF8VPsza2MHoQTh2Ni5MOHMqFnLwYeO3BdsDRLjw9Vps2bwBRw0/xZl9gXASAII2HdDejEHCrduKvZAAwFZDVs1H2+4esNOgWVXKTy/E2OXFmPDtWkzuaVv3DQ4BYLLi8dghAFsvPEDCieXolrkdwevPq9QbTWiqJwLu+PKsYG0lRFX8bTRND/XZ8Swa1VZHm+VnzrlGppu+oC3XddMpp09kWYh/7ICArRfwIOEElnfLxPbg9VBvimZ9aEebxpsJp18AyJMQNnsefjX7ED99PR52fICVFKBYzpH3WvXGca6OsdBqdxNMMDwoAOKE3fgq5BDKvCbBRTmdPls8FHC10byc15Tjr9GagdFd69DviWmTu+HB4e3YuKcAXgFD8d4MX7Cnv8cnu0sxcLyDYm3HmefqVS0tLEJlO3f00LSYeEFo6I0Fw1KDgsqCYeQgtkFRJlIsSFgWAB8GBiLgz1zklBQi6moqBsycDOf0MPgPmYKQn8JxZG8oAj+7DmMXhfcJctQ09AXLgJET2AafmBVdsGBZwHzUPAR1leDIll1IqgYAFnnnLiNrwDx8NEgEsMU4t8Yf76271KCg1SNw/RBh2ybC5OQCTFz2K5Ib7F9nJbewd8MxkEcXsGWpSMsvR2bSI5RXZSHixA3kMlKU5d7FzXxvTBtljbSdC7H8ZCaqIUNGTDwKGAmyM/IgydN8blS8mg3zbCEy0pWvszk4fjwWXYI+grd+GVLT8lGemYRH5VXIijiBG7kMpGW5uBsVD0hOY9mqLIz7ej2WBi/Emk1rMM299nc0NDt+XGNWa7fgTUyZ2g/Zu49ANGEcbAVWGB3gB9OrEeANH63YAgAAxsMwc7Iz0sP8MWRKCH4KP4K9oYH47LoxlDIASctQqky2qrid2J/6Nr6Y30/tldwAi8KMdCgsYpFz/DhiuwThI28DLfowhM3oaRhlnYadC5fjZGY1IMtATHwBGEk2MvLKFJM3AfIGomyOX/gGBhDhT+TmlKAw6ipieVxj546Hdr8RIK/hmCAZsKzKgogUfdRNBEQgsGCVa2KBrT1a62cj8vcY5Bfcx6nte3CtWI7CrEcoeiLCiJkT4ZC3Dx+8swDfh/8PBzbPRUC4EP1dBQoNqVmwsSwLluXSciyywjchLEYKGDjhX8u/wAQnI4ia3G3DXHP/LuUc7cc3iUvqgJmY7JyOMP8hmBLyE8KP7EVo4Ge4buwCIQDJ6WVYlTUOX69fiuCFa7BpzTTUpZb5KMwL6grJkS3YpRAZ2LxzuJw1APM+GgTFTTrVxYYFw0IRb7AoS01Dfnkmkh6VoyorAidu5IKRliH3bhRik8KxKSwGUhjA6V/L8cUEJxiJDMCDFDe3zcCo90Lwm9pvBTjqiYGW+FaYYvS0UbBO24mFy09CkR4xiC9gIMnOQF6ZtGlN4dQot775NqM562iZni5+rsUYwzTONTzN+uIbQDFl5aCkMApXbtznyPUyze00MoXDJ7wshG8Kg6KJf2H5FxPgZCSCwpSGGr2CG/c16yO+vGmdUsV4GIfGtcyzAMAwjDJW2mpgAW79+30su9YeS3evh4/yFm6SM8dw4QlH3t/M59abJE/zuTrWDG671cxpAIQeszBnUDEOHiGMHtVK+Sp3vmqMB8uAJeWXbVra0JzzatCU46/TmiE2SaPWmyLAm1Omol/2bhwRTcA4WwGsRgfAz/QqInjDMbp+McGR53WLCZTVLyawc38q3v5iPvrpA2zxOazxfw/rLqlbHT5nVDdZE5VT4olVNKKNgIROfrT+VBKVxh6h5T62JNAT06TNpykh6Q/aNa8/WfCNyCPwR7qazZA8ZTe9J7akVmI/2hz5hIgqKHF/MHm7WpJI34zaDZhDe+IriCmOoUPL3iI7gYDsfVfQoVtFxFApxR5ZTj62AtITT6LNpxMo6Y9dNK+/BfGNPCjwx6uUzRDVpB+nFWN6kseQSTT7w/dpWtBXFJGvvEhDnkLfjXiDWo/aQWka7/8tp/xr22nemF4k7tCV+g4dQeMmzaDZn26nawXKdphsOjqvN7U2taT2gwNp+6WfKcDRglxGbaIbpUSMJJq+C+hLjpYW5OQ5mj5ePYv6OvejyZ/vphvZWZznNqTmzhfUXd+O+k4MpLkLP6G5U8eR/+cnKENORMRQ9tF51Lu1KVm2H0yB2y/RzwGOZOEyijbdKCUm+yBNdRQRDyDweMTXMyAz2w7kFbSP7sueIn5ZuttdC5P/M033/54e1fpadoOWjV1MV2qfqVNLRSLtD/YmV0sR6Zu1owFz9lC84koIqnh4nNZN9aJeg8dSwNx5NPujtXQiVcPN52vu0Bfd9cmu70QKnLuQPpk7lcb5f04nFA5THMKlD2JIEv0dBfR1JEsLJ/Ic/TGtntWXnPtNps93nqXfDyyjt+wEJLD3pRWHblERo10LjZCn0O73xGTZSkx+myPpCWkeu9Z4ZDMazmWoOOYQLXvLjgQCe/JdcYhuFalepFtOicdX0Qh7AQldxtPGE3GUcfd/tHZMOxIIXWhc6K9079EtCl/5L7IXCMl5XCidSZER0Z90dd0wamdmRvYeE2jTpdO0pGcH8pqxmvbfLFLk84Fg8hbbkKm5PXlO3kx/FDBEpffoP//P3nnHR1FtD/y7JR1C6IQIhBYEaRFEehUj0kWKgBCkyEMpCkrxScdYHhYsiEqTpjyRH0WCFOkQegmBgBBIYhKSEJJAElJ25vz+2NTNZjcBVPDN9/P4PLM7995z7ylzdubcmamdpJLBQXwGfiRbz4fK/qUTpY2HQdyavSrLgqJt2HKcHJrRWmo3fUb8354tc6eNkTEBu8X6vuMixrfjK9b0knphtYzvXEfKOjmKe/U2MmbF+ezNOYpErR0qNZx0AohOpxcHZ3epVLeDjF110bxBJuu6bH6nlzTz7SiDRv9LXnl5rHy8L1YUKUo3+fyxZl95b9slUaI2yoQWVaR02drSftRi2fO9v9TwqCU9PjwicYdmSOvaTeUZ/7dl9txpMmZMgOy+oYgoUbK8bxXxqFBJ2swNtlwcO/FE7OtXSZRjX/pLyxplxcO7ufR8fbaMbFlTWg3+tyw/crVQTBG5P/u2GUdjFBvrbA3r5xqRDBv2ZZIry18Sn7LlxafPQglKtuXrtvqxoIg1kYxDMqN1bWn6jL+8PXuuTBszRgJ2Z2+6tLDR5KLs4/3tsm+dlThlBes2bv88e/XCVpnpV0UMhhrSZ8EmOZ9U9Lrs2zFdGjvrxaPZYJkydapMnTpV3p40XNo//pKsS7XjlzbtLcpG22LGjJLE7nwk/jxSesw9W2BTXZH+WpQ+Ui7IllndpKrBKN59Fsgvl9KL7sOWz1tg28dtr/dfmjPE2bB1ayix8v2wgfJVXjIhR6b3limFk4ki/FxEUn+XzfOHSoen2ktv/9dkwuhxMm/L1dyNzqYrX0q3ylWkx9dh+Tv8U9CJSEnuYmg8IExnZtK81SZ6Hj7JPN+ceyfFQ43azNwld3jB3xf1ZiLJKWmkJEZz9seVxIwO5POuBa/l/CMwnWFm81Zs6nmYk/N8rWx60NC4X1SiNs9lyZ0X8PdVuZmYTEpaConRZ/lxZQyjAz/n73atzIMzGHdyFN9NrFXg8/uJJxoaGg8/9+Pj/5M5w99EEeUfGn8ZRdzJLRI1ilXjJ3G21nM0rtWApi3a0KFzV7r3649f86d4IudWyD+Wki6YhkbxUKNWMX7SWWo915haDZrSok0HOnftTr/+fjR/6onckqW/CzXhMN9sLc/QYQUT6gJo7qGh8c+mpD7+P58z/LVoSfXfhOnWLW4rySQk2nsaiSVGPKq48NvEp+k8dCLvzF3A/Flv8+rL/+LnWmMYVfseNx487Jhuceu2QnJCovkFGhoaDxqjB1VcfmPi050ZOvEd5i6Yz6y3X+Xlf/1MrTGj+FtdS00k+IxKj9mT6Wjl9cP3Hk80NDQeBe7dx/9Hc4a/Ca38428g48pOVvx3P9eTTRg9vOk4YARdalnfmmedDKKObmXz3mCi0wyUrfEkXXs/R6Py/1DnyLjCzhX/Zf/1ZExGD7w7DmBEl1pFbGbU0LgPMqI4unUze4OjSTOUpcaTXen9XCMeZte6/3iioaHxMHP/Pv4/ljP8jWhJtYaGhoaGhoaGhsZ9opV/aGhoaGhoaGhoaNwnWlKtoaGhoaGhoaGhcZ/8I5Nq9U4YwVeSSrxJ1hoPsq/ikB4VzMXYv2q0Rxj1DmHBV0j6X16q1HBOn40k38ucH0qUxMsEX0u1/FjjISM1/DRnIx92a9J4MKQSfvosf5u6H/H4rZ2nNYqiyKRajT/K0qnDefHFgQx8aRRvL1zBigWL2W3tVZMPC0okvy30p0XNJxj4TaiNN84VgwfZVzFQk06z+s0u1KnTkfkHS7q7938JhcjfFuLfoiZPDPyG0D9bMX8JmRye1Y56bSex9UZxA7XK9W+G0ar1aFYWu81fjBLObwuH8WTNxoxcE469F5pr/I2o1/lmWCtaj17Jw2pO/1yS+b9/NaF+twUE3bH87s9Bvf4Nw1q1ZvTKG3/ZBSMzj3b81s7TGvawnlSnHuTf3Ybxi/ebLP3pR9Z98xZtEr9nWsAOYh7mM6OhGp3Hj6ZD+XyvY75XHmRfxUDv4cvgN3rjo+0btYOBap3HM7pDef4xS5V5ms2BWbywYBY9qlh3ycLo8R7zPUcOf8vwYrf5izHUoPPrI2hX1vyW9P8NVOJPnuDqwxwnraH3Zsz3Rzj87XAeVnP6c3gI9JWyh/874MnYDyfTsrTll38Oeu8xfH/kMN8Or1JEEvBn8WjH7/+Z87Qaz8kTV7ULIfeAVX9K3/0dyyJbMnxEE8oA+tL16D13Hf/pU976++gfJgweeLg/ICkfZF/FQO9eGre/brhHGAMeHu4Pvy0WE+WPa1SdvI75Haw8gNgWbjXwbVINZ8vPHyYMbpR2sxpm/pmkHuWzmSu4/IhdgQNwq+FLk2oPtTU9eB4CfWVeSODJz1YxvtFfufZu1PBtwt+j7kc7fv8vnKdTj37GzBWX//Q79P9ErJ7tdI6OGG9tZeF7v3Ej56eKvjLdh/TCy+KxhmnRwRzau5+T4Xds3EZSuXMthLA7KkriFYL2H+VKkrljNeYMO7cHErj9AKFJKijRnPw1kMDAXwm6llagF1tjmW5d4di+/ZyOvGvxjRlbbS2x2ZcpgctH97B773HCsueQQ1pEMKHxCunRZzkWesvGr7w0ooMPsXf/ScLv5JNGrytWoMmMC+XI3r0cvZJYcAwbsqlJVzm67wBnIpJJiI6hQIWrkkjYiQPsDwolzu4drTQigkOJV9KJPnuM0FvmcUwJlzm6Zzd7j4dRcGjrxwMoiWGcOLCfoNC44r3QxXSLK8f2sf90JFY0A2nRBB/ay/6T4eRf1lzUGM7s3E5g4HYOhCahohB98lcCAwP5NegaudaWGkHwpQRUMokNOczhC3EWwcVEwuWj7Nm9l+NhSTb0DOqda4SE3UFVErkStJ+jVyyPN5FkqkmjCuGcstZXegznD+3j4JlwkgvNKZ2ocxfy3a5PJSL4EgkqZMaGcPjwBeIsomLRespDTQhh7/bA3HVJjc/7O3D7QS4lq6iJoRzYHkjgr8eIyCkJs7r+OnTZRi2meC4GBRFyoziFnKlEnTvI/iMXicvIJDbsOneKqz+KksUKdnUNoJAYdoID+4MIteEganwQi4YPZeGx65zZsZ095+NzY01R8Sc1IphLZoURcvgwFywVBqTHnOfQvoOcCU8uHLts+LwldsdKj+LchfzlAPbtCdKJOX+IfQfPEJ5roCoxZ3ayPTCQ7QdCMYf1k/waGEjgr0HkhXX7/RfHXvPIJC70CHv3HuVKooWXWenHlr5s2o9Nn7QTT9MiCA6NR0mP5uyxUG4p4NhiJGMev8GlAjW6xY8xNo9Vk7h6dB8HzkSQnBBNTL7Anx51jgsWtT62bM2u/dizRZvx28YcLLAfU0uuA+vc+3k6LfKcueZaSSLsxGFOR+QsfCaxFw5z8Gy0lb0wtuJMGpHnLmLuMowTh0+T12UsFw4f5Gx04R5LHndU4oMWMXzoQo5dP8OO7Xs4H5/T0pZ8GjlYTaqdOo9ncgc9h+c/h2+7MXyxP4pMoGy3XnTMeUW8GsP2eaOZvGQf547/yOS2PrR/ZxcJFp6oRO7n81EtqNFgMJ+vmcOzTz5N12daUd+nM3MPJaMvV53HYr9nTO/RLL1gAkM5qlW6xKIhvXhzfbTZWWyOlUbwNy/jN2opZ6KusGXGeJZczuclNttaYrsvJWw1w1v247OzN7lxOAA/n7bMOZKGGhfEsomdqOPTldlff8CLbVvTqsUIViUU6BwANWY780ZPZsm+cxz/cTJtfdrzzq6EQgHMKmo8excMw/8/uwiPO8fnvXxoPn4TMWrRsgFknluE//i1RJrSubBsCC1f/I7r2T6UFPQp/gOnsT44gkubJ9OugR9z9+Q7ueSiEhe0jImd6uDTdTZff/AibVu3osWIlZxcPZyW/T7j7M0bHA7ww6ftHI6kFXX8KhJIIuhTfwZOW09wxCU2T25HA7+57Ml13sKkBX/Dy36jWHomiitbZjB+yeV8gVQlZvs8Rk9ewr5zx/lxclt82r/DLksl68tR/bFYvh/Tm9FLL2DCQLlqlbi0aAi93lxPdFY8x1ZOolMdH7oFrGPpGD+6D36Z7k0b0WfJFfN4Shirh7ek32dnuXnjMAF+PrSdc6RgQoe5Jn//56NoUaMBgz9fw5xnn+Tprs/Qqr4PneceIrkYfSUf+ZA+PWcRlOVE8i+v0bL+U3R6tjv95u8m6vQ63n62DrXbz2F/ukr8sZVM6lQHn24BrFs6Br/ug3m5e1Ma9VnCFbPghFnVUwGpAdC7lSb9t1n07z2ZwLseOLtXosyVr3ml11AWXy1PZTc9+tLlubNlPl+FGCjtYH/9JfYXxrf2pXWXtjTyrk/vz06QUmDUPNJCVjC2+8t88GsIofs/ZpBvTRr0/YZQ1Y7+zMHCrixg9iW7ugZICuJT/4FMWx9MxKXNTG7XAL+5eyhsqipJ0Qm4lC2FqmaQmpREcpqpyPgTH3uMlZM6UcenGwHrljLGrzuDX+5O00Z9WGJWGJDMkQ/70HNWEFlOyfzyWkvqP9WJZ7v3Y/6eNJs+nx813s5YaiKn173Ns3Vq037OftIpjj0ByUf4sE9PZgVl4ZT8C6+1rM9TnZ6le7/3OFfhMWK/H0Pv0Usxh/VqVLq0iCG93mR9dFYx+i++vQKo8XtZMMyf/+wKJ+7c5/Tyac74TTGoRfZThL7s2E/RPrmHNFvxVI0jaNlEOtXxoevsr/ngxba0btUC/6/3sO7tZ6lTu0Neja6duFAAW8dmnmOR/3jWRppIv7CMIS1f5LvrJtTE09ljtmfO/pxErGhbm7txv237sXFuzMFm/LY1h/wUJ6begw5GWDlR3+t5Wr11gtWTn8Gnbgdmr9/ArCGD8H+lH63qt2Ty9hOsGteDviNepX/L+rSblW+ORcYZlVsnVjP5GR/qdpjN+g2zGDLIn1f6taJ+y8lsP7GKcT36MuLV/rSs345ZOWt+r3FHTSI6wYWypVTUjFSSkpJJM9mSL9/kNcxIUaSEyLo3O8ljTjrR6cvI433nyNaw9OwvFYldN0Q6TQuSjOy/wz/pII4OvjLzdFaBbkREMg5PkXoOntJ51nb5I0sk9cK30tfLII7NZsvZLBHThfnSwrmeTDlk7k0yDsmUei7S6v3fxWRnrNSDb0njWiNkU2L2YClbZaSXgzz+1hHJsNPWEtt9meTie0+La7M5EpwlIlnHZHpDZ2k687RkiYgS/ol0dHSRRhN3SFxiiOzaflYSFIsBlFhZN6STTAvKnqcSLp90cBQH35lyOktEbi+Xns5lZfBPdy0aiogoErN2oNTx+1LCFRGRLDn/UQcpV3W4bEyxJVuGHJ7SUJpODZK7IiLKDVkz/3MJyRKRxG3yqk99mbQvZ7xUOTi5vjh6DpIfblgKL9nr11EcXRrJxB1xkhiyS7afOiLzn3aVZnOCxTz0dGno3DR7fa0cfzZBEra9Kj71J0nesAdlcn1H8Rz0g1gdNvWgvNW4lozIU4xsHeklDo+/JUcyRJTYdTKk0zTJW9ZPpIOjg/hm66YApgsyv4Wz1JtyKNsmMuTQlHri0up9+d0kIqar8lEbR3FvPlE2hWWISJL8NKSSOLX9SK6aREwX35OnXZvJHPNCy7HpDcW5abb+LMk4LFPqOYhn51my3Wz48m1fLzE4NpPZZ7Ns95UVLPOeKiXN54WISUQk65T8u7GT1J6wN9eWY77sIk7uA+THVBERk1z9qI04ujeXiZvCJENEkn4aIpWc2spHZsHlvSL1ZIXEDTLU012e/SpCFBGR9APypo+TNHrnuHlNTb/LJ6PflcP21j/rmExv6ChevRbJsQSTSEqwfNvfWxycmsvcc1bGvvObTGroK28dSs3+IEMOT3lcnBpOl2NZ9vVnU5a8UczY0bVIomx71UfqT9pn9h0RST04Weo7esqgH26Y16UAikR/0UWcvUbJtnTz37bij+nqR9LG0V2aT9wk5uF/kiGVnKTtR1fFJCJZwfPkqVLNZV6ISUREsk79Wxo71ZYJezNE7MQjS+yNJUqMfNnFSdwH/CjmlbdjT5IlwfOeklLN54lZvCw59e/G4lR7guzNMLe/ML+FONebInlhfYrUc2kl75sdzXb/JbFXJUbWDqwjfl+Gm3WSdV4+6lBOqg7fKCk2+7HUlx37seeT9uKpEi6fdHQUl0YTZUdcooTs2i5nExRRYr6ULk55cd9mXLDA1rEZh6dIw6ZTJcgc+OXGmvnyeYi5E/OY7jLAHDzs2Jo9+7Fji3bit605FMJOTL1XHRTgvs7TIkr0F9LFyVVaTt8nMSYRyTgl7zZ1kDKtpsqOP8xzPP1uU3GqNV72pEsx4ozZTp1cW8r0fTFi7vJdaepQRlpN3SHmLk/Lu02dpNb4PZJ+n3FHlGj5oouzeI3aJma3sCefRn6sXqkGwK0Bgxb+xoVT/+Xd3p5Eb5pNnzYv8NUFE5DG3o3bibq8lYUBAQQEfMCau37MnjuMZi6WHYHexQVnQ0Va9+6ClxFc6/szZ3RTJHgf++w+lsbWWClsX7yCsEYd6eSRfbhzTbw9c2pUbLXNNwQA9voy4DN2JfvXjMc7ci/LPlhOUKJKxt101Ow5Ourdad6lHRU9GtDFrzHlLFc3bS8bt0dxeetCAgICCPhgDXf9ZjN3WDMKiVOIRALXbcfJt3n2RiIjT0zZS0LUCvq42ZLNiJdPDcI/7kX74e+xIcSBge+8TgMj3NryLT9E1qGJb05hnStPD+yDz82trA1MKjg8AHpcXBzRuzenS7uKeDTogp9vC8at3M+a8d5E7l3GB8uDSFQzuJuuWj++Mfzy7Q9E1mlC3rBPM7CPDze3rsXasCnbF7MirBEd8xRDTW9PcrW8dyPboy6zdWEAAQEBfLDmLn6z5zKssJLtYyhFKTcDpZv64VfTEXDDp2419MlJ3BIw+Ixl5f41jPeOZO+yD1gelIiacZd0a2asd8HF2UDF1r3pYjZ8/OeMpqkEs29fLDpbfZmuExaZiT6ndsJYk5rVIPr69exbp3pKly6V7zakgVKl3DCUboqfX00cATefulTTJ5NkFpyxRerJCh7P4d+3PIfW/sAVBdRbYSQbPLi8djn70sAU/CMX6wzkKcfirL8Bz6e68GQ5A7g15JWFb9JWF8z+AzcLXflJ/uVrVt95mmebuea2LVOmlPVbalawL0s+7OiaW1v49odI6jTxza1bd316IH18brJ1bSBWTNUC2/HHUKoUbobSNPXzwzy8D3Wr6UlOuoUAputhRGbqc8tnjDVrUo1orl+/azceWWJvLPSlKV0q/01tO/aEiethkWTm3go3UtNsoFwvfG/fCnb6L4m9JgaybrsTvs2zN90Zn2DK3gSiVvTBrST92LMfOz5pN57qXXBx1OPevAvtKnrQoIsfjcvp0ZcuTal8Bl6SGGPrWKOXDzXCP6ZX++G8tyEEh4Hv8HoDI4B5zHzqtm1r9uzHti3ai9+25lAIOzH15j3qoAD3dZ4GfSk3XHWO1HyyOVUMgKMPdWoYodqTtPEyAka8a1RFl5xIYrHijJ5Sbq7oHGvyZPMqmLusg7nLNpi79KZGVR3JiYnIfcadQtiVTyM/Vs9VytUTnM6+rl+6QT/m/Hyak6uGUvPmr7z3yU5Q7xCfcBen+n14a/p0puf8mzaJXvXMTmsbI7WfqIsbWWRkWFVjHrbGqhND6O9JYDBan4ittpZyKpG2+wL0xrucWTSascuiafLKWDp76gsYob06K/VOPAl3najf5608WaZPZ9qkXliKUwglgbib6STdSrRq+EXLpqf6yFXs/HogpfctYMCT9Wg9cSMRikJsxB+kqZlk5ivFMnrXwEufSVLibasn58Kz1GO8e4ZFo8eyLLoJr4ztjKfexqoosUT8kYaamZmvpsyIdw0v9JlJJN62HFUhMvR3kjBgtKoYlTvxCdx1qk+ft/LpePo0JvWqh71lLUxeDXDO3waDDkTNTj6M3D2ziNFjlxHd5BXGdvakwHTtYKz9BHXdICsjA7HVl+PT9Hi2Mpd2/8o1Bci4SGh4Wbr07ECp7EN0uoK1fbqCgqMzGNAhqGbB7ejJElfaDR+I98kfWHM+jXMrjuCz6F063drAsm2xHN4Qhe/A+hjvYf31FWtR00OHYsqy+EYh+up1UoyOOFiaWbEoqSy2da3ERvBHmkpmQQehhpeezKRECpmqJfbij4X+0BkwD2/Wi+PTPXi28iV2/3oNswmEEl62Cz07mC2gaJ+3gp2xzGthYT+WfxewJ0ee7vEslS/t5lezgXIxNJyyXXqSLZ5dbPdffHtVEuK4mZ7ErURr3xe/H7v2Y9MnixlPrdm1pW5sxQVLbByrrz6SVTu/ZmDpfSwY8CT1Wk9kY0R20YWuoO3bs7VCMlrYT9G2aC9+255DcciLqWncuFcd5OO+ztNYWSt06HUFn4Ck0+vJefxJceKMpa+g06OzyD5yu7zPuGNJceTTyMOqmZuu/Jel2/PX1TpTZ9BcxrYycDsxCfTuVPV0JXT9UnYn5rVTwgL55VyhnSzZCJJv8bPS0lEr1adhVQMYjBhyg2keIortsYLdqVDOSPr5k5yxeH62qKrttpZy6srZ7osUtr3RmxkJ/fli3mCaVcrxLuuGaA29e1U8XUNZv3Q3eeIohAX+gqU4hTBUprqXC7GBP/LrrZwPVRICl7DmUrIN2RQiz/9BNf9F7A4NYcuMxkQsHs+CXSaq1q2NuxLCiZN51WtqZgaZ+sdo4utp3TgsSdnGG71nkND/C+YNbobdZTFUpW5td5SQE+QNq5KZkYn+sSb4elqOqqNchXIY089zsrBiUNHjXtUT19D1LC2oZAJ/OWdl05kBo8FKABEpvNnFCinb3qD3jAT6fzGPwc0q5SZqRU0XQAoaPulqJeo3rMpdW33pK9Lnk8X4O+3m03mfsPC9jbi8HciqUd65V3hKREn1BDg2e5nBjUP5cfEHrIjrgH+nlxjup7LtqzdZntSWftX0UOL1B9LiuXm3Ok2frGxhYzo8ypaBP04QdK0obdjS3z3IYgND1brUdlcIOXEyr/ZRzSQjU89jTXwpZKqWlCT+WEFfsQ+fLPbHafenzPtkIe9tdOHtwFWM8jY8kHh0f+ip2OcTFvs7sfvTeXyy8D02urxN4KpReGcbqMGsKAuJBClKtfkpgb0aKlfHyyWWwB9/JS80JhC4ZA2Xkovfj11btumThgcTT0sYY2wdq0Se549q/izaHUrIlhk0jljM+AW7sPaqCdu2Zg9btmgvftueQ1FYj6nVqPYAdHBf5+l74L7jjCX3GXcseeDy/cOxvhySyLYFb7E2NM8wlajDHL1Whd6DugBudB0xmJrXlzCw4xDmfreeDSsDGDX1MG61ivgpp8YTfj17a5IazebN52g4dhydncFQyYsqjlEE7ThFbNxFflm8gkMJJuIjr3HzjqHosep40vPlHlQIW8obM7YSkQkZ4ac4H6eQGBXOjWRd0W0t5dRXtN1X4g2uhsWSEnGJaynpRO7bwpEYhbTkGM4cPQ+AYCLLls26dWXE4JpcXzKQjkPm8t36DawMGMXUw27UMgKKgoKgqtZ++pWh24gBVLuxildfmMRX639mzcLX8F9vpHWtFBuynSNy/YcsOZUGzt48P+Nd+nu74uSso0yPCYxtlMiGT5ZxKRNA5cbOvUS2mcC4djk7Ui0RMGXlJihq8lXCYlOIuHSNlPRI9m05QoySRnLMGY6eTyl0PJShx4SxNErcwCfLLpmf+qHeYOfeSNpMGEfhYfVU7PkyPSqEsfSNGWw1K4ZT5+NQEqMIv5GMrusIBte8zpKBHRky9zvWb1hJwKipHHarVfjqpKESXlUciQrawanYOC7+spgVhxIwxUdy7eYd0lUFxSSo+ZIBEfMPK1VVSb4aRmxKBJeupZAeuY8tR2JQ0pKJOXOU81Z33qnEh1/P3pSnEr15M+cajmVcZ0c7fSWybfosIvt+yoJp43ljzofMebkpOTdQAVRFRbJPTKCiKCZEzffj1Cw4qqoWQ09WMDzOkKGtiFq+Aaf+falkKEdP/z6UPrgP3bM9qZgdPdzsrr+QlpyUfTJPJ3jpaq4+9y4TWznmHw3QU+m5F+jocpT3h4xj8a/HOPnbCpb/FpP3g8eO/gx2ZcmHTV0DZXowYWwjEjd8wjKzg6De2MneyDZMGNeOQqaKHmdnJ7gdQ/SteI4evEobG/FHVRRMoub7gSBItv+rAInbmD4rkr6fLmDa+DeY8+EcXm6abQFqsg2fN8ej/NgdCxVFlewLCNl/27AngMRt05kV2ZdPF0xj/Btz+HDOy+SIBwYqeVXBMSqIHadiibv4C4tXHCLBFE/ktZvcSbfdf4nstUw3Rgyoxo1Vr/LCpK9Y//MaFr7mz3pja2ql2OonzUJf5+zEEts+Wax4KmCyPEmoCipmO4SSxBjbx567tJ4Pl5wiDWe8n5/Bu/29cXVyNl+lVBVUEbOdY8fW7NmPTVu8YCd+J3LDxhwsVW2mqJjqfO86yM99nacBRTXrM9/XAki+Z1uLCKiqOa4VI84oqpr7IyRfj/me9W3+b1VV7OZnNnUJoHfG7BbR3Io/ysHwznbkU0nYOYeBL81nT74k/n8WyyJrEZH0He9Iv6Gj5aWe3aRXv4EyqH8v6dz+eXl9+Vm5k3tUqlxYPV461ykrTo7uUr3NGFlxPmdzUUGyTr8rTRw9peWAUfLaG2/Ka0P7ysB/b5Fw854IEbktB+d3leru7uLl218+3LNN3mpWVzoMny2rj9+0PZaSKMe+9JeWNcqKh3dz6fn6bBnZsqa0GvxvWX4kxnZbS2z2FSVRGydIiyqlpWzt9jJq8R753r+GeNTqIe9v3yfrpj8jngaDePm9I+tO3Cy6eD/1gqwe31nqlHUSR/fq0mbMCjmfKiJ3Q2XrTD+pYjBIjT4LZNP525YtzXNZM146+1SU0mW8pPnghXIgThERpUjZPjwSJ4dmtJbaTZ8R/7dny9xpY2RMwO7cDYFZ1zfLO72aiW/HQTL6X6/Iy2M/ln2x1qRXJOHUOpn+jKcYDF7i9846OXFTEVGiZOOEFlKldFmp3X6ULN7zvfjX8JBaPd6X7fusHC8iIllyffM70quZr3QcNFr+9crLMvbjfWJ1WBERUSTx2Jfi37KGlPXwluY9X5fZI1tKzVaD5d/Lj0iMIpJ6YbWM71xHyjo5inv1NjJmxfnsDVeFuX1wvnSt7i7uXr7S/8M9su2tZlK3w3CZvXqP7P/vDOlSySAOPoNk4bYQuXRgmUxo7SF6V18Z9e1BiYzcKBNaVJHSZWtL+1GLZc/3/lLDo5b0+PCIJFkOlHVa3m3iKJ4tB8io196QN18bKn0H/lu2ZBu+EmWjLyVK1g6tIU46BHSi0zuIs3slqdthrKy6mCEpF7bIrG5VxWD0lj4LfpETJzbIjC6VxODgI4MWbpOQSwdk2YTW4qF3Fd9R38rByMgi9PShHCkkeB5K7PcybOBXci3HVzOOyPTeU2R/zp7lbIpe/1T5ffN8GdrhKWnf219emzBaxs3bIlet7/EREZNE75glPetXlFLu3tLpjfUSOKu5uORsVLSpv+Nys9i2kCTnNtjWdZQiIlnXZfM7vaSZb0cZNPpf8srLY+XjfbFF+rfpynJ5yaeslPfpIwuD7hQdf5LOyYYZXaSSwUF8Bi2UbSGX5MCyCdLaQy+uvqPk24NRokStlaE1nEQHgk4negdnca9UVzqMXSUXM2z5vIVC7Y71u1zYMku6VTWI0buPLPjlkiSds2NPUVkStXao1HDSCSA6nV4cnN2lUt0OMnbVRfMGqdsHZX7X6uLu7iW+/T+UPdvekmZ1O8jw2atlz/7/2u6/pPaaekHWjO8sPhVLSxmv5jJ44QExh8ai4pO5n8L6smE/dnxSbMVTJUFOrZsuz3gaxODlJ++sOyE3FRFJuSBbZnWTqgaj1Oz7nmy7lG47LhSctc1j4w7NkNa1m8oz/m/L7LnTZMyYANl9QykwpnefBfLLpXTbthZnz34i7dii7fgd9QBjqtyLDqxxr+fplAuyeVY38TIYpVa/D2RLcLic+Xme9KpuEGOtvhLwf2fl2on1MvN5LzEYa0rfgEC5kmE7zqRc2CyzunmJwVhL+n2wRYLDz8jP83pJdYNRavUNkP87e01OrJ8pz3sZxFizrwQEXpGM+4g7Iia5svwl8SlbXnz6LJSgO7blEzHJlS+7SeUqPeTrsDw9/K+ik/w/n/4kTGdm0rzVJnoePsk830LXizQ0/pmYzjCzeSs29TzMyXm+ha+U2kKNYvPcJdx5wR9f9SaJySmkpSQSffZHVsaMJvDzrlaulP4TUbgwvyXNf+zKvtPv8VSJFvHRRo3azNwld3jB3xf1ZiLJKWmkJEZz9seVxIwO5POuf6cFqERtnsuSOy/g76tyMzGZlLQUEqPP8uPKGEYHfs7fKt6fwT/YJx9uW8vH/cRUDY2/AOvlH38WRdwt0dD4Z1NSw1eJWjWeSWdr8VzjWjRo2oI2HTrTtXs/+vs156knrJQyaPyzUKNYNX4SZ2s9R+NaDWjaog0dOnele7/++DV/iicsy9f+YtSoVYyfdJZazzWmVoOmtGjTgc5du9Ovvx/Nn3rCfJv8H8U/2CcfcluzTkljqobGX8NfcqU6/bfXafDcVp7bdoGvnsl5VJaGxj+c9N94vcFzbH1uGxe+eobiW75K7KbX6TxsDRnNetK9lQ+VXBSSI8OIrdCbmXNepPbDeJ77U8hg/6RGPLPpGQIvfkWXv+W1yn8DaiybXu/MsDUZNOvZnVY+lXBRkokMi6VC75nMebH235rEqbGbeL3zMNZkNKNn91b4VHJBSY4kLLYCvWfO4cV/nIH+g33yIbe1AtxzTNXQ+Gv405PqjCs7WfHf/VxPNmH08KbjgBF0qWW5QUlD4x9GxhV2rvgv+68nYzJ64N1xACO61KIklp8RdZStm/cSHJ2GoWwNnuzam+calb+3p388kihEHVrF2l8vkZDlQNlanRn4Ssfcp0v888kg6uhWNu8NJjrNQNkaT9K193M0Kv+QLEBGFEe3bmZvcDRphrLUeLIrvZ9rxMMi3p/BP9cnH3Jb48HEVA2NP5s/PanW0NDQ0NDQ0NDQ+Kfz19ZUa2hoaGhoaGhoaPwD0ZLqh4z0qGAu2nh1e2r4OUKz33ZpjdTw05yNzPfmoz+b1HBOn43M93bEPxf1ThjBV5K0bSp/h64fFOodwoKvkKQpsXiUwMceWZv4p1ACXf2dKImXCb6WavnxPxOLeKP5iB0eERt+WCmcVKddYud3sxnxbFvatG1Pl5796NenD/1Hv8vSQzElfiuZRvFQk06z+s0u1KnTkfkHzQ9YL/B9XBBLx3egTr1n+TCo8PcAqNf5ZlgrWo9eyY17TlgyOPBOa+q1n8L2OHudqFz/ZhitWo9m5b0PWDyUSH5b6E+Lmk8w8JtQzQ5t6DrjwDu0rteeKdvjHrIfHwqRvy3Ev0VNnhj4DaH/80osDiXwMRs2oVFSMjk8qx312k5ia7EXswS6+rtQwvlt4TCerNmYkWvCi/UW2b+DzLAtvP/mG8xddZx4FZSo05yOLqm0VuJNSX0k8zCz2tWj7aStxTv+YaZYc3kEbPhhx+K51dmkyIYhFcRQbohsuCsid6/J5glPiptjdXlxxRXLgzUeEErEZ9LJqawM/sn6mzFMVz6UNk6VZcRm69+LiKRcPyVnIor+Pg9F4k4clyuWz2rPOCRTmreSd/YXeuy+dVKuy6kzEVKcEe+bjIPypo+TPP7WEfPLJf7Hsa7rDDk0pbm0emd/4RcnPBRkyME3fcTp8bfkiKbE4lECHytkE0qcnDh+RSzdXMMOGUEy9amnZdreW5bf2KYEuvrbSP9NXvN2kubzQh5Ou1DiZP2cSTJv6gvSoIyTeLYcJCMGvyObEi0PLA6F400hH7FBRtBUeerpaVJSMygJStwJOV7oRPzgKWouhcZ/FGzYGg9JrCt8pRoAIx5lSqED8ytNnb3pueBdXij7BxvnfmZ5sMYDQu9eGjed5ad5GErb/h7ArYYvTaoV47ljqUf5bOYKLltcLVQiwnns7bXMaVem4BdF4VYD3ybVKMaI94/BAw93OwvwP4RVXSsRhD/2NmvntKOYGvyLMeDh4W6OKxrFowQ+ZmkTqUc/Y+aKy9qdnRKi/HGNqpPXMb9DWcuvbFMCXf1tGNwo7VbEqf8hwXfwv5nx/gZOndvJB4Pb0WPqZHrkvTW9BBSON5Y+UjQKf1yryuR18ympGRSfVI5+NpMVlifiB05Rc7Ey/qNgw1Z4WGKdYfbs2bMtPwSFa9u+YPX56vSf/AL1jYA+gzPrvmNfdDVmTetvPsyUwOXjRzlz5SZ4VKGsc56jpkUEczWzAqWSgzkV5UiVCi7oMZFw+ThHz1zhJh5UKetspf4kH5lxhB47zvloE2U8y+GS/2AlkbBTJwiOuItLpQq45X/yT2oEwddMVKxgJC7kKOduOuFZ0a3gWLbaY2fstGiCj53kUryOclU8cMrx2LQIgq9mUqFUMsGnonCsUqFgu1zSiA4+xslL8ejKVcEjp4Oss/zw0a84vTCZfg2sPBk07SRrPtlL6f6T6F3zJueDznHT2ZOK+QNkehTnLqdRsaL5RxFqElePHSXkph4Ph1QSpTRuyUF8Pmoocw87UK9hOUxZZahRyQ0dIDo3HNIi+eOuC5UquBV4VJR1naYTde4yaRUrUio3cmUSF3qM4+ejMZXxpJzFIiiJYZw6EUyElTGsYbp1hRPHzhOn03H5v8sJrunPv7o+lt2uiLUsRCoRwdcwVayAMS6Eo+du4uRZkfxLZ0q4zPGjZzCbc1mc9Sq3Lh5g34kL/H7lCldjVSo+VgHnlCsc2nuUkCuxqBUeo4Kzzo4c6cScP8qpy7fQlamEh3NBGQuPW+BrMuNCOXb8PNGmMniWc8mzY0tdA4gON4c0Iv+wYtfF8Qt7FOkXdnzbdIsrJ45xPk6H7vJ/WR5cE/9/deUxQzHaAqi3uHhgHycu/M6VK1eJVSvyWAVnUq4cYu/REK7EqlR4rAJmVVjxz+TLHNp3jJDfr3DlSt6/q/nbFSKVqHPHOBOWikulMqRERCJl7nJx1yFOX77CDaUC1So4EHNyJwfP/k5YgpGqj5XFIae5NTnyU+w5WfqYStLVYxwNuYnew4HURKF06ewHi+XahCs3gz5n1NC5HHaoR8NyJrLK1KBS9q/ytOhgjp28RLyuHFU8nHLtJy3yHFfSK1LRJZmwU6e4biqHZxlHIJPYC0c5E22gUpXSBZ9bbCuWWok/OaKav4/hTHHW067tFsOGslHvXONClJEK7mlcPXac39PL4Fku//EmEuPvgukmCdb6So/h/NFTXL6lo0wlDwvbsdTVvcSdfN0BoJIQso/9Jy/y+5UwEoyeOEUf5sDJi/niUjnuXjrIvuMXuJroRDWvMmYdWbNBNZrflqwgrOEYRraGS8eCiTNWoFIpK+ecIlCTrnLsaAg39R44pCYipUvnPdrO2pjWKCp/0LnhlHKV66aKVC7vghEnKlavRaWCi2a9be73NuJNobiZRkTwVTIrlCI5+BRRjlWo4KIHUyJmM0iwPkZ+rMijxpxh16HTXL5yA6VCNSo4xHBy50HO/h5GgrEqj5VJIujzUQydexiHeg0pZ8qiTI1K5gtntnwqLZJzV9KpWNGF5LBTnLpuopxnGRyBzNgLHD0TjaFSFUrnV6e1uajxRYxvacNmijwPWZl7DvcUT4qynyJjgEr8PcS6PwsbVlIQNe44p64ruD7ZCgAlbDXDW/bjs7M3uXE4AD+ftsw5koYaF8SyiZ2o49OV2V9/wIttW9OqxQhWxYWxenhL+n12lps3DhPg50PbOUdIsxwIAJX4vQsY5v8fdoXHce7zXvg0H8+mGHONT1LQp/gPnMb64AgubZ5MuwZ+zN0Tj6rGc2zlJDrV8aFbwDqWjvGj++CX6d60EX2WXMmtHyuyvd2xVWK2z2P05CXsO3ecHye3xaf9O+yKv0HQsol0quND19lf88GLbWndqgUjViXkm5MZNWY780ZPZsm+cxz/cTJtfdrzzq6EEtW+Zl77gTcGDGHsmN74NurLt1cVUBM5ve5tnq1Tm/Zz9ps3GWSeY5H/eNZGmki/sIwhLV/ku+uZJEUn4FK2FKqaQWpSEslpJiCJoE/9GThtPcERl9g8uR0N/OayJ14tQqf+fL1nHW8/W4fa7eewP3tXgxq/lwXD/PnPrnDizn1OL5/mjN8Ukz2/osewThrB37yM36ilnIm6wpYZ41lyOa+urnhrqRJ/bCWTOtXBp1sA65aOwa/7YF7u3pRGfZZwRQFQCFs9nJb9PuPszRscDvDDp+0cjqTpcSvvROhXI+nZewGnPKqaT4aulSl17BMWnjBSzlVvW47kI3zYpyezgrJwSv6F11rW56lOz9K933z2pBU1bo7o8exdMAz//+wiPO4cn/fyofn4TcSYrOjall0X0y9sY8MvFNu+nRb8DS/7jWLpmSiubJnB+CWX88a00zYXvRvlnUL5amRPei84hUdVc0LlWrkUxz5ZyAljOVz1RfhngkrmxZUsWHKUqFtJJCUlcfPE14zu1Y/pW+MwWImCaSErGNv9ZT74NYTQ/R8zyLcmDfp+Q6hajuqPxfL9mN6MXnoBEwbKVavEpUVD6PXmesxln0XLUQC7c/Ig46ylj2VybpE/49dGYkq/wLIhLXnxu+uYLP1fTSI6wYWypVTUjFSSkpJJM5mT2O3zRjN5yT7OHf+RyW19aP/OLuJvnmD15GfwqduB2es3MGvIIPxf6Uer+i2ZvP0Eq8b1oO+IV+nfsj7tZuXpp0ibo6j4Y3EdSW9nPbOKYbvFtSElkv2fj6JFjQYM/nwNc559kqe7PkOr+j50nnuI5GL0lXzkQ/r0nEVQlhPJv7xGy/pP0enZ7vSbv5uo0/l1dT9xp4DUgB630un8Nqs/vScHctfDGfdKZbjy9Sv0GrqYq+Ur46bXU7r8HbbM/4oQQ2kcimGDEvsL41v70rpLWxp516f3ZydIKTCudTLPLcJ//FoiTelcWDaEli9+h1mt9sfMocj8If4YKyd1oo5PNwLWLWWMX3cGv9ydpo36sMS8aEW2zaHIeGPpI6jEBS1jYqc6+HSdzdcfvEjb1q1oMWIVcXbGyE9R8ujLVeex2O8Z03s0Sy+YwFCOapUusWhIL95cH01WUjQJLmUppapkpCaRlJyGyZZPqbc4sXoyz/jUpcPs9WyYNYRB/q/Qr1V9Wk7ezolV4+jRdwSv9m9J/Xazcu2oKPnUQuOncLOADWdPsKjzkGqj71v3Ek+KsJ/4WNsxoISxzoo5Plgs60HMpMvucd5idGslb6zaKBvXLJRRT5WXMo8Pkm+C74qISS6+97S4NpsjwVkiknVMpjd0lqYzT0uWiCjhn0hHRxdpNHGHxCWGyK7tZyUu5D152rWZzDE3kGPTG4pz05lyOstybBElZq0MrOMnX4YrIiKSdf4j6VCuqgzfmCKSuE1e9akvk/blVPykysHJ9cXRc5D8cEMRMV2Vj9o4invzibIpLENEkuSnIZXEqe1HctUkdtvbGluJXSdDOk2ToOzaLCX8E+ng6CC+M09LlhIun3R0FJdGE2VHXKKE7NouZxPMfeSixMq6IZ1kWl4H8kkHR3HwzV6H28ulp3PRNdUS97X4OZeWVu/skzhFRO78nwz3dJYOH18XRUREiZEvuziJ+4AfJVVEMg5PkYZNp0rQXRERRW6smS+fh2SJiCLRX3QRZ69Rsi3d3HXitlfFp/4kyVuWgzK5vqN4DvpBbijWdZqgKBLzZRdxch8gP6aax187sI74fRlulifrvHzUoZxUHb5RUooxhiWpB9+SxrVG5NXSpWyVkV4O5ppqe2tZAJNc/aiNOLo3l4mbwiRDRJJ+GiKVnNrKR1dNIqaL8t7TrtJsTrCYzXm6NHRuKjOzO8oKnidPuXjJiE3ZVcpKtCx/7S0JvGNPp1kSPO8pKdV8noSYRESy5NS/G4tT7QmyN0PsjKtIzNqBUsfvSzGbYpac/6iDlKs6XDamFNa1Pbu26xd2sOUXpos2fDv1oLzVuJaMyFOibB3pJQ7ZNY422xbCvJ4uXiMkTxXL5bW3AsWsiqL98+75rbI1NLvTO4fl381KiUe79+V0tv0X4M5vMqmhr7x1KDX7gww5POVxcWo4XY5liYjpgsxv4Sz1phzKru3PkENT6olLq/fld5NtOQpPy/acRCx8LOOwTGnYVKaanVqUG2tk/uch5n4tbUKJli+6OIvXqG1inqYiseuGSKdpQdlyKxL+SQdxdPCVmaezRIn+Qro4uUrL6fskxiQiGafk3aYOUqbVVNnxh1k/p99tKk61xsuedPs2V3T8scDOetqz3RLZUMZhmVLPQTw7z5Ltf2SJpF6Qb/t6icGxmcw+m2W7r6xgmfdUqbxa5KxT8u/GTlJ7wt7c9Sygq/uMO5Ykbhgqnu7PylcRZh9MP/Cm+Dg1kneOm483/f6JjH73sGTY8YWsrGMyvaGjePVaJMcSTCIpwfJtf29xcGouc89ZHzuPDDk8paE0nRpkrrlVbsia+Z9LSJadMQv0YTt/MF39SNo4ukvziZvErO6fZEglJ2n70VUx2WlrL94U8hFRJPyTjuLo0kgm7oiTxJBdsv1snITYGqMAtuUxXZgvLZzryZRD2YuScUim1HORVu//LiYRs885e8movBOxTZ8y+7STuLacLvvMTiqn3m0qDmVaydQdf5jt6PS70tSplozfk25XvkLjF7JhW+ehYvRdgnhi037sxICSxro/EyvXaPLh6EWDxl6Uq9yElxcfJ/z8OkY3dAYM+Ixdyf414/GO3MuyD5YTlKiScTcdFdC7uOCod6d5l3ZU9GhAF7/GVHx8LCv3r2G8dyR7l33A8qBE1Iy7pFv51ZAYuI7tTr40r2IWz/jEFPYmRLGijxu3tnzLD5F1aOKbU/HjytMD++BzcytrA5PAUIpSbgZKN/XDr6Yj4IZP3Wrok5O4Jdhtb2vstL0b2R51ma0LAwgICOCDNXfxmz2XYc1cQO+Ci6Me9+ZdaFfRgwZd/GhczmJ50/aycXsUl7cuJCAggIAP1nDXbzZzhzXDpeCRNnDl8adbUFEPOFeneiVISkw0XxnSl6Z0vvs1Ri8faoR/TK/2w3lvQwgOA9/hdWtlJdxiy7c/EFmnCXnL8jQD+/hwc+taApOs67ScXk/p0vlKDxIDWbfdCd/mVcy3QIxPMGVvAlEr+uBWjDEKksL2xSsIa9SRTjm1dM418fbMvg9WorU0UKqUG4bSTfHzq4kj4OZTl2r6ZJJuCRh8GLtyP2vGexO5dxkfLA8iUc3gbrZxGhuMZOwzaWxcsp4oFZTL6zhaeQCdS9mTw8T1sEgy9brsNTJSs2Y1iL7O9bvYGTeRwHXbcfJtjtkUjTwxZS8JUSvo41ZY1/bs2p5f2MOWXxh8ivbtlO2LWRHWiI55SqSmt2duyY+ttoUx0mDkWJ5J28iS9VGoKFxed5TKAzpjVkXR/ml8ojvd6xlBTWD71BH8549OfLh8Ck2dLMeA5F++ZvWdp3m2Wc5LkA2UKVOq2Lf1bMlRGNtzAgsfM3rhUyOcj3u1Z/h7GwhxGMg7rzcw3z61sInCpLF343aiLm9lYUAAAQEfsOauH7PnDqOZC+hLueGqc6Tmk82pYgAcfahTwwjVnqSNlxEw4l2jKrrkRBKLEUuLH3/sYMd2S2RDehdcnA1UbN2bLl5GcK2P/5zRNJVg9u2LRWerL9N1wiIz0euy19hYE7M7X+euufOCurrPuGOJx3P+9C1/iLU/XEFB5VZYMgaPy6xdvo80TAT/eJE6A5/CsVg2aMDzqS48Wc4Abg15ZeGbtNUFs//ATTt3TY14+dQg/ONetB/+HhtCHBj4zus0MBZnzBxs5w+GUqVwM5SmqZ8fZnX7ULeanuSkW4idtvbiTWEf0ePi4ojevTld2lXEo0EX/BpX5HEbYxTEtjwlxZ5PoS+Fm6sOx5pP0tzspPjUqYGRajzZxgsjYPSuQVVdMomJcg/yWdqwrfOQ7b5LGk9s2o+dGFAY27Huz8T2eULnRHmfp2jfpQvtm9WkTL66Hr3xLmcWjWbssmiavDKWzp568s+tUGjXG7l7ZhGjxy4juskrjO3sid7qYigkxN0kPekWiYW+V4iN+IM0NZPMfA9RNHrXwEufSVLibVR05MQ8MzoMBh2Iithtn0h8kWOr3IlP4K5Tffq8NZ3p03P+TWNSr3rmk1qhSRdEvRNPwl0n6vd5K1/76Uyb1It693CuAQN6AyimrOy/dejyTV5ffSSrdn7NwNL7WDDgSeq1nsjGCCs3+5VYIv5IQ83MzPdsSiPeNbzQZyaReNvsftamp9PlJIygJMRxMz2JW4UXr9hj5KJEEvp7EhiMVo20pGuZf10AdAYDOgRVAPQY755h0eixLItuwitjO+OZ3zj1ngwY24/Se5aw9Hwqx364SsMhvjjalcORp3s8S+VLu/n1mgJkcDE0nLJdetKhlJ1xlQTibqaTdCuxgF/lkV/X9uzanl/Yw5ZP2vJthcjQ30nCgNGaErHV1jp6zwGM7VeaPUuWcj71GD9cbcgQX8fi+ScqUevHM2ZpBgO+XMLI2taq+RWir14nxeiIgzWDt0tx5ChI0XMyk9/H0Fdn5KqdfD2wNPsWDODJeq2ZuDEiu5ymoP8XQr1DfMJdnOr34a18tjp92iR61TNC/nEA0KHXUTCu6/UgUiybo7jxxy52bLeENmSJsfYT1HWDrIwMxFZfjk/T49nKXNr9K2Z3vkhoeFm69OyQ/QPIQlf3G3cscW3H8IHenPxhDefTzrHiiA+L3u3ErQ3L2BZ7mA1Rvgysb7w3G6xYi5oeunznkqLQU33kKnZ+PZDS+xYw4Ml6tJ64kQilZGPazB8s7VBnwKxu8xFFty1GvLHqI5Z/2xqjMCU51jb2fapwHAddYSdFj+R+VFL5CtiwnfOQzb4t9WgzntizH8t52zl/2Yt1fyJFmp5tUtj2Rm9mJPTni3mDaVYpR0ir0wMgZdsb9J6RQP8v5jG4WaVcJyvcwkDl6l64xAby46+3cj9VEwJZsuYKlevWxl0J4cTJvPomNTODTP1jNPH1tDMhA1Vttn8MzyLH/h23qp64hq5n6e7E3O9Qwgj85Vyxdpzq3avi6RrK+qW7yetBISzwF84Vp4MSokSe549q/izaHUrIlhk0jljM+AW7yLA80FCVurXdUUJOkLcsKpkZmegfa4Kvp+1VzcFQuTpeLrEE/vgruaunJhC4ZA2XKOEYunJUKGck/fxJzlgILKr6YNcyZRtv9J5BQv8vmDe4GdbMudSzY/H3CWH5x3NZl9yBQbXMCZltOfRU7PMJi/2d2P3pPD5Z+B4bXd4mcNUovA12xjVUprqXC7GBP5JniioJgUtYc8kyMbFn1/b8wh62fPISyUX6to5yFcphTD/PycJKNF9ZKrJtUZTi2bH++IQs5+O560juMAizKvS42/FP06UljJ7wf7j/6zs+7eeJHpXEuAQL39XhUbYM/HGCoGuW65yDAaMh7ySfiwhKMeQoTFFzsoISyfk/quG/aDehIVuY0TiCxeMXsKuQU1tB705VT1dC1y+loGiB/FJip7Fvc1Lc+GNzPe1TchsCkXw/4rPSSFcrUb9hVe7a6ktfkT6fLMbfaTefzvuEhe9txOXtQFaN8ra72doqtvzfKo40e3kwjUN/ZPEHK4jr4E+nl4bjp27jqzeXk9S2H9X0FMsXCpEWz8271Wn6ZGU7sUIh8vwfVPNfxO7QELbMaEzE4vEs2JVVgjFLnj/kYaut/XhTPGyNYYmdYw1GDLk/ovIQsWbZ9n3Ktm6sYUc+e9g8DyXfX98FuAebtcUDjXUlo0gdZWRmIVkZZFizRDWZq2GxpERc4lpKOpH7tnAkRiEtOYYzR88DIJjIypVdJflqGLEpEVy6lkJ65D62HIlBSUsm5sxRzlvsjijTbQQDqt1g1asvMOmr9fy8ZiGv+a/H2LoO5XpMYGyjRDZ8soxLmea+b+zcS2SbCYxr5wSqgmIS1Hy/YETMiZiqQhk77W2N7d51BINrXmfJwI4Mmfsd6zesJGDUVA671TIHXwFT3qQL49aVEYNrcn3JQDoOmct36zewMmAUUw+7UcsIKAoKgqpaW3RQVRXVioOaPwdQUVRBstsrkev5cMkp0nDG+/kZvNvfG1cnZ3TocXZ2gtsxRN+K5+jBcDpPGEujxA18suwS5mW5wc69kbSZMI522bfIC+rUjKqoSE7AKtONEQOqcWPVq7ww6SvW/7yGha/5s97YmjqGMvQoxhi56CvS8+UeVAhbyhszthKRCRnhpzgfp5AYFc4NUxvba1kAFUUxIWq+tTMbhXntkq8SFptCxKVrpKRHsm/LEWKUNJJjznA0xziNvowc046EtRuQnj0on9O1HZ0mbpvOrMi+fLpgGuPfmMOHc16mafadSdvjGug2YgDVbqzi1Rcm8dX6n1mz8DX81xtpXcdQSNf27NqeX5B2nM+H9+Club+SvR+4AEX7RS1SivTt48R2fpkeFcJY+sYMtpqVyKnzcSiJUYTfSORGkW0Lx4UcjL4jGdMugbUbhJ49cjWBmy3/TDvB+69M51DtaSxf0AXzU6USCdy0m4LvldNT6bkX6OhylPeHjGPxr8c4+dsKlv8Wk5fgGSrhVcWRqKAdnIqN4+Ivi1lxKAFTfCTXbt7BYEuOAmPlUdScsPQxJZL1Hy7hVBo4ez/PjHf74+3qlP0EioI2gd4Zs5tHcyv+KAfP6eg6YjA1ry9hYMchzP1uPRtWBjBq6mHcahlByY4v+fQvgEhewBERUFWUYthc0fHHAjvrmW7Tdkt2bjGjEh9+PXtTnkr05s2caziWcZ0d7fSVyLbps4js+ykLpo3njTkfMuflpuR/0lsBXT2IuGOB4fEhDG0VxfINTvTvWwlDuZ749ynNwX06nu1ZMfeEbtMXABDSkpOyf+CkE7x0NVefe5eJrRztxAKFyPUfssRsgDw/4136e7vi5KwrxpjZ2MkfVEXBJGq+H1mCZJ8XVZttL1Cxp614k0yapY9k948pKy9xszmGOb/Jxc6xhkpeVHGMImjHKWLjLvLL4hUcSjARH3mNm3fS0Ts748RtYqJvEX/0IOGdbfsUKKiq2fZzMTtpXiorgqCiKvblsxz/XJqlDZcp+jxUK8Vm3yWNJzbtx2YMuIdY92diWWQtqaGya9ls6VXDKDpDFen81teyNdjyNRKKRG2cIC2qlJaytdvLqMV75Hv/GuJRq4e8v32frJv+jHgaDOLl946sO3FTFBFRojbKhBZVpHTZ2tJ+1GLZ872/1PCoJT0+PGL1JRWpF9bI+M4+UrF0GfFqPlgWHogzb34Tkazrm+WdXs3Et+MgGf2vV+TlsR/LvlhFRJLk3IYZ0qWSQRx8BsnCbSFy6cAymdDaQ/SuvjLq24MSpdhqb3/s1AurZXznOlLWyVHcq7eRMSvOS6qSIKfWTZdnPA1i8PKTd9adkJtWNt6JiEjqBVk9vrPUKeskju7Vpc2YFXI+VUTuhsrWmX5SxWCQGn0WyKbztwu2Szor/53aSSoZHMRn4Eey9Xyo7F86Udp4GMSt2auyLOiqXNgyS7pVNYjRu48s+OWSZByaIa1rN5Vn/N+W2XOnyZgxAbI7e0eg6cpyecmnrJT36SMLg+6ISJZc3/yO9GrmKx0HjZZ/vfKyjP14n8QqIkrCKas6TbmwRWZ1qyoGo7f0WfCLXEo3z2/N+M7iU7G0lPFqLoMXHjBvqhSxOYZVlEQ59qW/tKxRVjy8m0vP12fLyJY1pdXgf8vyIzFFr6UFSec2yIwulcTg4CODFm6TkEsHZNmE1uKhdxXfUd/KwchI2TihhVQpXVZqtx8li/d8L/41PKRWjw/lSH7jTPxZRvaYK2ct9zkUKYciUWuHSg0nnQCi0+nFwdldKtXtIGNXXZQMJcrOuKlyYc146exTUUqX8ZLmgxfKgThFRFIK6Vru0y8iI5dL3yoeUqFSG5kbbDlBM0X5hW3fViTx2Jfi37KGlPXwluY9X5fZI1tKzVaD5d/Lj0hUpK22RZP480jpMfdsoY1DVv1T0uXw9MbirPeQZoOnyNSpU2Xq1Ldl0vD28vhL67I3LOXHJNE7ZknP+hWllLu3dHpjvQTOai4uORsVReT2wfnStbq7uHv5Sv8P98i2t5pJ3Q7DZfbq43JTKUoO21ibUyEfu31IZrSuLU2f8Ze3Z8+VaWPGSMDuG6JYtQmTXFn+kviULS8+fRZK0B0x29Tq8dK5TllxcnSX6m3GyIrzqSIpF2TzrG7iZTBKrX4fyJbgcDnz8zzpVd0gxlp9JeD/zsq1E+tl5vNeYjDWlL4BgXIlw5bNic34Y0nR67lH9v/Xnu2WwIayTsu7TRzFs+UAGfXaG/Lma0Ol78B/y5Zw825dm7asRMnaoTXESYeATnR6B3F2ryR1O4yVVRczCunqxIkHFHcKoEjs98Nk4FfXcl9ykXFkuvSesj97g1YeRdtgqvy+eb4M7fCUtO/tL69NGC3j5m2Rq9l745QoW7EgQw7NaC21mz4j/m/PlrnTxsiYgN25G82LHjM/RecPH+48JBtmdDGf5wYtlG0hl+TAsgnS2kMvrr6j5NuDkUW3PZIkYjPe/Cb7NuX3kYuScGqdTH/GUwwGL/F7Z52cuKnYlq+QYuwde1sOzu8q1d3dxcu3v3y4Z5u81ayudBg+W1YfvyliuiLLX/KRsuV9pM/CILljM46nyIXNs6Sbl0GMtfrJB1uCJfzMzzKvV3UxGGtJ34D/k7PXTsj6mc+Ll8EoNfsGSOCVu7blsxj/hmW8SRcb5yEbc//t6D3FE+v2Y//8FaWUINb9yegk/88GDQ2NB4hK1Oa5LLnzAv6+KjcTk0lJSyEx+iw/roxhdODndLW8Qv+3ksnBGeM4OWoJE4usP/hfROHC/JY0/7Er+06/x1N/8oUOjT8R0xlmNm/Fpp6HOTnPt8g7B1ZRo9g8dwl3XvDHV71JYnIKaSmJRJ/9kZUxown8vCsPlTvfF1os0NC4F4os/9DQ0Lg/1KhVjJ90llrPNaZWg6a0aNOBzl2706+/H82fesJKmcrfiUrC4W/YWn4ow7STqMY/nkJ1DXZQiVo1nklna/Fc41o0aNqCNh0607V7P/r7NeepJ4ou7Xn00GKBhsa9ol2p1tD4k1BjN/F652GsyWhGz+6t8KnkgpIcSVhsBXrPnMOLtR+e07CaeJY9IWVo09b7kXs97Z9PBvsnNeKZTc8QePErumgL9OiS/huvN3iOrc9t48JXz5Dz0ET7qMRuep3Ow9aQ0awn3Vv5UMlFITkyjNgKvZk550UeIne+L7RYoKFx72hJtYbGn0lGFEe3bmZvcDRphrLUeLIrvZ9rRHntAtAjgkLUoVWs/fUSCVkOlK3VmYGvdDQ/vUXj0SLjCjtX/Jf915MxGT3w7jiAEV1q5b1euxhkRB1l6+a9BEenYShbgye79ua5RuXv7ekfGhoa/zi0pFpDQ0NDQ0NDQ0PjPtFqqjU0NDQ0NDQ0NDTukweYVKcTFXyR2JLu/8iHkniZ4GsFnxr796NyJyyYK0n3MTEL1DthBF9JKvFWGY0/gwev3z+d9CiCL8Y+EPtRk69z4uARzt/I9wqvEpNK+LlQ4h+EQFZ5BHVUTNKjgrl4P0Hzr+Be7S01nNNnI/O9QfVR5J9re387j6B93Je/Fme+xTnmn0AJ5pkafpqzkcU58uHgASTVKkmnV/NmlzrU6Tifg5mW3xcDJZzfFg7jyZqNGbkmvFhv0forUCJ/Y6F/C2o+MZBvQm281KW4KJH8ttCfFjWfYOA3oSV/S5DGA+WB6/fPRk3i9Oo36VKnDh3nHzS/QOeeUbi2/m3GfrCFI5v+jZ9PI4auumZ5kB1U4oKWMr5DHeo9+yFB9yeQVR45HRUTNek0q9/sQp06HZl/T0HzL+C+7E3l+jfDaNV6NCtv3GMS8jfzT7W9h4NHyz7u31+LM9/iHFNCMsPYs+I9Rj/fjjZt29PrX++zdFsIdyyP+0spwTzV63wzrBWtR6/E3qEPDRbPrb5HFIn4rJM4lR0sP2U/QL7EpP8mr3k7SfN5IbkPtX8YyDj4pvg4PS5vHcmw/OreyDgob/o4yeNvHZFi9ajEyYnjVx6qNfn7UCTuxHG58gAX44Hr989GiZDPOjlJ2cE/yb26moiIcuN76Vv1efkmQUSUm7Jr7lAZu+yi5WHFwCRXPmwjTpVHyOb7EcgGj5yOiokS8Zl0ciorg/MFTSXuhBx/kAZ+v5TA3grJnnJdTp2JsNvuYeafansPBY+YfVjz1xJhZb5/jc+ky+5xNcTg2F4WXrP+8qW/nBLMM+X6KTkTUWDVHnge8CB5AFeqMb+3vbRb4dfPlgSDG6XdHpA4DxCDhwfu9zUxCwweeJSgw9SjnzFzxWXtqjZA6lE+m7mCyw9wMR64fv9s9O6Udrt/gTODdnEw1Q13Z0Bfni7vrmLxiMctDysGBkrfr+/b4ZHTUTHRu5emoCpTOfrZTFY8SAO/X4ptb1Zkd6uBb5Nqj/Rj2f6ptvdQ8IjZR2F/LSGF5vtX+YwB97Lu6HXulCv/kORYJZinWw1fmlTLd+SfkAc8SIpeYVMCl4/uYffe44Ql2S/I0OusWFuJ+tCR04WY4rkYFERIoTpPEwmXj7Jn916OhyUVLBNRk7h6dB8HzkSQnBBNTP7S7LRogg/tZf/JcO4U6xaCiVtXjrFv/2ki71p+ZyYtOphDe/dzMvxOsWoNTbeucGzffk5b69DqOqnEBy1i+NCFHLt+hh3b93A+t2hVITHsBAf2BxEaZ3krSiXp6lH2HThDRHIC0QUWIg815gw7twcSuP0AoUkqKNGc/DWQwMBfCbqWlntcakQwlxJUyIwl5PBhLsRZWLJV2e2RRnTwIfbuP0l4AYWkEhF8CfNwIRw+fIGc4dT4IBYNH8rCY9c5s2M7e87Hm9c9LYLg0HiU9GjOHgvlVrYIpoTLHN2zm73Hwygslm392m5rjUziQo+wd+9RriQWbqAkhnHiwH6CQuMK3UK3u76F0Of6SX6KL3MGEcd+ZUfQVZKVm1zYFcivh6/k3Q605SuZcYQe2cveo1fIP01dPoEyb5znUD695VB8+XKwraOibcgGRcgPgJJI2IkD7A8KpZBLpUYQfCkBlUxiQw5z+EJcwR+5hWKPSsyZnWwPDGT7gVDM7nWSXwMDCfw1iFz30uvyfoyo8QQtGs7Qhce4fmYH2/ecz61RL+7aqQkh7N0eSGBgIIG/HuV6GkAa14/+SmDgdvaGJFg2KYD1mGbd3gpQpOzpRJ27YHHbtmi9pUWeM9erKkmEnTjM6Yic2JVJ7IXDHDwbXaAGU71zjZCwO6hKIleC9nP0isU5ATt6LZIHa3vFkrMov7Ma39KIPGfev6QkhXHi8GnyliqWC4cPcjba4txpI04XJwZZt43itS3a7wrbR3FtPT/3JZs1itJFfn+1RaF4kPNFvvmWyGdsn0OKTzGkt2EnatJVju47wJmIZBKiY7CaWai3uLh/uzkGBW7n4KVkVODOlUP8GhjI9oOXMG9PKDzPIvtPj+LchRuYl62IPOB+5X6AWE2qlbDVDG/Zj8/O3uTG4QD8fNoy50heolUc7rUPif2F8a19ad2lLY2869P7sxOkAChhrB7ekn6fneXmjcME+PnQds4R0gAyz7HIfzxrI02kX1jGkJYv8t11E6ASs30eoycvYd+54/w4uS0+7d9hV4KNQJgWzDcv+zFq6RmirmxhxvglXM6vIzWG7fNGM3nJPs4d/5HJbX1o/84uiu4yjeBvXsZv1FLORF1hy4zxLMnXYZHrpCYRneBC2VIqakYqSUnJpJmApCA+9R/ItPXBRFzazOR2DfCbuyfbITM5t8if8WsjMaVfYNmQlrz43XWrV7n15arzWOz3jOk9mqUXTGAoR7VKl1g0pBdvro8mK/4YKyd1oo5PNwLWLWWMX3cGv9ydpo36sOSKWf4iZbeBGrOdeaMns2TfOY7/OJm2Pu15Z1c8scdWMqlTHXy6BbBu6Rj8ug/m5e5NadRnCVcUlaToBFzKlkJVM0hNSiI55QZByybSqY4PXWd/zQcvtqV1qxaMWBVH2OrhtOz3GWdv3uBwgB8+beeQK5ZN/Sq221pBjd/LgmH+/GdXOHHnPqeXT3PGb4rJDu5JBH3qz8Bp6wmOuMTmye1o4DeXPfEqajHWt3iUVGYhMzWZpNQskCxSk5NIup2OotryFZX4vQsY5v8fdoXHce7zXvg0H8+mmPxGn8m1H95gwJCxjOntS6O+33JV4R7ks6ejomwowcaPW9vyJwV9iv/AaawPjuDS5sm0a+DH3D3xqGo8x1ZOolMdH7oFrGPpGD+6D36Z7k0b0WfJFXNiZDX2qJSr/hix34+h9+ilmN2rGpUuLWJIrzdZH11Yv2pSNAkuZSmlqmSkJpGUnIaphGundylF6s53GdBjMIuvV6KiM4Az5Q2HmD9jK6kepSybmClxTCtIYdlTuHl6HW8/W4fa7eewPzu/K0pvplsnWD35GXzqdmD2+g3MGjII/1f60ap+SyZvP8GqcT3oO+JV+resT7tZR0hTItn/+Sha1GjA4M/XMOfZJ3m66zO0qu9D57mHSM6Wq0i95hfekgdpe8WSswi/i7cW355iyNzFTH7Gh7odZrN+wyyGDPLnlX6tqN9yMttPrGJcj76MeLU/Leu3Y1a2oRQVp4sVg4qwjfjYYrQt0u9MJBayj5LZOtyvbNYoQhfFdQSKigeZheZbXJ+xdQ550BRlJwCZ5xbhP34tkaZ0LiwbQssXv+O61cTCjfJOoXw1sie9F5zCo6obesC1cimOfbKQE0YPMs4WnqfV/jMTOb3ubZ6tU5v2c/aTjpU8IM30YOR+kFjWg4iY5OJ7T4trszkSnCUiWcdkekNnaTrztGRZHpqP28t7inNuTfU99JF1TKY3dBSvXovkWIJJJCVYvu3vLQ5OzWXuuSwxXXxPnnZtJnPMHcqx6Q3FuelMOZ0lknF4ijRsOlWC7oqIKHJjzXz5PCRLlNh1MqTTNAnKLodTwj+RDo4O4lukHKly8K3GUmvEJknM/iRl60jxcsipqVMkdt0Q6TQtKLseWpHwTzqIo4OvzDxdRI8H35LGtUbIprwOZaSXQ3ZNtZ11UqLliy7O4jVqm6SLiEiibHvVR+pP2pdbi5R6cLLUd/SUQT/cECXjsExp2FSmmhdClBtrZP7nIUXMVcR0Yb60cK4nUw5lL1DGIZlSz0Vavf+7mETEdPUjaePoLs0nbpKwDBFJ+kmGVHKSth9dFZM92a2hxMq6IZ1kWp5C5JMOjuLgO1NOZ5nk6kdtxNG9uUzcFCbm4YZIJae28tFVk4goEv1FF3H2GiXbzIthbt/RUVwaTZQdcYkSsmu7nI0LkfeedpVmc4LFLNZ0aejcNFs/dvRrumijrRWUGFk7sI74fRkuiohI1nn5qEM5qTp8o6SISOK2V8Wn/iTZl6csmVzfUTwH/SA3FHvrWxS3ZXlP57wa15LKnE3q973F2WOgrE81/23LVzJi1srAOn7yZbi5Hi/r/EfSoVxVGb4xRURE4r72E+fSreSdfXGiiMid/xsuns4d5OPryj3IZ0dHNm0ofz95KLbkT9wmr/rUl0l5SpKDk+uLo+cg+cGsJPmojaO4N58om8xKkp+GVBKnth/JVVPRsUfEJBfmtxDnelMkz72mSD2XVvL+79navb1cejrn1Wgq0V9IF2cvGZVj4CVeOxFJ3SeTfJyk/luHs2OGIjdWviyDvo4w22gh7MU0C3srgkKyiyIxX3YRJ/cB8mOqPd/Pbu/kKi2n75MYk4hknJJ3mzpImVZTZccfWSKSJaffbSpOtcbLnnQRyTgsU+o5iGfnWbL9jyyR1AvybV8vMTg2k9lns+zr1SoP3vbsyWnL77KsxbeELIn+oos4ubaU6ftixLxU70pThzLSauoOMS/VaXm3qZPUGr9H0u3EadsxyLZt2G5rx+8s7aPEtn5/slnDpi6ksL9ao+h4YDHf4vhMMc4hxSNLjr/TSBycesry25bf5WDLTjLk8JSG0nRqkDkGKDdkzfzPJaQo1UiWBM97Sly8RsimJPMnSvRyee2tQLlj/stinjb6V2Lkyy5O4j7gRzEviWUe8CDlfjBYuVJtwGfsSvavGY935F6WfbCcoESVjLvp1n+NW+Ve+zDg+VQXnixnALeGvLLwTdrqgtl/4CY6n7Gs3L+G8d6R7F32AcuDElEz7pKugtHLhxrhH9Or/XDe2xCCw8B3eL2BkbS9G9kedZmtCwMICAjggzV38Zs9l2HNXCwHNpOyncUrwmjUsRMe2R851/TGM/d1WWns3bidqMtbWRgQQEDAB6y568fsucOw3mUK2xevIKxRRzrldYh3boclXKdbW/j2h0jqNPHNrUVyfXogfXxusnVtIElGL3xqhPNxr/YMf28DIQ4Deef1Btzr23MNpUrhZihNUz8/ajoCbj7UraYnOekWUlLZAdL2snF7FJe3LiQgIICAD9Zw1282c4c1wwUDpUq5YSjdFD+/mpiHq0s1fTJJt4p4P5HeBRdHPe7Nu9CuogcNuvjRuOLjjF25nzXjvYncu4wPlgeRqGZwN121r1+DT9FtrZEYyLrtTvg2r2K+5WN8gil7E4ha0Qc3brHl2x+IrNME3zxlMbCPDze3riUwyd76FpOSylwEtnwlMXAd2518aV7FHC6MT0xhb0IUK/q45XXg+jhPt6iIHnCuXp1KJJGYqJZcPns6smlD1rEl/60t3/JDZB2a5CmJpwf2wefmVtaalUQpNwOlm/rhZ1YSPnWroU9O4pYUHXseCCVdOwDXNox/vS1RKz9mQ6wKSjjrf3Ggb/9q1m9LljimFRc9pUuXyrvhbEdv+lJuuOocqflkc6oYAEcf6tQwQrUnaeNlBIx416iKLjmRRMn2fWcDFVv3pouXEVzr4z9nNE0lmH37YrlpT6/W+BNsz56cKTb8zmp8K2eklJsrOseaPNm8CualqoN5qdpgXipvalTVkZyYaDdO245Btm3DdlvbflfIPkps6/cnmzVsxcDiUnQ8sJivVSyPsX8OeXDYshMjXj41CP+4F+2Hv8eGEAcGvvM6RYc5Iw1GjuWZtI0sWR+FisLldUepPKAz5ntllvO00b++NKVL2Vq1Byn3g8FqnNUb73Jm0WjGLoumyStj6eypL9IQi+KB9FGxFjU9dCimLNAbuXtmEaPHLiO6ySuM7eyJPrtDffWRrNr5NQNL72PBgCep13oiGyOyuBOfwF2n+vR5azrTp+f8m8akXvWsJppKZCi/J4HBaHVZQL1DfMJdnOr34a3c/qYzfdoketWz0qMSSai5Q+sLXcJ1UmIj+CNNJTMzX72c0ZsaXnoykxK5TXVGrtrJ1wNLs2/BAJ6s15qJGyMK1+8VF51FDZnOgEEHopolLInsAOqdeBLuOlG/z1v59DGdaZN6Uc9YsDYXQGcwoEPIHs46hfxNj/HuGRaNHsuy6Ca8MrYzntmGYle/NtpaQ0mI42Z6ErcSrRyjxBLxRxpqZma+OlAj3jW80GcmkXhbtbu+xaNkMltHteErdUiOu0l60i1zMlMcDHoMKJiyKLF89nRkz4YKo5BQpPwKsRF/kKZmUtClauClzyQp8TZqvr0eZnQYzEpCiow99+xxFpRs7cwYqDXsDfo7/8LHXweTHrKaPZUH0aOc5XHZlDSmlQBdPvu2qzdLX0CHXkeBeKLT68HGC4CNtZ+grhtkZaRxw65eC/Pgbc86eXLe5XaRfpd9jioU3wrHSXR6dAVXivxLZTNOW657/hhkzzZstbXpd2by20eJbf2+ZLOGrRhoPV+whq14UHC+1ilwTHHOIQ+Qou1ET/WRq9j59UBK71vAgCfr0XriRmyFOb3nAMb2K82eJUs5n3qMH642ZIivY+73lrovun9dYXu34EHK/SCwEj1S2PZGb2Yk9OeLeYNpVinHnIoyRms8iD6AtHhu3q1O0ycrk7btDXrPSKD/F/MY3KxSrpELoESe549q/izaHUrIlhk0jljM+AW/4VTVE9fQ9SzdnZjXpxJG4C/nrNYZ68pVoJwxnfMnz5BR4BtBVQG9O1U9XQldv5SCXQbyyzkrPerKUaGckfTzJzlTsENEVUu8ToaqdantrhBy4qS5lhxAzSQjU89jTXzxlEjO/1EN/0W7CQ3ZwozGESwev4BdFmPnYjBisJK0ihTH6komO4DevSqerqGsX7qbvOVTCAv8BWvLd0+kbOON3jNI6P8F8wY3I79YdvVro601DJWr4+USS+CPv3Ir50M1gcAla7hEVerWdkcJOcHJPGWRmZGJ/rEm+Hpacb17oYQyW0ePe5G+EkL56l64xAby46+5s0RNCGTJmkv2f7CVUD57Oiq5DRmoXKT8V6hctzbuSggn8pSEmplBpv4xmvh6WguQBbAee3aRARiMhtzkOw+hWO5FydculzJ+THq1MRe/fZ+5X57iiaGdcLU8JoeSxrR7pOR6Kx4i+RKLrDTS1UrUb1iNaveg1wdve3lYl/Mxyhbpd9bPUSWn5HE6l/uyDVt+ZyVulNTW70s2a9iKgcXXha14UGIMf8U5ROHq2hXsSrVlJwqR5/+gmv8idoeGsGVGYyIWj2dBkYkFQCmeHeuPT8hyPp67juQOg6iVe8ffknvpP4cHLff9U1grajJXw2JJibjEtZR0Ivdt4UiMQlpyDGeOnrc8OhdFUUBUc3Jyj32AkJaclG2A6QQvXc3V595lYisjyVfDiE2J4NK1FNIj97HlSAxKWjIxZ45y7tJ6PlxyijSc8X5+Bu/298bVyZlSXUcwuOZ1lgzsyJC537F+w0oCRk3lsFstq7889RV78nKPCoQtfYMZWyPIJIPwU+eJUxKJCr9BcpobXUcMpub1JQzsOIS5361nw8oARk09jFstKz3qK9Lz5R5UCFvKGzO2EpEJGeGnOB+nkBgVzo3EG7bXSe+MsxPcjonmVvxRDoZ3ZsLYRiRu+IRll8x7gNUbO9kb2YYJ49rhpESy/sMlnEoDZ+/nmfFuf7xdnXAu4oeeoZIXVRyjCNpxiti4i/yyeAWHEkzER17j5p10VEXBJGq+X/eCIKiqinovOnbryojBNbm+ZCAdh8zlu/UbWBkwiqmH3ahlVFEUE6LmS/JFsm1KBfQ4mxeD6FvxHD14zvzDQsCUlRfy1OSrhMWmEHHpGinpkezbcoQYJY3kmDMcj+1sU7+JN4pue/R8Su4YuZTpxogB1bix6lVemPQV639ew8LX/FlvbE0dQxl6TBhLo8QNfLLsknnHtnqDnXsjaTNhHO2csL2+BUfKh4LZ1czH2JqvVZmzyczMQjIzycgeyM2Gr5TvNoIB1W6w6tUXmPTVen5es5DX/NdjbF0HA9n6KZQ8mj8vqXx2fVBny4YsezNTxob85XpMYGyjRDZ8sgyzS6nc2LmXyDYTGGdWEopJUPPNz2yW5linRFqPPToMVPKqgmNUEDtOxRJ38RcWrzhEgimeyGs3uZMOKApKtr4B9M7OOHGbmOhbxB89yJmS2mMuRhqMnkSPrP/yaUgrhjYrYmEAsBfTCtpbUVjKfi4NVEVFJLudTd8HFBU158dtNgJIvivTIgKqmi8hU4kPv27eyI5K9ObNnGs4lnGdnSljT69W+DNsz0zRctryOyOF4xuAku1veUsl5tiRu1Tm/1ZVxe652HYMsm0bttva9jsDBe2jpHHCnt3ak80adnVh4a/WKDoeWPhDcXyGYpxDEnYyZ+BLzN+T74dAIVQy0zMRucvdtIKyp53/mtlHXGjmYstOzhG5/kOWmBMLnp/xLv29XXEqKrHIxug7kjHtEli7QejZo3yB7wrOU7HRv4qiSvZFSArnAfuPcPEBy33fWBZZiygStXGCtKhSWsrWbi+jFu+R7/1riEetHvLhkeyqcwvuhm6VmX5VxGCoIX0WbJLzt0veh0iq/L55vgzt8JS07+0vr00YLePmbZGr2QX6StRGmdCiipQuW1vaj1ose773lxoetaTHh0ck7tAMaV27qTzj/7bMnjtNxowJkN3ZVfypF1bL+M51pKyTo7hXbyNjVpzPLni3jpJ4TL70byk1ynqId/Oe8vrskdKyZisZ/O/lciRGEZFUubB6vHSuU1acHN2lepsxsuK8jR6VRDn2pb+0rFFWPLybS8/XZ8vIljWl1eB/y/IjUXbWySRXlr8kPmXLi0+fhRJ0R0Syrsvmd3pJM9+OMmj0v+SVl8fKx/tizZuQMg7JjNa1pekz/vL27LkybcwYCdh9o4gNSiIit+Xg/K5S3d1dvHz7y4d7tslbzepKh+GzZfWe/bJhRhepZHAQn0ELZVvIJTmwbIK09tCLq+8o+fZgpB3ZiyD1gqwe31nqlHUSR/fq0mbMCjmfKpJ0boPM6FJJDA4+MmjhNgm5dECWTWgtHnpX8R31rRyMUsR0Zbm85FNWyvv0kYWHw+XUuunyjKdBDF5+8s66E3JTERElSjZOaCFVSpeV2u1HyeI934t/DQ+p1eNDOZJkR79RkTbbWiX1gqwZ31l8KpaWMl7NZfDCAxKXu+BZcn3zO9Krma90HDRa/vXKyzL2430Sq4hI0jk76xtVcBwREbkroVtnil8Vgxhq9JEFm87bnW9hsiRs91cyoW150esrSae3lsh/j/whJju+knphjYzv7CMVS5cRr+aDZeEB86bEpLP/lamdzHob+NFWOR+6X5ZObCMeBjdp9uoyCYou+Zra1FGMUqQN2aIo+UVEsq5vlnd6NRPfjoNk9L9ekZfHfiz7zEqScxtmSJdKBnHwGSQLt4XIpQPLZEJrD9G7+sqobw/KtQNFxx65fVDmd60u7u5e4tv/Q9mz7S1pVreDDJ+9Wo7/cUG2zvSTKgaD1OizQDadvy1iuiLLX/KRsuV9pM/CILlTYt3mJ132TWomPb+JsuH/ORQV06zYW1FYyH7jwhaZ1a2qGIze0mfBL3IpvWjfl5QLsnlWN/EyGKVWvw9kS3C4nPl5nvSqbhBjrb4S8H9n5dqJ9TLzeS8xGGtK34BAuZJ6Wt5t4iieLQfIqNfekDdfGyp9B/5btoTnbUMrWq9F88BtL8u+nFb9TkmwGt9SLmyWWd28xGCsJf0+2CLB4Wfk53m9pLrBKLX6Bsj/nb0mJ9bPlOe9DGKs2VcCAi/LtaLi9M5DxYhBRdhGMeNXUX6XYmkfafdi6/cnmzWs6kJE5G5oYX+1QkYRuUih+aYX02dsnUNExHTlS+lWuYr0+DrMQpJsMq7KnpUB0t/HQXQ6R/Fs0kn8unWTbt38pEvbxlLV1UP6rIizk/fFyaEZraV202fE/+3ZMnfaGBkTsLtYGyUTfx4pPeaeLfDwgsJrkVFE/ylyYcss6VbVIEbvPrLgl0siIgXzgKDkP0Xu+0En+S8FaGhoaGg8+qgRfO2/gIqfLaFfWcsv/wGYzjCzeSs29TzMyXm+Vu88PhQ8KnJqaGg8EAqXf2hoaGhoPJIoKbdITFdJObyYnZ5D6f5PTKgLUPSt+IeLR0VODQ2N+0FLqjU0NDT+CZjOsaCjJ5UqVeHxCbcY9kabYr0G+JHEdItbtxWSExLv4w1zfwGPipwaGhoPBK38Q0NDQ+MfgYnwX79mzfkKPDtsAM0r/kOvmWRcYeeK/7L/ejImowfeHQcwokst8h7Y9ZDwqMipoaHxwNCSag0NDQ0NDQ0NDY375B96KUNDQ0NDQ0NDQ0Pjr0NLqjU0NDQ0NDQ0NDTuEy2p1tDQ0NDQ0NDQ0LhPtKRaQ0NDQ0NDQ0ND4z7RkmoNDQ0NDQ0NDQ2N+0RLqjU0NDQ0NDQ0NDTuEy2p1tDQ0NDQ0NDQ0LhPtKRaQ0NDQ0NDQ0ND4z7RkmoNDQ0NDQ0NDQ2N+0RLqjU0NDQ0NDQ0NDTuEy2p1tDQ0NDQ0NDQ0LhPtKRaQ0NDQ0NDQ0ND4z7RkmoNDQ0NDQ0NDQ2N+0RLqjU0NDQ0NDQ0NDTuE52IiOWHGhoaGhoaGhoaGiVh3bp1lh89dLz00kuWHz0wtCvVGhoaGhoaGhoaGveJllRraGhoaGhoaGho3Cda+YeGhoaGhobGQ0H+8gFrt+k/X/wFixYtwqSYLL5RLf42IzpQdQLZqY5On30tUUCn6NDpdKiqij7ncyiyr6LRoQrodDr0Oh1q9liqomDQ60GnAwF0+dtYH0PVmWXWifmqp17MDVUBRadDr9ejiqDT6UBVER0YikzjdLmDFkz1BPSCDrNcgvm/VVHRYTD3bYGIoNfpMToYee2115g4boLlIWChvw7PPlngu7+TfTtO5f63Nbt6UGhJtYaGhoaGhsZDgb2kuk79ukyZMgUPDw/AnMiasZ6kSnZijS47r86X8jjoHRARFEW5r6RaRNDpDAU+y0nURST3/wtifYz8SbVOzEm1qIIKiMGACOj15h8COp0eHaAvoq+ik2rQ6SRbbh2KoqDTmX9g6PXGQseSPR+A27dv8/HCj7kUEmp5CGhJtVb+oaGhoaGhofFooENHmTJlMBqNODg42P9ndMDB4IAePXp0GPVGjHojBp0hN/Et1KbE/xzR63SgCjfj44kMjyDiejgxUdGkpaUBYDAYiiez0QEHoyMORkeMBiOgJy3tLjHRMYSHXSMqMpLEhFvoBBwMBgz3IL/RYCD9bjqxMbGEXwsnKjKK+Lh4FJOS+yPAmqyOjo6UKVMGRVUs1aKRjXalWkNDQ0NDQ+OhwN6V6tqP1yEgICD3ynLOlWqRgoleTllHWtpdLly4yO+XfyfmRgwpd1LQG/S4OLtQqVIl6tStQ4MGDShbtmxukq2q5tKSnL6tlUPodDpMJhMGg4HUO6ns3rWb48ePc+PGDdLS0lBVFQcHB8qULUudunXo3LkzDRs2zNc+L/UyX3U2XylWBNDrMWVkcubMGfbs2k1keAS3U+6QnpGB0cFIqVKleMzrMdq1b0erVq1wdnbMltt8NTlvTUCny7tKLiJcu3aN3bt2cSE4hMSkJDIzM9DpdLi4uFC5cmUaNm7Ms37PUq5cudy+8voTTCYT77zzDldDr+TKn5//9SvVWlKtoaGhoaGh8VBwr0m1qiro9TqysrJwdHQkPj6eHb/uYM+evaTeMSe55CuD0Ov1KKKg0+twc3OjRYsWdO/eHS8vL8xl0AXLIiwRMZdPnD59mpUrVpIYf4vy5cvz+OOP8/jjj2M0Gom/eZPzF0P4/fffMZlMtGrdmqFDh+Lh4VEgqc75ASAioNPzR0ws3y9bTsj587i6uFL/8cepV8+HChXKc+fOHS5cuMDFi6Hcvp1MtWrVGDlmJHXq1MFoNOYm6GYZ85Lhu3fvsmXzZrZs3YoePd7VatC4cWM8PT0REa5evUrIxQv8ERVJaXd3Xuz/Ip07d0an02E05pWEKIrC9OnTtaS6CLSkWkNDQ0NDQ+Oh4F6TahFz6YJOp+Po0aOsW/sDsXGxoIKjgxOenp40atSIihUrotPpuJV4i9DLoVwLu0b63buIDsp5lKXfiy/SqXMHdDodBoMht09LRIQDBw6w9Lul6NHzr1fHMnz4cGrXrl2gljop5Q5BQUG8/34Ax44dp2bNmkydNpXSpUuh1+f8IMjbKBke8QefLvqc2OgYunTpwrS3p9KkcWNcXV3R6cyyZGZmcin0Ep8t+owff1yPi5sz48aNo0nTJhaymuW4e/cu337zLUeDgqhZuxYzps3gua5+lCtXLldWnU5HRGQk//15Pf9ZuJDEW4n07duHfi++iF6vz+1XS6pto9VUa2hoaGhoaDwiqAX+iZj/6USPKLB18y989cVibkTH4ObsxpDBQ/l1+3bOnj7Djz/8wNdfLWbxV4tZu3otxw4f5cC+/bwx8Q0qlqtI0q0kVixbzoplK8nKVBAVQIeYR0I1f4CIEBIcwoplK/EoXZbVq9awYMF7+PjUQ6838MEHH/LCC/04dy4YD/cyPNfVj62bf2H4y8OIuBbO558sIv1uevaeSV12iQYkJibx1RdfEhd9g6lvT+WHNeto1bIlbm5uIMLqVWuICI/E0cGJRo0asWTxEhZ/9RWqSeWrLxZzPew6opivoIN5k6aiqKxb+wPHgo7SsUNHdm7fwUsDB1GufHnQQWZWFibFXDrj9ZgXk8ZPZOumLdR/vD6bN21h546diJhXW/L907COllRraGhoaGhoPJLodDn/9OzauZuf/ruBjPRM6tSuy/r1/+WrL7+kdavWuLi4YDQY0ev16HU6jAYDDkYHGjdszIL5C9i6eQvt27UHFfbu2ccPa39AVc0PmxMdiD4vY0pNSWXV96sQk8onH39Ct+e6odcb0On0REVFs3jx1/z66w5++OHH7O2ROtxLlWbhRwvp1bMXFy9czE1WFcX8FA8R2Ljx/7h+7Tqv+PszY+o0nJwcc8tP0jMyWDB/ASHnQzBlmRAVDAYjQwYPJWDB+2TczWDt6rWYTCZE8n4AnDl9lt92/0aTJk357pvvqFKpCqDjj6g/+Og//+G1119jwoTxLPn2GxISEkB0NG7YmOVLl1OuXHk2/PQz0dEx5jUofMFewwItqdbQ0NDQ0NB45NDpdLm1zefPn2fd2rWkp6fz5JNPsuHnn2nfrj1GoxHyPRLOsn1O6UWTJk1Yu3Ytffr0QVVVdu7cyW+//ZZ71RcwJ9kiHDp0iIjwCF4ZOZJevXrllm4AVKpUib59+9KkSROef/753LpsEcHV1ZWPP/6YChUqsGXLFtLT03O/i46OZt++fRgMBmKiozl46CBpqWkoJoU1a9bQ9ZmuxMTEMGHCBPz9/bl48WKubMOGDaN79+6EhIRw7tw5DAbz4/1MJhM/b9iAwWDg008/xdPTE4Bjx47SpUsXZs2axarvv+f7VasY//rr+D3rx+nTp9Hr9TzxxBPMfPddUlNT2b59u9X10yiMllRraGhoaGhoPJKYTCbu3LnDypUryMjMpFq1aqxYsQKfuj4YHYzo9Xl10TkJeP4E0WAwv+xEp9NRrlw5vvrqK9q0aYOiKPz0009ERUVBdslHzkbIQ4cO417GnXH/+ldue4DIyEj+/e9/YzKZaNiwIT/99BNLly5FyS6vAKhYsSLDhw8nJSWFU6dO5Sbkx48d5+7du3iU9WDrL7/wQt++DBg4gP8s/A9vvPEGoaEX6dSpE+XKlePEiROkpaXlyu3k5MSkSZNAp+PwoSO58w2PiOB6eDjPPPMMzZs1R0RIS0tj6tSpRERE8Pjjj7Pgvfd4b8F7NGnalAsXQhg9ejR37txBb9AzYMAAatasyfHjZtks106jMFpSraGhoaGhofFI4ujoyP59+4mMiMTR0ZEPPviAunXrFrh6nFtjnJ1U5ySH+Tf16fV6DAYDHh4efPLJJ1SsWJGkxCQCAwNRVfPVZtCRdjeNa9fCaNq0KbVq1c5NbFVVJTQ0lEWLFrFs2TLWrl3LkiVLWLZsGVlZWbnj6HQ6unXrhsFg4PKlS7myhFwIwdnZmV+2/sLHH39MXR8fjh49ypw5c7idnEyTJk34z3/+w44dO/j1119p1qxZgQS3UaNG1Khend9/v4yiKKiqcPnSJbIyM3mhb9/cuR44cIDjx0/kXr1+4403GD9+PCtWrMDZxYXQ0FA2bdqETqejdGl3OnbsSOKtW8TFxaGq2VfttedbFImWVGtoaGhoaGg8kty9e5ff9vwGQOfOnenRo4f5ldvZCaeqKKSlpWEymXKfdEF2gq2qKikpKWRkZOR+DlD/8fq8PPRlAIKOHCEtLc28WU9VuXP7DpmZmdSv3yD3teM5JSSWiTr5nk6iy37FuF6vx9PTE3f3MsTGxUH21fLYG7HUqFGDej71GDduHL9s/YXFixfToUMHXFxdOXIkiD59+vDZZ5+RkZFR4C2QOp0OR0dH6tatS0pKavZVbIiPj8fR0RGfevUge4Ph/v37AShTpkyuzKqoPF7vcer51EOyy1vU7Ef8NXjiCXQ6HbGxsdm161phtS20pFpDQ0NDQ0PjkeTatWvE3ohFgHH/GofRaESnN5d6bNu2jSFDh9Dt+W680K8fK1asIDUtFYCrV68ydepUevfuTbdu3cwvNLl6FQC9Qc8rr4zA1dWF1JRUzp0NRlQVg8GQXQYBHmXKQHZyrssuLcl/dTw/+RN2AGdnZxwdHcjMyMhNyDMyMnBxcTEn/qpQsWJFBvTvz4afNvDzhp954YUXSEpK4oMPPqBr165MnDiRY8eOkZ6eDtmJuaurG4qqkJGRgU6nJz09HUcnJxwdzRseEeHtt99m9OjRfP755zzd4uncK/cA5cqbX/iSkJCADhBRcXV1RbJf+qLX682lLH92Yq3Esv/jSTzX6Clqe7fHb+S3HIl/NMpOrFuAhoaGhoaGhsZDR85jOMz/rl69RmaWiUoVKtHy6acx6g2gCht++onhLw9jy5YtxMbFcez4Mf712jg++s9/iIz6gwEDB/DFF1/w+++/ExkZySeffMKwYcOIj49Hj446tetQp1Yd9MDvly5jwJyUurq6ogNuJd5Cssshcq56u7q6UqlSpdwk1dnZmQoVKuRe3c05LjMzk8zMTJyzk2hVVXFydiI5KdlcagKIqoJAKTc3OnbowMoVK9i0aRMDBw7k5s2brFixgu7duzN8+HC2bf+F5DtJ3E65jc6gx8nZFQUdbqVKk373Lnfv3s3dMOng4MBr48bxVLPmGPR6jHoDRr0BvU5HbMwNRIQKFSrkziExMRHQ4ezkBNnJ+59b/pFJ8KeTmPR9GCZHHaaUOM5v+pgxk/+PqEcgr9aSag0NDQ0NDY1HkvDwcADq13/c/Dxn4Pbt2wQEBJCamsrYsWM5cuQIP//8M88//zzNmjXj22+/JTT0Eg0aNGDPnj0cOnSIIUOG0Lt3b5ycnHITymbNnkQEIiIichPjMmXK4OrqyqlTp1DFXCKRU9bRvHlzli5dmntFt0WLFnz//fc4OjrmXtHW6/VcDbtKUlISXl5eufXYjz32GBEREdyMv1mgz6SkJD766CNCQkKoU6cOfn5+GAwGypcvj6enJ9u2bWPgwEH06NGD06dP4VHGAxdXVwCqVKmCAKdOnc4d+9ChQ7Rv356nn36ay5cvA5CVlcWRI0e4cuUKOp2ODh06oMu+6n7hwgV0OqhSxfzmxT+9/CP1KPszR/HLyc3sOraFr1+qhgHh1m872H/b8uCHDy2p1tDQ0NDQ0HjkEBFSU1PR6XS5CaqIEBERwfXr19HpdAwbNowyZcrwdIunWbNmDX7P+nH48GFUVaFHjx54e3tToUIFPv/8c958801KlSqVmzhWqWJ+BF1aWmpujbaLqws+9Xy4ePFi7uPrcr5zcnKiTHZZiMFgwGAwUKZMGXQWrzrfsmUrogr169fP/axJkyYoion1/12fe0Wb7DcUzp8/n+eee44OHTrw5ptvoqoqb775Jtu3b+fTTz+lSZPGnDl9hlu3EmnQ8AkMBnNqV69ePRyMRjZu/Dn3udW+vr5UqVKFW7du8dprr/HNN9/w3XffMW7cODIzM3niiSfo0aMHoqrcvHmT3377jUqVK1O+QnnIV+7yp+HWjtemd8HTABgq03lAO6rqQedcCndHy4MfPrSkWkNDQ0NDQ+ORQ0RABF12HXRO8pqVlUVmZiYADg7Z9cSAg9EBQcjKzESn0+Hs7AzZT/5wdnbOTcpzrlQ7OBhzN+epqppb/9y+Q3vS0zP47LPPSE9Pzz3ekvyP2yP78X+XLl1i7do1VK5SmSeeeAKy59G8eXPKlivHd999R0RERK4cAwYM4OOPP6Zdu3aEh4dTr149Fi1axJgxY/D09GTkyJGsXbOWmjVr4ujoSKtWrXKf0lGlShUaNmrEoYMHCdwWiKqqVKxYkY8++ojq1atz5MgRJk+ezJQpU/j9999p1qwZS5YsoVSpUoCOZcuWcyM6mlatWmWvVXYZS+6M/nwkJY000VGuU2damS/AP9RoSbWGhoaGhobGI4der8fJ2RkBEm8l5l7drVChAuXKmTfdnT51CoD09HS+/e5brl27RvXq1RHg+PHjKIqCoijs2LGDXbt25T7+TqfTkZSUDNnJsdFofhsjwFNPPUW9ej5s3LiRJUuW5D71I3+JR06inf8qdVxcHBMnTiQ1JZUX+vXLLTUxGAxUqFCB5557jvCICN58801SUlLQZT87e9SoUaxbt46qVavy7rvv8sorr+CaXeKRlZXFV199xdWwMJo1b87jjz8O2Ym6Xq+nT58+OLu4MHXaVILPB6MoCs888wybN29m2rRp9O3bl8GDB/PRRx+xYcOG3Ef17dixg08//YQyHh5069YNHbq/4ekfdzmx9wTJpZ/itcnPYtbow42WVGtoaGhoaGg8coiIuW5YhGvXrpGVlYWIULVqVZ577jlUVWXmzJlMnjyZESP8eWvKFD788ENeGjwYV1dXdu7cyejRo5k8eTKjR4/mtdde48aNG7kJ8qVLl0Cno0plcxmIiCCq4OToxCuvvIKHhwfz5s3js88+Izk5OTcJ7t+/P4MGDaJjx46Q/ci9ixcvMmLECPbv30/btm1p1aoVOp0u92q2KsLzzz9P06ZN2bFjB+PGjSM8PLxAor5kyRKaNGmSm7DfunWLWbNn8eVXX+LpWYVhw15Gr9fnPpxDr9NTt24dXuz/IhHh4QwdOpSTJ0+iKAqPP/44M2fO5Ntvv+Xrr79m7NixVK5cmfSMdNavX8+4cePIyspixCuv5Ja0/KWXqAHl+v+xeGMWXRcsYNTj5jdjPuwYZs+ePdvyQw0NDQ0NDQ2Nv5rz58/n/nejRo0KfAew6ItFPPPMM7lXTNNS0wgKCiIxMZGXXnqJ8uXNT9t4umVLYmKiufz77wQFHSEmOoaOHTsyf+48mjdrjpurG2FhYRw7doyzZ8/i6enJ3Llzad26NYJwO+UOs+fO4U5KCu06tKNuvbroMSe3AKVKl6J23dqcOXuGwG3bCD53Dnd3d7y9vXnxxX707duHxo0bER5+jZUrV/L2228RHBxMq1YtGTlqJEZnB0QPKioqAnodOoOOJo0aEf1HFL/99hu//bYbvV5H2bIeODk54u3tjV4PsbE32LHjVyZPnszPP2/Aq/pjvD7+NSpXqYxBr0dExaDTI6qCTq+jZk1vdHodx44dY+PGn0lISKBihQq4urpkXy1XSUpK4tjxY7z3fgALFy7EpCoM9x9Oy1YtzWtt/h8iwu7du5n4+gQLzZjJrz/v2uYfI/eEKZzVr83jbLePWPKvx3Gx/L6EhF+Nyf1va3b1oNBJUcVAGhoaGhoaGhp/IevWrcv975deeqnAdwC1H69DQEBAbnKbmJjItKnTuJ18m7ffepuZM2diNJivaqamphIeHk7irVu4ublRt25d8yPxsmuko6OjiYyMRKfT5W5YdHBwQFFV/vvTf3ll5Csoqon3//MBj1V/DAN6dPkyJhEhKiqa1atWE3zuPEaDnmrVqlGpUiUcHB1JSUnJfaKHh4cH3Z5/jueeew5HR0dMenMibYlegbspaWzZsoVdO3eSnp5B+QrlqVG9Oi6urmRmZhAVFU10VDQODkZ8n3ySl4YMomLFirky5S/RyPk7KyuLoKAgNmz4mbjYOEq7lcK7Zk3Kli2LoijcjI8nPCKC9MwMateuzYABA3JrvnPWGkBRFKZPn87V0Cu5n+Unv/46PPtkge+KTwbBn77O3IRhfDWnHRX1JpKDf+Dbk62Z4l/L8uBisW+HuQyIIuzqQfFIJ9Wm5DhuO1WinHmvwSNBeuINkjL0uJStRBnzYx//R8kkI9MRpwe8m7dENpGeyI3EDPSu5ahU5gELoqGhoaFRYkqSVKuqioODA4sXL+a3nbup6lmV7b/+Sr165jcDAuZa4Hztc+qfyfe2w9xjs/9OTEqiZ6+eHDt+jNp1ajM/YB4Y9KAo6LOrZvPXUWdlmQgOCeHo0aNcvXKV1NRUVFFxcnCkfIUKNGnahKeaP4WXlxfmx12Lufi2cE6NqGDUGcjKyuKPP/7g0OHDhF68yK1btzCZTOh0Ojw8PKj3+OM8/fTT+NSti6ND3hNIyDcP8tVW58wxPj6ek6dOc+rUaW7cuEFGZiYiKm4urlSrXp0WTz2Fr68vbm5uuW3y9/nnJ9UqiXvfo++Q1fyeke9jXUUGrdnFwmfvLXF6SJNqEzGnt/LdrMl8djAJxydeYEKvuqgpMZz9dSMHH5tD8E/D/5pi8lvrGdxgCJtrzSVo/3Qa/knlNmkRx9mxch6TPztIor4mLyxYyFsvtqde2XsoR888xORGnVlTI4BfNr5JM/MjNW2SEnaITZ+9zeTVFzGVa8nQ4U8h5w4RLE0Z9OZbjGxVGYNloxwyr7P5zQGMWhtO/bd2sXt6I+53mUzRQXw+aTgLdqfQbfHvrBpwb9txM4/NZPjWHqyc24K8dDaT65vfZMCotYTXf4tdu6fTqCQCl8gmMjjwRiO6/FCLDwM3MKlpMZShoaGhofGnYi+prlWvNgEBAeaXkGQne9evX2furLlkZGTQo0cPVixfgbOLM4g5qTRYvOkw/9XcnP/OnyTPnTeX999/H51Bz/hJE3jq6eaITjDqzC+WsUQAVWdO8tPT081Jtari5OSEi4tL3hsNs+U1jyVWX0wo6EDMmxtFJHcjZUpKCllZWTg4OODq6oqDg0Pui1gMdoqdc8bMSa4VEbIUs6w5b2R0cXHBxdkFJ6P5xGmZGuaXZ8aMGX9aUq2E/8yY7v9m+w2LN704Ps38k8sZ4XkPuddfmFSXUDojnr496OVbhtuJiaR4PsOEt95mxpxP+HH7UgZVNaFYNvmzKFWfzj2fp8fzLbjHNS4WrtWfokefJ/G4nUhSmjedh3S8t4QayDz+fxzxepeN/y1eQg1QqlYb+nXxQZISSaYe/d6ew2erPqPnraX8q1NbRq6PoMiXDDl606VFVW4nJpJ898Foxli1Oe3rOXM78RYp5icW3QOJbPn8OzYs+4rApPyfO+LdpQVVbyeSmHy35LZUEpvIOMrGI9WZ83//1RJqDQ0NjUcEvcVj70SEatWq8cILL6CqKls2b2bO3DmkpppfR55zXE5Sq9frczcH5iTUkv1c6KysLJYsWcJnn32GAK1ataJ5s2YYDHp0uuxXdFtBB+gFjHo9pVxdqVyxIp6VK1PO4//bu++4ps62D+C/nCQERBBQUMGBC9wLJ1q3UkfVDnfdi9Y6qnV3uK310bZWa63bultrHXVXBQe4lSUqoIBMZQ8TyDnX+0cYISSARts+z3t9+/FjPfPe58rJfXLsYKVSQS6TFbwDUkZU+G8y8kcq3E4AoJTLYWlhgUoODqhauTIqOTignKUllHJ5wTFLo59P5JWhSqlEBRsbVHZ0RGVHR9iWLw+lXF6kbP8J8prvYWtQCGKehxb9E7vzlQPqv9NL3qkGAC0CFrVFq8V3YDloH+IPDoH88ilcbdINlUIDUbtVM6hECRDkEBQypEcE4bldI9R10H2qzEl5gtCHz2BZtxncKuruUYpaLXS7CFBon+F+aBqcGrmhot6dRnVcMO5FalG1cRPUKC9AErXQihIEuQIKuQBAi+Swu4iQaqNJRRHZ9o7Qxb5qxAXfQ6S2Kho3qYHy+XUiZSI6KAQJFjXRuH5llDRbQBu4GO08FuG26n3sSfgNw/JvzuYkISw0DqraDVE9/8DaZITdjYBUuwkqitmwd6wA0koQJQlSWjySLKqgshXyykfXKbTJYbgbIaF2k4oQs+3haBC0q4+Ng+vA7UiqPQPng7/FWxZA1vHxcBu4DQlVx+OPkC3oZ5OfpDCExqlQu2F1lBeA7F8GwmHUCdT/4jpuLmkOBYDsuGAEPSVUqVsXVawFvTIEkJOCJ6EP8cyyLpq5VdS7i6xFcnggHpMzpJ290GH5Q/TdlYTDH+oKQ8qMRlBIAixqNkb9yiWVJiBG/IC3W87AX+nl0XNDAE5+VLNwYMj+BQMdRuFE/S9w/eYSNIFe28h9hvv3n6GCe2M4l9Pl40GaExrVd4QFUKxNFGlXsnREBD2HXaO6cJADUmogzl5ORY3WrdEgP715++vqRotn90OR5tQIbvoNkTHG2BtT2p1qu0p2aNO2bcH0jyZNmqBt27bQ5mixYf0GXL9+HUqlEiNGjMCKFStQwcYWcrm8YF6w/h1q/QAyMzMTP/zwA7799lukZ6SjZs2amD13DuwrOeBewB1cv3UTAsHonWoAkNHLBXwkM3U7TAYZGbmFbQKBUGSidxkZSy8h7xOCEflBORHh+vXrSH2WYrgJ8BruVL8pf9edatBLy6V7X7UkJWRkM2g/ZWmf0t5R42nLc93a9MDvqHdFgQT7QbTy23fIRSmQ3dBfKUsdTFtG9qSx647SvhmtqXyFljTnrxQiMYVuL+9CNjKB7D1H0tQRHamaUkFV39tBkSIRUTpdXelFLd9dQT9NakSWzr3ph6AsenJ0MjVUgpTNvqA7ubkU/H0vcu+9lA7tW0bvtxxJ+7KIKP0qrfRqSe+u+IkmNbIk594/UFAukfj8HC3sUIPaz9pP+2d1pHo9lpBPsmiQz0K5AYvIQwmSlX+f9mbplqX6/Yf6t32fvtm3hPo07kErr2YQ5QbT973cqffSQ7Rv2fvUcuQ+yhKfk9/CtmQpk1PtqRfoeeC39LaDQDK7IXQwiyg3+Hvq5d6blh7aR8veb0kj9+WdQM+Lo2OpsgBS1J1BvhrdMjF2PXW3AEHuTONPqIkolfz+05/avv8N7VvShxr3WElXM4iydg0gFZTU7Is7lCsm0fkvO5Ozixct+3U9DampIKVLexr69V+UTmoK3jKSeo5dR0f3zaDW5StQyzl/UQoRkRhHx6a1oEpNJtL2Qz/R9E5VSC6zpIG/ZBGRSM/PLaQONdrTrP37aVbHetRjiQ+ZLk41XV32GS3/siuVl8lI2exzupmrtzprFw1Q5ddrOgWu6UV2goysW7xLE4Z2I3dbgaybTqDFX46n99tXJ6W8Ir294RFpSWPQJtIp8LveVFEQyH7QSvr2HRdSCnY09NcME+kVKeX2cupiIyPB3pNGTh1BHaspSVH1Pdqha4iMMcbesL179xb8MUauUpDcQk5ySwUJSoEcqzrR+p/W0x/HjtDWHduoXYf2pLBQklypoLbt29Gvh36j1NRUEkWRREkiSZJIlCQSRZG0okjpmRl05uwZ6tWrJ1laWZLSQkn13OrRd+u+p0N//E7bd+8g55rOJFPJSFDJSLAo+kdmAVKo5KRQ6v4olQpSKhV5/6/3x6JwG4VSXuw4+X/kSkG3r4WClBa64+QfS6GUk0Khd6689YbHMPlHJSO5SiBBKSML/WNbKAqOL1iY+iOQTKn7I1jIDaulgH79xTwP/df8Ka1dvS7FP6q8hNzwY1g0og8+OhhTMAXBxq0tGjsKoMzrCLT/Atu//gRT3msJXPoBi/f6IDi9DvoPaAenzHvY/+tNaAQ7NGzTAPYCQWvjidlb/4MR9YD486dxXQ1ob63Gx4uuod7QaRg7dgDqpVzHpUANanbzRL381IvhOLrvAiKCbyDSdRLWftYFNqIWt1Z/jEXX6mHotLEYO6AeUq5fQmCGBn4rp+Cb6454e8z7eH90D9j6LMVHX1/Ty1kpcq5j1cQF8HMfiSmDJ6BP5UtYvng3oh8dxb4LEQi+EQnXSWvxWRcbiEJFNG/tjvJ5n/7Ku7VBI8eChCP86D5ciAjGjUhXTFr7GbrYGP96yZBQwQ62ChkgJiEhPgc511dh4gI/uI+cgsET+qDypeVYvDu2yNQQ8fE2fLnKF0nNBuHjD8ZjSEdbiMlW8BzWBTaaS/hh8V74BKejTv8BaOeUiXv7f8VNDZDjvwaf/RiEqv0n4cP3xuIDD5vCD7MaP6yc8g2uO76NMe+/j9E9bOGz9CN8fc3E3JCkYzii7o6p07zxjqMMuUE7sPFUhuFWeWzg1qYRHAVAVrU3lu45ggVdVcgOPoOoNmuwf/NENBOS4XP6CjJhUbRNwAZubRvDUSBkXg+E/Rfb8fUnU/Beo9sm0quFXcM2aGAvgLQ28Jy9Ff/RNUScvq6bc8YYY+yfJct7g6JMIggyASlJSdi1YxfS0lNRwb4CJnlPQqeunWBhqcStO7cwdtxY9HrbC/MXLMBvv/2Gvy6cx0Wfi/j9yGEsWbEEffv3xaChg3HB9yJESGjashmmfzodNWpUQ26OBnt/2Y3EuEQIkgwQASHvPxnJIJNkUApKqCwsobRQwdKqHGRyOSCTwaqcNeRKC5BMBqVKBaWFhe4ucN6f/OMY/gfIIMgVsFBZgiCDTJBDrlBCYaGCXK6AoFDAurwNKlSwg1yugEyQFzuG8f/kkEMBSwtLODlWhsJCBYkAQa4AQQbr8jaQKxQFU0qK/5FBLtP9MStw/B9nVtko67yDRft98cfUBsUfllM0Rc8BrdFz5vdYNqg2ynlOx/rv1mBOu3Bs3n0NqUTQaNR6XzfIYO1SHY5yCygVMkCjhhoiws+eRXCuHEqlHBbtluN2aiz2DbVHkRn+8mpo1bIGEH0Us7q2w/SExuhYLhxnzwYjV66EUm6BdstvIzV2H4baPMS5ixHIldnC3kGAzNoaVsjFo4sXCo9nku4pYjHqInweaJH76ATWrdmJJy490NmZkOLcCrpkzELXdtOR0Lgj8mZlFPlGpfD/5ajWqiVqIBpHZ3VFu+kJaNwxf49SqLPxQiRAsIeTo4Coiz54oM3FoxPrsGbnE7j06Axnel4kqJYpLKAUAJkg5BW5DJDJoZADUHli+vrvsGZOO4Rv3o1rqQTSaKAmEdFX/BChBezsK0IGAdbWVgV50D48h4sRuZDZ2sNBkMHa2grIfYSLFyL0zpxPxMNfTkFsXRvP0pqg39vOkIsx+G3jfsSY+iYsr9SVdg6wEwQoFXJAZgNHRyvIVBZQgiC+yIZaysuPEYqmPTGgdU/M/H4Z3tVeKCG9uv1l1i6o7iiHhVIBGTTIe46DMcbYvwiRBCLgzp3b2L17DzQaDWxtbTFx4kR4f/QRqlevjtzcXNy8eRNrv12LUaNGYkD//njnnXcwfNgwLF2yFH5X/ZCZmQlHJ0eMHjMaM2bMQOXKThBFEb/99ht8fHwAg3nZ+eQKOSpWrIgzZ87A19cXf/31F3bt2gX3+vVx6tQp9OrVC0qlEmvXrsHixYuL7W+MTCaDVqvF1StXMXPmTBARvL29sWjRIsgVCsyZMwfXrl3DVT8/fP311wVvViwNkYR27drh9KnTOHb0GI4cOYI6deoAAHr27IlLly+jfXtPw93YSzIrqNapAM/hH6Cxwa+cyCxtYKM/tdbSDtbJJ7Fw9lE492yTN9+5hHlARAAIOZpcQEpH+MOnEAEoLCyMJNoaPVYfweZxTWGbE4Ejc0Zh6eUs6HYNx8OnIgAFLCwE3QwkAoC8YFKSdIGnYVvPuoENE4dh1oHwggfmZBaWUAkAcnKQA4LGrhXGzZ6H1TuP4/i2j9C0Qg+sPrIZ45raIifiCOaMWoorOaaDPQCw7rEaRzaPQ1PbHEQcmYNRS6/AxD3eInJC7iNcBASn7ujTwRI5OTkAaWDXahxmz1uNncePY9tHTYv82odQczzWrBkO99DdWPnj19h+uxqGrV2N0S4CAEvYWSfj5MLZOOrcE23y5nUTAI1G97s2+X8XQaSrRbkCuuLURcdGc6z2w75QZzTX3MOtW0FQdn0XLa2A9HM/YXOg1nDrsiuhGQEyWNrYFM6Zf5n0Avkz1hhjjP3L5P9cHhHh4sWL2LZ1GzIyMiCXy9GhQwcs/HwhPvr4I7TzbAeHSg6AXIZc0iJHzIFMLsDBwQEeHh6YOGkivlq0CL169YKVlRW0uVrs3r0bx44eg6gVIUrFv0GWyWQQRQkKhQJ16tTB8uXL8cknn8Crlxfs7e1x5vRpfPnll+jVqxd69+6NAwcOFPnZO1Mo77XldevWxaeffoq6devC3t4elSpWQq9evTB+3Hh85O2N0aNHo3uPHvD0LFsgTESYOHECwiPC8eHIDxEeHo42bdqAiDBixAjY29kXmWv80o/bMeCVg+r8ws7726K5J9qUL1iZt0oC6bWfjCNzMGLxWVQaNg99HLTI1cXM+rvk/Y9+o1Og3lvtUE2uxc29W3A9C4CUgoiIJEhFKjwFxw7eR69NV+D7XV9UlhLwNNEVb7WrBrn2JvZuuQ7drhGISKuHbp1coaAspKcRKCMDmVCidsfOescDtGHHsXXnQez6MxBqrQgtAHnN2qijAOSuHmhRWYD6yj7sCc0BoEHolWuITzqGg/d7YdMVX3zXtzKkhKeI1QKyclawkgFarQhokpGSRQV5Tjl2EPd7bcIV3+/Qt7KEhKexKB5eGhZUCs7uOIzHMhf0X7YIA+zlcPVogcqCGlf27YEuSaG4ci0eYpF+oYCFwhJtpizB2F5jsOXGXeye3AzlACDjCOaMWIyzlYZhXh8HaAsqKO/YchGPgwKRIWUhPiFNV0sEKNy7oZOrApSVjjQiZGRkAsra6NjZ8AfaJTz7Yw+SeszCiEGDMGjQIAwatQAf9awA5NzD9g1nkQm9tqXH2BKCflPJ+7fhvrqFIIkKNi05vYX7G7ZExhhj/zKywjsioqjF+fPnserrr/Ho0SMAgI2NDTw7eGLq9Gn4z9o1+H79Ony96musXPU1vlv3Pb797lvMnDUT3bp1g4ODA2R5P8+3Zs0aHD9+HFpRC8hQ8GshhneaZbK8u9cETJgwAQsWLEBySjIeP36MDT/+CEEQsH37Nuz+ZTcCAgKL7GtK/s/fSSTh0qVLWLZsme6thyC89dZbuH7jOq76+eH27dvo2LGj7k56GQiCgAsXLqBLly7YtGkTkpOTcfnSJVSpXBmenp744ovP0aNHdzg6Ohn8sjd7GS8ZVGsRH3ASf/hFQwThRfBZ/HopHGl60UfaA38EJEpAVggunH+CgnubcgUUghZ3di7Gjw8FVFYRkq8ewano5wj0D0GKREi7fxO3717H3XgRJIbD/0osLLssxPeftIR18FoM8OyN4VM2IJCsEHX+KsIkQIy7DZ/gbKRfXIVpy37HEytHODefgIk9HdBl4ff4pKU1gtcOgGfv4ZiyIRBUwQodF2zArFZxOPrTPuzbcRbpnvOxcX77wkwAUDQeh3ljWqBJJTXO/n4JMfZt8ckSb91vH5frhfmrPoSb6IO53TzRd9gMnNLWhpNVJi6umoZlvz+BlaMzmk+YiJ7lAGWLPvCqpUDsobkYMfsPPCYA2Y/gfyMBqsyLWDVtGX5/YgVH5+aYMLGnLsjNk/nkGo6eC0QaAWK8LzavWIaFk8dibWwPrDh6GfvH14UuSfOx6kM3iD5z0c2zL4bNOAVttRfwuRoGCSLibvsgOP481i3ZhaO7/4Oliz7HTO8JmPrlFlxJkHR37hUCtHd2YvGPDyFUVoGSr+LIqRioes3DisG1kPn7TLzdfzy2hIiADAi/dAJh1BELNsxCq7ij+GnfPuw4mw7P+Rsxv73+y1QkJN34CVM+P4CbV0/iZpzuU39WVAReWFWAABHRez/HvMMhCL2gX69RCLkWhOcSITPUD/7B13AjQgNIibh35S7uXr6BKAmQIm/ganQ2nhRpE5G47x8AXVO8gPNP8lqiylR6FUgJ9EdIigRKu4+bt+/i+t14iCQi3P8KYjnCZoyxfy/STcd48PAhVq1ahS1btiA+Ph4ECXKlDCorJRwq2aN6zeqo6VoDjk4VUa5cuYJfEUlMTMTePXuwYsUK3L17r8TvLw0RCLt378a3336LlOQU9O/fHykpKdj444/IycnBjxt/LPOdX8p7WYskSVi/fj1q166N7t27QxAE5Obkwrqc7qUsMpkMgwYNQvPmzQ0PYZQgCAgNDcXIkSPxy65f0Lt3b8z67DO83bs3ypUrhyZNm6JSJUd07drFcFf2El7hJ/VelRbPHoYgxb4+3BwVSHsciEh5HTSuUb4Mkb2ItMhgPEqrgHqNaqJCsQncElJT0mGjTEdImBrODd2Q92t9gJiGyOBHSKtQD41qVtCb+52F2OD7iJVVQ8OGVYoEsoV053343ALVG9RHFYONtMkRCHr8Ak7uDeBcXgCkVKSk20CZHoIwtTMa6v0knZQRiaDHEmo0qgU7vfRLqSlIt1EiPSQMaueGBT8z+Gq0SI4IwuMXTnBv4Fz484H5pAQc8e6EIVseQlNQ6wIqDTuAiL0fwOrZQ4Sk2KO+myMUaY8RGClHncb5P0OoRvz9YDy3rY9a8kQkqVxQw14vrVmxCL4fC1m1hmhoWFD/Rv9t6WWMsf8HSvtJPaXK+E+ckkwGURJ1N69luqmeKpUl6jeoj8YtGqNO7TqoYGcHS5UKkAE56hxkpGbgyZMnCAoKQmBAANRqjS74FSXIhMIXsBjeodbn7OyMmzdu4T9r1iAhPh4LP/8cP6xbh00//4w+vXvjm29WoW3btsjIzARR4dscTdPd+U5LS0eHDp6oUbMm9u7Zi99++w0//rgBfxw5gu+++w7ZWVmYv2AB3nvvPdy6dcPwIMUR8PvvvyM1LRXbt+/AzJmzkBAfD9datRAREYF79+7hrY4dYW9vhz59+gD5d+FNyNUU/04d/JN6f2dQzf5pUtQ2vNdpPzr9uR+TaiqhfZGEe2sGY/TzrxC8pS/4FSiMMcb+SS8TVOsHvLpJgLK8yXuFc63zp4jI5XJYqFS6oBpAbq4W6uwX0IoiZDKApMIXpJQUTOaTJN0dZXt7O3z11VewsbGBJEoICg7Cli1bkJ2djRYtWmLYsKH4/PMv8t5cWPqxZZCBAGzZsgVLlixBXGwc5sydg7i4WOzcuQvdu3fH+PHjoFRaYPfuX/DHH0cgGZnzbUgGGWrUrIk5c2ajRvUaePDwIbZt3YpPpn6C5ctX4Gn0UzRq3BBTp07FjOkzoMkx8gxVHiKCNsf4OTmo5qD6/w/NfexduBxnxHpoUK0CrJQSMjJs0d17HNpVNLytzRhjjP29SguqLSyVQN5D5qUFqIbI4G2B+S+EeRVEgCDkvXIcMhB0xxYEOUiS9OJ73f8Q6c3BLoEkEZRKBbRaETKZLG8qiFiQdrmg+6pbkiQIcgGSZPx154Z02dZ9EJDJBOQ/tJ9/3Pw3VcoEATKZLh36zxnpkyQJYq7xOZEcVHNQzRhjjLF/gdKCamubcsjJySnzHWV9huHOy+5vSAYZpLyAVJREyGS6gFSQCRAlEYIggAiQRBGCXChzmnX7S/nxOGR5gbUMMsjyAnlBJhT8YEMZDgmZTACRVBDo6/aR6Y4ry0+b7nxyhRyiKJkMqi2UFsjKzDZcDHBQXTyo1i8QxhhjjDHG/le8yaD61b/7YIwxxhhjjAEcVDPGGGOMMWa+YtM/GGOMMcYYYy+H71QzxhhjjDFmJg6qGWOMMcYYMxMH1YwxxhhjjJmJg2rGGGOMMcbMxEE1Y4wxxhhjZuKgmjHGGGOMMTNxUM0YY4wxxpiZOKhmjDHGGGPMTBxUM8YYY4wxZiYOqhljjDHGGDMTB9WMMcYYY4yZiYNqxhhjjDHGzMRBNWOMMcYYY2bioJoxxhhjjDEzcVDNGGOMMcaYmTioZowxxhhjzEwcVDPGGGOMMWYmDqoZY4wxxhgzEwfVjDHGGGOMmYmDasYYY4wxxszEQTVjjDHGGGNm4qCaMcYYY4wxM3FQzRhjjDHGmJk4qGaMMcYYY8xMHFQzxhhjjDFmJg6qGWOMMcYYMxMH1YwxxhhjjJmJg2rGGGOMMcbMxEE1Y4wxxhhjZuKgmjHGGGOMMTNxUM0YY4wxxpiZOKhmjDHGGGPMTBxUM8YYY4wxZiYOqhljjDHGGDMTB9WMMcYYY4yZiYNqxhhjjDHGzMRBNWOMMcYYY2bioJoxxhhjjDEzcVDNGGOMMcaYmTioZowxxhhjzEwcVDPGGGOMMWYmDqoZY4wxxhgzEwfVjDHGGGOMmYmDasYYY4wxxszEQTVjjDHGGGNm4qCaMcYYY4wxM3FQzRhjjDHGmJk4qGaMMcYYY8xMsipVqpDhQsYYY4wxxljZyZydnTmoZowxxhhjzAyy6tWrc1DNGGOMMcaYGWSurq4cVDPGGGOMMWYGWe3atTmoZowxxhhjzAyyunXrclDNGGOMMcaYGWRubm4cVDPGGGOMMWYGWf369TmoZowxxhhjzAz88hfGGGOMMcbMxEE1Y4wxxhhjZuKgmjHGGGOMMTPxg4qMMcYYY4yZiX9SjzHGGGOMMTPxy18YY4wxxhgzk4yIOKhmjDHGGGPMDPygImOMMcYYY2bioJoxxhhjjDEzcVDNGGOMMcaYmTioZowxxhhjzEwcVDPGGGOMMWYmDqoZY4wxxhgzEwfVjDHGGGOMmYmDasYYY4wxxszEQTVjjDHGGGNm4qCaMcYYY4wxM3FQzRhjjDHGmJk4qGaMMcYYY8xMHFQzxhhjjDFmJg6qGWOMMcYYMxMH1YwxxhhjjJmJg2rGGGOMMcbMxEE1Y4wxxhhjZuKgmjHGGGOMMTNxUM0YY4wxxpiZOKhmjDHGGGPMTBxUM8YYY4wxZiYOqhljjDHGGDMTB9WMMcYYY4yZiYNqxhhjjDHGzMRBNWOMMcYYY2bioJoxxhhjjDEzcVDNGGOMMcaYmTioZowxxhhjzEwcVDPGGGOMMWYmDqoZY4wxxhgzEwfVjDHGGGOMmYmDasYYY4wxxszEQTVjjDHGGGNm4qCaMcYYY4wxM3FQzRhjjDHGmJk4qGaMMcYYY8xMHFQzxhhjjDFmJg6qGWOMMcYYMxMH1YwxxhhjjJmJg2rGGGPsb6dFWmIy1IaL1SmIj4tHYlqO4RqziJnPkJQlGS42k4k8GNKmITG51K1eghYZiYnIEA2XA5I6CXEJmdAarvgbaTMSkWg8cUiKS0DmP5m4/2HZiZGIzzRc+vd6yaA6BzE3f8OXb9dERYdKqPP2VCyaPQKdGjVE+/e/wNHH/1xL0cb649vB7qhU0QUjD2Ybri4DLWL9v8Vg90qo6DISZTtEJmJjU/G6hynGGGNvkhpR1w5ifvdqqOhQCfX6zMTXKz7HpD5t0KrHGHx9NgZGQqICOU+O4pM2TnCo3BkrA1/tupd8cBTcXWqg28ogvQBQg0vz26JGyzHY+zi3yPZm0ZzDtCYucGm30HCNWYznwVAyDo5yh0uNblgZZHqrspKSLmBxn774bO92fNztbSy+8Ex3DZaS4buyH+pVdIRz1cqo1281/DMM9xYRf/cQFvaohooOFeHSfT5+vRqODElE3M2D+KJ3E3gtOIhbYY9wZc90dKhSEQ6V6qHPjGX4avpg9Og2CJ/97IcEU41DSsKFxX3Q97O92P5xN7y9+AKe6RKHZN+V6FevIhydq6JyvX5YXTxxpdLE3MShL99GzYoOcKhYHe9vjSkSf2gDV6JL5YpwcHBEoxHrcPpOAG7+/hX61qoEh4rV0PWjr7F61XJ88fE7aFatDiYeVUMddQ0H53dHtYoOqFSvD2Z+vQKfT+qDNq16YMzXZxFjKq9vQmYsYlNfLaKS4n6Dd9uWmHGyTMHbm0MvTUP+cxqQAnKq9cl5UpNIj3/oTuVlMir/1mq6rzXc/u+SSzc/b0pKmSUN/CXLcGXZ5N6kz5sqSWY5kMpyiORzM+m9hX6kMVzBGGPsX05DPtPqkAIKqjvDlzREJMbvoncdBJKV70T/KfFilkk7B6gIymb0xZ1cw5VlognYTBP6D6Gl556TmL9Q7UOftu1OK/zTi25sLm047Zv+Lr0//6jhGrMYzUMxGgrYPIH6D1lK556b3qpsMujUZFeyqD+brmrU9Od4Z1LW+ojOZhK98F1CH3p/TRu+nUndXZQkk1lSh1WhVLwW1fTXx64kh5yqTT5D6oLlWnq0dgatCs7b48URGuMkEBR1aYavhojUFLS2G9kJKqo7+gBFGslKxqnJ5GpRn2Zf1ZD6z/HkrKxFH+kSR0s+9KavN3xLM7u7kFImI8sOqyi0eOJKpfFfSJ2q2pMAGanarqD85BKp6crn71JLNyUBFtR9Q5yuTjTXaG5DBUGoSCMPv8jbVktPtoykTw7pAh2NzzSqowAp6s4gX11HoF3vOpAgK0+d/nPfSBm+Ccl0buZ7tNDvFSIq7RPa8W5VksvsaMjBMgRvb9BL3qnWkQn6uwmo6l4X9gIhO/guQgo+XOcg5UkArt14iCT9b7G0yQi7eRMPkzVIepai9ykrB0lhAQiKzixcZnJbfVokh9/BrbAk4+tzkhAWEIToTKNrdbTJCL9zC2FJxrfJSXmCgGs38FAvI5l31mHkqPUIUYvI1eZ/lJOQGR2A6zdDkVDkmy4tksNu4ubDZGiSniHF+GkYY4z9jWSCrMi/hYqN0ai6HJR1F9fvaQpXFLuOyFB0Tx1j1wodNeKCr8H/XhR0h5AgbzAKG37djfldKxZ8ZSy9sIfX519hoKuycFdRC21ODrRaERI0SLh/Dw+TSrrjW/xaKqEGPvhmP/Yv6VN0y6QwBARF56XJ8FwSUiMCEJZceKtSHReMa/73EJUpmcxDsbxKcjQYtQG/7p6PrhULcvpq18rsC9j/RxTIujxsBBkqVCgPijqOQ34voKn+IdZumIuPZ6zGnq96wApaxMckGP3GIb/eZTKD+hcUKAxvZCi6WoVGkz7Fe1W0CNs9C0tOGN5pzsaF/X8giqxR3kaArEIFlKcoHD/kB0lTHR+u3YC5H8/A6j1foYcVoI2PMX3HuyQyFTqOHYX6SkBzaxe2X8tra5nncSyzCwa4FM9bkXxoLuP46VRUHzINI+pZ5G0gFG3PQkU0blQdcsrC3ev3oNcTdCQR2pwc5GhFSFI2YoNuITjOcHqPsRhQhFabgxytFqIESKkRCAhLhohM3Fk3EqPWh0At5kIr5ld88bZcnBahW1biSJLKaJ/8u71SUF2ElIC/fruAOKqAFhPHoasloAnZilG9vLE7MAT7p3igTvu5OJ8KQBuCdX09Me1UFG5vHIFes07r5mKl+WPNgE6YfDgEh73bw+trP2Sa2rbIueNxfHobuL+7EYEBf2CPb2KRgk/zX4MBnSbjcMhheLf3wtd+xSfbSPHHMb2NO97dGIiAP/bAN1HvCJoQbB3VC967AxGyfwo86rTH3POpQNYt/LJ0Hc7EaRF/ZgW8p24GpCT89XknNBqyC4/Dt+CDpj2x1DcFErQIWdcXntNOIer2RozoNQuni2WEMcbYP02Ku4nbkSIEh07o2VYFlPE6YvJaAQAZfvj67Q6YcvQuto9wh3u/9QjOjsaJT1qgvKocPBbdhRYSkv76HJ2aTcbZrFhs/aApei71RYokITXgG/SsZAmVUyeMmTYeH/RqjUZNhmBnlJEww9i1FBKeXVuMLvaWsKw3LX9D+K8ZgE6TDyPksDfae30Nv0wg4/4G9He2gsppGL75biAa12+B1lMOIxsZ8Pv6bXSYchR3t4+Au3s/rL/72CAPxvN69/EJfNKiPFTlPLDortasa6UYFYT7yRIgV0AuAwRBAMQE3A96hgquteAoAIAAlYUFZIITOnZrhryw8fWw8kDLBnJAjMPJPy4XXSdGIeh+MiTIodAlDgJEJNwPglDBFbV0iYOgsoCFTIBTx25o9oqJUzSZBO9O1pBpH2Hf1tPIAJB0wgcWffvAznDjIiSknNuHI49zgPKt0K6JwnADHSkON29HQhQc0KlnW+h6QiFN1DF81MwaKqs66Dp0NCZPfBce9Zpj3IEoiCghBsy4jw39nWGlcsKwb77DwMb10aL1FOy78guWrjuDOG08zqzwxtTNt0205eI099ZjXfwgzHjL9l8RVL/S9I9r8xqRAgJV7DSJ5o72JGdVBWo49D904anuK5Kz3tVJbtGGlgVn0YWptUkur0HeZ9WkDV1J7ZRKqtF/LfklRtLerccpnTR0bX5jsnAcRX9kiRS7vjupynvRBp/lRrY1SMmVz8hdoaQmC29QLmno0qf1SJE//UNzjeY3tiDHUX9QlhhL67urqLzXRoop8pWNhq585k4KZRNaeCOXSHOJPq2nKJj+oT7rTdXlFtRmWTBlXZhKteVyquF9ltRElHVgMNnKFFR/tm76h/ryLHJXKsljcSDl5gbQIg8lKRvOoavZobSynZKUNfrTWr9Eity7lY4bZoQxxtjfTEO+M+qSAgI5dplIsya+Tx1dy5Njxxm0915q3iamriNZtEtv+ofpa0Uu3fyiOanshtCBTA35LWhCVhUH075kosydA0gFJTX74g7lqi/TLHclKT0WU2BuLgUs8iClsiHNuaohUp+lj2rISWbjRRuj1OQ/tyEpZHY07FfDr7mNX0s3xohEL47S2MoCyV0/zsvWfGps4Uij/sgiMXY9dVeVJ6+NMSRq/Gh2fQXJlDVp+I7rdGbNNFp4MJzUN7+g5io7GnIgkzR+C6iJVUUavC+5aB5M5rXoVBlzrpUa/7nUUAFStltBoVoNXZ1dnxRQkseiAL2tUuj3kc5UqdcPJqZXqOn8J7VIDjlVz7ue62gp/LvP6D/5O+WVWeH0DyKiLNr9bjmSAaTqt61gTyIi0vjrplko29GKUC1prs6m+gqQ0mNRkc1Sfh9JzpV60Q/GE1cqzbUl9OWBTEr+fSQ5y0GC/UDaERtJWxf+h+5pntK6rhYEWFCPH+MLpn/Ma6QgyMpTqxGTqatLOeq+PrbIdB2N7wyqqwAJjl1o4qyJ9H5HVyrv2JFm7L1HeT3BQCpt7asiyGvSxBPpJKYeoKEVhbzpI6ZjQCIN+c2uTwqZkmoO30HXz6yhaQsPUrg2iw4MtiWZoj7N9tOU3Jb1ZfrRyo++Jv9MDd3+vCkp/1unf+jIYNt0KBbvuIRbewci+9fZ6Nl6KLY/UcBz+np8t2YO2oVvxu5rqSDSQKMmyKu1QssaQPTRWejabjoSGneEjRiFiz4PoM19hBPr1mDnExf06OwMmYVH8W2LnF9E9BU/RGgBO/uKkEGAtbVVwScVMeoifB5okfvoBNat2YknLj3Q2ZnwXP/DvRiNK34R0MIO9hVlgGANa6vCzzoqz+lY/90azGkXjs27ryGVCBqNGqR3CB0tHp67iIhcGWztHSDIrGFtBeQ+uogLkVXRSpcRzOraDtMTGqNj0Ywwxhj7xwio0Gww3nOOwp3ITCQ/jodQSTdIl+k6UtK1QgzH2bPByJUroZRboN3y20iN3Yeh9kW/ktc+PIeLEbmQ2drDQZDBWncBwcULEUDeVU1m7YLqjnJYKBWQQQO14TeeJq6lZJhYiIi66IMH2lw8OrEOa3Y+gUuPznCm54Xf9CqaoueA1ug583ssG1QTT86eRXCuHEqlHBbtluN2aiz2DbUvOq3AZF71p8qYd62U25SHtQwFZSLlTRMoV758wTbqW99jzZ0e2LDlY7jLCxaXiSTJodCbeVOcGtkvRBAE2Ds5Fl0lt0F5XeJ0qZNEXXmWK0wb1Lfw/Zo76LFhCz42kricG1swe8YMzJgxAzNmfIbvLyQZbpJHBvu+n2B0QyUo9TS2rPwJkbUHobGJG8+AbtpIgw/W4tjeqWhgYjuhQjMMfs8ZUXcikZn8GPFCJYO4q5BMBkCoBJdqVhCs3eFWXQ5t5E1ce2o6BiykQNOeA9C650x8v2wQahsWRZnacg78VnyFm1WcEXH0V5wNTYeEXMTc8EGosVvafxMzgup8Aqr0+QBdK8mgjT+JwxczYWlnjeSTCzH7qDN6trHXnYQAWPfA6iObMa6pLXIijmDOqKW4kpODnByANHZoNW425q3eiePHt+Gjdl5Gti16Zo1GN9Mn/+8icnKQA4LGrhXGzZ6H1TuP4/i2j9C0SGPSQLdr/t8GLO1gnXwSC2cfhXPPNrAvyEhxRLrlcoUcgARJQl7XskaP1UeweVxT2OZE4MicUVhqmBHGGGP/HJkKHvM3YX47G0gxv2LWp/sRI5X1OlLCtYJyoMkFpPRwPHwqAlDAwsLIZZdId2WRKyAHIOkuICV8nZ23fREmrqXFEgvk6DaEXatxmD1vNXYeP45tHzVF/pYySxvYWOZvTcjRZQLhD59CBKCwsCgePJQxr+ZcK+U1G8G9ggBotRDzg2rBEW4NnHUbZF7Fiq8CMXTPJgyuLiAzOBDhxeYty6CytIAMgKTV/4UVQlqWDBUqGEZ4enJCcD9cBAQndO/Toeg6eU00cq8AAVpodYmDBAGObg3yNsjE1RVfIXDoHmwaXB1CZjACDRInpUYiMCAAAQEBCAgIRHiiscAkj0UrTPbugvJQw++3aDR9t0bxOilGgHW7oRjcxAoCRDw+e8pgvQwqj/nYNL8dbKQY/DrrU+yPMfxQZoRMCQslkD8P3WQMWLC9JWwKG5gRZWnLuYh8Eojz303HlClTseLPp5DwAte3fI+zz4pV+t+m9DowIr9T5E+EF2MeIjydIFM1QstmEo7MGYHFZyth2Lw+cNDmgvLLM+UYDt7vhU1XfPFd38qQEp4illzh0aIyBPUV7NsTihwAmtAruBZ6pPi2RZ7NkMPVowUqy0U8DgpEhpSF+IQ03SdDAuSuHmhRWYD6yj7sCc0BoEHolWuI128fct255eJjBAVmQMqKR0KabgMCkHFkDkYsPotKw+ahj4MWuQUZAYS8OV2SJEGbmgH3bp3gqiBkpaeBKAMZmYCydkd0rp2OYwfvo9emK/D9ri8qSwl4WjQjjDHG/gF5lzKACDJVC8z+aSE6ViDEHPoM0/dEQ2byOlI0qDV5rVDUw1vtqkGuvYm9W64jC4CUEoGIJKnw3AAU7t3QyVUBykpHGhEydBcQdOxcu0g0QoDpB7byrmfFrqVFLnoovHYKalzZtwe6bIXiyrV4SHnnIpJAhbetUe+tdqgm1+Lm3i24rssEIiKSIOoXgsm8ino5UJh3rbTugoFeTkBGGtJEglqtgazq2xj4lgqQ4nFkxjhsi8nC+UXD8d7AXugy+xiK3CAFAFigQavmsBMkpCUmICt/sRSLu1kOaF6hcMuC5pH3d8rZHTj8WAaX/suwaIB94YYAAGt0GegFJ2QgLU0EqdXQyKri7YFvAZAQf2QGxm2LQdb5RRj+3kD06jIbxwwSZ9lzKU6dP4/z58/j/PnTWDck78OCUQJqDp+C950VqDNkEvraAyiowSKNO+9/SfcBxqI53vK0gxj9G5bsCSu+rUyFFrN/wsKOFUAxh/DZ9D2INmxChsRkJKURFDU90MYl23QMmP83EaTCBgZAgFwhhwwSJEmL1PSKZWjL1hi6JxbJyclITk7EhVkNoYAt3t30O6bWKuGD0ZtmOB+kZBqKvfMHfd7FjgTIyKrRYJq/4GMa6FGH3DoMoyXHn1AupdORsS6kkJWjRiO/ofUft6ZyMiW5jT9MT9P30uhWH9CinUdo85iW5PHZOUohIm3EHhrtbk2Csip59BlK3t9epMQM49sWoQ2nXcPqkJWqGrXt+z6916EayQVLajLxV3r0QksRe0aTu7VAyqoe1GeoN317MbHYz/5ow3fRsDpWpKrWlvq+/x51qCYnwbIJTfz1EaUfGUsuChmVazSSvln/MbUuJyOl23g6/FRL2vDN1L+ygpTV2tOIFeeIxEQ6M7c9uXp+Sr/smkZtXTvTl+efk0hZtHd0K/pg0U46snkMtfT4jM4VywhjjLG/j5qe3jxEczvYkAwysukwl36/HUMayqXgtV3JTgAJTt3py7MR9NDIdeTFk2M0uZGSIDhR3+/uUuRh09cKMfYoTfewI7nSkZq+PYy8l/5BYVmP6ejkRqSEQE59v6O7ybmUeGYutXf1pE9/2UXT2rpS5y/P03NRpOQbS6mzjYxkVu3pqys36Md+TiRASU2mnDF4RsjEtVQkohfHaVyVwjnVpI2gPaPdyVpQUlWPPjTU+1u6mChSasBa8nIQSKZsSh8fe1w431iMpaPTPchOriTHpm/TMO+l9EfII4M8iEbzGvLoaJGySs4171qpjfyNJrfqQjP2bKNJnm1p2pEYEklL9ze8TY5CQfxGgECVxxyl/B+RK0L7mH6d0oYcy7vRB18foDNnj9DuH3+gX+9l6tZnPCb/A9PIw1JGkJWnFiO/oqULJtGAbr1pwjcn6XHhROyitJH02+RW1GXGHto2yZPaTjtCMSKR9v4GettR0EsbSKg8ho4aTZxpmqfXaO8MT2o6+Hs6EZxEImno5tLJtDpYSyQ+p5Aza+hdFzkBCnIdvJ7+uhdMd/74nLrYCQSZglz7zqGVq1bSV58Oo/YullR5zFFSP71Jh+Z2IBsZSGbTgeb+fptiNES5wWupq51AEJyo+5dnKbLIL0em0rZ+KoK8Bg1cupt+2zSG3CvUp3H7I0lbUgyYFEBrvRxIkCmp6cfH9MpRS+Gb+1NlhZKqtR9BK84lmm7LRuX+a+ZUyyj/tvPrpH2GhyEpsK/vBkdFGh4HRkJepzFqlEtHSroNlOkhCFM7o6FbxcInc7XJiAh6jBdO7mjgXB6ClGp62yLUiL8fjOe29VFLnogklQtq2BduqU2OQNDjF3BybwDn8iZuzKvjcT/4OWzr14I8MQkqlxrQHUKLZw9DkGJfH26OCqQ9DkSkvA4a1ygPAYCYHI6gWEvUbewC67xDZcUG436sDNUaNkSVcgAgITUlHTbKdISEqeHc0A0VjWeEMcbYv1Dp15GSrxUQ0xAZ/AhpFeqhUc0KMHkfLSsWwfdjIavWEA11F5CXZ3gtBQDNKUyq0w/bVB9DG74uf0MkRwTh8QsnuDdwhtFsFSEiLTIYj9IqoF6jmjA5S6KMeTXrWqlNQljQU8hrNkYte1NnKJ3m2UOERCRDtK2JBu5VYV1qGZSFFklhQXgqr4nGtexN5v+/Wxq2v1MZ4043xqJbFzBZ+RjpFd3h5pj3OyGmYsASG5mI5PAgxFrWRWOXvIjKWFv+l3szQTVjjDHG/mFZODm1A36ouRBNdozA9/bLob4023Ajxl5SKrb1q4LxZxpj0S1/fGXqp/n+H/pvCPwZY4wx9tIsUatFM+RePYJHlftj0fLxhhsw9tI0EedxM9EBjg7ZeHDxNuL4MbECfKeaMcYYY4wxM/GdasYYY4wxxszEQTVjjDHGGGNm4qCaMcYYY4wxM3FQzRhjjDHGmJnMDqoldTJioxORmff0p5idhRJerPnytJlIjH6CyPg06E6Rg6ysEl7zrU5GTPQzZIsAoEa22nAD9kblaFBC7ZSRFmmJyXj9VfemjvvvpU1LRPK/IsM5SI2JRFwaPybOGGPsf9MrBtUSEq/+iI+9WqLNkGXYd+ZP7Nu4HLM/noQPx6/FrSJRlRZxd/7A0v51UMmhIpzfmoivV3+DFV99iiHtXOHywU4k62+eR0rwxXfjuqBF50n47vB5nD/8I+ZPGI7R4wdjzLeBeQG2vizc/XEU+oz7FkfPHcIPCz/CxDHjsdqnpBA/ExFX9mB6hyqo6FAJ9frMwLKvpmNwj24Y9NnP8Ev4594fX7IcPDn6Cdo4OaBy55UIzH6Co5+0gZNDZXReaaxsykAbC/9vB8O9UkW4jDyIbMP1ZZKD68vGYNn1lwmrDfKiBZIPjoK7Sw10Wxn0ankx4U0dt6w0MTdx6Mu3UbOiAxwqVsf7W2OKvHJYG7gSXSpXhIODIxqNWIfTwc/01hoqXm46mYiNTdUdN/kgRrm7oEa3lQgqJcM5T47ikzZOcKjcGSsLD1YCvfOUQnzyKz5u0wZjv/oYras3w6y/Mg03YYwxxv77Gb5isXQixR+fQo3KKajmyN8oTu+1kZr7P1CfdrPokkZ/eyKiXLr7ZQtSQkY2g/ZTwUskU87RzKlbKLHoxiRG/Urj3CxJUXsCHX+udwIxjo57NyGPhTeoyBsziUgbvILa2bSkr+7lr8kgvy/epslHSnsP6As6MsaJBCio7gxf0hCROmgtdbMTSFV3NB2INPlezH9W5k4aoAIpm31Bd3KJMncOIBWU1OyLO8XKpqxyb35OTZUyshz4S2EdvYzk3+jDqkpyGf1H8VfKl8QgL5qAzTSh/xBaeu55sdfKm+NNHfdlaPwXUqeq9iRARqq2KyhYm79GTVc+f5dauikJsKDuG+JKT6NBuRERJZ+bSe8t9CMNEZEmgDZP6E9Dlp4j/W5kXCbtHKAiKJvRF/kHK0GR85ToBZ2c4EJyZXta4bOfPh04in64beodv4wxxth/r5e/U51xBl9O3YSQ3MYYPWsAqugdwaL+BMwfWRfG3q0jk8mK/Ftz+RQuyN7CmBHNUeRlrNIz/DZ3KnY8FNFwmDe8KuqdQKiCvsuXYEjV4mfIDQ3Cg6xA7Fy0EdeTJADl0WbKVPR2KHpeYwzTpmo0CZ++VwXasN2YteQEMgrW5CApLABB0Zl6d+i0SA67iZsPk6FJeoaUghU5SHkSgGs3HiKp4MatCK02BzlaLUQJkFIjEBCWDNHkch0pMxoB128iNEHve3yDNBv8EzC1nxHa5HDcuRWGJKO3HY3l2RgREbt/wrEELWIP/4h9kfpbSxC1OcjJ0UKUJGTHBuFWcFzhNIwiiZcgbzAKG37djfldKxZ+laKOQ/A1f9yLMkhHTgqeBFzDjYdJxaadqOOCcc3/HqIyJZPHNV5GRetDk3Af9x4mGdzdNlIu2mSE3byJh8kaJD1LMV5eMhU6jh2F+kpAc2sXtl/LS3XmeRzL7IIBLrqy0LVJCaJWi5wcLbQiAFELbU4OtFpRd2yDSs+8sw4jR61HiFpErlaEJG+AURt+xe75XVFRACRRi5ycHGhFCVJ2LIJuBSOusBJgpAkhJ+UJAq7dwMPCRlzsPHobF68LMQNRT59DhAip4kD85/BOfNJCZbzci+RPQmpEAMKSRYPlaiTcv4Og2LzvUrLjEHwnFM8MKt9YuhljjLE36aWD6oxTO/FbpBYyhxZo7W4Y3Fqi48feaGdhsNiQGIPfN/+GCK0FmrT1QN5b3nXST2P/nwmQBGs0bN6geIDuMBCzpzQvtlzZ8i20tRXx5PB0dGzYBqO+OYXICn0woGPeu+hfihU8WjaAHCLiTv6ByxoAaf5YM6ATJh8OwWHv9vD62g+Z0CJkXV94TjuFqNsbMaLXLJxWA5qQrRjVyxu7A0Owf4oH6rSfi/OpADLuY0N/Z1ipnDDsm+8wsHF9tGg9BYcTTCzPlpD01+fo1GgIdj0Ox5YPmqLnUl+9wN2Usu4nIf74dLRxfxcbAwPwxx5fJOpvYzTPJmiuY19UV0zvbA1kXMCmLXcKg1BNFI591AzWKivU6ToUoydPxLse9dB83AFEGc6wyYnGiU9aoLyqHDwW3YUWQIbf13i7wxQcvbsdI9zd0W99MLTQIGTrKPTy3o3AkP2Y4lEH7eeeRyoAIAN+X7+NDlOO4u72EXB374f1dx8bHNd0GUmpAfimZyVYqpzQacw0jP+gF1o3aoIhO6N0wayxctGGYF1fT0w7FYXbG0eg16zTJuduK5pMgncna8i0j7Bv62lkAEg64QOLvn1gp7+hlIIbizqigqUl3D+9iKT76/FOVStYOI7AIcP5OVm38MvSdTgTp0X8mRXwnroR0Sc+QYvyKpTzWIS7Wg2ijn2EZtYqWNXpiqGjJ2Piux6o13wcDhSrBACaEGwd1QveuwMRsn8KPOq0x9zzqUbOsxkwWRdaBOz4EruDtYD0BIcXb4Bfjulyz7i/Af2draByGoZvvhuIxvVboPWUw0i4vw59K1vBwq41Ppg4FsPf7YJmbu0xcclXmDDqffRu2xgNBvyIMLGEdDPGGGNvmuGt65JpKWRZa1ICpKgzjS6W/t1vnly691VLUkJGli1H0OwhTamC5dv083PD7Yi0wUuplRIEeQ366NzLfE2spcg/PqV2lRQkAwgygexafkyHnhR8v27CCzo6tnKR6R9ERFm736VyMhBU/WhbuoauzW9MFo6j6I8skWLXdydVeS/aGBVCK9spSVmjP631S6TIvVvpeLqaznpXJ7lFG1oWnEUXptYmubwGeZ9VE5GG/GbXJ4VMSTWH76DrZ9bQtIUHKVxrYnnWZZrlriSlx2IKzM2lgEUepFQ2pDlXNURZu4p89Z+1S2/6h7qE/fRprtBn7gpSNllIN3KJNJc+pXqK/OkfJvIcY3wewfNf59LnJ9Pp+YFh5CSA5NXG07H0wvWpW/uSCnKqOfEEpYupdGBoRRIUdWmGb/G8FJnKknuTvmiuIrshByhT40cLmlhRxcH7KFl9lryry8mizTIKzrpAU2vLSV7Dm86qiXJvfkHNVXY05EAmafwWUBOrijR4X3LR45ZYRmo6+1ENkstsyGtjFKn951JDhYzshv1qslw2+Cyndkol1ei/lvwSI2nv1uOkl/0CmmtL6MsDmZT8+0hyloME+4G0IzaSti78D93TPKV1XS0IsKAeP8aTSEQv/hhFlQQ51Z56gdSaKzTLXUEyuyF0MIuKlVvWgcFkK1NQ/dl50zIMp4ekbqW+KpC85kQ6kS5S6oGhVFHIb/dZtEtv+of6rDdVl1tQm2XBlHVhKtWWy6mG91lSk5HzlFAXRCm0pY+KoGxLK+5riUoqd40fza6vIJmyJg3fcZ3OrJlGCw+Gk1ZziT6tpyBZ+T70c5xIGTsHkJVMTjXGH6fU3CBa0kpJMqv+tCOVSkw3Y4wx9ia95J1qGSpUsIEgA6T0NKQVu/NZOmWdd7Bovy/+mNoAcsOVAGR29qggyABSIzsr/w3qGsRc24V573dF585d0GPUMhwLTSu6ozoXTgPW4lKgDzZO6YoaloTU2z/Be94how9Clkad/QIiAYK9ExyFKFz0eQBt7iOcWLcGO5+4oEdnZ1CKM1q1rAFEH8Wsru0wPaExOtqo4Dl9Pb5bMwftwjdj97VUEGmgUeu/DV6Bpj0HoHXPmfh+2SDULiiIostrhJ/DxYhcyGzt4SDIYG1tBeQ+wsULEXrHKk77sGz7idFX4BehBezsUVEGCNbWsMqfAyCayPNzI5UuPsQvp0S0rv0MaU364W1nOcSY37Bxv96DeDIZAAGVXKrBSrCGu1t1yLWRuHntadFjGcxqEMPP4mxwLuRKJeQW7bD8dipi9w2FvcoT09d/hzVz2iF8825cSyWQRgM1iQg/exbBuXIolXJYtFuO26mx2DfUvshxSysjGQDIrOFS3RFyCyUUMkCjVpssF5mFB3RNYRa6tpuOhMYdYVN4OgMy2Pf9BKMbKkGpp7Fl5U+IrD0IjQ2/fsmjPy3D2BQNk4rNCdJN8RAquaCalQBrdzdUl2sRefManhrcrFZ5Tsf679ZgTrtwbN59DalE0GjU0G/FBUzWheGGpZc7AEDRFD0HtEbPmd9j2aDaunFCBsiUdnCwEyAoFZBDBhtHR1jJVLBQAiS+QLZaerl0M8YYY6/RSwbVAip374kWKhmk1GDcCzfytXGZVIDn8A/Q2MjMDKFyD/RuWw4yKQVhD2Ly5hWr4NL2A3go7+CS7xXEOfeEV/0KRfbLPvETtj0Uoajiicnrz+Oezwp0cwBSQwLwuCw/ZlBEDkLuh0OEAKfufdDBMgc5OQBp7NBq3GzMW70Tx49vw0dNK6DH6iPYPK4pbHMicGTOKCy9kgNLO2skn1yI2Ued0bONva6Q9a/qMkvY2FjqLTCxnEi3m1wBOQBJ0oWohqFSMWXdT6PR/fxh/t9FmMpz8chP7bcPoc7Nobl3C7eClOj6bktYIR3nftqs96sU+mRQWih1/1cs8CuKcjTIhYT08Ie6wE9hAQsBACxhZ52Mkwtn46hzT7Sx1zVlAiFHkwtI6Qh/+BS6XSyKN/SylpEeIpgul3ZeWH1kM8Y1tUVOxBHMGbUUV0qazmvRCpO9u6A81PD7LRpN361RPI0wFhi/PjKlBZTQnaPYWSztYJ18EgtnH4VzzzbQFa+p0NRUXRhRhnKXWdrAWPcoWd7ZXirdjDHG2Otj9DpeEnkDbyz1bgQr7T0c2G4wxzbnIQ7sOo80aHB33fto1XoQNgTkRRa6iKTgb4vmnmhTXrdIc3cd3m/VGoM2BCBH7o6P/vM53nIQcevQPgQXBCYCBLkAGWSQK+QQDM+h8cem1SfxLO/WqF1rb3zoaQnHFq1RV7yLde+3QutBG5CfnCLyr7n5f6ecxY7DjyFz6Y9liwbAXu4KjxaVIaivYN+eUOQA0IRewbX4JBw7eB+9Nl2B73d9UVlKwNPYFByZMwKLz1bCsHl94KDNBRmegggSFb3ja2y5wr0bOrkqQFnpSCNCRkYmoKyNjp1rF5ZnHv1/lrifHrmrB1pUlkN8HITADAlZ8Ql53z4QYDLPBneqpWf4Y08SeswagUGDBmHQoEEYteAj9KwA5Nzbjg1njc3CFpGclAZS1IRHG5eS81LvLbSrJof25l5suZ4FQEJKRASS0o5gzojFOFtpGOb1cYA2N7+UFaj3VjtUk2txc+8W6HZJQUREEsSXKKOCTQko8sShqXIJPYKD93th0xVffNe3MqSEp4g1+oEin4Caw6fgfWcF6gyZhL72ACDpnVf3f7JyVrCSAVqtCGiSkZJFeo2paLkJcgXkMl2gqk1NKbbekJichDRSoKZHG7jI84LdPBlH5mDE4rOoNGwe+jhoUVC8xs6TYaouoF+Sutopsdx12xJJMOgeRuNiXfYKNyQqOd2MMcbYm/TSQTVghx7/OY2jyz+A9aHxGDR/C47+dR5/7vsJq1YcgbKtJyogGw+v+uLObV/4h2UhPuAk/vCLhgjCi+Cz+PVSeJGpI9kPr8L3zm34+odBA6Bc63k4fmE7JpXfi5Hvz8NPv5/GXycO4sIjGSo37YZeLZwgK3IODSBYQxW1B3M+W4WdR0/h8Lq5OEAzsPXrd1Ah+yGu+t7BbV9/hBW5JZuJJ9eO4lxgGggi4n03Y8WyhZg8di1ie6zA0cv7Mb6uAkA59Jq/Ch+6ifCZ2w2efYdhxiktajtZIfPiKkxb9jueWDnCufkETOxZDnKFAoL2DnYu/hEPhcpQUTKuHjmFmOQH8A9IhIQshFw4jyf5aUkzsVzVEQs2zEKruKP4ad8+7DibDs/5GzG/PRB54SrCJECMuw2fuwH462oYJIiIu+2D4GxPE/sZPEFarhfmrRiMWpm/Y+bb/TF+SwhEyIDwSzgRJpjIs16TkZJw46cp+PzATVw9eRNxIgBkISriBawqCIAYjb2fz8PhsPyn6iQ8u3sEBw7twNYTCag7ahk+9TTMyz2c08/Li05Y+P0naGkdjLUDPNF7+BRsCCRUEORQKARo7+zE4h8fQqisAiVfxZFTMVB2WYjvP2kJ6+C1GODZG8OnbECgJgUXy1hGUkog/ENSIFEa7t+8jbvX7yJeJIjh/rgSa2m8XKpl4+KqaVj2+xNYOTqj+YSJ6FnkZ22AnJjrOLTvFP44tAUnQ5Ih2fXGJ97jMHGiJyylJNz/61dcfCgCkBDmcwgXQ5OhbNEHXrUUiD00FyNm/4HHBCD7EfxvRBctt+AUyFt0xVuOwOMDn2HSxmt4cr7o+vwuJz27iyMHDmHH1hNIqDsKy3SVgKu6jXHbJxgpMgUUghZ3di7Gjw8FVFYRkq8ewakYEcoi57kNwFRdRONZ0AlcDRcB6Slunb2DBKWpNm2BtAf+CEiUgKwQXDj/pODbk4zQawh6LoEyQ+HnH4xrNyKggYTEe1dw9+5l3IiSACkSN65GQys3nW7GGGPsTZIRlXI7qyRiFhKeRCA6WYRtDTe4VdaLIrLjcD8KqFW/Kkr/JjcbcbqNUbXIxhKyE8Lw8EkKtOUrwdmlGqrYqQo/CeidwyIlCWkVKsJem4SI+xFIs3JFQzdH5M8wyY67jyjUQv2iJ3g52mREBD3GCyd3NHAuDwESUlPSYaNMR0iYGs4N3VDRAoD2GR6GpMC+vhscFWl4HBgJeZ3GqFH+FT7DAEBWLILvx0JWrSEaVjGI1EpSxv3U8fcR/NwW9WvJkZikgksNexSE38Xy/GrStr+DyuNOo/GiW7gwWYnH6RXhrlc/pRHTIhH8KA0V6jVCzQq6SejaZw8RkmKP+m6OUKQ9RmCkHHUa14CumEWkRQbjUVoF1GtUE3m7FFfGMirGsFykVKSk20CZHoIwtTMaulUsLEMzSRmRCHosoUajWrAzlY88YnI4gmItUbexS9Ff1QGAtO14p/I4nG68CLcuTIbycToqurvB0WglaPHsYQhS7OvDzVGBtMeBiJTXQeMaujZgeJ6S68KIVy33UpWcbsYYY+xNMS+oZqyMUrf1Q5XxZ9B40S34f9Wk2E8isr9B6jb0qzIeZxovwi3/r9CEK4Exxhh7bfjmDXvzNBE4fzMRDo4OyH5wEbfjSpxszN4IDSLO30SigyMcsh/g4u24f+RV7Ywxxtj/Kr5TzRhjjDHGmJn4TjVjjDHGGGNmMnqnet++fYaLGGOMMcYY+682bNgww0WvDd+pZowxxhhjzEwcVDPGGGOMMWYmo9M/GGOMMcYYY2XHd6oZY4wxxhgzEwfVjDHGGGOMmYmDasYYY4wxxszEQTVjjDHGGGNm4qCaMcYYY4wxM3FQzRhjjDHGmJk4qGaMMcYYY8xMHFQzxhhjjDFmJg6qGWOMMcYYMxMH1YwxxhhjjJmJg2rGGGOMMcbMxEE1Y4wxxhhjZuKgmjHGGGOMMTNxUM0YY4wxxpiZOKhmjDHGGGPMTBxUM8YYY4wxZiYOqhljjDHGGDMTB9WMMcYYY4yZiYNqxhhjjDHGzMRBNWOMMcYYY2bioJoxxhhjjDEzcVDNGGOMMcaYmTioZowxxhhjzEwvEVRnIfLOPUSrDZf//5UVeQf3XrlAJGREBCIsVTJcwf5pUgYiAsPwT1eNlBGBwLBU/MPJKAGPCf973sC49FL9SY2YwPtIKG3brEgEhD4z3TeyInHnXjT+vqb5sn2hjPk0gzomEPff5AleyRtoX4Cu/ANC8exVDium4GHgY2QZLmdmxjh/o39RHZY5qJae/IxR7T0xcWe86YHs/xPpCX4e1R6eE3ci/iULRIw+jzVj2qBWoyH4OVRruPq/mxSJnwe5o9nQnxGaY7jy305E9Pk1GNOmFhoN+Rn/WNWI0Ti/Zgza1GqEIT+H4k0nQ4r8GYPcm2Hoz6F4mSr7u8cE8Ykvfln7CQZ06oi3+gzDZG9veHt7w9t7Ika/1wtdP9yIkDddWP/DXv+49DL9SULqnd2Y2b0u6nZZhsumGqKUCP+tU9G5rjt6feNvor1KePLzKLT3nIidLzs4v6Ky94Uy5tMMUuod7J7ZHXXrdsGyN3GCV/TS7SvnKr56yx0dZxwv4RorIdF/K6Z2rgv3Xt/A/6WyKyLy/BqMalkLTcfvQaRouP5/xKtek82Icf4+/8I6JBPExJt0I0yrtySTnty+S1Ev9Bb9P5f55DbdfcUC0VyeSW6q+jTbT2O46r+aGLOR+jYcTnue6Led/yYaujzTjVT1Z9M/WjWayzTTTUX1Z/vRm02GSDEb+1LD4Xvo5avsHxgT1Bfok1pyUr2zndKLLA+h78YvpItq/YX/+4qP0+Z5/ePSy/QnkaK+70oq++H0W0ltShtG33RQUeWxR8nkZplP6PbdKNPr9byeMnyZvlDGfJpBjPqeuqrsafibOsErepn2pfGfS63bzqOLyYZrDGkp7JsOpKo8lo6+dHbVdH6KK6laLaVgc5vAv5Q512RzYpy/z7+rDk3cqc7Cte+/xI6H+p8mrVGzRTNUt9Rb9P+cdc0WaPaKBSK3s4OtzHDpf7/sYAl9d2zC8Jpyw1X/JeSws7PFP141cjvY/S0NJBvBUl/s2DQcL19l/8CYIC+PCuWNDFsqd4z85F1UUxiu+F9mbJw2z+sfl16mPwmwtbEufVu5DWysS9nKuiZaNKuO0pvm6yrDl+kLZcynGQRbG5RWRP+EsrcvEU8fO2PWvmXobG+4zpAcNq9cnnJY21iX/Sv7/0LmXJPNiXH+Pv+uOiyeDukZ/NeNxodrruPJ3TM4dSGoYJ6SOiYAIQbfA2THBuLKRV/ciswo8rVXVlQgHiRJQE4Cgq9eRUhi8UHLnH2N0SY9xLULf+HijQikFvkaQEJq+DX4XLqLqLQkxMYVnXkjpkTg5iVf+IcmGv06MScxFH4XL+JaWAqKHFYdg4AQ/a/7tEh6eA0X/rqIGxGpRbfNW58cdh0+vncQ/cJw3aunv4AUh7tnT+HkyVO4FJoKCSJib53GyZMncdr/MbLzt8uKQuCDJEjIQULwVVwNSSzTFANT9SLF3cXZUydx8tQlPG3tjY9apuPW6ZM4efI0/B8XnBXZ0QG6OX5iKiJuXsWdqPx85CAh5Cou34stPgcyOxaBVy7C91YkMvQbSXYUAkOfQVTH4t71UCQXlJeIlIibuOTrj9BEY7VpgjYZYdd94HsnGkaqxnQ6TCopHdmICgzFM1GN2HvXEVqYeGiTw3Ddxxd3jDWQ19ZnJMTdPYtTJ0/i1KWnaO39EVqm38Lpkydx8rQ/CqssC1GBD6A7bDCuXg2B4WGNjQkm+wt0c98ibl6Cr38oihWLGbIDA5DQ2AN1Cq4bpae9iNfWd0obA4zJRmzgFVz0vYVIg8Zlsl5NjdMm+oXpsQVmjEsleMX+JMjKEhrJULhZDuKDrhipBzViAkL0vrY2MoaaKkOU0k5NlHHxvmC6LZQtnwCkVIRf88Glu1FIS4pF0aG/hDFGkBkNMku71hUjZeBxcAQyJBEpYf7wvRZmpA2UkA6glPZlYizUpkJbqwkqRd5GRPETFiPTK8+c+CBcMdLfTbXjgn1Ji2f3/eEfHF/8OmSyj5pIfxH6420oUiVAjDUy3r7GsaWs12ST40u+YjEOAOQgMdQPFy9eQ1hK0VSYKuNipCQEXzyFk/llkPWs8N8nT+HygzRIUgpCL53CyZOncT1Kk7ej8XooWx3+PYoF1VJqLJKs7FFekqDJSkVqWjZyUu5g35xeqFunExb75iVVisOppRMxa5MPAm4cwKyObui08ByeJVzHzhldUdetN1bu24pJXn0xfGRfNG8yEJvC8krZnH2NEhGxezTavf897j2Px9WVXnDruBh+2QCQg4B1YzB1bzS06hBsG9EOH2x5ktdYU+H/3RgMmXcQgVEPcHTWW2jotQQX8kdW6RkuLh+FMf85h8jEAPzQ3w2tph5BnDYFd/bNQa+6ddBpsa+u8sQI7B7dDu9/fw/P469ipZcbOi72K7wYZwfi55FemLD1LmLCjmHB1E14WJClV02/AcEBNaolYNekAZi4NQRayOFQ3QkP1o1A/5kHEZv7DNd3zkDXum7ovXIftk7yQt/hI9G3eRMM3BRmspNKz0quF8GhBqol7MKkAROxNUQLyB1Q3ekB1o3oj5kHY5GbfBO7Z/WAW73OWHTwEL4aMRRjxr2P9g3aYdapm/jl4354d+xkDGrXAG99lV9mEuJOLcXEWZvgE3ADB2Z1hFunhTj3LB7+26aja1039Fz0E1Z90BGe7dtg7C9JQKo/vhszBPMOBiLqwVHMeqshvJZcKPXhlezAnzHSawK23o1B2LEFmLrpoV5ZmEhHUgkHNZkOCYn+2zC9a1249VyEn1Z9gI6e7dFm7C9IQjYCfx4JrwlbcTcmDMcWTMWmwgbymvuMAIca1ZCwaxIGTNwKXZVVh9ODdRjRfyYOxubi2fWdmNG1Ltx6r8S+rZPg1Xc4RvZtjiYDNyFMBCSjY4KJ/pJXVKn+32HMkHk4GBiFB0dn4a2GXlhyoYSHzcpIm3Yf+77fjfs5ACCVmnajXkffKW0MMEKKO4WlE2dhk08AbhyYhY5unbDwXBK0pfS5YuN0ylNcM9ovEksYW8wZl0x77f3JlJzH2P/pYIzwnoQBLZrg3c3hECEh5c4+zOlVF3U6LYauaRofQ3MMyzAtG9qS2qmUaHTsGfPTheJ94RXaQjE5AVg3Zir2RmuhDtmGEe0+wJYneSO/yTHG8CD5SrnWFSMi2vcHTGhTEw2H/4A9i3uhZdue6NG+Ady6LcGVtLzNSkuHyfZleixMjNiN0e3ex/f3niP+6kp4uXXE4tIaHQAgB4/3f4rBI7wxaUALNHl3M8J1HbP0dkwJ+HOqJ1p4dkfHJq5oMOB73MzUrTLeR58h3kT6k/QOq1PKePs0/rWPLaVek0sZXyAZiXEASM8uYvmoMfjPuUgkBvyA/m6tMPVIHKSylLE+wRo26vP4atAAzDr5AnaWtnCqEIafxvXHhxvDUbGyNQTBBhUzjmHZj8GQ2yhN1ENS4fWjhDr8WxnOByEiEmPXU3dLF5pwonCCohi3gbqrbGnwgSwiEilh3wjqOs8/b76nSJHfdiYLZQv68k4uacNXUwcLW2o1/QhFaIgo9Tca4aSijqvDSWvWviZo79OKtuXIY3Eg5RJR7vX51NiyOX15J5dIc5U+a9yc5vrr5gWJ8Xto2Q/BlEtEKScmk1uDGeSTP2Uo6zLNamBBVYfup3hRpLi9Q6iu1waKFImIcilodWdycB5NhzOJSIyjDd1VZDv4AGURkfb+CmpbzoMWB+YSUS5dn9+YLJt/SXdyiYiy6PLsplR77BFKyTtV5vHx5KLMm1v2iuk3ShtCy9pYkvtnV/LKV0NXPnMnq/Zf0yMtEWnDaXUHC7JtNZ2O6AqYfhvhRKqOqyncZAFTqfWiDVlGbSzd6bMreXPlNFfoM3crav/1I9LmtylVOWo334fitESkuU1fNFdShfZz6cxTXZnd+aI5qWpPpQtqIjFhH43oOo/88w4nRn5LnS2U1OLLO5QrRtK3XSzIqsl0OpOYQsHnTtG9pCQ6MdmNGszwKZhHmXV5FjWwqEpD98eTWJATA1mXaXbT2jT2SEHN0PHxLqTMmwNaYjr0j1MgpZR0iBT5bReysGpC088kUkrwOTp1L4kyLs+mprXHUmEyjtN4F2XenOo30GdISyHL2pCl+2dUWGWfkbtVe/pa11AofHUHsrBtRdOPRJDusCPISdWRVuc1FMMxocT+knKCJrs1oBmFnY0uz2pAFlWH0v54k7VTXO4NWthESYpaPWj85Mk0efJkmjC8G9VzGU6/ZuVvVHrajTKz75Q8BhghJtC+EV1pXmHjom87W5CyhW6f0uq12DhtrF8kBpseW8wZl0wxsz+lb3+HLEuda5xIP3lZkk37heSTKBJRBv0xuipZdl5LT0TStcUN3UllO5gOZFGJY2ixMiytnRor4yTRoC+U3hbKkk/N1c+ocfO5pEu2SPF7ltEPwbllGGOIKH07vWNZOKe65Gtd3rJiNHT1M3dSVu1GX516SrmURSGb3yUXuQV5LLpHuaWmo5T2ZXQsTKTgFW2pnMdi0hXddZrf2JKamxxvdRJ/8iJLm/a00CeRRCLK+GM0VbXsTGufiKW0Y13dWLj0p3XXk0hLmRS4eRC5KlXUakkA5ZbYR42lP8nEtaaU8fZ1jy1luCaXNr4YxjgkxtHeIXXJa0OkLo+5QbS6swM5jz5MmSWWsSkpdOjDqmTb60eKEomI1HRpphupmiykG7lERFp69O1E+uKqppSxspQ6LHrSN67YnWpTBBsblC/4hiUbFw+fQszD41izciVWrlyFPS+8sGjJKHhYAfLy5WEtt0FzLy/UsgBg7YZ61QWkpSaDzNrXBLkbvHf6Ys9UV0Rf3IZV2/2RImnwQi0BChe41YzE2v6dMHrFIQQrh2DhJw2hQDKObd6P6LrN0CJ/ylC5thgy0A3Pj+/FydQUnNx3CqoWrVBFAAAFGn12EUkxOzDQGoBgA5vCAoHczRs7ffdgqms0Lm5bhe3+KZA0L6CWAGSewsYdEWjSpSvs8ra3rOWKqvlfVb9S+l+RvDzKW8th09wLXroChlu96hDSUpFssoBfsV70COWtUU5mgVotW6GKHICFG+rWVADVW6KDiwKAAq41nSFLS0EKAdkXD+NUzEMcX7MSK1euxKo9L+C1aAlGeVgBghWsLATYtuqOtxzt0LC7F5riT2zeH426zVoUzKMs13YIBro9x/G9J5FqkJ58mac2YkdEE3TpWlAzqOVaFflVU2I6jEk+Vko6BFhZWUCwbYXubznCrmF3eDW1wJmNOxDRpAsKk1ELrgUN5A30mVLJUb68NeQ2zeHlVQu6w9ZDdSENqXkNpeiYUHJ/ST62Gfuj66JZYWdD2yED4fb8OPaeNFU7pskbj8C3P/2En376CZv3nMaBT5vq9YnS0/5KSuk7JY4BxmRfxOFTMXh4fA1WrlyJlav24IXXIiwZ5QGrV+lzxvqFY33TY4s545IJr70/laBc/bZo4ygAsESNGk5AagpSJAAQYGNTvnD6w0uMoaW2U2Nl7CAY9IVXaAtGKFzcUDNyLfp3Go0Vh4KhHLIQnzRUlGGMMVTatc5g8wICrKwsIXf0xIDuLlCgHBqMWYyJzQmBPj5IeF5KOkprX0bHQkfU994J3z1T4Rp9EdtWbYd/igTNC3Xp32iVq4+2bRwhALCsUQNOSEVKilSmdiyv2hrdWzpADms0HrcGMzvKEOh7Cc8zS+qjxtLvUPzr/7J43WNLGZQ6vhjEOEg5iX2nVGjRqoouj4pG+OxiEmJ2DIR1Gcq4ODu8PeZdVLyyF/vDREBKRkSaHHYP92K7TzagDcSB+3UxpLVFqWMlSqrDkpLwBpS9/mV689ikDDxLegFVg4GYPX8+5uf/mTcD/d0Vum2L7CuHXAaQRObta5IAxYu7WDfRG9tim2GcdzdUFfK2F2pg/C9n8dMQG/gsH4yW7p6YfjgKopiAqKfZkHJy9ObeKOBa0wVCTipSUp4h8bkaqckpxi9gkBWZxwVBgRd312Gi9zbENhsH725VkZ8EMToUj1IBucJUcb9C+g0PUWb68xF1/5brCthEPvO8Ur3oMdwfMggyFDmnTBAAIgASMp4l4YWqAQbO1msj8+dhRn933cWw6MEgJkThabaEnBy9mVQKV9R0EZCTmoJ0ox1LRHToI6RCDuNVU4Z0GChbOgwTH41QXQMx3iHfSJ8pXZH2DUAml0MGQsFh9ccEMamE/iIiIeopsqUcFC2WmnARcpCakl76BbNECjT9cBQ66D1PU2raX0kpfaeEMcAYKeMZkl6o0GDgbL22NR/zZvSHu8JInylLvRo0rZLGFrPGJaNef38qK7kgB0QtcvP+LdMvuzKPoWVsp8XK2KAv4OXbgjFCjfH45exPGGLjg+WDW8LdczoOR4llHGP0lHatK7ZDCRR10KieNZCrQXZ8yelIiSytfcFoYQqKF7i7biK8t8Wi2ThvdKsqGBlTSiEXIIcIbS5evh0Ljqhdyw4yUQtNaX3USPpfzesdW8qk1PGlaIwjJiXiuToVySnGTvySZZyn3FujMcT1FvbvCUJ2wA74ua3DF12TcWjbCSRcPYSYFkPQQFGGsdKQXh3mjwl/l5Jau2mCLZyrlkPowa34K6VwsRhxEn8GGJ3tW8icfU3JPIFPByxA0qD1WDrcA075hUy6gCXoaXWMWfcXQoOPYUHTKGycuhzntM6oV8cWYvBN3CqY9yMhR5MDoVoztKhWFTVcrJBw8gBOJxeuTzq5CXseFB+OM098igELkjBo/VIM93AquEAQAJlDJTgo1Ai6dRf50+3z10rSK6a/6IH0yKGQG7nwEhm5iLxGcgXkRoIWolc5qwBb56ooF3oQW4s2Epz8M8DofHK5cz3UsRURfPNW4TwzKQeaHAHVmrVAVaMtXQaHSg5QqINw665BgZIE6e9Kh8wBlRwUUAfdQvFkSG+mzwCQ6xqKwQWL8EpVJq9cQn8BnOvVga0YjJuFnQ1SjgY5QjU0a1H1FQeiQvLKVeFIj3H08DWDPvYyzOs7JY0Bxgi2zqhaLhQHt/6FwmoVEXHyT5hRrUWVMLaYNS4Z9fr702tR5jFU/tra6cu2BWPE6CA8rT4G6/4KRfCxBWgatRFTl5+D9mXHGHkp17piOxgg0vvQm4tstQSnBo1RvXrJ6XCuVEr7MioTJz4dgAVJg7B+6XB4lN7oSvfS7Tgbz56/QI3mLVHV7vX1UXPG21dqT6/1mgzIK9eAi1UCTh44jcIhPgknN+3Bg7SXLeM8Fh4YObwpQg9sxKodieg8piuGjfaCdOJHzNyeio7vV4fwSmNlYR1WLqV5v25GTydYWkKFdMTFJuPZtcsIyAYgiZAovzNYo+fY4aj1ZBOGdBmBJVsO4tDOlZgw9yqsaysgiSK0JOldnAgEgiRJkMza1zgpLRwRCZmIevAYmepo+BzzQ5yYjbS4u7gW8AAHv9mE29mApWsfLPhiEFzLqWApq4B+07zRJOUQvt32QPcktBSPsxej0WHax3hLVQG9xw5G9fhfMPm9Gfjx4O/Ys2YKxhxUwLOuHIAEUSJd0AMJaeERSMiMwoPHmVBH++CYXxzE7DTE3b2GEKt3MLJfJURs/RQLjkchBxpE3g5CopiCmMh4pMS/SvoNSyGP3AkuVSwQ438GtxMScf/PjdhxJQnaZ9F4/DwDakmEqCVIep2bSBe8mR7oUGq9yJ1cUMUiBv5nbiMh8T7+3LgDV5K0eBb9GM8z1IAoQTIYTAkAUWGvIyJAkiACsO45FsNrPcGmIV0wYskWHDy0EysnzMVV69q6AYUAba5eb6rQD9O8myDl0LfY9kD3BLoUfxYXoztg2sdvQVW4pR4Bju+MRL9KEdj66QIcj8oBNJG4HZQIMSUGkfFpkJWWDkNlSgcB2tzCIEJwxDsj+6FSxFZ8uuA4dMm4jaBEESkxkYhPk732PgPI4eRSBRYx/jhzOwGJ9//Exh1XkKR9hujHz5GhliCKWpCkNyjrGgqk/EosMiaU3F8q9JsG7yYpOPTtNuiKRUL82YuI7jANH7+lAqQknF08BMOWXdAbNI2QtMjREiCKBoGuBqFbF+NsjhtUKEPajTGr75Q8BgQZe2DGuifGDq+FJ5uGoMuIJdhy8BB2rpyAuVetUVtRep8zOk4b9IuSxsYbCd1efVwymiHz+5Moinn1ZHhsPXljVbEPP3pjmCRKIMpr/2K0yTHUsAwju5XSTlG8jPNOqNcXSm8LZcmnGH0Q32y6jWxYwrXPAnwxyBXlVJaQlWWMEUWIeW0FKO1aZ3BiA9KzSDzJf2gv9iiOBjSG98fdYFlKOqwcS77upWWj+FgopSE8IgGZUQ/wOFONaJ9j8IsTkZ0Wh7vXgvK3MpDXr4sFrLrlJfWB/HZM2WlIzYv81YFbsTv8bXwxvT0sSumjxdJvUinjbfZrHlvKcE0ubXwpGuMAqNAbYwdXR/wvk/HejB9x8Pc9WDNlDA4qPFE7s/QyNk6O+iM+RPuY7TikGoR3neRweGcMBtpcho+sF95xzAtRS62HEuoQ2bjxw2j0G7YEp/Ofmn+TDCdZExGRNoy2D3Mj+4puNHCNP2VkhtCxr3qTs1xBrgOX058P1ESURSG7p1K3uvaksrClGh0m0Y6gLKLUADq0oDs5yZXkNnQNnQh+QJe2TSNPO4HKtZhAmy/HmLmvEWIMHZ7WhqrY2FOdThNo44VdNKamHdXu9w35JV6hBZ51qHmPMTRn0RKaN2kSrfwr/8G1XHpydCH192hBXYZOpI/GjSTvtT6UUPCkQRaF7JlK3dwcyaaCC7UavoYuJYpElEkhx76i3s5yUrgOpOV/PiAx5jBNa1OFbOzrUKcJG+nCrjFU06429fvGj1KJSEy5ThvGtKOa9nbk2uod+mTReGpXqz0N/3w7+cVEv2L6jUu/vIx61rAlW5cWNOibC3RitgfV6zyaFu2+QL6/LqDuTnJSug2lNSeC6cGlbTTN046Eci1owubLFGPswGWql3S6vKwn1bC1JZcWg+ibCydotkc96jx6Ee32vUpHv+pNLnIF1X5/FR0LjKS7vy+l/jXkpKj9Lq384x49vnmQvuzjQnJFLXp35UkK0xBlheymqd3qkr3KgmxrdKBJO4IoS0yi2/vmU4+qcpK7eNHCfTfpeX6ac5/Q0YX9yaNFFxo68SMaN9Kb1voklFhWRCKlXN9AY9rVJHs7V2r1zie0aHw7qtV+OH2+3Y/iRBPpMDyMPpPpECnp9j6a36MqyeUu5LVwH93MT7yYQtc3jKF2Ne3JzrUVvfPJIhrfrha1H/45bfeLe/19hogo/TIt61mDbG1dqMWgb+jCidnkUa8zjV60my74/koLujuRXOlGQ9ecoOAHl2jbNE+yE8pRiwmb6fKjIONjgtH+opP75Cgt7O9BLboMpYkfjaOR3mvJJ7+zacNoQ+/KVKXfTxRh4llCbcR52rzoPXJTyUiwb07vjtc9qDh58nj6sHcjcqj0Ae1JIkoNOFRy2o02ch1z+k50dMljgFFZIbR7ajeqa68iC9sa1GHSDgrKKmOf0x+nV5+my8b6RUljY6oZ45LJDL16f3oRepy+9KpCcnlNGrj8CAUVebtPvlS69+tc6uokJ6XbEFp9PIhCfbfS9A52JLf2oMnb/Ck86Bh91duZ5ApXGrj8T3qQXsIYanitK6mdmhp7jFwfS7oexJcpn0SaKwvIs05z6jFmDi1aMo8mTVpJf+U/VWhyjCGiF6F0/EsvqiKXU82By+lIUHoZrnXG5NKdL5qRRdV2NHjCFPp05hT68N0h9PmxyMIHoEtKR4nXva106sweI2OhSDGHp1GbKjZkX6cTTdh4gXaNqUl2tfvRNyYaXeq9X2luV11/H7L6OAWF+tLW6R3ITm5NHpO3kX9sye0469FRWvZhZ2rdaQCNmTKNJn68lI6F6z1BarSPljCWm2JyvP2Z9u2Y//rHlpKuyRd8SxlfHhWLcYh0ZbFnajdyc7ShCi6taPiaS5RYhnGmRGIC7Ro1hH58nN+qNOQ3fwB95mvwJi+j9ZC3qqQ6FGNo+7tVyK6SE3VYEljkkG+CjPRvFTLGGGOMQYu7X7ZC+yPv4OqtpWhh9Ks5xv475FxegI9vTcCW6bUNV71WRqd/MMYYY4wBKGEaGWP/flLSVfx8vCI+HPVmA2pwUM0YY4yx4rRITk6HmJaEFGMvSmTsv4GUgsC7EvotmoUupb7y3nw8/YMxxhhjejQIO7sDv/o+QZpWATvXLhg8tjtqWxhuxxjTx0E1Y4wxxhhjZuLpH4wxxhhjjJmJg2rGGGOMMcbM9LcF1VJGBALDUgueIs6KvIN70XqvN32tJGREBCIs9f/TM8siUh4G4nGW4XJmnixE3rmHN9ZU/y2kDEQEhuHNdpmX65fqmEDcTyhh26xIBIQ+M/3LBFmRuHMvWu/VzG/ey41rasQE3kdJWWSMMfbf480H1WI0zq8Zgza1GmHIz6G6Nw9JT/DzqPbwnLgT8a/5giJGn8eaMW1Qq9EQ/Bxa+nuO/heIkeexZlRL1Go6HnsiX+0VpMw46cnPGNXeExN3xpsO3v6riYg+vwZj2tRCoyE/4011mZfpl1LqHeye2R1163bBsstGfnZASoT/1qnoXNcdvb7x170hrhgJT34ehfaeE7HzdQ8yppR5XJOQemc3Znavi7pdlsFYFhljjP33efNBtbw6uk2diM4VqfAVooIrJu3yw9XNo1HlNadAXr0bpk7sjIr/j56/lNfshk/GvgV7g5e0vhkSnt26ifD/J7G74DoJu/yuYvPoKn9DZymr11kHclTvNhUTO1fEm+wyL9MvBbsWGP7pALiZ2lZwQrsxM9CvjuEKfQJcJ+2C39XNGF2GQUZ6dgs3zS3QMo9rAuxaDMenA9zeaJkzxhj7e5U49L82cjvY2cqKLLKu2QLNqlsWWfa6yO3sYHC6/3lyaxtY/x21mXUN33+5Aw9Lvtn4P8QaNVs0wxtqqq/mtdeBHHZ2tnjTXeZl+qVgawPrkraV28CmxA0AWNdEi2bVUXrVZeHa919ix2so0LKPawJsbazfeJkzxhj7+5gIwyRkPA5GRIYEMSUM/r7XEJaqu4sjxd3F2VMncfLUJYSmSoAYi1unT+LkydPwf5xd5Cja5DBc9/HFnegXRZYDANQxCAgx/Eo9G7GBV3DR9xYiM/TXZCEq8AGSJCAnIRhXr4Ygsdj1T4vksOvw8b0DY6cDRKRE3MQlX3+EJpr6vlVC3N2zOHXyJE5dCoUue7dw+uRJnDztj8LslZ4ebdJDXLvwFy7eiEBe0RmQkBR8EadO5pddFp4V/PskTl1+gDRJQkroJZw6eRKnr0dBk7dndmwgrlz0xa3IjMLyk8nyLtAE7bP78PcPRnxZpnZmxyLwykX43opEkSKXUhF+zQeX7kYhLSkWcVmA9Mwf60Z/iDXXn+DumVO4EJQ3n1WbhIfXLuCvizcQYZDZ7KhAhD4ToY69h+uhyTBaFCghHVlRCHyQBAk5SAi+iqshibopRIakZNz3PYWTJ0/i5MlTuPwgDRKAjLArOJ1XnrqpvFokPbyGC39dxI2IVIP0ZCMqMBTPRDVi711HaLJurTomACFFvs8v4RhGys20l2/vpurAeDmXkE4A0CYj7LoPfO9Eo3iXKWlfCanh1+Bz6S6i0pIQW2ImS+uXJspAyG/PpsggK9ggB/FBV4y0DTViAkL0pmIYSbf0DP7rRuPDNdfx5O4ZnLoQhGcF25c0ZhhvK8XHNdPlKBRmgDHG2P+AYkG1GO2LHya0Qc2Gw/HDnsXo1bItevZojwZu3bDkShoEhxqolrALkwZMxNYQLSB3QHWnB1g3oj9mHozNu2hkI/DnkfCasBV3Y8JwbMFUbHqYdzmRUnBn3xz0qlsHnRb7FjxEJMWdwtKJs7DJJwA3DsxCR7dOWHjuGRKu78SMrnXh1nsl9m2dBK++wzGyb3M0GbgJYflXqOxA/DzSCxO23kVM2DEsmLoJ+acDAKT647sxQzDvYCCiHhzFrLcawmvJBb2LZz4BDjWqIWHXJAyYuBW67FWH04N1GNF/Jg7G5uJZqekREbF7NNq9/z3uPY/H1ZVecOu4GH5FP28AEGBto8b5rwZhwKyTeGFnCVunCgj7aRz6f7gR4RUrw1oQYFMxA8eW/YhguQ2UUhxOLZ2IWZt8EHDjAGZ1dEOnheeQVJAPQsKfU+HZwhPdOzaBa4MB+P5mZtHTFpAQd2opJs7aBJ+AGzgwqyPcOi3EuSQJyAnAujFTsTdaC3XINoxo9wG2PMlBamwSrOzLQ5I0yEpNRVq2FmLEboxu9z6+v/cc8VdXwsutIxb7ZUNK9Me26V1R160nFv20Ch909ET7NmPxS1IZ0/EsAdd3zkDXum7ovXIftk7yQt/hI9G3eRMM3BRWPEAUrFFRFYofx7+DActvw87ZGgKAcpXL4/q3a3BT4YByFIHdo9vh/e/v4Xn8Vaz0ckPHxX7IhoRE/22Y3rUu3Houwk+rPkBHz/ZoPWIZfp7TC3XrdMJi37yWKpo6BkyUm9GPAK/Y3qVidZDy9Jrxck4sIZ0AsgN/xkivCdh6NwZhxxZg6qaHhWVaUh6Rg4B1YzB1bzS06hBsG9EOH2x5YvyDTin90ngZJL3c3PWcx9j/6WCM8J6EAS2a4N3N4RAhIeXOPszpVRd1Oi2GruqMpzsnNRZJVvYoL0nQZKUiNS1blxeTY4bxttJmzE+4YDiulViOjDHG/ueQEZqrn5G7sip1++oUPc0lygrZTO+6yMnCYxHdyyXShiyjNpbu9NkVTd4OV+gzdytq//Uj0hJR1uXZ1LT2WDqSknfAzOM03kVJ9Wf7kYaISIyjDd1VZDv4AGUREYkJtG9EV5rnn3c8MZK+7WxByhZf0p1cLYWv7kAWtq1o+pEI0hBR6m8jyEnVkVaHa4koiy7Pbkq1xx6hwtONJxdlfZrtpyGiFDox2Y0azPChF3nrsy7PogYWVWno/ngS85YV0lLIsjZk6f4ZFWbvM3K3ak9fP9ISUSnp0d6nFW3LkcfiQMolotzr86mxZXP68k6u4YmIiCjl0IdU1bYX/RilS4n60kxyUzWhhTd022sffUsTv7hKGhIpYd8I6jrPX1eGJFLkt53JQtmCvryTqzuPhQv1X3edkrREmYGbaZCrklStllCAkVOLCftoRNd5VFjk31JnCyW1+PIOZV39jBo3n0v+L4iIRIrfs4x+CM4lIpFi13cnS5cJdEJNRKSl+yvaUjmPxRSoyyzNb2xJzb+8Q7l5x+xiYUVNpp+hxJRgOnfqHiUZFHhJ6cjVhtPqDhZk22o6HYnQEFEq/TbCiVQdV1O4tuhxdHIpcGlrsnIZS0dSdUvE2O00ZfZJyiAi7f0V1LacBy3WJZauz29Mls2/JF3ViBT5bReysGpC088kUkrwOTp1L4ly4zZQd5UtDT6QRVTKMTQmy82AWe3dsA6Ml3NisOl0UtZlmt20No0t7KB0fLwLKevPJj9NyXkkzVX6rHFzmqvLJInxe2jZD8FUPJel9MsSy4CI0rfTO5b2NPy3/F5rKJF+8rIkm/YLySdRJKIM+mN0VbLsvJaeiEREIsVt6E4q28F0IKvkdIux66m7pQtNyC/QUscM421FNBjXSixHIkrf/g5Z2g8nk1lkjDH2X6XYnWoAEKysYCl3hOeA7nBRAOUajMHiic1BgT7wKfX3nzJxauOg2uYAAAALy0lEQVQORDTpgq52eYssa8G1qrxwE8EGNuX1vvrMvojDp2Lw8PgarFy5EitX7cELr0VYMsoDVpCjfHlryG2aw8urFiwAWLvVQ3UhDanJBGSewsYdEWjSpSsKT+eKgtMlH8Pm/dGo26xFwdzKcm2HYKDbcxzfexKpecvKrpT0yN3gvdMXe6a6IvriNqza7o8USYMXauPlZvf2GLxb8Qr27g+DCAnJEWmQ2z3E3u0+yIYWgQfuo+6Q1rBANi4ePoWYh8exZuVKrFy5CnteeGHRklHwsMo7mLwqWndvCQc5YN14HNbM7AhZoC8uPS9+7uyLh3Eq5iGOr1mJlStXYtWeF/BatASjPKygcHFDzci16N9pNFYcCoZyyEJ80lBheAgAcrh574Tvnqlwjb6Ibau2wz9FguaFGlJeO7IQbNGq+1twtGuI7l5N4WDQ4kpKB+TlUd5aDpvmXvCqZQHAGm71qkNIS0Wy0Qe8FGg43hs9sg9j08EYSBDxcN81VB7cDeUByN28sdN3D6a6RuPitlXY7p8CSfMCuqoRYGVlAcG2Fbq/5Qi7ht3h1dQBChsb6DfVko5R5nIzp70bYaycHeubTmfmqY3YEdEEXQo7KGq5VkV+lykpj1C4wK1mJNb274TRKw4hWDkECz9piGK5LK1fllgGZVeuflu0cRQAWKJGDScgNQUpefVpY1O+cApJWdONsowZxtuKYDCulViOjDHG/ucYDaqLU6BOo3qwRi40GuMX9gJiNEIfpQJyRQkHl0GmN59QyniGpBcqNBg4G/Pnzy/4M29Gf7grUGRbAJDJ5ZCBIBEgRodCdzrjZxMTovA0W0JOjt4EY4UraroIyElNQforXOBKSg8gQPHiLtZN9Ma22GYY590NVYUSyqzcWxg9xBW39u9BUHYAdvi5Yd0XXZF8aBtOJFzFoZgWGNJAAUgZeJb0AqoGAzFbr4zmz5uB/u7GQgMBjrVrwU4mQptruE5CxrMkvFA1wMDZeseaPw8z+rvDosZ4/HL2Jwyx8cHywS3h7jkdh6OKTbgAAAiKF7i7biK8t8Wi2ThvdKsqFPkNkpJnjZacDkWRebMAIINcLgNIMvk7J0LVwfB+3wYXNm1FUNZ17A9vjBEtLPJWKvDi7jpM9N6G2Gbj4N2tKopWjZHUygzSUMIxhDKWmznt3ZRiKTeZThHRoY+QCjlMdJkS9gUg1MD4X87ipyE28Fk+GC3dPTH9cFSx6Til9cvSyuBVyAU5IGqR39xlBc8ZlD3dKPOYUazEi41rJZYjY4yx/znGr3gAAALpBZy52WpITg3Q2FkOyBWQG7nIE4mAzAGVHBRQB93C3fwn6/LXS8YjWMHWGVXLheLg1r+QUrBURMTJPxFgdLJmIZlDJTgo1Ai6dbfgQT4dgiQBcud6qGMrIvjmrcK5jFIONDkCqjVrgapGSkCukBsJ3Ahk7ApsKPMEPh2wAEmD1mPpcA845QcIJi+mFvAYORxNQw9g46odSOw8Bl2HjYaXdAI/ztyO1I7vo7oAQLCFc9VyCD24FX8VFhLEiJP400QhZT97jhc1mqNlZcNMCrB1ropyoQextejBcPLPAGiig/C0+his+ysUwccWoGnURkxdfs6gfAEgEyc+HYAFSYOwfulweJSeWQMlp8N4rkpTHr28x8AteDvWLtmHtM5DUTvv7mjmiU8xYEESBq1fiuEeTgV3KcuaWpRyDLGM5WZOey8r0+mUwaGSAxTqINwq3kEhlbiv7kNz0NPqGLPuL4QGH8OCplHYOHU5zhkcqrR++XeUQRFlTDfwamOGMSWWI2OMsf85pi8P0jNEPsl7yE2KxdGjAWjs/TG6WQJyJxdUsYiB/5nbSEi8jz837sCVJC2eRT/G8ywbvDOyHypFbMWnC44jKgfQRN5GUKKIlJhIxKdlA5AgSlQYZFv3xNjhtfBk0xB0GbEEWw4ews6VEzD3qjVqKySIohYk6QXxRLoAQJIgOL6Dkf0qIWLrp1hwPAo50CDydhASxRTERMYjTdkP07ybIOXQt9j2QPcEvxR/FhejO2Dax29BlXfIQnI4uVSBRYw/ztxOQOL9P7FxxxUkaZ8h+vFzZKhLTo+UFo6IhExEPXiMTHU0fI75IU7MRlrcXVwLMv7QoLz+CHzYPgbbD6kw6F0nyB3ewZiBNrjsI0OvdxzzKskaPccOR60nmzCkywgs2XIQh3auxIS5V2FdO+9yTdlIS82LEtSB2Lo7HG9/MR3t827U6rPuORbDaz3BpiFdMGLJFhw8tBMrJ8zFVevakEUfxDebbiMblnDtswBfDHJFOZUlZBBgaakC0uMQm/wM13z9cD8iAZlRD/A4U41on2PwixORnRaHu9eCAAAELXJLCJJKSodCEiFqCZLeBxxdUUsw8fkMAKBoMR6T3krC3kOEd/pVzFsqIS08AgmZUXjwOBPqaB8c84uDmJ2GuLvXoKsaArS5RYN5SYREukCwtGMEPDBVbgbMaO8wrIPLAcguVs4lpfMGErqNRL9KEdj66QIc13VQ3A5KhJgSg8j4FMSb3PcagtKicfCbTbidDVi69sGCLwbBtZwKlgaZLLVfykoqAwCiCBGUl2cj8toAGX6y12sbkiiB8j4oQDSdbsHSEiqkIy42Gc+uXUZAmcYMI22lyLhWUh3o2psoinn1qts36exiDBm2DBf0Pl8yxhj7L2I4yZqIKPfOF9TMoiq1GzyBpnw6k6Z8+C4N+fwYRRY8HJZOl5f1pBq2tuTSYhB9c+EEzfaoR51HL6LdN54TiSl0fcMYalfTnuxcW9E7nyyi8e1qUfvhn9N2v3AKOfYV9XaWk8J1IC3/84HukFkhtHtqN6prryIL2xrUYdIOCsoiSg04RAu6O5Fc6UZD15yg4AeXaNs0T7ITylGLCZvpcoxIYsp12jCmHdW0tyPXVu/QJ4vGU7ta7Wn459vJL04kyn1CRxf2J48WXWjoxI9o3EhvWuuTYOQhxTzpl2lZzxpka+tCLQZ9QxdOzCaPep1p9KLddMH315LTEx1Nh6e1oSo29lSn0wTaeGEXjalpR7X7fUN+eQ/PFSdSwq5RNOTHx5RfxBq/+TTgM1/Kf3RKJ4tCdk+lbnXtSWVhSzU6TKIdQboH6CjrER1d9iF1bt2JBoyZQtMmfkxLj4UXPGhlTFbIbprarS7ZqyzItkYHmrQjiLKISHNlAXnWaU49xsyhRUvm0aRJK+mveF1pacO20zA3e6roNpDW+KdRzOFp1KaKDdnX6UQTNl6gXWNqkl3tfvT1KR/aN78HVZXLycVrIe27+dxkeRtPRyoFHFpA3Z3kpHQbSmtOBNODS9tomqcdCeVa0ITNlynG1AGJKOX38dRvyb0iD9CJMYdpWpsqZGNfhzpN2EgXdo2hmna1qd83V+jx7X00v0dVkstdyGvhPrr5XCTKDKFjX/UmZ7mCXAcupz8fqEs4hh8lllBuxZjR3vXrYPXpy0bLuaR0ppJIKdc30Jh2NcnezpVavfMJLRrfjmq1H06fb/ejmOgS9tVcoQWedah5jzE0Z9ESmjdpEq38y9gDv1R6vzRRBvQilI5/6UVV5HKqOXA5HQlKNzhyKt37dS51dZKT0m0IrT4eRKG+W2l6BzuSW3vQ5G3+FB50jL7q7UxyhSsNXP4nPUgvId3aMNo+zI3sK7rRwDX+lEFUwpghUpKxtkKZxca1kuogPvQ4felVheTymjRw+REKStdS2IbeVLlKP/opwuhTuIwxxv7lZETF3+mlvfslWrU/gneu3sLSFq84wZExxhhjjLH/J0xP/wDwcj8YyxhjjDHG2P9PRoNqbXIy0sU0JKUYvkWMMcYYY4wxZqjY9A9N2Fns+NUXT9K0UNi5osvgsehe28iTbowxxhhjjDHAWFDNGGOMMcYYezlGp38wxhhjjDHGyo6DasYYY4wxxszEQTVjjDHGGGNm4qCaMcYYY4wxM3FQzRhjjDHGmJk4qGaMMcYYY8xMHFQzxhhjjDFmJg6qGWOMMcYYMxMH1YwxxhhjjJmJg2rGGGOMMcbM9H+TJBjdoHG6hwAAAABJRU5ErkJggg==;" parent="1" vertex="1">
          <mxGeometry x="1313.88" y="-1410" width="592.24" height="412.2" as="geometry" />
        </mxCell>
        <mxCell id="ZbQH3meJTSKO4DH48z0q-15" value="Pagina de web" style="whiteSpace=wrap;html=1;align=center;fillColor=#f0a30a;strokeColor=#BD7000;fontColor=#000000;fontStyle=0" parent="1" vertex="1">
          <mxGeometry x="1679" y="-870" width="100" height="40" as="geometry" />
        </mxCell>
        <mxCell id="b2keQUZmHNxBtzfLSA8D-91" value="Categoria" style="shape=rhombus;perimeter=rhombusPerimeter;whiteSpace=wrap;html=1;align=center;fillColor=#76608a;fontColor=#ffffff;strokeColor=#432D57;rotation=0;" parent="1" vertex="1">
          <mxGeometry x="1849" y="-870" width="90" height="40" as="geometry" />
        </mxCell>
        <mxCell id="b2keQUZmHNxBtzfLSA8D-92" value="" style="endArrow=none;html=1;rounded=0;exitX=0;exitY=0.5;exitDx=0;exitDy=0;" parent="1" source="b2keQUZmHNxBtzfLSA8D-91" edge="1">
          <mxGeometry relative="1" as="geometry">
            <mxPoint x="1826" y="-880" as="sourcePoint" />
            <mxPoint x="1779" y="-850" as="targetPoint" />
          </mxGeometry>
        </mxCell>
        <mxCell id="b2keQUZmHNxBtzfLSA8D-93" value="(0,M)" style="resizable=0;html=1;whiteSpace=wrap;align=right;verticalAlign=bottom;" parent="b2keQUZmHNxBtzfLSA8D-92" connectable="0" vertex="1">
          <mxGeometry x="1" relative="1" as="geometry">
            <mxPoint x="34" as="offset" />
          </mxGeometry>
        </mxCell>
        <mxCell id="b2keQUZmHNxBtzfLSA8D-94" value="" style="endArrow=none;html=1;rounded=0;exitX=1;exitY=0.5;exitDx=0;exitDy=0;entryX=1;entryY=1;entryDx=0;entryDy=0;" parent="1" source="b2keQUZmHNxBtzfLSA8D-91" target="ZbQH3meJTSKO4DH48z0q-15" edge="1">
          <mxGeometry relative="1" as="geometry">
            <mxPoint x="1826" y="-880" as="sourcePoint" />
            <mxPoint x="1999" y="-850" as="targetPoint" />
            <Array as="points">
              <mxPoint x="1939" y="-810" />
              <mxPoint x="1779" y="-810" />
            </Array>
          </mxGeometry>
        </mxCell>
        <mxCell id="b2keQUZmHNxBtzfLSA8D-95" value="(1,N)" style="resizable=0;html=1;whiteSpace=wrap;align=right;verticalAlign=bottom;" parent="b2keQUZmHNxBtzfLSA8D-94" connectable="0" vertex="1">
          <mxGeometry x="1" relative="1" as="geometry">
            <mxPoint as="offset" />
          </mxGeometry>
        </mxCell>
        <mxCell id="b2keQUZmHNxBtzfLSA8D-108" value="Tiene" style="shape=rhombus;perimeter=rhombusPerimeter;whiteSpace=wrap;html=1;align=center;fillColor=#76608a;fontColor=#ffffff;strokeColor=#432D57;" parent="1" vertex="1">
          <mxGeometry x="1529" y="-870" width="90" height="40" as="geometry" />
        </mxCell>
        <mxCell id="b2keQUZmHNxBtzfLSA8D-109" value="" style="endArrow=none;html=1;rounded=0;exitX=0;exitY=0.5;exitDx=0;exitDy=0;" parent="1" source="b2keQUZmHNxBtzfLSA8D-108" edge="1">
          <mxGeometry relative="1" as="geometry">
            <mxPoint x="1506" y="-880" as="sourcePoint" />
            <mxPoint x="1459" y="-850" as="targetPoint" />
          </mxGeometry>
        </mxCell>
        <mxCell id="b2keQUZmHNxBtzfLSA8D-110" value="(1,N)" style="resizable=0;html=1;whiteSpace=wrap;align=right;verticalAlign=bottom;" parent="b2keQUZmHNxBtzfLSA8D-109" connectable="0" vertex="1">
          <mxGeometry x="1" relative="1" as="geometry">
            <mxPoint x="34" as="offset" />
          </mxGeometry>
        </mxCell>
        <mxCell id="b2keQUZmHNxBtzfLSA8D-111" value="" style="endArrow=none;html=1;rounded=0;exitX=1;exitY=0.5;exitDx=0;exitDy=0;" parent="1" source="b2keQUZmHNxBtzfLSA8D-108" edge="1">
          <mxGeometry relative="1" as="geometry">
            <mxPoint x="1506" y="-880" as="sourcePoint" />
            <mxPoint x="1679" y="-850" as="targetPoint" />
          </mxGeometry>
        </mxCell>
        <mxCell id="b2keQUZmHNxBtzfLSA8D-112" value="(1,1)" style="resizable=0;html=1;whiteSpace=wrap;align=right;verticalAlign=bottom;" parent="b2keQUZmHNxBtzfLSA8D-111" connectable="0" vertex="1">
          <mxGeometry x="1" relative="1" as="geometry">
            <mxPoint as="offset" />
          </mxGeometry>
        </mxCell>
        <mxCell id="b2keQUZmHNxBtzfLSA8D-114" value="" style="endArrow=none;html=1;rounded=0;exitX=0.5;exitY=0;exitDx=0;exitDy=0;" parent="1" source="b2keQUZmHNxBtzfLSA8D-108" target="b2keQUZmHNxBtzfLSA8D-115" edge="1">
          <mxGeometry relative="1" as="geometry">
            <mxPoint x="1550" y="-955" as="sourcePoint" />
            <mxPoint x="1610" y="-955" as="targetPoint" />
          </mxGeometry>
        </mxCell>
        <mxCell id="b2keQUZmHNxBtzfLSA8D-115" value="Fecha_consulta" style="ellipse;whiteSpace=wrap;html=1;align=center;" parent="1" vertex="1">
          <mxGeometry x="1480" y="-990" width="100" height="30" as="geometry" />
        </mxCell>
        <mxCell id="b2keQUZmHNxBtzfLSA8D-116" value="" style="endArrow=none;html=1;rounded=0;exitX=0.5;exitY=0;exitDx=0;exitDy=0;" parent="1" source="b2keQUZmHNxBtzfLSA8D-108" target="b2keQUZmHNxBtzfLSA8D-117" edge="1">
          <mxGeometry relative="1" as="geometry">
            <mxPoint x="1630" y="-945" as="sourcePoint" />
            <mxPoint x="1690" y="-945" as="targetPoint" />
          </mxGeometry>
        </mxCell>
        <mxCell id="b2keQUZmHNxBtzfLSA8D-117" value="Permanencia" style="whiteSpace=wrap;html=1;align=center;shape=ellipse;perimeter=ellipsePerimeter;" parent="1" vertex="1">
          <mxGeometry x="1580" y="-980" width="60" height="30" as="geometry" />
        </mxCell>
        <mxCell id="b2keQUZmHNxBtzfLSA8D-118" value="Visita" style="shape=ext;margin=3;double=1;whiteSpace=wrap;html=1;align=center;fillColor=#f0a30a;fontColor=#000000;strokeColor=#BD7000;" parent="1" vertex="1">
          <mxGeometry x="1360" y="-870" width="100" height="40" as="geometry" />
        </mxCell>
        <mxCell id="baWU0ZmsULmaMkqhIieA-2" value="" style="endArrow=none;html=1;rounded=0;exitX=1;exitY=0;exitDx=0;exitDy=0;" edge="1" target="baWU0ZmsULmaMkqhIieA-3" parent="1" source="ZbQH3meJTSKO4DH48z0q-15">
          <mxGeometry relative="1" as="geometry">
            <mxPoint x="1750" y="-915" as="sourcePoint" />
            <mxPoint x="1810" y="-915" as="targetPoint" />
          </mxGeometry>
        </mxCell>
        <mxCell id="baWU0ZmsULmaMkqhIieA-3" value="&lt;u&gt;URL&lt;/u&gt;" style="ellipse;whiteSpace=wrap;html=1;align=center;" vertex="1" parent="1">
          <mxGeometry x="1799" y="-970" width="50" height="30" as="geometry" />
        </mxCell>
        <mxCell id="baWU0ZmsULmaMkqhIieA-4" value="" style="endArrow=none;html=1;rounded=0;exitX=1;exitY=0;exitDx=0;exitDy=0;" edge="1" target="baWU0ZmsULmaMkqhIieA-5" parent="1" source="ZbQH3meJTSKO4DH48z0q-15">
          <mxGeometry relative="1" as="geometry">
            <mxPoint x="1714" y="-945" as="sourcePoint" />
            <mxPoint x="1774" y="-945" as="targetPoint" />
          </mxGeometry>
        </mxCell>
        <mxCell id="baWU0ZmsULmaMkqhIieA-5" value="Nombre" style="ellipse;whiteSpace=wrap;html=1;align=center;" vertex="1" parent="1">
          <mxGeometry x="1749" y="-970" width="50" height="30" as="geometry" />
        </mxCell>
        <mxCell id="baWU0ZmsULmaMkqhIieA-6" value="" style="endArrow=none;html=1;rounded=0;exitX=0.75;exitY=0;exitDx=0;exitDy=0;" edge="1" target="baWU0ZmsULmaMkqhIieA-7" parent="1" source="ZbQH3meJTSKO4DH48z0q-15">
          <mxGeometry relative="1" as="geometry">
            <mxPoint x="1760" y="-880" as="sourcePoint" />
            <mxPoint x="1729" y="-935" as="targetPoint" />
          </mxGeometry>
        </mxCell>
        <mxCell id="baWU0ZmsULmaMkqhIieA-7" value="DescripciÃ³n" style="ellipse;whiteSpace=wrap;html=1;align=center;" vertex="1" parent="1">
          <mxGeometry x="1685" y="-980" width="64" height="30" as="geometry" />
        </mxCell>
        <mxCell id="baWU0ZmsULmaMkqhIieA-9" value="" style="endArrow=none;html=1;rounded=0;exitX=0.5;exitY=0;exitDx=0;exitDy=0;" edge="1" target="baWU0ZmsULmaMkqhIieA-10" parent="1" source="ZbQH3meJTSKO4DH48z0q-15">
          <mxGeometry relative="1" as="geometry">
            <mxPoint x="1720" y="-880" as="sourcePoint" />
            <mxPoint x="1679" y="-925" as="targetPoint" />
          </mxGeometry>
        </mxCell>
        <mxCell id="baWU0ZmsULmaMkqhIieA-10" value="ValoraciÃ³n" style="ellipse;whiteSpace=wrap;html=1;align=center;" vertex="1" parent="1">
          <mxGeometry x="1640" y="-950" width="64" height="30" as="geometry" />
        </mxCell>
        <mxCell id="baWU0ZmsULmaMkqhIieA-11" value="" style="endArrow=none;html=1;rounded=0;exitX=1;exitY=0;exitDx=0;exitDy=0;" edge="1" target="baWU0ZmsULmaMkqhIieA-12" parent="1" source="b2keQUZmHNxBtzfLSA8D-91">
          <mxGeometry relative="1" as="geometry">
            <mxPoint x="2110" y="-870.0000000000002" as="sourcePoint" />
            <mxPoint x="2078" y="-945" as="targetPoint" />
          </mxGeometry>
        </mxCell>
        <mxCell id="baWU0ZmsULmaMkqhIieA-12" value="Nombre" style="ellipse;whiteSpace=wrap;html=1;align=center;" vertex="1" parent="1">
          <mxGeometry x="1990" y="-940" width="50" height="30" as="geometry" />
        </mxCell>
        <mxCell id="baWU0ZmsULmaMkqhIieA-13" value="" style="endArrow=none;html=1;rounded=0;exitX=0.5;exitY=0;exitDx=0;exitDy=0;" edge="1" target="baWU0ZmsULmaMkqhIieA-14" parent="1" source="b2keQUZmHNxBtzfLSA8D-91">
          <mxGeometry relative="1" as="geometry">
            <mxPoint x="1880" y="-955" as="sourcePoint" />
            <mxPoint x="1940" y="-955" as="targetPoint" />
          </mxGeometry>
        </mxCell>
        <mxCell id="baWU0ZmsULmaMkqhIieA-14" value="Numero_Webs" style="ellipse;whiteSpace=wrap;html=1;align=center;" vertex="1" parent="1">
          <mxGeometry x="1915" y="-970" width="95" height="30" as="geometry" />
        </mxCell>
        <mxCell id="baWU0ZmsULmaMkqhIieA-15" value="" style="endArrow=none;html=1;rounded=0;exitX=0.75;exitY=0;exitDx=0;exitDy=0;" edge="1" target="baWU0ZmsULmaMkqhIieA-16" parent="1" source="b2keQUZmHNxBtzfLSA8D-118">
          <mxGeometry relative="1" as="geometry">
            <mxPoint x="1380" y="-935" as="sourcePoint" />
            <mxPoint x="1440" y="-935" as="targetPoint" />
          </mxGeometry>
        </mxCell>
        <mxCell id="baWU0ZmsULmaMkqhIieA-16" value="&lt;u&gt;NÃºmero_Orden&lt;/u&gt;" style="ellipse;whiteSpace=wrap;html=1;align=center;" vertex="1" parent="1">
          <mxGeometry x="1370" y="-950" width="95" height="30" as="geometry" />
        </mxCell>
      </root>
    </mxGraphModel>
  </diagram>
</mxfile>
